<?xml version="1.0" encoding="utf-8" standalone="no"?>
<!DOCTYPE svg PUBLIC "-//W3C//DTD SVG 1.1//EN"
  "http://www.w3.org/Graphics/SVG/1.1/DTD/svg11.dtd">
<!-- Created with matplotlib (https://matplotlib.org/) -->
<svg height="565.92pt" version="1.1" viewBox="0 0 504 565.92" width="504pt" xmlns="http://www.w3.org/2000/svg" xmlns:xlink="http://www.w3.org/1999/xlink">
 <defs>
  <style type="text/css">
*{stroke-linecap:butt;stroke-linejoin:round;}
  </style>
 </defs>
 <g id="figure_1">
  <g id="patch_1">
   <path d="M 0 565.92 
L 504 565.92 
L 504 0 
L 0 0 
z
" style="fill:#ffffff;"/>
  </g>
  <g id="axes_1">
   <g id="patch_2">
    <path d="M 60.48 342.8532 
L 478.8 342.8532 
L 478.8 206.0892 
L 60.48 206.0892 
z
" style="fill:#ffffff;"/>
   </g>
   <g id="matplotlib.axis_1">
    <g id="xtick_1">
     <g id="line2d_1">
      <path clip-path="url(#p1895d10a12)" d="M 60.48 342.8532 
L 60.48 206.0892 
" style="fill:none;stroke:#cccccc;stroke-dasharray:0.5,0.825;stroke-dashoffset:0;stroke-width:0.5;"/>
     </g>
     <g id="line2d_2">
      <defs>
       <path d="M 0 0 
L 0 6 
" id="m579932e2ef" style="stroke:#262626;stroke-width:1.25;"/>
      </defs>
      <g>
       <use style="fill:#262626;stroke:#262626;stroke-width:1.25;" x="60.48" xlink:href="#m579932e2ef" y="342.8532"/>
      </g>
     </g>
     <g id="text_1">
      <!-- 0.200 -->
      <defs>
       <path d="M 4.15625 35.296875 
Q 4.15625 48 6.765625 55.734375 
Q 9.375 63.484375 14.515625 67.671875 
Q 19.671875 71.875 27.484375 71.875 
Q 33.25 71.875 37.59375 69.546875 
Q 41.9375 67.234375 44.765625 62.859375 
Q 47.609375 58.5 49.21875 52.21875 
Q 50.828125 45.953125 50.828125 35.296875 
Q 50.828125 22.703125 48.234375 14.96875 
Q 45.65625 7.234375 40.5 3 
Q 35.359375 -1.21875 27.484375 -1.21875 
Q 17.140625 -1.21875 11.234375 6.203125 
Q 4.15625 15.140625 4.15625 35.296875 
z
M 13.1875 35.296875 
Q 13.1875 17.671875 17.3125 11.828125 
Q 21.4375 6 27.484375 6 
Q 33.546875 6 37.671875 11.859375 
Q 41.796875 17.71875 41.796875 35.296875 
Q 41.796875 52.984375 37.671875 58.78125 
Q 33.546875 64.59375 27.390625 64.59375 
Q 21.34375 64.59375 17.71875 59.46875 
Q 13.1875 52.9375 13.1875 35.296875 
z
" id="ArialMT-48"/>
       <path d="M 9.078125 0 
L 9.078125 10.015625 
L 19.09375 10.015625 
L 19.09375 0 
z
" id="ArialMT-46"/>
       <path d="M 50.34375 8.453125 
L 50.34375 0 
L 3.03125 0 
Q 2.9375 3.171875 4.046875 6.109375 
Q 5.859375 10.9375 9.828125 15.625 
Q 13.8125 20.3125 21.34375 26.46875 
Q 33.015625 36.03125 37.109375 41.625 
Q 41.21875 47.21875 41.21875 52.203125 
Q 41.21875 57.421875 37.46875 61 
Q 33.734375 64.59375 27.734375 64.59375 
Q 21.390625 64.59375 17.578125 60.78125 
Q 13.765625 56.984375 13.71875 50.25 
L 4.6875 51.171875 
Q 5.609375 61.28125 11.65625 66.578125 
Q 17.71875 71.875 27.9375 71.875 
Q 38.234375 71.875 44.234375 66.15625 
Q 50.25 60.453125 50.25 52 
Q 50.25 47.703125 48.484375 43.546875 
Q 46.734375 39.40625 42.65625 34.8125 
Q 38.578125 30.21875 29.109375 22.21875 
Q 21.1875 15.578125 18.9375 13.203125 
Q 16.703125 10.84375 15.234375 8.453125 
z
" id="ArialMT-50"/>
      </defs>
      <g style="fill:#262626;" transform="translate(46.717969 360.226794)scale(0.11 -0.11)">
       <use xlink:href="#ArialMT-48"/>
       <use x="55.615234" xlink:href="#ArialMT-46"/>
       <use x="83.398438" xlink:href="#ArialMT-50"/>
       <use x="139.013672" xlink:href="#ArialMT-48"/>
       <use x="194.628906" xlink:href="#ArialMT-48"/>
      </g>
     </g>
    </g>
    <g id="xtick_2">
     <g id="line2d_3">
      <path clip-path="url(#p1895d10a12)" d="M 112.77 342.8532 
L 112.77 206.0892 
" style="fill:none;stroke:#cccccc;stroke-dasharray:0.5,0.825;stroke-dashoffset:0;stroke-width:0.5;"/>
     </g>
     <g id="line2d_4">
      <g>
       <use style="fill:#262626;stroke:#262626;stroke-width:1.25;" x="112.77" xlink:href="#m579932e2ef" y="342.8532"/>
      </g>
     </g>
     <g id="text_2">
      <!-- 0.225 -->
      <defs>
       <path d="M 4.15625 18.75 
L 13.375 19.53125 
Q 14.40625 12.796875 18.140625 9.390625 
Q 21.875 6 27.15625 6 
Q 33.5 6 37.890625 10.78125 
Q 42.28125 15.578125 42.28125 23.484375 
Q 42.28125 31 38.0625 35.34375 
Q 33.84375 39.703125 27 39.703125 
Q 22.75 39.703125 19.328125 37.765625 
Q 15.921875 35.84375 13.96875 32.765625 
L 5.71875 33.84375 
L 12.640625 70.609375 
L 48.25 70.609375 
L 48.25 62.203125 
L 19.671875 62.203125 
L 15.828125 42.96875 
Q 22.265625 47.46875 29.34375 47.46875 
Q 38.71875 47.46875 45.15625 40.96875 
Q 51.609375 34.46875 51.609375 24.265625 
Q 51.609375 14.546875 45.953125 7.46875 
Q 39.0625 -1.21875 27.15625 -1.21875 
Q 17.390625 -1.21875 11.203125 4.25 
Q 5.03125 9.71875 4.15625 18.75 
z
" id="ArialMT-53"/>
      </defs>
      <g style="fill:#262626;" transform="translate(99.007969 360.226794)scale(0.11 -0.11)">
       <use xlink:href="#ArialMT-48"/>
       <use x="55.615234" xlink:href="#ArialMT-46"/>
       <use x="83.398438" xlink:href="#ArialMT-50"/>
       <use x="139.013672" xlink:href="#ArialMT-50"/>
       <use x="194.628906" xlink:href="#ArialMT-53"/>
      </g>
     </g>
    </g>
    <g id="xtick_3">
     <g id="line2d_5">
      <path clip-path="url(#p1895d10a12)" d="M 165.06 342.8532 
L 165.06 206.0892 
" style="fill:none;stroke:#cccccc;stroke-dasharray:0.5,0.825;stroke-dashoffset:0;stroke-width:0.5;"/>
     </g>
     <g id="line2d_6">
      <g>
       <use style="fill:#262626;stroke:#262626;stroke-width:1.25;" x="165.06" xlink:href="#m579932e2ef" y="342.8532"/>
      </g>
     </g>
     <g id="text_3">
      <!-- 0.250 -->
      <g style="fill:#262626;" transform="translate(151.297969 360.226794)scale(0.11 -0.11)">
       <use xlink:href="#ArialMT-48"/>
       <use x="55.615234" xlink:href="#ArialMT-46"/>
       <use x="83.398438" xlink:href="#ArialMT-50"/>
       <use x="139.013672" xlink:href="#ArialMT-53"/>
       <use x="194.628906" xlink:href="#ArialMT-48"/>
      </g>
     </g>
    </g>
    <g id="xtick_4">
     <g id="line2d_7">
      <path clip-path="url(#p1895d10a12)" d="M 217.35 342.8532 
L 217.35 206.0892 
" style="fill:none;stroke:#cccccc;stroke-dasharray:0.5,0.825;stroke-dashoffset:0;stroke-width:0.5;"/>
     </g>
     <g id="line2d_8">
      <g>
       <use style="fill:#262626;stroke:#262626;stroke-width:1.25;" x="217.35" xlink:href="#m579932e2ef" y="342.8532"/>
      </g>
     </g>
     <g id="text_4">
      <!-- 0.275 -->
      <defs>
       <path d="M 4.734375 62.203125 
L 4.734375 70.65625 
L 51.078125 70.65625 
L 51.078125 63.8125 
Q 44.234375 56.546875 37.515625 44.484375 
Q 30.8125 32.421875 27.15625 19.671875 
Q 24.515625 10.6875 23.78125 0 
L 14.75 0 
Q 14.890625 8.453125 18.0625 20.40625 
Q 21.234375 32.375 27.171875 43.484375 
Q 33.109375 54.59375 39.796875 62.203125 
z
" id="ArialMT-55"/>
      </defs>
      <g style="fill:#262626;" transform="translate(203.587969 360.226794)scale(0.11 -0.11)">
       <use xlink:href="#ArialMT-48"/>
       <use x="55.615234" xlink:href="#ArialMT-46"/>
       <use x="83.398438" xlink:href="#ArialMT-50"/>
       <use x="139.013672" xlink:href="#ArialMT-55"/>
       <use x="194.628906" xlink:href="#ArialMT-53"/>
      </g>
     </g>
    </g>
    <g id="xtick_5">
     <g id="line2d_9">
      <path clip-path="url(#p1895d10a12)" d="M 269.64 342.8532 
L 269.64 206.0892 
" style="fill:none;stroke:#cccccc;stroke-dasharray:0.5,0.825;stroke-dashoffset:0;stroke-width:0.5;"/>
     </g>
     <g id="line2d_10">
      <g>
       <use style="fill:#262626;stroke:#262626;stroke-width:1.25;" x="269.64" xlink:href="#m579932e2ef" y="342.8532"/>
      </g>
     </g>
     <g id="text_5">
      <!-- 0.300 -->
      <defs>
       <path d="M 4.203125 18.890625 
L 12.984375 20.0625 
Q 14.5 12.59375 18.140625 9.296875 
Q 21.78125 6 27 6 
Q 33.203125 6 37.46875 10.296875 
Q 41.75 14.59375 41.75 20.953125 
Q 41.75 27 37.796875 30.921875 
Q 33.84375 34.859375 27.734375 34.859375 
Q 25.25 34.859375 21.53125 33.890625 
L 22.515625 41.609375 
Q 23.390625 41.5 23.921875 41.5 
Q 29.546875 41.5 34.03125 44.421875 
Q 38.53125 47.359375 38.53125 53.46875 
Q 38.53125 58.296875 35.25 61.46875 
Q 31.984375 64.65625 26.8125 64.65625 
Q 21.6875 64.65625 18.265625 61.421875 
Q 14.84375 58.203125 13.875 51.765625 
L 5.078125 53.328125 
Q 6.6875 62.15625 12.390625 67.015625 
Q 18.109375 71.875 26.609375 71.875 
Q 32.46875 71.875 37.390625 69.359375 
Q 42.328125 66.84375 44.9375 62.5 
Q 47.5625 58.15625 47.5625 53.265625 
Q 47.5625 48.640625 45.0625 44.828125 
Q 42.578125 41.015625 37.703125 38.765625 
Q 44.046875 37.3125 47.5625 32.6875 
Q 51.078125 28.078125 51.078125 21.140625 
Q 51.078125 11.765625 44.234375 5.25 
Q 37.40625 -1.265625 26.953125 -1.265625 
Q 17.53125 -1.265625 11.296875 4.34375 
Q 5.078125 9.96875 4.203125 18.890625 
z
" id="ArialMT-51"/>
      </defs>
      <g style="fill:#262626;" transform="translate(255.877969 360.226794)scale(0.11 -0.11)">
       <use xlink:href="#ArialMT-48"/>
       <use x="55.615234" xlink:href="#ArialMT-46"/>
       <use x="83.398438" xlink:href="#ArialMT-51"/>
       <use x="139.013672" xlink:href="#ArialMT-48"/>
       <use x="194.628906" xlink:href="#ArialMT-48"/>
      </g>
     </g>
    </g>
    <g id="xtick_6">
     <g id="line2d_11">
      <path clip-path="url(#p1895d10a12)" d="M 321.93 342.8532 
L 321.93 206.0892 
" style="fill:none;stroke:#cccccc;stroke-dasharray:0.5,0.825;stroke-dashoffset:0;stroke-width:0.5;"/>
     </g>
     <g id="line2d_12">
      <g>
       <use style="fill:#262626;stroke:#262626;stroke-width:1.25;" x="321.93" xlink:href="#m579932e2ef" y="342.8532"/>
      </g>
     </g>
     <g id="text_6">
      <!-- 0.325 -->
      <g style="fill:#262626;" transform="translate(308.167969 360.226794)scale(0.11 -0.11)">
       <use xlink:href="#ArialMT-48"/>
       <use x="55.615234" xlink:href="#ArialMT-46"/>
       <use x="83.398438" xlink:href="#ArialMT-51"/>
       <use x="139.013672" xlink:href="#ArialMT-50"/>
       <use x="194.628906" xlink:href="#ArialMT-53"/>
      </g>
     </g>
    </g>
    <g id="xtick_7">
     <g id="line2d_13">
      <path clip-path="url(#p1895d10a12)" d="M 374.22 342.8532 
L 374.22 206.0892 
" style="fill:none;stroke:#cccccc;stroke-dasharray:0.5,0.825;stroke-dashoffset:0;stroke-width:0.5;"/>
     </g>
     <g id="line2d_14">
      <g>
       <use style="fill:#262626;stroke:#262626;stroke-width:1.25;" x="374.22" xlink:href="#m579932e2ef" y="342.8532"/>
      </g>
     </g>
     <g id="text_7">
      <!-- 0.350 -->
      <g style="fill:#262626;" transform="translate(360.457969 360.226794)scale(0.11 -0.11)">
       <use xlink:href="#ArialMT-48"/>
       <use x="55.615234" xlink:href="#ArialMT-46"/>
       <use x="83.398438" xlink:href="#ArialMT-51"/>
       <use x="139.013672" xlink:href="#ArialMT-53"/>
       <use x="194.628906" xlink:href="#ArialMT-48"/>
      </g>
     </g>
    </g>
    <g id="xtick_8">
     <g id="line2d_15">
      <path clip-path="url(#p1895d10a12)" d="M 426.51 342.8532 
L 426.51 206.0892 
" style="fill:none;stroke:#cccccc;stroke-dasharray:0.5,0.825;stroke-dashoffset:0;stroke-width:0.5;"/>
     </g>
     <g id="line2d_16">
      <g>
       <use style="fill:#262626;stroke:#262626;stroke-width:1.25;" x="426.51" xlink:href="#m579932e2ef" y="342.8532"/>
      </g>
     </g>
     <g id="text_8">
      <!-- 0.375 -->
      <g style="fill:#262626;" transform="translate(412.747969 360.226794)scale(0.11 -0.11)">
       <use xlink:href="#ArialMT-48"/>
       <use x="55.615234" xlink:href="#ArialMT-46"/>
       <use x="83.398438" xlink:href="#ArialMT-51"/>
       <use x="139.013672" xlink:href="#ArialMT-55"/>
       <use x="194.628906" xlink:href="#ArialMT-53"/>
      </g>
     </g>
    </g>
    <g id="xtick_9">
     <g id="line2d_17">
      <path clip-path="url(#p1895d10a12)" d="M 478.8 342.8532 
L 478.8 206.0892 
" style="fill:none;stroke:#cccccc;stroke-dasharray:0.5,0.825;stroke-dashoffset:0;stroke-width:0.5;"/>
     </g>
     <g id="line2d_18">
      <g>
       <use style="fill:#262626;stroke:#262626;stroke-width:1.25;" x="478.8" xlink:href="#m579932e2ef" y="342.8532"/>
      </g>
     </g>
     <g id="text_9">
      <!-- 0.400 -->
      <defs>
       <path d="M 32.328125 0 
L 32.328125 17.140625 
L 1.265625 17.140625 
L 1.265625 25.203125 
L 33.9375 71.578125 
L 41.109375 71.578125 
L 41.109375 25.203125 
L 50.78125 25.203125 
L 50.78125 17.140625 
L 41.109375 17.140625 
L 41.109375 0 
z
M 32.328125 25.203125 
L 32.328125 57.46875 
L 9.90625 25.203125 
z
" id="ArialMT-52"/>
      </defs>
      <g style="fill:#262626;" transform="translate(465.037969 360.226794)scale(0.11 -0.11)">
       <use xlink:href="#ArialMT-48"/>
       <use x="55.615234" xlink:href="#ArialMT-46"/>
       <use x="83.398438" xlink:href="#ArialMT-52"/>
       <use x="139.013672" xlink:href="#ArialMT-48"/>
       <use x="194.628906" xlink:href="#ArialMT-48"/>
      </g>
     </g>
    </g>
    <g id="text_10">
     <!-- Maj. Radius [m] -->
     <defs>
      <path d="M 7.421875 0 
L 7.421875 71.578125 
L 21.6875 71.578125 
L 38.625 20.90625 
Q 40.96875 13.8125 42.046875 10.296875 
Q 43.265625 14.203125 45.84375 21.78125 
L 62.984375 71.578125 
L 75.734375 71.578125 
L 75.734375 0 
L 66.609375 0 
L 66.609375 59.90625 
L 45.796875 0 
L 37.25 0 
L 16.546875 60.9375 
L 16.546875 0 
z
" id="ArialMT-77"/>
      <path d="M 40.4375 6.390625 
Q 35.546875 2.25 31.03125 0.53125 
Q 26.515625 -1.171875 21.34375 -1.171875 
Q 12.796875 -1.171875 8.203125 3 
Q 3.609375 7.171875 3.609375 13.671875 
Q 3.609375 17.484375 5.34375 20.625 
Q 7.078125 23.78125 9.890625 25.6875 
Q 12.703125 27.59375 16.21875 28.5625 
Q 18.796875 29.25 24.03125 29.890625 
Q 34.671875 31.15625 39.703125 32.90625 
Q 39.75 34.71875 39.75 35.203125 
Q 39.75 40.578125 37.25 42.78125 
Q 33.890625 45.75 27.25 45.75 
Q 21.046875 45.75 18.09375 43.578125 
Q 15.140625 41.40625 13.71875 35.890625 
L 5.125 37.0625 
Q 6.296875 42.578125 8.984375 45.96875 
Q 11.671875 49.359375 16.75 51.1875 
Q 21.828125 53.03125 28.515625 53.03125 
Q 35.15625 53.03125 39.296875 51.46875 
Q 43.453125 49.90625 45.40625 47.53125 
Q 47.359375 45.171875 48.140625 41.546875 
Q 48.578125 39.3125 48.578125 33.453125 
L 48.578125 21.734375 
Q 48.578125 9.46875 49.140625 6.21875 
Q 49.703125 2.984375 51.375 0 
L 42.1875 0 
Q 40.828125 2.734375 40.4375 6.390625 
z
M 39.703125 26.03125 
Q 34.90625 24.078125 25.34375 22.703125 
Q 19.921875 21.921875 17.671875 20.9375 
Q 15.4375 19.96875 14.203125 18.09375 
Q 12.984375 16.21875 12.984375 13.921875 
Q 12.984375 10.40625 15.640625 8.0625 
Q 18.3125 5.71875 23.4375 5.71875 
Q 28.515625 5.71875 32.46875 7.9375 
Q 36.421875 10.15625 38.28125 14.015625 
Q 39.703125 17 39.703125 22.796875 
z
" id="ArialMT-97"/>
      <path d="M 6.546875 61.375 
L 6.546875 71.578125 
L 15.328125 71.578125 
L 15.328125 61.375 
z
M -4.59375 -20.125 
L -2.9375 -12.640625 
Q -0.296875 -13.328125 1.21875 -13.328125 
Q 3.90625 -13.328125 5.21875 -11.546875 
Q 6.546875 -9.765625 6.546875 -2.640625 
L 6.546875 51.859375 
L 15.328125 51.859375 
L 15.328125 -2.828125 
Q 15.328125 -12.40625 12.84375 -16.15625 
Q 9.671875 -21.046875 2.296875 -21.046875 
Q -1.265625 -21.046875 -4.59375 -20.125 
z
" id="ArialMT-106"/>
      <path id="ArialMT-32"/>
      <path d="M 7.859375 0 
L 7.859375 71.578125 
L 39.59375 71.578125 
Q 49.171875 71.578125 54.140625 69.640625 
Q 59.125 67.71875 62.109375 62.828125 
Q 65.09375 57.953125 65.09375 52.046875 
Q 65.09375 44.4375 60.15625 39.203125 
Q 55.21875 33.984375 44.921875 32.5625 
Q 48.6875 30.765625 50.640625 29 
Q 54.78125 25.203125 58.5 19.484375 
L 70.953125 0 
L 59.03125 0 
L 49.5625 14.890625 
Q 45.40625 21.34375 42.71875 24.75 
Q 40.046875 28.171875 37.921875 29.53125 
Q 35.796875 30.90625 33.59375 31.453125 
Q 31.984375 31.78125 28.328125 31.78125 
L 17.328125 31.78125 
L 17.328125 0 
z
M 17.328125 39.984375 
L 37.703125 39.984375 
Q 44.1875 39.984375 47.84375 41.328125 
Q 51.515625 42.671875 53.421875 45.625 
Q 55.328125 48.578125 55.328125 52.046875 
Q 55.328125 57.125 51.640625 60.390625 
Q 47.953125 63.671875 39.984375 63.671875 
L 17.328125 63.671875 
z
" id="ArialMT-82"/>
      <path d="M 40.234375 0 
L 40.234375 6.546875 
Q 35.296875 -1.171875 25.734375 -1.171875 
Q 19.53125 -1.171875 14.328125 2.25 
Q 9.125 5.671875 6.265625 11.796875 
Q 3.421875 17.921875 3.421875 25.875 
Q 3.421875 33.640625 6 39.96875 
Q 8.59375 46.296875 13.765625 49.65625 
Q 18.953125 53.03125 25.34375 53.03125 
Q 30.03125 53.03125 33.6875 51.046875 
Q 37.359375 49.078125 39.65625 45.90625 
L 39.65625 71.578125 
L 48.390625 71.578125 
L 48.390625 0 
z
M 12.453125 25.875 
Q 12.453125 15.921875 16.640625 10.984375 
Q 20.84375 6.0625 26.5625 6.0625 
Q 32.328125 6.0625 36.34375 10.765625 
Q 40.375 15.484375 40.375 25.140625 
Q 40.375 35.796875 36.265625 40.765625 
Q 32.171875 45.75 26.171875 45.75 
Q 20.3125 45.75 16.375 40.96875 
Q 12.453125 36.1875 12.453125 25.875 
z
" id="ArialMT-100"/>
      <path d="M 6.640625 61.46875 
L 6.640625 71.578125 
L 15.4375 71.578125 
L 15.4375 61.46875 
z
M 6.640625 0 
L 6.640625 51.859375 
L 15.4375 51.859375 
L 15.4375 0 
z
" id="ArialMT-105"/>
      <path d="M 40.578125 0 
L 40.578125 7.625 
Q 34.515625 -1.171875 24.125 -1.171875 
Q 19.53125 -1.171875 15.546875 0.578125 
Q 11.578125 2.34375 9.640625 5 
Q 7.71875 7.671875 6.9375 11.53125 
Q 6.390625 14.109375 6.390625 19.734375 
L 6.390625 51.859375 
L 15.1875 51.859375 
L 15.1875 23.09375 
Q 15.1875 16.21875 15.71875 13.8125 
Q 16.546875 10.359375 19.234375 8.375 
Q 21.921875 6.390625 25.875 6.390625 
Q 29.828125 6.390625 33.296875 8.421875 
Q 36.765625 10.453125 38.203125 13.9375 
Q 39.65625 17.4375 39.65625 24.078125 
L 39.65625 51.859375 
L 48.4375 51.859375 
L 48.4375 0 
z
" id="ArialMT-117"/>
      <path d="M 3.078125 15.484375 
L 11.765625 16.84375 
Q 12.5 11.625 15.84375 8.84375 
Q 19.1875 6.0625 25.203125 6.0625 
Q 31.25 6.0625 34.171875 8.515625 
Q 37.109375 10.984375 37.109375 14.3125 
Q 37.109375 17.28125 34.515625 19 
Q 32.71875 20.171875 25.53125 21.96875 
Q 15.875 24.421875 12.140625 26.203125 
Q 8.40625 27.984375 6.46875 31.125 
Q 4.546875 34.28125 4.546875 38.09375 
Q 4.546875 41.546875 6.125 44.5 
Q 7.71875 47.46875 10.453125 49.421875 
Q 12.5 50.921875 16.03125 51.96875 
Q 19.578125 53.03125 23.640625 53.03125 
Q 29.734375 53.03125 34.34375 51.265625 
Q 38.96875 49.515625 41.15625 46.5 
Q 43.359375 43.5 44.1875 38.484375 
L 35.59375 37.3125 
Q 35.015625 41.3125 32.203125 43.546875 
Q 29.390625 45.796875 24.265625 45.796875 
Q 18.21875 45.796875 15.625 43.796875 
Q 13.03125 41.796875 13.03125 39.109375 
Q 13.03125 37.40625 14.109375 36.03125 
Q 15.1875 34.625 17.484375 33.6875 
Q 18.796875 33.203125 25.25 31.453125 
Q 34.578125 28.953125 38.25 27.359375 
Q 41.9375 25.78125 44.03125 22.75 
Q 46.140625 19.734375 46.140625 15.234375 
Q 46.140625 10.84375 43.578125 6.953125 
Q 41.015625 3.078125 36.171875 0.953125 
Q 31.34375 -1.171875 25.25 -1.171875 
Q 15.140625 -1.171875 9.84375 3.03125 
Q 4.546875 7.234375 3.078125 15.484375 
z
" id="ArialMT-115"/>
      <path d="M 6.78125 -19.875 
L 6.78125 71.578125 
L 26.171875 71.578125 
L 26.171875 64.3125 
L 15.578125 64.3125 
L 15.578125 -12.59375 
L 26.171875 -12.59375 
L 26.171875 -19.875 
z
" id="ArialMT-91"/>
      <path d="M 6.59375 0 
L 6.59375 51.859375 
L 14.453125 51.859375 
L 14.453125 44.578125 
Q 16.890625 48.390625 20.9375 50.703125 
Q 25 53.03125 30.171875 53.03125 
Q 35.9375 53.03125 39.625 50.640625 
Q 43.3125 48.25 44.828125 43.953125 
Q 50.984375 53.03125 60.84375 53.03125 
Q 68.5625 53.03125 72.703125 48.75 
Q 76.859375 44.484375 76.859375 35.59375 
L 76.859375 0 
L 68.109375 0 
L 68.109375 32.671875 
Q 68.109375 37.9375 67.25 40.25 
Q 66.40625 42.578125 64.15625 43.984375 
Q 61.921875 45.40625 58.890625 45.40625 
Q 53.421875 45.40625 49.796875 41.765625 
Q 46.1875 38.140625 46.1875 30.125 
L 46.1875 0 
L 37.40625 0 
L 37.40625 33.6875 
Q 37.40625 39.546875 35.25 42.46875 
Q 33.109375 45.40625 28.21875 45.40625 
Q 24.515625 45.40625 21.359375 43.453125 
Q 18.21875 41.5 16.796875 37.734375 
Q 15.375 33.984375 15.375 26.90625 
L 15.375 0 
z
" id="ArialMT-109"/>
      <path d="M 21.296875 -19.875 
L 1.90625 -19.875 
L 1.90625 -12.59375 
L 12.5 -12.59375 
L 12.5 64.3125 
L 1.90625 64.3125 
L 1.90625 71.578125 
L 21.296875 71.578125 
z
" id="ArialMT-93"/>
     </defs>
     <g style="fill:#262626;" transform="translate(227.964375 375.002419)scale(0.12 -0.12)">
      <use xlink:href="#ArialMT-77"/>
      <use x="83.300781" xlink:href="#ArialMT-97"/>
      <use x="138.916016" xlink:href="#ArialMT-106"/>
      <use x="161.132812" xlink:href="#ArialMT-46"/>
      <use x="188.916016" xlink:href="#ArialMT-32"/>
      <use x="216.699219" xlink:href="#ArialMT-82"/>
      <use x="288.916016" xlink:href="#ArialMT-97"/>
      <use x="344.53125" xlink:href="#ArialMT-100"/>
      <use x="400.146484" xlink:href="#ArialMT-105"/>
      <use x="422.363281" xlink:href="#ArialMT-117"/>
      <use x="477.978516" xlink:href="#ArialMT-115"/>
      <use x="527.978516" xlink:href="#ArialMT-32"/>
      <use x="555.761719" xlink:href="#ArialMT-91"/>
      <use x="583.544922" xlink:href="#ArialMT-109"/>
      <use x="666.845703" xlink:href="#ArialMT-93"/>
     </g>
    </g>
   </g>
   <g id="matplotlib.axis_2">
    <g id="ytick_1">
     <g id="line2d_19">
      <path clip-path="url(#p1895d10a12)" d="M 60.48 342.8532 
L 478.8 342.8532 
" style="fill:none;stroke:#cccccc;stroke-dasharray:0.5,0.825;stroke-dashoffset:0;stroke-width:0.5;"/>
     </g>
     <g id="line2d_20">
      <defs>
       <path d="M 0 0 
L -6 0 
" id="mcb9a48fbce" style="stroke:#262626;stroke-width:1.25;"/>
      </defs>
      <g>
       <use style="fill:#262626;stroke:#262626;stroke-width:1.25;" x="60.48" xlink:href="#mcb9a48fbce" y="342.8532"/>
      </g>
     </g>
     <g id="text_11">
      <!-- 0 -->
      <g style="fill:#262626;" transform="translate(44.862969 346.789997)scale(0.11 -0.11)">
       <use xlink:href="#ArialMT-48"/>
      </g>
     </g>
    </g>
    <g id="ytick_2">
     <g id="line2d_21">
      <path clip-path="url(#p1895d10a12)" d="M 60.48 318.395038 
L 478.8 318.395038 
" style="fill:none;stroke:#cccccc;stroke-dasharray:0.5,0.825;stroke-dashoffset:0;stroke-width:0.5;"/>
     </g>
     <g id="line2d_22">
      <g>
       <use style="fill:#262626;stroke:#262626;stroke-width:1.25;" x="60.48" xlink:href="#mcb9a48fbce" y="318.395038"/>
      </g>
     </g>
     <g id="text_12">
      <!-- 2 -->
      <g style="fill:#262626;" transform="translate(44.862969 322.331835)scale(0.11 -0.11)">
       <use xlink:href="#ArialMT-50"/>
      </g>
     </g>
    </g>
    <g id="ytick_3">
     <g id="line2d_23">
      <path clip-path="url(#p1895d10a12)" d="M 60.48 293.936876 
L 478.8 293.936876 
" style="fill:none;stroke:#cccccc;stroke-dasharray:0.5,0.825;stroke-dashoffset:0;stroke-width:0.5;"/>
     </g>
     <g id="line2d_24">
      <g>
       <use style="fill:#262626;stroke:#262626;stroke-width:1.25;" x="60.48" xlink:href="#mcb9a48fbce" y="293.936876"/>
      </g>
     </g>
     <g id="text_13">
      <!-- 4 -->
      <g style="fill:#262626;" transform="translate(44.862969 297.873672)scale(0.11 -0.11)">
       <use xlink:href="#ArialMT-52"/>
      </g>
     </g>
    </g>
    <g id="ytick_4">
     <g id="line2d_25">
      <path clip-path="url(#p1895d10a12)" d="M 60.48 269.478713 
L 478.8 269.478713 
" style="fill:none;stroke:#cccccc;stroke-dasharray:0.5,0.825;stroke-dashoffset:0;stroke-width:0.5;"/>
     </g>
     <g id="line2d_26">
      <g>
       <use style="fill:#262626;stroke:#262626;stroke-width:1.25;" x="60.48" xlink:href="#mcb9a48fbce" y="269.478713"/>
      </g>
     </g>
     <g id="text_14">
      <!-- 6 -->
      <defs>
       <path d="M 49.75 54.046875 
L 41.015625 53.375 
Q 39.84375 58.546875 37.703125 60.890625 
Q 34.125 64.65625 28.90625 64.65625 
Q 24.703125 64.65625 21.53125 62.3125 
Q 17.390625 59.28125 14.984375 53.46875 
Q 12.59375 47.65625 12.5 36.921875 
Q 15.671875 41.75 20.265625 44.09375 
Q 24.859375 46.4375 29.890625 46.4375 
Q 38.671875 46.4375 44.84375 39.96875 
Q 51.03125 33.5 51.03125 23.25 
Q 51.03125 16.5 48.125 10.71875 
Q 45.21875 4.9375 40.140625 1.859375 
Q 35.0625 -1.21875 28.609375 -1.21875 
Q 17.625 -1.21875 10.6875 6.859375 
Q 3.765625 14.9375 3.765625 33.5 
Q 3.765625 54.25 11.421875 63.671875 
Q 18.109375 71.875 29.4375 71.875 
Q 37.890625 71.875 43.28125 67.140625 
Q 48.6875 62.40625 49.75 54.046875 
z
M 13.875 23.1875 
Q 13.875 18.65625 15.796875 14.5 
Q 17.71875 10.359375 21.1875 8.171875 
Q 24.65625 6 28.46875 6 
Q 34.03125 6 38.03125 10.484375 
Q 42.046875 14.984375 42.046875 22.703125 
Q 42.046875 30.125 38.078125 34.390625 
Q 34.125 38.671875 28.125 38.671875 
Q 22.171875 38.671875 18.015625 34.390625 
Q 13.875 30.125 13.875 23.1875 
z
" id="ArialMT-54"/>
      </defs>
      <g style="fill:#262626;" transform="translate(44.862969 273.41551)scale(0.11 -0.11)">
       <use xlink:href="#ArialMT-54"/>
      </g>
     </g>
    </g>
    <g id="ytick_5">
     <g id="line2d_27">
      <path clip-path="url(#p1895d10a12)" d="M 60.48 245.020551 
L 478.8 245.020551 
" style="fill:none;stroke:#cccccc;stroke-dasharray:0.5,0.825;stroke-dashoffset:0;stroke-width:0.5;"/>
     </g>
     <g id="line2d_28">
      <g>
       <use style="fill:#262626;stroke:#262626;stroke-width:1.25;" x="60.48" xlink:href="#mcb9a48fbce" y="245.020551"/>
      </g>
     </g>
     <g id="text_15">
      <!-- 8 -->
      <defs>
       <path d="M 17.671875 38.8125 
Q 12.203125 40.828125 9.5625 44.53125 
Q 6.9375 48.25 6.9375 53.421875 
Q 6.9375 61.234375 12.546875 66.546875 
Q 18.171875 71.875 27.484375 71.875 
Q 36.859375 71.875 42.578125 66.421875 
Q 48.296875 60.984375 48.296875 53.171875 
Q 48.296875 48.1875 45.671875 44.5 
Q 43.0625 40.828125 37.75 38.8125 
Q 44.34375 36.671875 47.78125 31.875 
Q 51.21875 27.09375 51.21875 20.453125 
Q 51.21875 11.28125 44.71875 5.03125 
Q 38.234375 -1.21875 27.640625 -1.21875 
Q 17.046875 -1.21875 10.546875 5.046875 
Q 4.046875 11.328125 4.046875 20.703125 
Q 4.046875 27.6875 7.59375 32.390625 
Q 11.140625 37.109375 17.671875 38.8125 
z
M 15.921875 53.71875 
Q 15.921875 48.640625 19.1875 45.40625 
Q 22.46875 42.1875 27.6875 42.1875 
Q 32.765625 42.1875 36.015625 45.375 
Q 39.265625 48.578125 39.265625 53.21875 
Q 39.265625 58.0625 35.90625 61.359375 
Q 32.5625 64.65625 27.59375 64.65625 
Q 22.5625 64.65625 19.234375 61.421875 
Q 15.921875 58.203125 15.921875 53.71875 
z
M 13.09375 20.65625 
Q 13.09375 16.890625 14.875 13.375 
Q 16.65625 9.859375 20.171875 7.921875 
Q 23.6875 6 27.734375 6 
Q 34.03125 6 38.125 10.046875 
Q 42.234375 14.109375 42.234375 20.359375 
Q 42.234375 26.703125 38.015625 30.859375 
Q 33.796875 35.015625 27.4375 35.015625 
Q 21.234375 35.015625 17.15625 30.90625 
Q 13.09375 26.8125 13.09375 20.65625 
z
" id="ArialMT-56"/>
      </defs>
      <g style="fill:#262626;" transform="translate(44.862969 248.957348)scale(0.11 -0.11)">
       <use xlink:href="#ArialMT-56"/>
      </g>
     </g>
    </g>
    <g id="ytick_6">
     <g id="line2d_29">
      <path clip-path="url(#p1895d10a12)" d="M 60.48 220.562389 
L 478.8 220.562389 
" style="fill:none;stroke:#cccccc;stroke-dasharray:0.5,0.825;stroke-dashoffset:0;stroke-width:0.5;"/>
     </g>
     <g id="line2d_30">
      <g>
       <use style="fill:#262626;stroke:#262626;stroke-width:1.25;" x="60.48" xlink:href="#mcb9a48fbce" y="220.562389"/>
      </g>
     </g>
     <g id="text_16">
      <!-- 10 -->
      <defs>
       <path d="M 37.25 0 
L 28.46875 0 
L 28.46875 56 
Q 25.296875 52.984375 20.140625 49.953125 
Q 14.984375 46.921875 10.890625 45.40625 
L 10.890625 53.90625 
Q 18.265625 57.375 23.78125 62.296875 
Q 29.296875 67.234375 31.59375 71.875 
L 37.25 71.875 
z
" id="ArialMT-49"/>
      </defs>
      <g style="fill:#262626;" transform="translate(38.745937 224.499186)scale(0.11 -0.11)">
       <use xlink:href="#ArialMT-49"/>
       <use x="55.615234" xlink:href="#ArialMT-48"/>
      </g>
     </g>
    </g>
    <g id="text_17">
     <!-- Temp. [eV] -->
     <defs>
      <path d="M 25.921875 0 
L 25.921875 63.140625 
L 2.34375 63.140625 
L 2.34375 71.578125 
L 59.078125 71.578125 
L 59.078125 63.140625 
L 35.40625 63.140625 
L 35.40625 0 
z
" id="ArialMT-84"/>
      <path d="M 42.09375 16.703125 
L 51.171875 15.578125 
Q 49.03125 7.625 43.21875 3.21875 
Q 37.40625 -1.171875 28.375 -1.171875 
Q 17 -1.171875 10.328125 5.828125 
Q 3.65625 12.84375 3.65625 25.484375 
Q 3.65625 38.578125 10.390625 45.796875 
Q 17.140625 53.03125 27.875 53.03125 
Q 38.28125 53.03125 44.875 45.953125 
Q 51.46875 38.875 51.46875 26.03125 
Q 51.46875 25.25 51.421875 23.6875 
L 12.75 23.6875 
Q 13.234375 15.140625 17.578125 10.59375 
Q 21.921875 6.0625 28.421875 6.0625 
Q 33.25 6.0625 36.671875 8.59375 
Q 40.09375 11.140625 42.09375 16.703125 
z
M 13.234375 30.90625 
L 42.1875 30.90625 
Q 41.609375 37.453125 38.875 40.71875 
Q 34.671875 45.796875 27.984375 45.796875 
Q 21.921875 45.796875 17.796875 41.75 
Q 13.671875 37.703125 13.234375 30.90625 
z
" id="ArialMT-101"/>
      <path d="M 6.59375 -19.875 
L 6.59375 51.859375 
L 14.59375 51.859375 
L 14.59375 45.125 
Q 17.4375 49.078125 21 51.046875 
Q 24.5625 53.03125 29.640625 53.03125 
Q 36.28125 53.03125 41.359375 49.609375 
Q 46.4375 46.1875 49.015625 39.953125 
Q 51.609375 33.734375 51.609375 26.3125 
Q 51.609375 18.359375 48.75 11.984375 
Q 45.90625 5.609375 40.453125 2.21875 
Q 35.015625 -1.171875 29 -1.171875 
Q 24.609375 -1.171875 21.109375 0.6875 
Q 17.625 2.546875 15.375 5.375 
L 15.375 -19.875 
z
M 14.546875 25.640625 
Q 14.546875 15.625 18.59375 10.84375 
Q 22.65625 6.0625 28.421875 6.0625 
Q 34.28125 6.0625 38.453125 11.015625 
Q 42.625 15.96875 42.625 26.375 
Q 42.625 36.28125 38.546875 41.203125 
Q 34.46875 46.140625 28.8125 46.140625 
Q 23.1875 46.140625 18.859375 40.890625 
Q 14.546875 35.640625 14.546875 25.640625 
z
" id="ArialMT-112"/>
      <path d="M 28.171875 0 
L 0.4375 71.578125 
L 10.6875 71.578125 
L 29.296875 19.578125 
Q 31.546875 13.328125 33.0625 7.859375 
Q 34.71875 13.71875 36.921875 19.578125 
L 56.25 71.578125 
L 65.921875 71.578125 
L 37.890625 0 
z
" id="ArialMT-86"/>
     </defs>
     <g style="fill:#4c72b0;" transform="translate(32.360937 303.802763)rotate(-90)scale(0.12 -0.12)">
      <use xlink:href="#ArialMT-84"/>
      <use x="60.912109" xlink:href="#ArialMT-101"/>
      <use x="116.527344" xlink:href="#ArialMT-109"/>
      <use x="199.828125" xlink:href="#ArialMT-112"/>
      <use x="255.443359" xlink:href="#ArialMT-46"/>
      <use x="283.226562" xlink:href="#ArialMT-32"/>
      <use x="311.009766" xlink:href="#ArialMT-91"/>
      <use x="338.792969" xlink:href="#ArialMT-101"/>
      <use x="394.408203" xlink:href="#ArialMT-86"/>
      <use x="461.107422" xlink:href="#ArialMT-93"/>
     </g>
    </g>
   </g>
   <g id="LineCollection_1">
    <path clip-path="url(#p1895d10a12)" d="M 370.043562 272.136319 
L 370.043562 255.037083 
" style="fill:none;stroke:#4c72b0;"/>
   </g>
   <g id="LineCollection_2">
    <path clip-path="url(#p1895d10a12)" d="M 370.043562 307.375701 
L 370.043562 278.804274 
" style="fill:none;stroke:#4c72b0;"/>
   </g>
   <g id="LineCollection_3"/>
   <g id="LineCollection_4"/>
   <g id="LineCollection_5">
    <path clip-path="url(#p1895d10a12)" d="M 170.055973 231.169642 
L 170.055973 210.912367 
" style="fill:none;stroke:#4c72b0;"/>
   </g>
   <g id="LineCollection_6">
    <path clip-path="url(#p1895d10a12)" d="M 170.055973 240.163779 
L 170.055973 218.828436 
" style="fill:none;stroke:#4c72b0;"/>
   </g>
   <g id="line2d_31">
    <defs>
     <path d="M 3 0 
L -3 -0 
" id="md8efba1be3" style="stroke:#4c72b0;"/>
    </defs>
    <g clip-path="url(#p1895d10a12)">
     <use style="fill:#4c72b0;stroke:#4c72b0;" x="370.043562" xlink:href="#md8efba1be3" y="272.136319"/>
    </g>
   </g>
   <g id="line2d_32">
    <g clip-path="url(#p1895d10a12)">
     <use style="fill:#4c72b0;stroke:#4c72b0;" x="370.043562" xlink:href="#md8efba1be3" y="255.037083"/>
    </g>
   </g>
   <g id="line2d_33">
    <g clip-path="url(#p1895d10a12)">
     <use style="fill:#4c72b0;stroke:#4c72b0;" x="370.043562" xlink:href="#md8efba1be3" y="307.375701"/>
    </g>
   </g>
   <g id="line2d_34">
    <g clip-path="url(#p1895d10a12)">
     <use style="fill:#4c72b0;stroke:#4c72b0;" x="370.043562" xlink:href="#md8efba1be3" y="278.804274"/>
    </g>
   </g>
   <g id="line2d_35">
    <g clip-path="url(#p1895d10a12)"/>
   </g>
   <g id="line2d_36">
    <g clip-path="url(#p1895d10a12)"/>
   </g>
   <g id="line2d_37">
    <g clip-path="url(#p1895d10a12)"/>
   </g>
   <g id="line2d_38">
    <g clip-path="url(#p1895d10a12)"/>
   </g>
   <g id="line2d_39">
    <g clip-path="url(#p1895d10a12)">
     <use style="fill:#4c72b0;stroke:#4c72b0;" x="170.055973" xlink:href="#md8efba1be3" y="231.169642"/>
    </g>
   </g>
   <g id="line2d_40">
    <g clip-path="url(#p1895d10a12)">
     <use style="fill:#4c72b0;stroke:#4c72b0;" x="170.055973" xlink:href="#md8efba1be3" y="210.912367"/>
    </g>
   </g>
   <g id="line2d_41">
    <g clip-path="url(#p1895d10a12)">
     <use style="fill:#4c72b0;stroke:#4c72b0;" x="170.055973" xlink:href="#md8efba1be3" y="240.163779"/>
    </g>
   </g>
   <g id="line2d_42">
    <g clip-path="url(#p1895d10a12)">
     <use style="fill:#4c72b0;stroke:#4c72b0;" x="170.055973" xlink:href="#md8efba1be3" y="218.828436"/>
    </g>
   </g>
   <g id="line2d_43">
    <defs>
     <path d="M 0 3 
C 0.795609 3 1.55874 2.683901 2.12132 2.12132 
C 2.683901 1.55874 3 0.795609 3 0 
C 3 -0.795609 2.683901 -1.55874 2.12132 -2.12132 
C 1.55874 -2.683901 0.795609 -3 0 -3 
C -0.795609 -3 -1.55874 -2.683901 -2.12132 -2.12132 
C -2.683901 -1.55874 -3 -0.795609 -3 0 
C -3 0.795609 -2.683901 1.55874 -2.12132 2.12132 
C -1.55874 2.683901 -0.795609 3 0 3 
z
" id="m0aaa3311ab" style="stroke:#4c72b0;"/>
    </defs>
    <g clip-path="url(#p1895d10a12)">
     <use style="fill:#ffffff;stroke:#4c72b0;" x="370.043562" xlink:href="#m0aaa3311ab" y="263.602006"/>
    </g>
   </g>
   <g id="line2d_44">
    <defs>
     <path d="M -0 4.242641 
L 2.545584 0 
L 0 -4.242641 
L -2.545584 -0 
z
" id="md2148801ca" style="stroke:#4c72b0;stroke-linejoin:miter;"/>
    </defs>
    <g clip-path="url(#p1895d10a12)">
     <use style="fill:#ffffff;stroke:#4c72b0;stroke-linejoin:miter;" x="370.043562" xlink:href="#md2148801ca" y="292.886239"/>
    </g>
   </g>
   <g id="line2d_45">
    <g clip-path="url(#p1895d10a12)"/>
   </g>
   <g id="line2d_46">
    <g clip-path="url(#p1895d10a12)"/>
   </g>
   <g id="line2d_47">
    <g clip-path="url(#p1895d10a12)">
     <use style="fill:#ffffff;stroke:#4c72b0;" x="170.055973" xlink:href="#m0aaa3311ab" y="221.355942"/>
    </g>
   </g>
   <g id="line2d_48">
    <g clip-path="url(#p1895d10a12)">
     <use style="fill:#ffffff;stroke:#4c72b0;stroke-linejoin:miter;" x="170.055973" xlink:href="#md2148801ca" y="229.218559"/>
    </g>
   </g>
   <g id="patch_3">
    <path d="M 60.48 342.8532 
L 60.48 206.0892 
" style="fill:none;stroke:#262626;stroke-linecap:square;stroke-linejoin:miter;stroke-width:1.25;"/>
   </g>
   <g id="patch_4">
    <path d="M 478.8 342.8532 
L 478.8 206.0892 
" style="fill:none;stroke:#262626;stroke-linecap:square;stroke-linejoin:miter;stroke-width:1.25;"/>
   </g>
   <g id="patch_5">
    <path d="M 60.48 342.8532 
L 478.8 342.8532 
" style="fill:none;stroke:#262626;stroke-linecap:square;stroke-linejoin:miter;stroke-width:1.25;"/>
   </g>
   <g id="patch_6">
    <path d="M 60.48 206.0892 
L 478.8 206.0892 
" style="fill:none;stroke:#262626;stroke-linecap:square;stroke-linejoin:miter;stroke-width:1.25;"/>
   </g>
   <g id="legend_1">
    <g id="patch_7">
     <path d="M 351.97 247.0092 
L 471.1 247.0092 
Q 473.3 247.0092 473.3 244.8092 
L 473.3 213.7892 
Q 473.3 211.5892 471.1 211.5892 
L 351.97 211.5892 
Q 349.77 211.5892 349.77 213.7892 
L 349.77 244.8092 
Q 349.77 247.0092 351.97 247.0092 
z
" style="fill:#ffffff;opacity:0.8;stroke:#cccccc;stroke-linejoin:miter;"/>
    </g>
    <g id="LineCollection_7">
     <path d="M 365.17 225.8892 
L 365.17 214.8892 
" style="fill:none;stroke:#4c72b0;"/>
    </g>
    <g id="line2d_49">
     <g>
      <use style="fill:#4c72b0;stroke:#4c72b0;" x="365.17" xlink:href="#md8efba1be3" y="225.8892"/>
     </g>
    </g>
    <g id="line2d_50">
     <g>
      <use style="fill:#4c72b0;stroke:#4c72b0;" x="365.17" xlink:href="#md8efba1be3" y="214.8892"/>
     </g>
    </g>
    <g id="line2d_51"/>
    <g id="line2d_52">
     <g>
      <use style="fill:#ffffff;stroke:#4c72b0;" x="365.17" xlink:href="#m0aaa3311ab" y="220.3892"/>
     </g>
    </g>
    <g id="text_18">
     <!-- $T_e$  ($v_d \equiv 0$) -->
     <defs>
      <path d="M 5.90625 72.90625 
L 67.578125 72.90625 
L 66.015625 64.59375 
L 39.984375 64.59375 
L 27.484375 0 
L 17.578125 0 
L 30.078125 64.59375 
L 4.296875 64.59375 
z
" id="DejaVuSans-Oblique-84"/>
      <path d="M 48.09375 32.234375 
Q 48.25 33.015625 48.3125 33.84375 
Q 48.390625 34.671875 48.390625 35.5 
Q 48.390625 41.453125 44.890625 44.921875 
Q 41.40625 48.390625 35.40625 48.390625 
Q 28.71875 48.390625 23.578125 44.15625 
Q 18.453125 39.9375 15.828125 32.171875 
z
M 55.90625 25.203125 
L 14.109375 25.203125 
Q 13.8125 23.34375 13.71875 22.265625 
Q 13.625 21.1875 13.625 20.40625 
Q 13.625 13.625 17.796875 9.90625 
Q 21.96875 6.203125 29.59375 6.203125 
Q 35.453125 6.203125 40.671875 7.515625 
Q 45.90625 8.84375 50.390625 11.375 
L 48.6875 2.484375 
Q 43.84375 0.53125 38.6875 -0.4375 
Q 33.546875 -1.421875 28.21875 -1.421875 
Q 16.84375 -1.421875 10.71875 4.015625 
Q 4.59375 9.46875 4.59375 19.484375 
Q 4.59375 28.03125 7.640625 35.375 
Q 10.6875 42.71875 16.609375 48.484375 
Q 20.40625 52.09375 25.65625 54.046875 
Q 30.90625 56 36.8125 56 
Q 46.09375 56 51.578125 50.4375 
Q 57.078125 44.875 57.078125 35.5 
Q 57.078125 33.25 56.78125 30.6875 
Q 56.5 28.125 55.90625 25.203125 
z
" id="DejaVuSans-Oblique-101"/>
      <path d="M 23.390625 -21.046875 
Q 16.109375 -11.859375 11.078125 0.4375 
Q 6.0625 12.75 6.0625 25.921875 
Q 6.0625 37.546875 9.8125 48.1875 
Q 14.203125 60.546875 23.390625 72.796875 
L 29.6875 72.796875 
Q 23.78125 62.640625 21.875 58.296875 
Q 18.890625 51.5625 17.1875 44.234375 
Q 15.09375 35.109375 15.09375 25.875 
Q 15.09375 2.390625 29.6875 -21.046875 
z
" id="ArialMT-40"/>
      <path d="M 7.171875 54.6875 
L 16.703125 54.6875 
L 24.703125 8.203125 
L 50.875 54.6875 
L 60.40625 54.6875 
L 29.296875 0 
L 17.1875 0 
z
" id="DejaVuSans-Oblique-118"/>
      <path d="M 41.796875 8.203125 
Q 38.1875 3.46875 33.25 1.015625 
Q 28.328125 -1.421875 22.3125 -1.421875 
Q 14.109375 -1.421875 9.34375 4.171875 
Q 4.59375 9.765625 4.59375 19.484375 
Q 4.59375 27.59375 7.46875 34.9375 
Q 10.359375 42.28125 15.828125 48.09375 
Q 19.4375 51.953125 23.96875 53.96875 
Q 28.515625 56 33.5 56 
Q 38.765625 56 42.796875 53.453125 
Q 46.828125 50.921875 49.03125 46.1875 
L 54.890625 75.984375 
L 63.921875 75.984375 
L 49.125 0 
L 40.09375 0 
z
M 13.921875 21.09375 
Q 13.921875 14.015625 17.109375 10.0625 
Q 20.3125 6.109375 25.984375 6.109375 
Q 30.171875 6.109375 33.765625 8.125 
Q 37.359375 10.15625 40.09375 14.109375 
Q 42.96875 18.21875 44.625 23.578125 
Q 46.296875 28.953125 46.296875 34.1875 
Q 46.296875 40.96875 43.09375 44.765625 
Q 39.890625 48.578125 34.28125 48.578125 
Q 30.03125 48.578125 26.359375 46.578125 
Q 22.703125 44.578125 20.125 40.828125 
Q 17.28125 36.765625 15.59375 31.390625 
Q 13.921875 26.03125 13.921875 21.09375 
z
" id="DejaVuSans-Oblique-100"/>
      <path d="M 10.59375 35.5 
L 73.1875 35.5 
L 73.1875 27.203125 
L 10.59375 27.203125 
z
M 10.59375 53.71875 
L 73.1875 53.71875 
L 73.1875 45.40625 
L 10.59375 45.40625 
z
M 10.59375 17.28125 
L 73.1875 17.28125 
L 73.1875 8.984375 
L 10.59375 8.984375 
z
" id="DejaVuSans-8801"/>
      <path d="M 31.78125 66.40625 
Q 24.171875 66.40625 20.328125 58.90625 
Q 16.5 51.421875 16.5 36.375 
Q 16.5 21.390625 20.328125 13.890625 
Q 24.171875 6.390625 31.78125 6.390625 
Q 39.453125 6.390625 43.28125 13.890625 
Q 47.125 21.390625 47.125 36.375 
Q 47.125 51.421875 43.28125 58.90625 
Q 39.453125 66.40625 31.78125 66.40625 
z
M 31.78125 74.21875 
Q 44.046875 74.21875 50.515625 64.515625 
Q 56.984375 54.828125 56.984375 36.375 
Q 56.984375 17.96875 50.515625 8.265625 
Q 44.046875 -1.421875 31.78125 -1.421875 
Q 19.53125 -1.421875 13.0625 8.265625 
Q 6.59375 17.96875 6.59375 36.375 
Q 6.59375 54.828125 13.0625 64.515625 
Q 19.53125 74.21875 31.78125 74.21875 
z
" id="DejaVuSans-48"/>
      <path d="M 12.359375 -21.046875 
L 6.0625 -21.046875 
Q 20.65625 2.390625 20.65625 25.875 
Q 20.65625 35.0625 18.5625 44.09375 
Q 16.890625 51.421875 13.921875 58.15625 
Q 12.015625 62.546875 6.0625 72.796875 
L 12.359375 72.796875 
Q 21.53125 60.546875 25.921875 48.1875 
Q 29.6875 37.546875 29.6875 25.921875 
Q 29.6875 12.75 24.625 0.4375 
Q 19.578125 -11.859375 12.359375 -21.046875 
z
" id="ArialMT-41"/>
     </defs>
     <g style="fill:#262626;" transform="translate(384.97 224.2392)scale(0.11 -0.11)">
      <use transform="translate(0 0.78125)" xlink:href="#DejaVuSans-Oblique-84"/>
      <use transform="translate(61.083984 -15.625)scale(0.7)" xlink:href="#DejaVuSans-Oblique-101"/>
      <use transform="translate(106.884766 0.78125)" xlink:href="#ArialMT-32"/>
      <use transform="translate(134.667969 0.78125)" xlink:href="#ArialMT-32"/>
      <use transform="translate(162.451172 0.78125)" xlink:href="#ArialMT-40"/>
      <use transform="translate(195.751953 0.78125)" xlink:href="#DejaVuSans-Oblique-118"/>
      <use transform="translate(254.931641 -15.625)scale(0.7)" xlink:href="#DejaVuSans-Oblique-100"/>
      <use transform="translate(321.582031 0.78125)" xlink:href="#DejaVuSans-8801"/>
      <use transform="translate(424.853516 0.78125)" xlink:href="#DejaVuSans-48"/>
      <use transform="translate(488.476562 0.78125)" xlink:href="#ArialMT-41"/>
     </g>
    </g>
    <g id="LineCollection_8">
     <path d="M 365.17 241.8392 
L 365.17 230.8392 
" style="fill:none;stroke:#4c72b0;"/>
    </g>
    <g id="line2d_53">
     <g>
      <use style="fill:#4c72b0;stroke:#4c72b0;" x="365.17" xlink:href="#md8efba1be3" y="241.8392"/>
     </g>
    </g>
    <g id="line2d_54">
     <g>
      <use style="fill:#4c72b0;stroke:#4c72b0;" x="365.17" xlink:href="#md8efba1be3" y="230.8392"/>
     </g>
    </g>
    <g id="line2d_55"/>
    <g id="line2d_56">
     <g>
      <use style="fill:#ffffff;stroke:#4c72b0;stroke-linejoin:miter;" x="365.17" xlink:href="#md2148801ca" y="236.3392"/>
     </g>
    </g>
    <g id="text_19">
     <!-- $T_e$  (drift allowed) -->
     <defs>
      <path d="M 6.5 0 
L 6.5 51.859375 
L 14.40625 51.859375 
L 14.40625 44 
Q 17.4375 49.515625 20 51.265625 
Q 22.5625 53.03125 25.640625 53.03125 
Q 30.078125 53.03125 34.671875 50.203125 
L 31.640625 42.046875 
Q 28.421875 43.953125 25.203125 43.953125 
Q 22.3125 43.953125 20.015625 42.21875 
Q 17.71875 40.484375 16.75 37.40625 
Q 15.28125 32.71875 15.28125 27.15625 
L 15.28125 0 
z
" id="ArialMT-114"/>
      <path d="M 8.6875 0 
L 8.6875 45.015625 
L 0.921875 45.015625 
L 0.921875 51.859375 
L 8.6875 51.859375 
L 8.6875 57.375 
Q 8.6875 62.59375 9.625 65.140625 
Q 10.890625 68.5625 14.078125 70.671875 
Q 17.28125 72.796875 23.046875 72.796875 
Q 26.765625 72.796875 31.25 71.921875 
L 29.9375 64.265625 
Q 27.203125 64.75 24.75 64.75 
Q 20.75 64.75 19.09375 63.03125 
Q 17.4375 61.328125 17.4375 56.640625 
L 17.4375 51.859375 
L 27.546875 51.859375 
L 27.546875 45.015625 
L 17.4375 45.015625 
L 17.4375 0 
z
" id="ArialMT-102"/>
      <path d="M 25.78125 7.859375 
L 27.046875 0.09375 
Q 23.34375 -0.6875 20.40625 -0.6875 
Q 15.625 -0.6875 12.984375 0.828125 
Q 10.359375 2.34375 9.28125 4.8125 
Q 8.203125 7.28125 8.203125 15.1875 
L 8.203125 45.015625 
L 1.765625 45.015625 
L 1.765625 51.859375 
L 8.203125 51.859375 
L 8.203125 64.703125 
L 16.9375 69.96875 
L 16.9375 51.859375 
L 25.78125 51.859375 
L 25.78125 45.015625 
L 16.9375 45.015625 
L 16.9375 14.703125 
Q 16.9375 10.9375 17.40625 9.859375 
Q 17.875 8.796875 18.921875 8.15625 
Q 19.96875 7.515625 21.921875 7.515625 
Q 23.390625 7.515625 25.78125 7.859375 
z
" id="ArialMT-116"/>
      <path d="M 6.390625 0 
L 6.390625 71.578125 
L 15.1875 71.578125 
L 15.1875 0 
z
" id="ArialMT-108"/>
      <path d="M 3.328125 25.921875 
Q 3.328125 40.328125 11.328125 47.265625 
Q 18.015625 53.03125 27.640625 53.03125 
Q 38.328125 53.03125 45.109375 46.015625 
Q 51.90625 39.015625 51.90625 26.65625 
Q 51.90625 16.65625 48.90625 10.90625 
Q 45.90625 5.171875 40.15625 2 
Q 34.421875 -1.171875 27.640625 -1.171875 
Q 16.75 -1.171875 10.03125 5.8125 
Q 3.328125 12.796875 3.328125 25.921875 
z
M 12.359375 25.921875 
Q 12.359375 15.96875 16.703125 11.015625 
Q 21.046875 6.0625 27.640625 6.0625 
Q 34.1875 6.0625 38.53125 11.03125 
Q 42.875 16.015625 42.875 26.21875 
Q 42.875 35.84375 38.5 40.796875 
Q 34.125 45.75 27.640625 45.75 
Q 21.046875 45.75 16.703125 40.8125 
Q 12.359375 35.890625 12.359375 25.921875 
z
" id="ArialMT-111"/>
      <path d="M 16.15625 0 
L 0.296875 51.859375 
L 9.375 51.859375 
L 17.625 21.921875 
L 20.703125 10.796875 
Q 20.90625 11.625 23.390625 21.484375 
L 31.640625 51.859375 
L 40.671875 51.859375 
L 48.4375 21.78125 
L 51.03125 11.859375 
L 54 21.875 
L 62.890625 51.859375 
L 71.4375 51.859375 
L 55.21875 0 
L 46.09375 0 
L 37.84375 31.0625 
L 35.84375 39.890625 
L 25.34375 0 
z
" id="ArialMT-119"/>
     </defs>
     <g style="fill:#262626;" transform="translate(384.97 240.1892)scale(0.11 -0.11)">
      <use transform="translate(0 0.09375)" xlink:href="#DejaVuSans-Oblique-84"/>
      <use transform="translate(61.083984 -16.3125)scale(0.7)" xlink:href="#DejaVuSans-Oblique-101"/>
      <use transform="translate(106.884766 0.09375)" xlink:href="#ArialMT-32"/>
      <use transform="translate(134.667969 0.09375)" xlink:href="#ArialMT-32"/>
      <use transform="translate(162.451172 0.09375)" xlink:href="#ArialMT-40"/>
      <use transform="translate(195.751953 0.09375)" xlink:href="#ArialMT-100"/>
      <use transform="translate(251.367188 0.09375)" xlink:href="#ArialMT-114"/>
      <use transform="translate(284.667969 0.09375)" xlink:href="#ArialMT-105"/>
      <use transform="translate(306.884766 0.09375)" xlink:href="#ArialMT-102"/>
      <use transform="translate(334.667969 0.09375)" xlink:href="#ArialMT-116"/>
      <use transform="translate(362.451172 0.09375)" xlink:href="#ArialMT-32"/>
      <use transform="translate(390.234375 0.09375)" xlink:href="#ArialMT-97"/>
      <use transform="translate(445.849609 0.09375)" xlink:href="#ArialMT-108"/>
      <use transform="translate(468.066406 0.09375)" xlink:href="#ArialMT-108"/>
      <use transform="translate(490.283203 0.09375)" xlink:href="#ArialMT-111"/>
      <use transform="translate(545.898438 0.09375)" xlink:href="#ArialMT-119"/>
      <use transform="translate(618.115234 0.09375)" xlink:href="#ArialMT-101"/>
      <use transform="translate(673.730469 0.09375)" xlink:href="#ArialMT-100"/>
      <use transform="translate(729.345703 0.09375)" xlink:href="#ArialMT-41"/>
     </g>
    </g>
   </g>
  </g>
  <g id="axes_2">
   <g id="patch_8">
    <path d="M 60.48 520.6464 
L 478.8 520.6464 
L 478.8 383.8824 
L 60.48 383.8824 
z
" style="fill:#ffffff;"/>
   </g>
   <g id="matplotlib.axis_3">
    <g id="xtick_10">
     <g id="line2d_57">
      <path clip-path="url(#pfcf54b816a)" d="M 60.48 520.6464 
L 60.48 383.8824 
" style="fill:none;stroke:#cccccc;stroke-dasharray:0.5,0.825;stroke-dashoffset:0;stroke-width:0.5;"/>
     </g>
     <g id="line2d_58">
      <g>
       <use style="fill:#262626;stroke:#262626;stroke-width:1.25;" x="60.48" xlink:href="#m579932e2ef" y="520.6464"/>
      </g>
     </g>
     <g id="text_20">
      <!-- 0.200 -->
      <g style="fill:#262626;" transform="translate(46.717969 538.019994)scale(0.11 -0.11)">
       <use xlink:href="#ArialMT-48"/>
       <use x="55.615234" xlink:href="#ArialMT-46"/>
       <use x="83.398438" xlink:href="#ArialMT-50"/>
       <use x="139.013672" xlink:href="#ArialMT-48"/>
       <use x="194.628906" xlink:href="#ArialMT-48"/>
      </g>
     </g>
    </g>
    <g id="xtick_11">
     <g id="line2d_59">
      <path clip-path="url(#pfcf54b816a)" d="M 112.77 520.6464 
L 112.77 383.8824 
" style="fill:none;stroke:#cccccc;stroke-dasharray:0.5,0.825;stroke-dashoffset:0;stroke-width:0.5;"/>
     </g>
     <g id="line2d_60">
      <g>
       <use style="fill:#262626;stroke:#262626;stroke-width:1.25;" x="112.77" xlink:href="#m579932e2ef" y="520.6464"/>
      </g>
     </g>
     <g id="text_21">
      <!-- 0.225 -->
      <g style="fill:#262626;" transform="translate(99.007969 538.019994)scale(0.11 -0.11)">
       <use xlink:href="#ArialMT-48"/>
       <use x="55.615234" xlink:href="#ArialMT-46"/>
       <use x="83.398438" xlink:href="#ArialMT-50"/>
       <use x="139.013672" xlink:href="#ArialMT-50"/>
       <use x="194.628906" xlink:href="#ArialMT-53"/>
      </g>
     </g>
    </g>
    <g id="xtick_12">
     <g id="line2d_61">
      <path clip-path="url(#pfcf54b816a)" d="M 165.06 520.6464 
L 165.06 383.8824 
" style="fill:none;stroke:#cccccc;stroke-dasharray:0.5,0.825;stroke-dashoffset:0;stroke-width:0.5;"/>
     </g>
     <g id="line2d_62">
      <g>
       <use style="fill:#262626;stroke:#262626;stroke-width:1.25;" x="165.06" xlink:href="#m579932e2ef" y="520.6464"/>
      </g>
     </g>
     <g id="text_22">
      <!-- 0.250 -->
      <g style="fill:#262626;" transform="translate(151.297969 538.019994)scale(0.11 -0.11)">
       <use xlink:href="#ArialMT-48"/>
       <use x="55.615234" xlink:href="#ArialMT-46"/>
       <use x="83.398438" xlink:href="#ArialMT-50"/>
       <use x="139.013672" xlink:href="#ArialMT-53"/>
       <use x="194.628906" xlink:href="#ArialMT-48"/>
      </g>
     </g>
    </g>
    <g id="xtick_13">
     <g id="line2d_63">
      <path clip-path="url(#pfcf54b816a)" d="M 217.35 520.6464 
L 217.35 383.8824 
" style="fill:none;stroke:#cccccc;stroke-dasharray:0.5,0.825;stroke-dashoffset:0;stroke-width:0.5;"/>
     </g>
     <g id="line2d_64">
      <g>
       <use style="fill:#262626;stroke:#262626;stroke-width:1.25;" x="217.35" xlink:href="#m579932e2ef" y="520.6464"/>
      </g>
     </g>
     <g id="text_23">
      <!-- 0.275 -->
      <g style="fill:#262626;" transform="translate(203.587969 538.019994)scale(0.11 -0.11)">
       <use xlink:href="#ArialMT-48"/>
       <use x="55.615234" xlink:href="#ArialMT-46"/>
       <use x="83.398438" xlink:href="#ArialMT-50"/>
       <use x="139.013672" xlink:href="#ArialMT-55"/>
       <use x="194.628906" xlink:href="#ArialMT-53"/>
      </g>
     </g>
    </g>
    <g id="xtick_14">
     <g id="line2d_65">
      <path clip-path="url(#pfcf54b816a)" d="M 269.64 520.6464 
L 269.64 383.8824 
" style="fill:none;stroke:#cccccc;stroke-dasharray:0.5,0.825;stroke-dashoffset:0;stroke-width:0.5;"/>
     </g>
     <g id="line2d_66">
      <g>
       <use style="fill:#262626;stroke:#262626;stroke-width:1.25;" x="269.64" xlink:href="#m579932e2ef" y="520.6464"/>
      </g>
     </g>
     <g id="text_24">
      <!-- 0.300 -->
      <g style="fill:#262626;" transform="translate(255.877969 538.019994)scale(0.11 -0.11)">
       <use xlink:href="#ArialMT-48"/>
       <use x="55.615234" xlink:href="#ArialMT-46"/>
       <use x="83.398438" xlink:href="#ArialMT-51"/>
       <use x="139.013672" xlink:href="#ArialMT-48"/>
       <use x="194.628906" xlink:href="#ArialMT-48"/>
      </g>
     </g>
    </g>
    <g id="xtick_15">
     <g id="line2d_67">
      <path clip-path="url(#pfcf54b816a)" d="M 321.93 520.6464 
L 321.93 383.8824 
" style="fill:none;stroke:#cccccc;stroke-dasharray:0.5,0.825;stroke-dashoffset:0;stroke-width:0.5;"/>
     </g>
     <g id="line2d_68">
      <g>
       <use style="fill:#262626;stroke:#262626;stroke-width:1.25;" x="321.93" xlink:href="#m579932e2ef" y="520.6464"/>
      </g>
     </g>
     <g id="text_25">
      <!-- 0.325 -->
      <g style="fill:#262626;" transform="translate(308.167969 538.019994)scale(0.11 -0.11)">
       <use xlink:href="#ArialMT-48"/>
       <use x="55.615234" xlink:href="#ArialMT-46"/>
       <use x="83.398438" xlink:href="#ArialMT-51"/>
       <use x="139.013672" xlink:href="#ArialMT-50"/>
       <use x="194.628906" xlink:href="#ArialMT-53"/>
      </g>
     </g>
    </g>
    <g id="xtick_16">
     <g id="line2d_69">
      <path clip-path="url(#pfcf54b816a)" d="M 374.22 520.6464 
L 374.22 383.8824 
" style="fill:none;stroke:#cccccc;stroke-dasharray:0.5,0.825;stroke-dashoffset:0;stroke-width:0.5;"/>
     </g>
     <g id="line2d_70">
      <g>
       <use style="fill:#262626;stroke:#262626;stroke-width:1.25;" x="374.22" xlink:href="#m579932e2ef" y="520.6464"/>
      </g>
     </g>
     <g id="text_26">
      <!-- 0.350 -->
      <g style="fill:#262626;" transform="translate(360.457969 538.019994)scale(0.11 -0.11)">
       <use xlink:href="#ArialMT-48"/>
       <use x="55.615234" xlink:href="#ArialMT-46"/>
       <use x="83.398438" xlink:href="#ArialMT-51"/>
       <use x="139.013672" xlink:href="#ArialMT-53"/>
       <use x="194.628906" xlink:href="#ArialMT-48"/>
      </g>
     </g>
    </g>
    <g id="xtick_17">
     <g id="line2d_71">
      <path clip-path="url(#pfcf54b816a)" d="M 426.51 520.6464 
L 426.51 383.8824 
" style="fill:none;stroke:#cccccc;stroke-dasharray:0.5,0.825;stroke-dashoffset:0;stroke-width:0.5;"/>
     </g>
     <g id="line2d_72">
      <g>
       <use style="fill:#262626;stroke:#262626;stroke-width:1.25;" x="426.51" xlink:href="#m579932e2ef" y="520.6464"/>
      </g>
     </g>
     <g id="text_27">
      <!-- 0.375 -->
      <g style="fill:#262626;" transform="translate(412.747969 538.019994)scale(0.11 -0.11)">
       <use xlink:href="#ArialMT-48"/>
       <use x="55.615234" xlink:href="#ArialMT-46"/>
       <use x="83.398438" xlink:href="#ArialMT-51"/>
       <use x="139.013672" xlink:href="#ArialMT-55"/>
       <use x="194.628906" xlink:href="#ArialMT-53"/>
      </g>
     </g>
    </g>
    <g id="xtick_18">
     <g id="line2d_73">
      <path clip-path="url(#pfcf54b816a)" d="M 478.8 520.6464 
L 478.8 383.8824 
" style="fill:none;stroke:#cccccc;stroke-dasharray:0.5,0.825;stroke-dashoffset:0;stroke-width:0.5;"/>
     </g>
     <g id="line2d_74">
      <g>
       <use style="fill:#262626;stroke:#262626;stroke-width:1.25;" x="478.8" xlink:href="#m579932e2ef" y="520.6464"/>
      </g>
     </g>
     <g id="text_28">
      <!-- 0.400 -->
      <g style="fill:#262626;" transform="translate(465.037969 538.019994)scale(0.11 -0.11)">
       <use xlink:href="#ArialMT-48"/>
       <use x="55.615234" xlink:href="#ArialMT-46"/>
       <use x="83.398438" xlink:href="#ArialMT-52"/>
       <use x="139.013672" xlink:href="#ArialMT-48"/>
       <use x="194.628906" xlink:href="#ArialMT-48"/>
      </g>
     </g>
    </g>
    <g id="text_29">
     <!-- Maj. Radius [m] -->
     <g style="fill:#262626;" transform="translate(227.964375 552.795619)scale(0.12 -0.12)">
      <use xlink:href="#ArialMT-77"/>
      <use x="83.300781" xlink:href="#ArialMT-97"/>
      <use x="138.916016" xlink:href="#ArialMT-106"/>
      <use x="161.132812" xlink:href="#ArialMT-46"/>
      <use x="188.916016" xlink:href="#ArialMT-32"/>
      <use x="216.699219" xlink:href="#ArialMT-82"/>
      <use x="288.916016" xlink:href="#ArialMT-97"/>
      <use x="344.53125" xlink:href="#ArialMT-100"/>
      <use x="400.146484" xlink:href="#ArialMT-105"/>
      <use x="422.363281" xlink:href="#ArialMT-117"/>
      <use x="477.978516" xlink:href="#ArialMT-115"/>
      <use x="527.978516" xlink:href="#ArialMT-32"/>
      <use x="555.761719" xlink:href="#ArialMT-91"/>
      <use x="583.544922" xlink:href="#ArialMT-109"/>
      <use x="666.845703" xlink:href="#ArialMT-93"/>
     </g>
    </g>
   </g>
   <g id="matplotlib.axis_4">
    <g id="ytick_7">
     <g id="line2d_75">
      <path clip-path="url(#pfcf54b816a)" d="M 60.48 512.662241 
L 478.8 512.662241 
" style="fill:none;stroke:#cccccc;stroke-dasharray:0.5,0.825;stroke-dashoffset:0;stroke-width:0.5;"/>
     </g>
     <g id="line2d_76">
      <g>
       <use style="fill:#262626;stroke:#262626;stroke-width:1.25;" x="60.48" xlink:href="#mcb9a48fbce" y="512.662241"/>
      </g>
     </g>
     <g id="text_30">
      <!-- 250 -->
      <defs>
       <path d="M 52.828125 31.203125 
L 5.5625 31.203125 
L 5.5625 39.40625 
L 52.828125 39.40625 
z
" id="ArialMT-8722"/>
      </defs>
      <g style="fill:#262626;" transform="translate(26.204219 516.599038)scale(0.11 -0.11)">
       <use xlink:href="#ArialMT-8722"/>
       <use x="58.398438" xlink:href="#ArialMT-50"/>
       <use x="114.013672" xlink:href="#ArialMT-53"/>
       <use x="169.628906" xlink:href="#ArialMT-48"/>
      </g>
     </g>
    </g>
    <g id="ytick_8">
     <g id="line2d_77">
      <path clip-path="url(#pfcf54b816a)" d="M 60.48 484.196152 
L 478.8 484.196152 
" style="fill:none;stroke:#cccccc;stroke-dasharray:0.5,0.825;stroke-dashoffset:0;stroke-width:0.5;"/>
     </g>
     <g id="line2d_78">
      <g>
       <use style="fill:#262626;stroke:#262626;stroke-width:1.25;" x="60.48" xlink:href="#mcb9a48fbce" y="484.196152"/>
      </g>
     </g>
     <g id="text_31">
      <!-- 225 -->
      <g style="fill:#262626;" transform="translate(26.204219 488.132949)scale(0.11 -0.11)">
       <use xlink:href="#ArialMT-8722"/>
       <use x="58.398438" xlink:href="#ArialMT-50"/>
       <use x="114.013672" xlink:href="#ArialMT-50"/>
       <use x="169.628906" xlink:href="#ArialMT-53"/>
      </g>
     </g>
    </g>
    <g id="ytick_9">
     <g id="line2d_79">
      <path clip-path="url(#pfcf54b816a)" d="M 60.48 455.730063 
L 478.8 455.730063 
" style="fill:none;stroke:#cccccc;stroke-dasharray:0.5,0.825;stroke-dashoffset:0;stroke-width:0.5;"/>
     </g>
     <g id="line2d_80">
      <g>
       <use style="fill:#262626;stroke:#262626;stroke-width:1.25;" x="60.48" xlink:href="#mcb9a48fbce" y="455.730063"/>
      </g>
     </g>
     <g id="text_32">
      <!-- 200 -->
      <g style="fill:#262626;" transform="translate(26.204219 459.66686)scale(0.11 -0.11)">
       <use xlink:href="#ArialMT-8722"/>
       <use x="58.398438" xlink:href="#ArialMT-50"/>
       <use x="114.013672" xlink:href="#ArialMT-48"/>
       <use x="169.628906" xlink:href="#ArialMT-48"/>
      </g>
     </g>
    </g>
    <g id="ytick_10">
     <g id="line2d_81">
      <path clip-path="url(#pfcf54b816a)" d="M 60.48 427.263974 
L 478.8 427.263974 
" style="fill:none;stroke:#cccccc;stroke-dasharray:0.5,0.825;stroke-dashoffset:0;stroke-width:0.5;"/>
     </g>
     <g id="line2d_82">
      <g>
       <use style="fill:#262626;stroke:#262626;stroke-width:1.25;" x="60.48" xlink:href="#mcb9a48fbce" y="427.263974"/>
      </g>
     </g>
     <g id="text_33">
      <!-- 175 -->
      <g style="fill:#262626;" transform="translate(26.204219 431.200771)scale(0.11 -0.11)">
       <use xlink:href="#ArialMT-8722"/>
       <use x="58.398438" xlink:href="#ArialMT-49"/>
       <use x="114.013672" xlink:href="#ArialMT-55"/>
       <use x="169.628906" xlink:href="#ArialMT-53"/>
      </g>
     </g>
    </g>
    <g id="ytick_11">
     <g id="line2d_83">
      <path clip-path="url(#pfcf54b816a)" d="M 60.48 398.797885 
L 478.8 398.797885 
" style="fill:none;stroke:#cccccc;stroke-dasharray:0.5,0.825;stroke-dashoffset:0;stroke-width:0.5;"/>
     </g>
     <g id="line2d_84">
      <g>
       <use style="fill:#262626;stroke:#262626;stroke-width:1.25;" x="60.48" xlink:href="#mcb9a48fbce" y="398.797885"/>
      </g>
     </g>
     <g id="text_34">
      <!-- 150 -->
      <g style="fill:#262626;" transform="translate(26.204219 402.734682)scale(0.11 -0.11)">
       <use xlink:href="#ArialMT-8722"/>
       <use x="58.398438" xlink:href="#ArialMT-49"/>
       <use x="114.013672" xlink:href="#ArialMT-53"/>
       <use x="169.628906" xlink:href="#ArialMT-48"/>
      </g>
     </g>
    </g>
    <g id="text_35">
     <!-- Velocity [km/s] -->
     <defs>
      <path d="M 40.4375 19 
L 49.078125 17.875 
Q 47.65625 8.9375 41.8125 3.875 
Q 35.984375 -1.171875 27.484375 -1.171875 
Q 16.84375 -1.171875 10.375 5.78125 
Q 3.90625 12.75 3.90625 25.734375 
Q 3.90625 34.125 6.6875 40.421875 
Q 9.46875 46.734375 15.15625 49.875 
Q 20.84375 53.03125 27.546875 53.03125 
Q 35.984375 53.03125 41.359375 48.75 
Q 46.734375 44.484375 48.25 36.625 
L 39.703125 35.296875 
Q 38.484375 40.53125 35.375 43.15625 
Q 32.28125 45.796875 27.875 45.796875 
Q 21.234375 45.796875 17.078125 41.03125 
Q 12.9375 36.28125 12.9375 25.984375 
Q 12.9375 15.53125 16.9375 10.796875 
Q 20.953125 6.0625 27.390625 6.0625 
Q 32.5625 6.0625 36.03125 9.234375 
Q 39.5 12.40625 40.4375 19 
z
" id="ArialMT-99"/>
      <path d="M 6.203125 -19.96875 
L 5.21875 -11.71875 
Q 8.109375 -12.5 10.25 -12.5 
Q 13.1875 -12.5 14.9375 -11.515625 
Q 16.703125 -10.546875 17.828125 -8.796875 
Q 18.65625 -7.46875 20.515625 -2.25 
Q 20.75 -1.515625 21.296875 -0.09375 
L 1.609375 51.859375 
L 11.078125 51.859375 
L 21.875 21.828125 
Q 23.96875 16.109375 25.640625 9.8125 
Q 27.15625 15.875 29.25 21.625 
L 40.328125 51.859375 
L 49.125 51.859375 
L 29.390625 -0.875 
Q 26.21875 -9.421875 24.46875 -12.640625 
Q 22.125 -17 19.09375 -19.015625 
Q 16.0625 -21.046875 11.859375 -21.046875 
Q 9.328125 -21.046875 6.203125 -19.96875 
z
" id="ArialMT-121"/>
      <path d="M 6.640625 0 
L 6.640625 71.578125 
L 15.4375 71.578125 
L 15.4375 30.765625 
L 36.234375 51.859375 
L 47.609375 51.859375 
L 27.78125 32.625 
L 49.609375 0 
L 38.765625 0 
L 21.625 26.515625 
L 15.4375 20.5625 
L 15.4375 0 
z
" id="ArialMT-107"/>
      <path d="M 0 -1.21875 
L 20.75 72.796875 
L 27.78125 72.796875 
L 7.078125 -1.21875 
z
" id="ArialMT-47"/>
     </defs>
     <g style="fill:#55a868;" transform="translate(19.678594 490.933463)rotate(-90)scale(0.12 -0.12)">
      <use xlink:href="#ArialMT-86"/>
      <use x="66.621094" xlink:href="#ArialMT-101"/>
      <use x="122.236328" xlink:href="#ArialMT-108"/>
      <use x="144.453125" xlink:href="#ArialMT-111"/>
      <use x="200.068359" xlink:href="#ArialMT-99"/>
      <use x="250.068359" xlink:href="#ArialMT-105"/>
      <use x="272.285156" xlink:href="#ArialMT-116"/>
      <use x="300.068359" xlink:href="#ArialMT-121"/>
      <use x="350.068359" xlink:href="#ArialMT-32"/>
      <use x="377.851562" xlink:href="#ArialMT-91"/>
      <use x="405.634766" xlink:href="#ArialMT-107"/>
      <use x="455.634766" xlink:href="#ArialMT-109"/>
      <use x="538.935547" xlink:href="#ArialMT-47"/>
      <use x="566.71875" xlink:href="#ArialMT-115"/>
      <use x="616.71875" xlink:href="#ArialMT-93"/>
     </g>
    </g>
   </g>
   <g id="LineCollection_9">
    <path clip-path="url(#pfcf54b816a)" d="M 370.043562 514.145168 
L 370.043562 390.098945 
" style="fill:none;stroke:#55a868;"/>
   </g>
   <g id="LineCollection_10"/>
   <g id="LineCollection_11">
    <path clip-path="url(#pfcf54b816a)" d="M 170.055973 514.429855 
L 170.055973 411.852027 
" style="fill:none;stroke:#55a868;"/>
   </g>
   <g id="line2d_85">
    <defs>
     <path d="M 3 0 
L -3 -0 
" id="me351ef0516" style="stroke:#55a868;"/>
    </defs>
    <g clip-path="url(#pfcf54b816a)">
     <use style="fill:#55a868;stroke:#55a868;" x="370.043562" xlink:href="#me351ef0516" y="514.145168"/>
    </g>
   </g>
   <g id="line2d_86">
    <g clip-path="url(#pfcf54b816a)">
     <use style="fill:#55a868;stroke:#55a868;" x="370.043562" xlink:href="#me351ef0516" y="390.098945"/>
    </g>
   </g>
   <g id="line2d_87">
    <g clip-path="url(#pfcf54b816a)"/>
   </g>
   <g id="line2d_88">
    <g clip-path="url(#pfcf54b816a)"/>
   </g>
   <g id="line2d_89">
    <g clip-path="url(#pfcf54b816a)">
     <use style="fill:#55a868;stroke:#55a868;" x="170.055973" xlink:href="#me351ef0516" y="514.429855"/>
    </g>
   </g>
   <g id="line2d_90">
    <g clip-path="url(#pfcf54b816a)">
     <use style="fill:#55a868;stroke:#55a868;" x="170.055973" xlink:href="#me351ef0516" y="411.852027"/>
    </g>
   </g>
   <g id="line2d_91">
    <defs>
     <path d="M -0 3 
L 3 -3 
L -3 -3 
z
" id="m28e4f20729" style="stroke:#55a868;stroke-linejoin:miter;"/>
    </defs>
    <g clip-path="url(#pfcf54b816a)">
     <use style="fill:#55a868;stroke:#55a868;stroke-linejoin:miter;" x="370.043562" xlink:href="#m28e4f20729" y="452.583385"/>
    </g>
   </g>
   <g id="line2d_92">
    <g clip-path="url(#pfcf54b816a)"/>
   </g>
   <g id="line2d_93">
    <g clip-path="url(#pfcf54b816a)">
     <use style="fill:#55a868;stroke:#55a868;stroke-linejoin:miter;" x="170.055973" xlink:href="#m28e4f20729" y="463.080346"/>
    </g>
   </g>
   <g id="patch_9">
    <path d="M 60.48 520.6464 
L 60.48 383.8824 
" style="fill:none;stroke:#262626;stroke-linecap:square;stroke-linejoin:miter;stroke-width:1.25;"/>
   </g>
   <g id="patch_10">
    <path d="M 478.8 520.6464 
L 478.8 383.8824 
" style="fill:none;stroke:#262626;stroke-linecap:square;stroke-linejoin:miter;stroke-width:1.25;"/>
   </g>
   <g id="patch_11">
    <path d="M 60.48 520.6464 
L 478.8 520.6464 
" style="fill:none;stroke:#262626;stroke-linecap:square;stroke-linejoin:miter;stroke-width:1.25;"/>
   </g>
   <g id="patch_12">
    <path d="M 60.48 383.8824 
L 478.8 383.8824 
" style="fill:none;stroke:#262626;stroke-linecap:square;stroke-linejoin:miter;stroke-width:1.25;"/>
   </g>
   <g id="legend_2">
    <g id="patch_13">
     <path d="M 424.13 408.242244 
L 471.1 408.242244 
Q 473.3 408.242244 473.3 406.042244 
L 473.3 391.5824 
Q 473.3 389.3824 471.1 389.3824 
L 424.13 389.3824 
Q 421.93 389.3824 421.93 391.5824 
L 421.93 406.042244 
Q 421.93 408.242244 424.13 408.242244 
z
" style="fill:#ffffff;opacity:0.8;stroke:#cccccc;stroke-linejoin:miter;"/>
    </g>
    <g id="LineCollection_12">
     <path d="M 437.33 403.305994 
L 437.33 392.305994 
" style="fill:none;stroke:#55a868;"/>
    </g>
    <g id="line2d_94">
     <g>
      <use style="fill:#55a868;stroke:#55a868;" x="437.33" xlink:href="#me351ef0516" y="403.305994"/>
     </g>
    </g>
    <g id="line2d_95">
     <g>
      <use style="fill:#55a868;stroke:#55a868;" x="437.33" xlink:href="#me351ef0516" y="392.305994"/>
     </g>
    </g>
    <g id="line2d_96"/>
    <g id="line2d_97">
     <g>
      <use style="fill:#55a868;stroke:#55a868;stroke-linejoin:miter;" x="437.33" xlink:href="#m28e4f20729" y="397.805994"/>
     </g>
    </g>
    <g id="text_36">
     <!-- $v_d$ -->
     <g style="fill:#262626;" transform="translate(457.13 401.655994)scale(0.11 -0.11)">
      <use transform="translate(0 0.3125)" xlink:href="#DejaVuSans-Oblique-118"/>
      <use transform="translate(59.179688 -16.09375)scale(0.7)" xlink:href="#DejaVuSans-Oblique-100"/>
     </g>
    </g>
   </g>
  </g>
  <g id="axes_3">
   <g id="patch_14">
    <path d="M 60.48 165.06 
L 478.8 165.06 
L 478.8 28.296 
L 60.48 28.296 
z
" style="fill:#ffffff;"/>
   </g>
   <g id="matplotlib.axis_5">
    <g id="xtick_19">
     <g id="line2d_98">
      <g>
       <use style="fill:#262626;stroke:#262626;stroke-width:1.25;" x="104.717709" xlink:href="#m579932e2ef" y="165.06"/>
      </g>
     </g>
     <g id="text_37">
      <!-- 0.0005 -->
      <g style="fill:#262626;" transform="translate(87.897162 182.433594)scale(0.11 -0.11)">
       <use xlink:href="#ArialMT-48"/>
       <use x="55.615234" xlink:href="#ArialMT-46"/>
       <use x="83.398438" xlink:href="#ArialMT-48"/>
       <use x="139.013672" xlink:href="#ArialMT-48"/>
       <use x="194.628906" xlink:href="#ArialMT-48"/>
       <use x="250.244141" xlink:href="#ArialMT-53"/>
      </g>
     </g>
    </g>
    <g id="xtick_20">
     <g id="line2d_99">
      <g>
       <use style="fill:#262626;stroke:#262626;stroke-width:1.25;" x="155.44202" xlink:href="#m579932e2ef" y="165.06"/>
      </g>
     </g>
     <g id="text_38">
      <!-- 0.0010 -->
      <g style="fill:#262626;" transform="translate(138.621473 182.433594)scale(0.11 -0.11)">
       <use xlink:href="#ArialMT-48"/>
       <use x="55.615234" xlink:href="#ArialMT-46"/>
       <use x="83.398438" xlink:href="#ArialMT-48"/>
       <use x="139.013672" xlink:href="#ArialMT-48"/>
       <use x="194.628906" xlink:href="#ArialMT-49"/>
       <use x="250.244141" xlink:href="#ArialMT-48"/>
      </g>
     </g>
    </g>
    <g id="xtick_21">
     <g id="line2d_100">
      <g>
       <use style="fill:#262626;stroke:#262626;stroke-width:1.25;" x="206.16633" xlink:href="#m579932e2ef" y="165.06"/>
      </g>
     </g>
     <g id="text_39">
      <!-- 0.0015 -->
      <g style="fill:#262626;" transform="translate(189.345784 182.433594)scale(0.11 -0.11)">
       <use xlink:href="#ArialMT-48"/>
       <use x="55.615234" xlink:href="#ArialMT-46"/>
       <use x="83.398438" xlink:href="#ArialMT-48"/>
       <use x="139.013672" xlink:href="#ArialMT-48"/>
       <use x="194.628906" xlink:href="#ArialMT-49"/>
       <use x="250.244141" xlink:href="#ArialMT-53"/>
      </g>
     </g>
    </g>
    <g id="xtick_22">
     <g id="line2d_101">
      <g>
       <use style="fill:#262626;stroke:#262626;stroke-width:1.25;" x="256.890641" xlink:href="#m579932e2ef" y="165.06"/>
      </g>
     </g>
     <g id="text_40">
      <!-- 0.0020 -->
      <g style="fill:#262626;" transform="translate(240.070094 182.433594)scale(0.11 -0.11)">
       <use xlink:href="#ArialMT-48"/>
       <use x="55.615234" xlink:href="#ArialMT-46"/>
       <use x="83.398438" xlink:href="#ArialMT-48"/>
       <use x="139.013672" xlink:href="#ArialMT-48"/>
       <use x="194.628906" xlink:href="#ArialMT-50"/>
       <use x="250.244141" xlink:href="#ArialMT-48"/>
      </g>
     </g>
    </g>
    <g id="xtick_23">
     <g id="line2d_102">
      <g>
       <use style="fill:#262626;stroke:#262626;stroke-width:1.25;" x="307.614952" xlink:href="#m579932e2ef" y="165.06"/>
      </g>
     </g>
     <g id="text_41">
      <!-- 0.0025 -->
      <g style="fill:#262626;" transform="translate(290.794405 182.433594)scale(0.11 -0.11)">
       <use xlink:href="#ArialMT-48"/>
       <use x="55.615234" xlink:href="#ArialMT-46"/>
       <use x="83.398438" xlink:href="#ArialMT-48"/>
       <use x="139.013672" xlink:href="#ArialMT-48"/>
       <use x="194.628906" xlink:href="#ArialMT-50"/>
       <use x="250.244141" xlink:href="#ArialMT-53"/>
      </g>
     </g>
    </g>
    <g id="xtick_24">
     <g id="line2d_103">
      <g>
       <use style="fill:#262626;stroke:#262626;stroke-width:1.25;" x="358.339262" xlink:href="#m579932e2ef" y="165.06"/>
      </g>
     </g>
     <g id="text_42">
      <!-- 0.0030 -->
      <g style="fill:#262626;" transform="translate(341.518715 182.433594)scale(0.11 -0.11)">
       <use xlink:href="#ArialMT-48"/>
       <use x="55.615234" xlink:href="#ArialMT-46"/>
       <use x="83.398438" xlink:href="#ArialMT-48"/>
       <use x="139.013672" xlink:href="#ArialMT-48"/>
       <use x="194.628906" xlink:href="#ArialMT-51"/>
       <use x="250.244141" xlink:href="#ArialMT-48"/>
      </g>
     </g>
    </g>
    <g id="xtick_25">
     <g id="line2d_104">
      <g>
       <use style="fill:#262626;stroke:#262626;stroke-width:1.25;" x="409.063573" xlink:href="#m579932e2ef" y="165.06"/>
      </g>
     </g>
     <g id="text_43">
      <!-- 0.0035 -->
      <g style="fill:#262626;" transform="translate(392.243026 182.433594)scale(0.11 -0.11)">
       <use xlink:href="#ArialMT-48"/>
       <use x="55.615234" xlink:href="#ArialMT-46"/>
       <use x="83.398438" xlink:href="#ArialMT-48"/>
       <use x="139.013672" xlink:href="#ArialMT-48"/>
       <use x="194.628906" xlink:href="#ArialMT-51"/>
       <use x="250.244141" xlink:href="#ArialMT-53"/>
      </g>
     </g>
    </g>
    <g id="xtick_26">
     <g id="line2d_105">
      <g>
       <use style="fill:#262626;stroke:#262626;stroke-width:1.25;" x="459.787883" xlink:href="#m579932e2ef" y="165.06"/>
      </g>
     </g>
     <g id="text_44">
      <!-- 0.0040 -->
      <g style="fill:#262626;" transform="translate(442.967336 182.433594)scale(0.11 -0.11)">
       <use xlink:href="#ArialMT-48"/>
       <use x="55.615234" xlink:href="#ArialMT-46"/>
       <use x="83.398438" xlink:href="#ArialMT-48"/>
       <use x="139.013672" xlink:href="#ArialMT-48"/>
       <use x="194.628906" xlink:href="#ArialMT-52"/>
       <use x="250.244141" xlink:href="#ArialMT-48"/>
      </g>
     </g>
    </g>
    <g id="text_45">
     <!-- [s] -->
     <g style="fill:#262626;" transform="translate(263.30625 197.209219)scale(0.12 -0.12)">
      <use xlink:href="#ArialMT-91"/>
      <use x="27.783203" xlink:href="#ArialMT-115"/>
      <use x="77.783203" xlink:href="#ArialMT-93"/>
     </g>
    </g>
   </g>
   <g id="matplotlib.axis_6">
    <g id="ytick_12">
     <g id="line2d_106">
      <g>
       <use style="fill:#262626;stroke:#262626;stroke-width:1.25;" x="60.48" xlink:href="#mcb9a48fbce" y="158.158261"/>
      </g>
     </g>
     <g id="text_46">
      <!-- 0 -->
      <g style="fill:#262626;" transform="translate(44.862969 162.095058)scale(0.11 -0.11)">
       <use xlink:href="#ArialMT-48"/>
      </g>
     </g>
    </g>
    <g id="ytick_13">
     <g id="line2d_107">
      <g>
       <use style="fill:#262626;stroke:#262626;stroke-width:1.25;" x="60.48" xlink:href="#mcb9a48fbce" y="125.581676"/>
      </g>
     </g>
     <g id="text_47">
      <!-- 20 -->
      <g style="fill:#262626;" transform="translate(38.745937 129.518473)scale(0.11 -0.11)">
       <use xlink:href="#ArialMT-50"/>
       <use x="55.615234" xlink:href="#ArialMT-48"/>
      </g>
     </g>
    </g>
    <g id="ytick_14">
     <g id="line2d_108">
      <g>
       <use style="fill:#262626;stroke:#262626;stroke-width:1.25;" x="60.48" xlink:href="#mcb9a48fbce" y="93.00509"/>
      </g>
     </g>
     <g id="text_48">
      <!-- 40 -->
      <g style="fill:#262626;" transform="translate(38.745937 96.941887)scale(0.11 -0.11)">
       <use xlink:href="#ArialMT-52"/>
       <use x="55.615234" xlink:href="#ArialMT-48"/>
      </g>
     </g>
    </g>
    <g id="ytick_15">
     <g id="line2d_109">
      <g>
       <use style="fill:#262626;stroke:#262626;stroke-width:1.25;" x="60.48" xlink:href="#mcb9a48fbce" y="60.428505"/>
      </g>
     </g>
     <g id="text_49">
      <!-- 60 -->
      <g style="fill:#262626;" transform="translate(38.745937 64.365302)scale(0.11 -0.11)">
       <use xlink:href="#ArialMT-54"/>
       <use x="55.615234" xlink:href="#ArialMT-48"/>
      </g>
     </g>
    </g>
    <g id="text_50">
     <!-- $I_{tor}$ [kA] -->
     <defs>
      <path d="M 16.890625 72.90625 
L 26.8125 72.90625 
L 12.59375 0 
L 2.6875 0 
z
" id="DejaVuSans-Oblique-73"/>
      <path d="M 42.28125 54.6875 
L 40.921875 47.703125 
L 23 47.703125 
L 17.1875 18.015625 
Q 16.890625 16.359375 16.75 15.234375 
Q 16.609375 14.109375 16.609375 13.484375 
Q 16.609375 10.359375 18.484375 8.9375 
Q 20.359375 7.515625 24.515625 7.515625 
L 33.59375 7.515625 
L 32.078125 0 
L 23.484375 0 
Q 15.484375 0 11.546875 3.125 
Q 7.625 6.25 7.625 12.59375 
Q 7.625 13.71875 7.765625 15.0625 
Q 7.90625 16.40625 8.203125 18.015625 
L 14.015625 47.703125 
L 6.390625 47.703125 
L 7.8125 54.6875 
L 15.28125 54.6875 
L 18.3125 70.21875 
L 27.296875 70.21875 
L 24.3125 54.6875 
z
" id="DejaVuSans-Oblique-116"/>
      <path d="M 25.390625 -1.421875 
Q 15.765625 -1.421875 10.171875 4.515625 
Q 4.59375 10.453125 4.59375 20.703125 
Q 4.59375 26.65625 6.515625 32.828125 
Q 8.453125 39.015625 11.53125 43.21875 
Q 16.359375 49.75 22.3125 52.875 
Q 28.265625 56 35.796875 56 
Q 45.125 56 50.859375 50.1875 
Q 56.59375 44.390625 56.59375 35.015625 
Q 56.59375 28.515625 54.6875 22.0625 
Q 52.78125 15.625 49.703125 11.375 
Q 44.921875 4.828125 38.96875 1.703125 
Q 33.015625 -1.421875 25.390625 -1.421875 
z
M 13.921875 21 
Q 13.921875 13.578125 17.015625 9.890625 
Q 20.125 6.203125 26.421875 6.203125 
Q 35.453125 6.203125 41.375 14.078125 
Q 47.3125 21.96875 47.3125 34.078125 
Q 47.3125 41.15625 44.140625 44.765625 
Q 40.96875 48.390625 34.8125 48.390625 
Q 29.734375 48.390625 25.78125 46.015625 
Q 21.828125 43.65625 18.703125 38.8125 
Q 16.40625 35.203125 15.15625 30.5625 
Q 13.921875 25.921875 13.921875 21 
z
" id="DejaVuSans-Oblique-111"/>
      <path d="M 44.578125 46.390625 
Q 43.21875 47.125 41.453125 47.515625 
Q 39.703125 47.90625 37.703125 47.90625 
Q 30.515625 47.90625 25.140625 42.453125 
Q 19.78125 37.015625 18.015625 27.875 
L 12.5 0 
L 3.515625 0 
L 14.203125 54.6875 
L 23.1875 54.6875 
L 21.484375 46.1875 
Q 25.046875 50.921875 30 53.453125 
Q 34.96875 56 40.578125 56 
Q 42.046875 56 43.453125 55.828125 
Q 44.875 55.671875 46.296875 55.28125 
z
" id="DejaVuSans-Oblique-114"/>
      <path d="M -0.140625 0 
L 27.34375 71.578125 
L 37.546875 71.578125 
L 66.84375 0 
L 56.0625 0 
L 47.703125 21.6875 
L 17.78125 21.6875 
L 9.90625 0 
z
M 20.515625 29.390625 
L 44.78125 29.390625 
L 37.3125 49.21875 
Q 33.890625 58.25 32.234375 64.0625 
Q 30.859375 57.171875 28.375 50.390625 
z
" id="ArialMT-65"/>
     </defs>
     <g style="fill:#4c72b0;" transform="translate(32.345937 116.598)rotate(-90)scale(0.12 -0.12)">
      <use transform="translate(0 0.09375)" xlink:href="#DejaVuSans-Oblique-73"/>
      <use transform="translate(29.492188 -16.3125)scale(0.7)" xlink:href="#DejaVuSans-Oblique-116"/>
      <use transform="translate(56.938477 -16.3125)scale(0.7)" xlink:href="#DejaVuSans-Oblique-111"/>
      <use transform="translate(99.765625 -16.3125)scale(0.7)" xlink:href="#DejaVuSans-Oblique-114"/>
      <use transform="translate(131.279297 0.09375)" xlink:href="#ArialMT-32"/>
      <use transform="translate(159.0625 0.09375)" xlink:href="#ArialMT-91"/>
      <use transform="translate(186.845703 0.09375)" xlink:href="#ArialMT-107"/>
      <use transform="translate(236.845703 0.09375)" xlink:href="#ArialMT-65"/>
      <use transform="translate(303.544922 0.09375)" xlink:href="#ArialMT-93"/>
     </g>
    </g>
   </g>
   <g id="LineCollection_13">
    <path clip-path="url(#p5be0fae6f3)" d="M 245.118541 158.158261 
L 245.118541 35.996065 
" style="fill:none;stroke:#1a1a1a;stroke-dasharray:5.55,2.4;stroke-dashoffset:0;stroke-width:1.5;"/>
   </g>
   <g id="line2d_110">
    <path clip-path="url(#p5be0fae6f3)" d="M 79.494545 158.24244 
L 81.113666 158.511022 
L 81.720836 158.639924 
L 82.732786 158.665446 
L 83.744737 158.51376 
L 84.756687 158.264386 
L 85.768637 158.16214 
L 88.804488 158.757106 
L 89.816438 158.659536 
L 91.435559 158.19662 
L 92.649899 158.155597 
L 93.864239 158.46736 
L 95.07858 158.731813 
L 96.90009 158.473534 
L 98.11443 158.129107 
L 99.126381 158.161475 
L 100.138331 158.4362 
L 101.352671 158.784314 
L 102.364621 158.776986 
L 103.174182 158.562355 
L 103.578962 158.333329 
L 103.983742 157.807972 
L 104.590912 156.148181 
L 104.793302 155.221688 
L 105.198082 148.27239 
L 105.602862 140.804228 
L 106.817203 126.926934 
L 107.221983 119.627758 
L 107.424373 119.053519 
L 107.626763 118.848019 
L 107.829153 117.892059 
L 108.233933 114.677467 
L 108.436323 114.684437 
L 108.638713 115.83829 
L 108.841103 117.764584 
L 109.650663 120.823903 
L 109.853053 119.207889 
L 110.055443 119.419651 
L 110.257833 120.227215 
L 110.662614 114.689348 
L 111.067394 118.611146 
L 111.269784 117.044423 
L 112.888904 91.716881 
L 113.496074 88.890945 
L 113.698464 87.641415 
L 113.900854 87.580588 
L 114.103244 86.948258 
L 114.305635 85.528233 
L 114.508025 85.213472 
L 115.722365 95.195413 
L 116.127145 98.269171 
L 116.329535 98.178994 
L 116.531925 97.018119 
L 116.936705 92.96431 
L 117.341485 94.552113 
L 117.543875 95.563258 
L 118.151046 101.616639 
L 118.353436 102.432228 
L 118.555826 101.622783 
L 119.365386 93.615359 
L 119.567776 91.593816 
L 119.972556 90.300508 
L 120.174946 89.485416 
L 120.782116 91.139619 
L 120.984506 90.54755 
L 121.186896 90.465244 
L 121.794066 95.92259 
L 122.198847 99.14907 
L 122.603627 103.032999 
L 123.008407 104.54981 
L 123.413187 102.165477 
L 123.615577 102.232482 
L 123.817967 103.272189 
L 124.020357 105.150259 
L 124.222747 105.971385 
L 124.425137 105.549109 
L 124.627527 105.567929 
L 125.032307 107.673542 
L 125.234697 107.539241 
L 125.437087 106.279157 
L 126.246648 98.34008 
L 126.651428 97.30865 
L 126.853818 97.425255 
L 127.056208 97.688189 
L 127.258598 97.362916 
L 127.460988 96.09023 
L 127.663378 93.929464 
L 127.865768 93.213109 
L 128.270548 96.3161 
L 128.472938 96.769394 
L 128.675328 97.862359 
L 129.282498 106.498654 
L 129.484888 106.936591 
L 130.092059 104.764079 
L 130.294449 106.455046 
L 130.699229 111.996326 
L 130.901619 111.997043 
L 131.104009 110.693265 
L 131.913569 103.281086 
L 132.115959 102.449921 
L 132.723129 96.858294 
L 132.925519 96.506546 
L 133.127909 96.536831 
L 133.73508 99.532221 
L 134.34225 96.287385 
L 134.54464 95.760398 
L 134.74703 96.838272 
L 135.55659 106.032226 
L 135.96137 107.953403 
L 136.16376 108.39921 
L 136.36615 107.844208 
L 136.56854 106.954697 
L 136.77093 108.098379 
L 137.378101 114.50129 
L 137.580491 114.410161 
L 137.782881 112.110958 
L 137.985271 111.098539 
L 138.187661 109.261096 
L 138.794831 99.699455 
L 139.402001 93.032939 
L 139.604391 92.303649 
L 139.806781 92.268687 
L 140.211561 94.47795 
L 140.413951 95.507896 
L 140.616341 95.671025 
L 141.021121 91.213295 
L 141.223512 92.194486 
L 142.437852 105.710545 
L 142.640242 106.646784 
L 142.842632 105.878795 
L 143.247412 101.364547 
L 143.449802 102.121018 
L 144.259362 109.737875 
L 144.461752 109.288769 
L 144.664142 108.110913 
L 144.866532 106.129167 
L 145.473703 95.591896 
L 145.878483 90.492039 
L 146.080873 89.793751 
L 146.283263 90.117432 
L 146.688043 91.154513 
L 146.890433 90.9794 
L 147.295213 86.962364 
L 147.497603 86.620829 
L 147.699993 86.592385 
L 147.902383 87.349315 
L 148.914334 102.647839 
L 149.116724 103.373492 
L 149.319114 102.207952 
L 149.521504 102.514189 
L 149.723894 103.843411 
L 149.926284 104.163203 
L 150.128674 103.946259 
L 150.331064 103.462002 
L 150.735844 103.188467 
L 151.343014 97.062681 
L 151.747794 91.381325 
L 152.354964 82.53915 
L 152.557354 81.452138 
L 152.759745 82.012238 
L 152.962135 83.306865 
L 153.164525 83.39744 
L 153.771695 80.493476 
L 153.974085 79.846534 
L 154.176475 78.725148 
L 154.783645 82.217132 
L 154.986035 85.383296 
L 155.390815 93.64745 
L 155.593205 93.56588 
L 156.200375 87.870233 
L 156.402765 88.744254 
L 156.807546 94.774764 
L 157.009936 95.529336 
L 157.212326 95.577769 
L 157.414716 94.447654 
L 158.021886 86.664759 
L 158.831446 74.815074 
L 159.033836 74.720701 
L 159.438616 76.673507 
L 159.641006 76.396355 
L 160.450567 67.890677 
L 160.652957 67.687069 
L 160.855347 69.162005 
L 162.069687 86.665319 
L 162.272077 85.279805 
L 162.474467 82.390316 
L 162.676857 81.510171 
L 162.879247 81.593277 
L 163.081637 83.209979 
L 163.486417 88.645648 
L 163.688807 89.461293 
L 163.891197 89.357156 
L 164.093587 88.602965 
L 164.295978 86.455406 
L 165.307928 64.243104 
L 165.510318 62.498473 
L 165.712708 62.485742 
L 165.915098 63.080437 
L 166.319878 65.38346 
L 167.129438 60.471679 
L 167.331828 61.763118 
L 167.736608 67.115599 
L 168.546169 75.702776 
L 168.950949 73.833325 
L 169.355729 70.487747 
L 169.558119 71.153448 
L 170.165289 77.443402 
L 170.772459 74.790783 
L 170.974849 72.482852 
L 171.379629 64.857044 
L 171.582019 62.961097 
L 171.9868 55.378413 
L 172.18919 54.142386 
L 172.39158 54.463285 
L 172.79636 55.672036 
L 172.99875 55.741127 
L 173.20114 54.524727 
L 173.40353 54.611415 
L 173.80831 56.479923 
L 174.82026 72.852398 
L 175.02265 73.486517 
L 175.22504 70.900713 
L 175.629821 64.404726 
L 175.832211 66.734944 
L 176.236991 75.094853 
L 176.439381 77.564491 
L 176.641771 76.78038 
L 176.844161 75.392237 
L 177.046551 74.973608 
L 177.451331 71.855049 
L 178.868061 53.477681 
L 179.070451 54.793801 
L 179.272841 55.263471 
L 179.677622 53.366891 
L 179.880012 53.280689 
L 180.082402 52.109503 
L 180.284792 51.713843 
L 181.094352 60.443428 
L 181.499132 66.247984 
L 181.701522 66.706934 
L 182.106302 62.813325 
L 182.308692 62.512816 
L 182.511082 63.301161 
L 183.118252 70.809929 
L 183.320643 72.60568 
L 183.523033 72.934408 
L 183.927813 69.810023 
L 184.534983 63.84851 
L 185.142153 55.370531 
L 185.749323 51.905182 
L 185.951713 51.874424 
L 186.356493 49.98473 
L 186.558883 49.906211 
L 186.761273 51.372225 
L 187.975614 67.267771 
L 188.178004 67.196031 
L 188.380394 66.651058 
L 188.582784 64.90038 
L 188.785174 64.24258 
L 188.987564 67.053321 
L 189.392344 74.797735 
L 189.797124 72.533472 
L 189.999514 72.725995 
L 190.201904 72.320518 
L 190.404294 69.771665 
L 191.011465 54.770884 
L 191.618635 46.549132 
L 191.821025 47.422812 
L 192.023415 47.64283 
L 192.225805 47.387851 
L 192.630585 44.815227 
L 192.832975 45.277239 
L 193.035365 45.051195 
L 193.237755 45.656851 
L 193.844925 53.570656 
L 194.249705 62.244983 
L 194.452095 64.54153 
L 194.654485 64.229699 
L 195.261656 58.595317 
L 195.464046 57.242436 
L 196.273606 65.662905 
L 196.475996 66.467956 
L 196.678386 65.755888 
L 196.880776 64.063886 
L 197.083166 60.926537 
L 197.690336 43.099055 
L 197.892726 41.456483 
L 198.095116 41.476058 
L 198.499896 44.875149 
L 198.702287 44.990981 
L 198.904677 44.808743 
L 199.309457 43.638863 
L 199.714237 41.53816 
L 199.916627 42.083317 
L 200.321407 47.294111 
L 201.130967 56.406265 
L 201.333357 56.292536 
L 201.738137 53.928885 
L 201.940527 55.888119 
L 202.547698 67.304144 
L 202.750088 67.176923 
L 202.952478 65.996697 
L 203.154868 65.924182 
L 203.357258 63.907849 
L 203.762038 52.894158 
L 204.571598 42.756585 
L 204.773988 43.987334 
L 204.976378 46.836322 
L 205.178768 47.810322 
L 206.190718 38.285441 
L 206.393109 39.305131 
L 207.000279 47.762966 
L 207.405059 57.842272 
L 207.607449 58.785182 
L 208.012229 52.990076 
L 208.214619 52.880474 
L 208.619399 59.006529 
L 209.024179 62.140386 
L 209.428959 64.544672 
L 209.631349 63.731268 
L 210.23852 51.592113 
L 210.6433 45.432197 
L 211.04808 40.182646 
L 211.25047 40.96539 
L 211.45286 42.399442 
L 211.65525 42.225782 
L 211.85764 41.810492 
L 212.06003 42.223402 
L 212.26242 42.078959 
L 212.46481 40.914624 
L 212.6672 40.399804 
L 212.86959 40.972489 
L 213.47676 49.348331 
L 213.88154 59.014419 
L 214.083931 59.939994 
L 214.286321 58.898175 
L 214.691101 54.057485 
L 214.893491 55.086889 
L 215.500661 65.212871 
L 215.703051 65.072523 
L 216.512611 54.245914 
L 217.119781 41.525125 
L 217.524561 36.126201 
L 217.726951 37.495392 
L 218.131732 42.746754 
L 218.536512 43.683127 
L 218.738902 43.690818 
L 218.941292 43.267505 
L 219.346072 40.324719 
L 219.548462 40.757968 
L 219.953242 46.665836 
L 220.560412 56.59322 
L 220.762802 56.504477 
L 221.167582 54.715405 
L 221.369972 55.645371 
L 221.774753 61.418798 
L 221.977143 62.496099 
L 222.179533 62.494786 
L 222.584313 64.433334 
L 222.786703 62.63601 
L 223.191483 52.260163 
L 223.393873 46.817265 
L 224.001043 39.600285 
L 224.203433 39.339609 
L 224.608213 43.235517 
L 224.810603 42.265777 
L 225.620164 34.783067 
L 225.822554 34.512545 
L 226.227334 41.401019 
L 227.036894 56.621606 
L 227.441674 54.074096 
L 227.644064 53.917822 
L 227.846454 54.29387 
L 228.251234 60.674937 
L 228.656014 65.331683 
L 229.060794 66.036279 
L 229.263184 64.437204 
L 230.072745 43.922138 
L 230.477525 37.496874 
L 230.679915 36.927094 
L 231.287085 42.104905 
L 231.489475 41.797554 
L 232.299035 37.14232 
L 232.501425 39.158778 
L 233.108595 49.108549 
L 233.513376 58.66519 
L 233.715766 59.362096 
L 233.918156 58.83158 
L 234.322936 55.3713 
L 234.525326 57.466111 
L 234.930106 63.165067 
L 235.334886 66.058826 
L 235.537276 66.304521 
L 235.739666 64.991303 
L 235.942056 62.906559 
L 236.954006 41.063527 
L 237.156397 39.33369 
L 237.561177 44.509232 
L 237.763567 44.19225 
L 238.168347 41.681811 
L 238.370737 41.104898 
L 238.775517 39.260331 
L 239.180297 44.970264 
L 239.585077 51.930226 
L 239.989857 59.707313 
L 240.192247 59.715995 
L 240.597027 57.575399 
L 240.799417 58.440573 
L 241.608978 69.295833 
L 242.216148 64.68893 
L 242.620928 55.696404 
L 243.228098 42.484737 
L 243.430488 39.22778 
L 243.632878 39.088702 
L 244.442438 46.888549 
L 244.847219 44.963112 
L 245.454389 41.312611 
L 245.656779 43.426741 
L 246.466339 60.045578 
L 246.668729 60.846908 
L 247.275899 58.628638 
L 247.478289 60.299246 
L 247.883069 64.902559 
L 248.287849 66.430338 
L 248.89502 67.692114 
L 249.09741 64.614906 
L 249.50219 55.180527 
L 250.10936 45.139015 
L 250.31175 45.060465 
L 250.71653 48.302207 
L 250.91892 48.339861 
L 251.12131 47.235907 
L 251.72848 46.278905 
L 252.33565 54.552917 
L 253.145211 67.394859 
L 253.347601 67.449361 
L 253.549991 66.827719 
L 253.752381 65.772474 
L 253.954771 66.441142 
L 254.359551 69.598268 
L 254.764331 71.568241 
L 254.966721 71.30714 
L 255.169111 70.74396 
L 255.371501 68.667155 
L 256.383452 46.898161 
L 256.585842 47.067658 
L 257.395402 52.245632 
L 258.204962 49.589491 
L 258.609742 47.812661 
L 258.812132 50.516363 
L 259.621692 67.682502 
L 259.824082 67.464663 
L 260.026472 67.470888 
L 260.228863 69.065957 
L 261.038423 78.424192 
L 261.240813 78.700263 
L 261.645593 75.969801 
L 262.050373 72.486957 
L 262.252763 70.145221 
L 263.062323 52.990623 
L 263.264713 53.157547 
L 263.669493 54.259421 
L 263.871883 54.740127 
L 264.074274 55.552678 
L 264.681444 59.716308 
L 265.086224 63.299184 
L 265.491004 65.394725 
L 265.693394 66.223861 
L 266.300564 70.889593 
L 266.502954 71.267441 
L 266.907734 73.575345 
L 268.324465 83.89427 
L 268.526855 84.463086 
L 268.729245 84.658882 
L 268.931635 84.327092 
L 269.336415 83.011902 
L 269.538805 82.573595 
L 269.741195 82.649768 
L 270.145975 84.527749 
L 270.753145 88.655448 
L 271.360315 93.541397 
L 271.765096 95.227322 
L 272.372266 97.263414 
L 273.181826 101.991192 
L 273.991386 104.497599 
L 274.598556 106.675119 
L 275.610507 109.452011 
L 276.015287 110.911647 
L 278.039187 119.710539 
L 278.646357 121.360147 
L 279.455918 124.283329 
L 280.063088 125.635855 
L 281.682208 129.998289 
L 283.098939 133.428232 
L 285.325229 139.422113 
L 286.134789 141.07578 
L 289.17064 147.028317 
L 289.77781 148.422773 
L 291.194541 151.006323 
L 293.218441 153.811743 
L 294.432781 155.295406 
L 296.051902 157.028027 
L 297.063852 157.766973 
L 297.873412 158.113168 
L 298.885363 158.290687 
L 303.337944 158.444171 
L 317.302857 158.619157 
L 328.43431 158.710793 
L 338.351423 158.765274 
L 383.686795 158.812228 
L 394.008687 158.792311 
L 407.164041 158.759595 
L 415.057253 158.72987 
L 457.761554 158.601333 
L 459.785455 158.590512 
L 459.785455 158.590512 
" style="fill:none;stroke:#4c72b0;stroke-linecap:round;"/>
   </g>
   <g id="patch_15">
    <path d="M 60.48 165.06 
L 60.48 28.296 
" style="fill:none;stroke:#262626;stroke-linecap:square;stroke-linejoin:miter;stroke-width:1.25;"/>
   </g>
   <g id="patch_16">
    <path d="M 478.8 165.06 
L 478.8 28.296 
" style="fill:none;stroke:#262626;stroke-linecap:square;stroke-linejoin:miter;stroke-width:1.25;"/>
   </g>
   <g id="patch_17">
    <path d="M 60.48 165.06 
L 478.8 165.06 
" style="fill:none;stroke:#262626;stroke-linecap:square;stroke-linejoin:miter;stroke-width:1.25;"/>
   </g>
   <g id="patch_18">
    <path d="M 60.48 28.296 
L 478.8 28.296 
" style="fill:none;stroke:#262626;stroke-linecap:square;stroke-linejoin:miter;stroke-width:1.25;"/>
   </g>
   <g id="text_51">
    <!-- Shot 190514022, Fuel: D -->
    <defs>
     <path d="M 4.5 23 
L 13.421875 23.78125 
Q 14.0625 18.40625 16.375 14.96875 
Q 18.703125 11.53125 23.578125 9.40625 
Q 28.46875 7.28125 34.578125 7.28125 
Q 39.984375 7.28125 44.140625 8.890625 
Q 48.296875 10.5 50.3125 13.296875 
Q 52.34375 16.109375 52.34375 19.4375 
Q 52.34375 22.796875 50.390625 25.3125 
Q 48.4375 27.828125 43.953125 29.546875 
Q 41.0625 30.671875 31.203125 33.03125 
Q 21.34375 35.40625 17.390625 37.5 
Q 12.25 40.1875 9.734375 44.15625 
Q 7.234375 48.140625 7.234375 53.078125 
Q 7.234375 58.5 10.296875 63.203125 
Q 13.375 67.921875 19.28125 70.359375 
Q 25.203125 72.796875 32.421875 72.796875 
Q 40.375 72.796875 46.453125 70.234375 
Q 52.546875 67.671875 55.8125 62.6875 
Q 59.078125 57.71875 59.328125 51.421875 
L 50.25 50.734375 
Q 49.515625 57.515625 45.28125 60.984375 
Q 41.0625 64.453125 32.8125 64.453125 
Q 24.21875 64.453125 20.28125 61.296875 
Q 16.359375 58.15625 16.359375 53.71875 
Q 16.359375 49.859375 19.140625 47.359375 
Q 21.875 44.875 33.421875 42.265625 
Q 44.96875 39.65625 49.265625 37.703125 
Q 55.515625 34.8125 58.484375 30.390625 
Q 61.46875 25.984375 61.46875 20.21875 
Q 61.46875 14.5 58.203125 9.4375 
Q 54.9375 4.390625 48.796875 1.578125 
Q 42.671875 -1.21875 35.015625 -1.21875 
Q 25.296875 -1.21875 18.71875 1.609375 
Q 12.15625 4.4375 8.421875 10.125 
Q 4.6875 15.828125 4.5 23 
z
" id="ArialMT-83"/>
     <path d="M 6.59375 0 
L 6.59375 71.578125 
L 15.375 71.578125 
L 15.375 45.90625 
Q 21.53125 53.03125 30.90625 53.03125 
Q 36.671875 53.03125 40.921875 50.75 
Q 45.171875 48.484375 47 44.484375 
Q 48.828125 40.484375 48.828125 32.859375 
L 48.828125 0 
L 40.046875 0 
L 40.046875 32.859375 
Q 40.046875 39.453125 37.1875 42.453125 
Q 34.328125 45.453125 29.109375 45.453125 
Q 25.203125 45.453125 21.75 43.421875 
Q 18.3125 41.40625 16.84375 37.9375 
Q 15.375 34.46875 15.375 28.375 
L 15.375 0 
z
" id="ArialMT-104"/>
     <path d="M 5.46875 16.546875 
L 13.921875 17.328125 
Q 14.984375 11.375 18.015625 8.6875 
Q 21.046875 6 25.78125 6 
Q 29.828125 6 32.875 7.859375 
Q 35.9375 9.71875 37.890625 12.8125 
Q 39.84375 15.921875 41.15625 21.1875 
Q 42.484375 26.46875 42.484375 31.9375 
Q 42.484375 32.515625 42.4375 33.6875 
Q 39.796875 29.5 35.234375 26.875 
Q 30.671875 24.265625 25.34375 24.265625 
Q 16.453125 24.265625 10.296875 30.703125 
Q 4.15625 37.15625 4.15625 47.703125 
Q 4.15625 58.59375 10.578125 65.234375 
Q 17 71.875 26.65625 71.875 
Q 33.640625 71.875 39.421875 68.109375 
Q 45.21875 64.359375 48.21875 57.390625 
Q 51.21875 50.4375 51.21875 37.25 
Q 51.21875 23.53125 48.234375 15.40625 
Q 45.265625 7.28125 39.375 3.03125 
Q 33.5 -1.21875 25.59375 -1.21875 
Q 17.1875 -1.21875 11.859375 3.4375 
Q 6.546875 8.109375 5.46875 16.546875 
z
M 41.453125 48.140625 
Q 41.453125 55.71875 37.421875 60.15625 
Q 33.40625 64.59375 27.734375 64.59375 
Q 21.875 64.59375 17.53125 59.8125 
Q 13.1875 55.03125 13.1875 47.40625 
Q 13.1875 40.578125 17.3125 36.296875 
Q 21.4375 32.03125 27.484375 32.03125 
Q 33.59375 32.03125 37.515625 36.296875 
Q 41.453125 40.578125 41.453125 48.140625 
z
" id="ArialMT-57"/>
     <path d="M 8.890625 0 
L 8.890625 10.015625 
L 18.890625 10.015625 
L 18.890625 0 
Q 18.890625 -5.515625 16.9375 -8.90625 
Q 14.984375 -12.3125 10.75 -14.15625 
L 8.296875 -10.40625 
Q 11.078125 -9.1875 12.390625 -6.8125 
Q 13.71875 -4.4375 13.875 0 
z
" id="ArialMT-44"/>
     <path d="M 8.203125 0 
L 8.203125 71.578125 
L 56.5 71.578125 
L 56.5 63.140625 
L 17.671875 63.140625 
L 17.671875 40.96875 
L 51.265625 40.96875 
L 51.265625 32.515625 
L 17.671875 32.515625 
L 17.671875 0 
z
" id="ArialMT-70"/>
     <path d="M 9.03125 41.84375 
L 9.03125 51.859375 
L 19.046875 51.859375 
L 19.046875 41.84375 
z
M 9.03125 0 
L 9.03125 10.015625 
L 19.046875 10.015625 
L 19.046875 0 
z
" id="ArialMT-58"/>
     <path d="M 7.71875 0 
L 7.71875 71.578125 
L 32.375 71.578125 
Q 40.71875 71.578125 45.125 70.5625 
Q 51.265625 69.140625 55.609375 65.4375 
Q 61.28125 60.640625 64.078125 53.1875 
Q 66.890625 45.75 66.890625 36.1875 
Q 66.890625 28.03125 64.984375 21.734375 
Q 63.09375 15.4375 60.109375 11.296875 
Q 57.125 7.171875 53.578125 4.796875 
Q 50.046875 2.4375 45.046875 1.21875 
Q 40.046875 0 33.546875 0 
z
M 17.1875 8.453125 
L 32.46875 8.453125 
Q 39.546875 8.453125 43.578125 9.765625 
Q 47.609375 11.078125 50 13.484375 
Q 53.375 16.84375 55.25 22.53125 
Q 57.125 28.21875 57.125 36.328125 
Q 57.125 47.5625 53.4375 53.59375 
Q 49.75 59.625 44.484375 61.671875 
Q 40.671875 63.140625 32.234375 63.140625 
L 17.1875 63.140625 
z
" id="ArialMT-68"/>
    </defs>
    <g style="fill:#262626;" transform="translate(202.930312 22.296)scale(0.12 -0.12)">
     <use xlink:href="#ArialMT-83"/>
     <use x="66.699219" xlink:href="#ArialMT-104"/>
     <use x="122.314453" xlink:href="#ArialMT-111"/>
     <use x="177.929688" xlink:href="#ArialMT-116"/>
     <use x="205.712891" xlink:href="#ArialMT-32"/>
     <use x="233.496094" xlink:href="#ArialMT-49"/>
     <use x="289.111328" xlink:href="#ArialMT-57"/>
     <use x="344.726562" xlink:href="#ArialMT-48"/>
     <use x="400.341797" xlink:href="#ArialMT-53"/>
     <use x="455.957031" xlink:href="#ArialMT-49"/>
     <use x="511.572266" xlink:href="#ArialMT-52"/>
     <use x="567.1875" xlink:href="#ArialMT-48"/>
     <use x="622.802734" xlink:href="#ArialMT-50"/>
     <use x="678.417969" xlink:href="#ArialMT-50"/>
     <use x="734.033203" xlink:href="#ArialMT-44"/>
     <use x="761.816406" xlink:href="#ArialMT-32"/>
     <use x="789.599609" xlink:href="#ArialMT-70"/>
     <use x="850.683594" xlink:href="#ArialMT-117"/>
     <use x="906.298828" xlink:href="#ArialMT-101"/>
     <use x="961.914062" xlink:href="#ArialMT-108"/>
     <use x="984.130859" xlink:href="#ArialMT-58"/>
     <use x="1011.914062" xlink:href="#ArialMT-32"/>
     <use x="1039.697266" xlink:href="#ArialMT-68"/>
    </g>
   </g>
   <g id="legend_3">
    <g id="patch_19">
     <path d="M 364.999844 68.385844 
L 471.1 68.385844 
Q 473.3 68.385844 473.3 66.185844 
L 473.3 35.996 
Q 473.3 33.796 471.1 33.796 
L 364.999844 33.796 
Q 362.799844 33.796 362.799844 35.996 
L 362.799844 66.185844 
Q 362.799844 68.385844 364.999844 68.385844 
z
" style="fill:#ffffff;opacity:0.8;stroke:#cccccc;stroke-linejoin:miter;"/>
    </g>
    <g id="line2d_111">
     <path d="M 367.199844 42.376 
L 389.199844 42.376 
" style="fill:none;stroke:#4c72b0;stroke-linecap:round;"/>
    </g>
    <g id="line2d_112"/>
    <g id="text_52">
     <!-- $I_{tor}$ [kA] -->
     <g style="fill:#262626;" transform="translate(397.999844 46.226)scale(0.11 -0.11)">
      <use transform="translate(0 0.09375)" xlink:href="#DejaVuSans-Oblique-73"/>
      <use transform="translate(29.492188 -16.3125)scale(0.7)" xlink:href="#DejaVuSans-Oblique-116"/>
      <use transform="translate(56.938477 -16.3125)scale(0.7)" xlink:href="#DejaVuSans-Oblique-111"/>
      <use transform="translate(99.765625 -16.3125)scale(0.7)" xlink:href="#DejaVuSans-Oblique-114"/>
      <use transform="translate(131.279297 0.09375)" xlink:href="#ArialMT-32"/>
      <use transform="translate(159.0625 0.09375)" xlink:href="#ArialMT-91"/>
      <use transform="translate(186.845703 0.09375)" xlink:href="#ArialMT-107"/>
      <use transform="translate(236.845703 0.09375)" xlink:href="#ArialMT-65"/>
      <use transform="translate(303.544922 0.09375)" xlink:href="#ArialMT-93"/>
     </g>
    </g>
    <g id="line2d_113">
     <path d="M 367.199844 57.949594 
L 389.199844 57.949594 
" style="fill:none;stroke:#1a1a1a;stroke-dasharray:5.55,2.4;stroke-dashoffset:0;stroke-width:1.5;"/>
    </g>
    <g id="text_53">
     <!-- TS meas. time -->
     <g style="fill:#262626;" transform="translate(397.999844 61.799594)scale(0.11 -0.11)">
      <use xlink:href="#ArialMT-84"/>
      <use x="61.083984" xlink:href="#ArialMT-83"/>
      <use x="127.783203" xlink:href="#ArialMT-32"/>
      <use x="155.566406" xlink:href="#ArialMT-109"/>
      <use x="238.867188" xlink:href="#ArialMT-101"/>
      <use x="294.482422" xlink:href="#ArialMT-97"/>
      <use x="350.097656" xlink:href="#ArialMT-115"/>
      <use x="400.097656" xlink:href="#ArialMT-46"/>
      <use x="427.880859" xlink:href="#ArialMT-32"/>
      <use x="455.664062" xlink:href="#ArialMT-116"/>
      <use x="483.447266" xlink:href="#ArialMT-105"/>
      <use x="505.664062" xlink:href="#ArialMT-109"/>
      <use x="588.964844" xlink:href="#ArialMT-101"/>
     </g>
    </g>
   </g>
  </g>
 </g>
 <defs>
  <clipPath id="p1895d10a12">
   <rect height="136.764" width="418.32" x="60.48" y="206.0892"/>
  </clipPath>
  <clipPath id="pfcf54b816a">
   <rect height="136.764" width="418.32" x="60.48" y="383.8824"/>
  </clipPath>
  <clipPath id="p5be0fae6f3">
   <rect height="136.764" width="418.32" x="60.48" y="28.296"/>
  </clipPath>
 </defs>
</svg>
