<?xml version="1.0" encoding="utf-8" standalone="no"?>
<!DOCTYPE svg PUBLIC "-//W3C//DTD SVG 1.1//EN"
  "http://www.w3.org/Graphics/SVG/1.1/DTD/svg11.dtd">
<!-- Created with matplotlib (https://matplotlib.org/) -->
<svg height="565.92pt" version="1.1" viewBox="0 0 504 565.92" width="504pt" xmlns="http://www.w3.org/2000/svg" xmlns:xlink="http://www.w3.org/1999/xlink">
 <defs>
  <style type="text/css">
*{stroke-linecap:butt;stroke-linejoin:round;}
  </style>
 </defs>
 <g id="figure_1">
  <g id="patch_1">
   <path d="M 0 565.92 
L 504 565.92 
L 504 0 
L 0 0 
z
" style="fill:#ffffff;"/>
  </g>
  <g id="axes_1">
   <g id="patch_2">
    <path d="M 60.48 342.8532 
L 478.8 342.8532 
L 478.8 206.0892 
L 60.48 206.0892 
z
" style="fill:#ffffff;"/>
   </g>
   <g id="matplotlib.axis_1">
    <g id="xtick_1">
     <g id="line2d_1">
      <path clip-path="url(#p0c42be165b)" d="M 60.48 342.8532 
L 60.48 206.0892 
" style="fill:none;stroke:#cccccc;stroke-dasharray:0.5,0.825;stroke-dashoffset:0;stroke-width:0.5;"/>
     </g>
     <g id="line2d_2">
      <defs>
       <path d="M 0 0 
L 0 6 
" id="ma6c941dfe7" style="stroke:#262626;stroke-width:1.25;"/>
      </defs>
      <g>
       <use style="fill:#262626;stroke:#262626;stroke-width:1.25;" x="60.48" xlink:href="#ma6c941dfe7" y="342.8532"/>
      </g>
     </g>
     <g id="text_1">
      <!-- 0.200 -->
      <defs>
       <path d="M 4.15625 35.296875 
Q 4.15625 48 6.765625 55.734375 
Q 9.375 63.484375 14.515625 67.671875 
Q 19.671875 71.875 27.484375 71.875 
Q 33.25 71.875 37.59375 69.546875 
Q 41.9375 67.234375 44.765625 62.859375 
Q 47.609375 58.5 49.21875 52.21875 
Q 50.828125 45.953125 50.828125 35.296875 
Q 50.828125 22.703125 48.234375 14.96875 
Q 45.65625 7.234375 40.5 3 
Q 35.359375 -1.21875 27.484375 -1.21875 
Q 17.140625 -1.21875 11.234375 6.203125 
Q 4.15625 15.140625 4.15625 35.296875 
z
M 13.1875 35.296875 
Q 13.1875 17.671875 17.3125 11.828125 
Q 21.4375 6 27.484375 6 
Q 33.546875 6 37.671875 11.859375 
Q 41.796875 17.71875 41.796875 35.296875 
Q 41.796875 52.984375 37.671875 58.78125 
Q 33.546875 64.59375 27.390625 64.59375 
Q 21.34375 64.59375 17.71875 59.46875 
Q 13.1875 52.9375 13.1875 35.296875 
z
" id="ArialMT-48"/>
       <path d="M 9.078125 0 
L 9.078125 10.015625 
L 19.09375 10.015625 
L 19.09375 0 
z
" id="ArialMT-46"/>
       <path d="M 50.34375 8.453125 
L 50.34375 0 
L 3.03125 0 
Q 2.9375 3.171875 4.046875 6.109375 
Q 5.859375 10.9375 9.828125 15.625 
Q 13.8125 20.3125 21.34375 26.46875 
Q 33.015625 36.03125 37.109375 41.625 
Q 41.21875 47.21875 41.21875 52.203125 
Q 41.21875 57.421875 37.46875 61 
Q 33.734375 64.59375 27.734375 64.59375 
Q 21.390625 64.59375 17.578125 60.78125 
Q 13.765625 56.984375 13.71875 50.25 
L 4.6875 51.171875 
Q 5.609375 61.28125 11.65625 66.578125 
Q 17.71875 71.875 27.9375 71.875 
Q 38.234375 71.875 44.234375 66.15625 
Q 50.25 60.453125 50.25 52 
Q 50.25 47.703125 48.484375 43.546875 
Q 46.734375 39.40625 42.65625 34.8125 
Q 38.578125 30.21875 29.109375 22.21875 
Q 21.1875 15.578125 18.9375 13.203125 
Q 16.703125 10.84375 15.234375 8.453125 
z
" id="ArialMT-50"/>
      </defs>
      <g style="fill:#262626;" transform="translate(46.717969 360.226794)scale(0.11 -0.11)">
       <use xlink:href="#ArialMT-48"/>
       <use x="55.615234" xlink:href="#ArialMT-46"/>
       <use x="83.398438" xlink:href="#ArialMT-50"/>
       <use x="139.013672" xlink:href="#ArialMT-48"/>
       <use x="194.628906" xlink:href="#ArialMT-48"/>
      </g>
     </g>
    </g>
    <g id="xtick_2">
     <g id="line2d_3">
      <path clip-path="url(#p0c42be165b)" d="M 112.77 342.8532 
L 112.77 206.0892 
" style="fill:none;stroke:#cccccc;stroke-dasharray:0.5,0.825;stroke-dashoffset:0;stroke-width:0.5;"/>
     </g>
     <g id="line2d_4">
      <g>
       <use style="fill:#262626;stroke:#262626;stroke-width:1.25;" x="112.77" xlink:href="#ma6c941dfe7" y="342.8532"/>
      </g>
     </g>
     <g id="text_2">
      <!-- 0.225 -->
      <defs>
       <path d="M 4.15625 18.75 
L 13.375 19.53125 
Q 14.40625 12.796875 18.140625 9.390625 
Q 21.875 6 27.15625 6 
Q 33.5 6 37.890625 10.78125 
Q 42.28125 15.578125 42.28125 23.484375 
Q 42.28125 31 38.0625 35.34375 
Q 33.84375 39.703125 27 39.703125 
Q 22.75 39.703125 19.328125 37.765625 
Q 15.921875 35.84375 13.96875 32.765625 
L 5.71875 33.84375 
L 12.640625 70.609375 
L 48.25 70.609375 
L 48.25 62.203125 
L 19.671875 62.203125 
L 15.828125 42.96875 
Q 22.265625 47.46875 29.34375 47.46875 
Q 38.71875 47.46875 45.15625 40.96875 
Q 51.609375 34.46875 51.609375 24.265625 
Q 51.609375 14.546875 45.953125 7.46875 
Q 39.0625 -1.21875 27.15625 -1.21875 
Q 17.390625 -1.21875 11.203125 4.25 
Q 5.03125 9.71875 4.15625 18.75 
z
" id="ArialMT-53"/>
      </defs>
      <g style="fill:#262626;" transform="translate(99.007969 360.226794)scale(0.11 -0.11)">
       <use xlink:href="#ArialMT-48"/>
       <use x="55.615234" xlink:href="#ArialMT-46"/>
       <use x="83.398438" xlink:href="#ArialMT-50"/>
       <use x="139.013672" xlink:href="#ArialMT-50"/>
       <use x="194.628906" xlink:href="#ArialMT-53"/>
      </g>
     </g>
    </g>
    <g id="xtick_3">
     <g id="line2d_5">
      <path clip-path="url(#p0c42be165b)" d="M 165.06 342.8532 
L 165.06 206.0892 
" style="fill:none;stroke:#cccccc;stroke-dasharray:0.5,0.825;stroke-dashoffset:0;stroke-width:0.5;"/>
     </g>
     <g id="line2d_6">
      <g>
       <use style="fill:#262626;stroke:#262626;stroke-width:1.25;" x="165.06" xlink:href="#ma6c941dfe7" y="342.8532"/>
      </g>
     </g>
     <g id="text_3">
      <!-- 0.250 -->
      <g style="fill:#262626;" transform="translate(151.297969 360.226794)scale(0.11 -0.11)">
       <use xlink:href="#ArialMT-48"/>
       <use x="55.615234" xlink:href="#ArialMT-46"/>
       <use x="83.398438" xlink:href="#ArialMT-50"/>
       <use x="139.013672" xlink:href="#ArialMT-53"/>
       <use x="194.628906" xlink:href="#ArialMT-48"/>
      </g>
     </g>
    </g>
    <g id="xtick_4">
     <g id="line2d_7">
      <path clip-path="url(#p0c42be165b)" d="M 217.35 342.8532 
L 217.35 206.0892 
" style="fill:none;stroke:#cccccc;stroke-dasharray:0.5,0.825;stroke-dashoffset:0;stroke-width:0.5;"/>
     </g>
     <g id="line2d_8">
      <g>
       <use style="fill:#262626;stroke:#262626;stroke-width:1.25;" x="217.35" xlink:href="#ma6c941dfe7" y="342.8532"/>
      </g>
     </g>
     <g id="text_4">
      <!-- 0.275 -->
      <defs>
       <path d="M 4.734375 62.203125 
L 4.734375 70.65625 
L 51.078125 70.65625 
L 51.078125 63.8125 
Q 44.234375 56.546875 37.515625 44.484375 
Q 30.8125 32.421875 27.15625 19.671875 
Q 24.515625 10.6875 23.78125 0 
L 14.75 0 
Q 14.890625 8.453125 18.0625 20.40625 
Q 21.234375 32.375 27.171875 43.484375 
Q 33.109375 54.59375 39.796875 62.203125 
z
" id="ArialMT-55"/>
      </defs>
      <g style="fill:#262626;" transform="translate(203.587969 360.226794)scale(0.11 -0.11)">
       <use xlink:href="#ArialMT-48"/>
       <use x="55.615234" xlink:href="#ArialMT-46"/>
       <use x="83.398438" xlink:href="#ArialMT-50"/>
       <use x="139.013672" xlink:href="#ArialMT-55"/>
       <use x="194.628906" xlink:href="#ArialMT-53"/>
      </g>
     </g>
    </g>
    <g id="xtick_5">
     <g id="line2d_9">
      <path clip-path="url(#p0c42be165b)" d="M 269.64 342.8532 
L 269.64 206.0892 
" style="fill:none;stroke:#cccccc;stroke-dasharray:0.5,0.825;stroke-dashoffset:0;stroke-width:0.5;"/>
     </g>
     <g id="line2d_10">
      <g>
       <use style="fill:#262626;stroke:#262626;stroke-width:1.25;" x="269.64" xlink:href="#ma6c941dfe7" y="342.8532"/>
      </g>
     </g>
     <g id="text_5">
      <!-- 0.300 -->
      <defs>
       <path d="M 4.203125 18.890625 
L 12.984375 20.0625 
Q 14.5 12.59375 18.140625 9.296875 
Q 21.78125 6 27 6 
Q 33.203125 6 37.46875 10.296875 
Q 41.75 14.59375 41.75 20.953125 
Q 41.75 27 37.796875 30.921875 
Q 33.84375 34.859375 27.734375 34.859375 
Q 25.25 34.859375 21.53125 33.890625 
L 22.515625 41.609375 
Q 23.390625 41.5 23.921875 41.5 
Q 29.546875 41.5 34.03125 44.421875 
Q 38.53125 47.359375 38.53125 53.46875 
Q 38.53125 58.296875 35.25 61.46875 
Q 31.984375 64.65625 26.8125 64.65625 
Q 21.6875 64.65625 18.265625 61.421875 
Q 14.84375 58.203125 13.875 51.765625 
L 5.078125 53.328125 
Q 6.6875 62.15625 12.390625 67.015625 
Q 18.109375 71.875 26.609375 71.875 
Q 32.46875 71.875 37.390625 69.359375 
Q 42.328125 66.84375 44.9375 62.5 
Q 47.5625 58.15625 47.5625 53.265625 
Q 47.5625 48.640625 45.0625 44.828125 
Q 42.578125 41.015625 37.703125 38.765625 
Q 44.046875 37.3125 47.5625 32.6875 
Q 51.078125 28.078125 51.078125 21.140625 
Q 51.078125 11.765625 44.234375 5.25 
Q 37.40625 -1.265625 26.953125 -1.265625 
Q 17.53125 -1.265625 11.296875 4.34375 
Q 5.078125 9.96875 4.203125 18.890625 
z
" id="ArialMT-51"/>
      </defs>
      <g style="fill:#262626;" transform="translate(255.877969 360.226794)scale(0.11 -0.11)">
       <use xlink:href="#ArialMT-48"/>
       <use x="55.615234" xlink:href="#ArialMT-46"/>
       <use x="83.398438" xlink:href="#ArialMT-51"/>
       <use x="139.013672" xlink:href="#ArialMT-48"/>
       <use x="194.628906" xlink:href="#ArialMT-48"/>
      </g>
     </g>
    </g>
    <g id="xtick_6">
     <g id="line2d_11">
      <path clip-path="url(#p0c42be165b)" d="M 321.93 342.8532 
L 321.93 206.0892 
" style="fill:none;stroke:#cccccc;stroke-dasharray:0.5,0.825;stroke-dashoffset:0;stroke-width:0.5;"/>
     </g>
     <g id="line2d_12">
      <g>
       <use style="fill:#262626;stroke:#262626;stroke-width:1.25;" x="321.93" xlink:href="#ma6c941dfe7" y="342.8532"/>
      </g>
     </g>
     <g id="text_6">
      <!-- 0.325 -->
      <g style="fill:#262626;" transform="translate(308.167969 360.226794)scale(0.11 -0.11)">
       <use xlink:href="#ArialMT-48"/>
       <use x="55.615234" xlink:href="#ArialMT-46"/>
       <use x="83.398438" xlink:href="#ArialMT-51"/>
       <use x="139.013672" xlink:href="#ArialMT-50"/>
       <use x="194.628906" xlink:href="#ArialMT-53"/>
      </g>
     </g>
    </g>
    <g id="xtick_7">
     <g id="line2d_13">
      <path clip-path="url(#p0c42be165b)" d="M 374.22 342.8532 
L 374.22 206.0892 
" style="fill:none;stroke:#cccccc;stroke-dasharray:0.5,0.825;stroke-dashoffset:0;stroke-width:0.5;"/>
     </g>
     <g id="line2d_14">
      <g>
       <use style="fill:#262626;stroke:#262626;stroke-width:1.25;" x="374.22" xlink:href="#ma6c941dfe7" y="342.8532"/>
      </g>
     </g>
     <g id="text_7">
      <!-- 0.350 -->
      <g style="fill:#262626;" transform="translate(360.457969 360.226794)scale(0.11 -0.11)">
       <use xlink:href="#ArialMT-48"/>
       <use x="55.615234" xlink:href="#ArialMT-46"/>
       <use x="83.398438" xlink:href="#ArialMT-51"/>
       <use x="139.013672" xlink:href="#ArialMT-53"/>
       <use x="194.628906" xlink:href="#ArialMT-48"/>
      </g>
     </g>
    </g>
    <g id="xtick_8">
     <g id="line2d_15">
      <path clip-path="url(#p0c42be165b)" d="M 426.51 342.8532 
L 426.51 206.0892 
" style="fill:none;stroke:#cccccc;stroke-dasharray:0.5,0.825;stroke-dashoffset:0;stroke-width:0.5;"/>
     </g>
     <g id="line2d_16">
      <g>
       <use style="fill:#262626;stroke:#262626;stroke-width:1.25;" x="426.51" xlink:href="#ma6c941dfe7" y="342.8532"/>
      </g>
     </g>
     <g id="text_8">
      <!-- 0.375 -->
      <g style="fill:#262626;" transform="translate(412.747969 360.226794)scale(0.11 -0.11)">
       <use xlink:href="#ArialMT-48"/>
       <use x="55.615234" xlink:href="#ArialMT-46"/>
       <use x="83.398438" xlink:href="#ArialMT-51"/>
       <use x="139.013672" xlink:href="#ArialMT-55"/>
       <use x="194.628906" xlink:href="#ArialMT-53"/>
      </g>
     </g>
    </g>
    <g id="xtick_9">
     <g id="line2d_17">
      <path clip-path="url(#p0c42be165b)" d="M 478.8 342.8532 
L 478.8 206.0892 
" style="fill:none;stroke:#cccccc;stroke-dasharray:0.5,0.825;stroke-dashoffset:0;stroke-width:0.5;"/>
     </g>
     <g id="line2d_18">
      <g>
       <use style="fill:#262626;stroke:#262626;stroke-width:1.25;" x="478.8" xlink:href="#ma6c941dfe7" y="342.8532"/>
      </g>
     </g>
     <g id="text_9">
      <!-- 0.400 -->
      <defs>
       <path d="M 32.328125 0 
L 32.328125 17.140625 
L 1.265625 17.140625 
L 1.265625 25.203125 
L 33.9375 71.578125 
L 41.109375 71.578125 
L 41.109375 25.203125 
L 50.78125 25.203125 
L 50.78125 17.140625 
L 41.109375 17.140625 
L 41.109375 0 
z
M 32.328125 25.203125 
L 32.328125 57.46875 
L 9.90625 25.203125 
z
" id="ArialMT-52"/>
      </defs>
      <g style="fill:#262626;" transform="translate(465.037969 360.226794)scale(0.11 -0.11)">
       <use xlink:href="#ArialMT-48"/>
       <use x="55.615234" xlink:href="#ArialMT-46"/>
       <use x="83.398438" xlink:href="#ArialMT-52"/>
       <use x="139.013672" xlink:href="#ArialMT-48"/>
       <use x="194.628906" xlink:href="#ArialMT-48"/>
      </g>
     </g>
    </g>
    <g id="text_10">
     <!-- Maj. Radius [m] -->
     <defs>
      <path d="M 7.421875 0 
L 7.421875 71.578125 
L 21.6875 71.578125 
L 38.625 20.90625 
Q 40.96875 13.8125 42.046875 10.296875 
Q 43.265625 14.203125 45.84375 21.78125 
L 62.984375 71.578125 
L 75.734375 71.578125 
L 75.734375 0 
L 66.609375 0 
L 66.609375 59.90625 
L 45.796875 0 
L 37.25 0 
L 16.546875 60.9375 
L 16.546875 0 
z
" id="ArialMT-77"/>
      <path d="M 40.4375 6.390625 
Q 35.546875 2.25 31.03125 0.53125 
Q 26.515625 -1.171875 21.34375 -1.171875 
Q 12.796875 -1.171875 8.203125 3 
Q 3.609375 7.171875 3.609375 13.671875 
Q 3.609375 17.484375 5.34375 20.625 
Q 7.078125 23.78125 9.890625 25.6875 
Q 12.703125 27.59375 16.21875 28.5625 
Q 18.796875 29.25 24.03125 29.890625 
Q 34.671875 31.15625 39.703125 32.90625 
Q 39.75 34.71875 39.75 35.203125 
Q 39.75 40.578125 37.25 42.78125 
Q 33.890625 45.75 27.25 45.75 
Q 21.046875 45.75 18.09375 43.578125 
Q 15.140625 41.40625 13.71875 35.890625 
L 5.125 37.0625 
Q 6.296875 42.578125 8.984375 45.96875 
Q 11.671875 49.359375 16.75 51.1875 
Q 21.828125 53.03125 28.515625 53.03125 
Q 35.15625 53.03125 39.296875 51.46875 
Q 43.453125 49.90625 45.40625 47.53125 
Q 47.359375 45.171875 48.140625 41.546875 
Q 48.578125 39.3125 48.578125 33.453125 
L 48.578125 21.734375 
Q 48.578125 9.46875 49.140625 6.21875 
Q 49.703125 2.984375 51.375 0 
L 42.1875 0 
Q 40.828125 2.734375 40.4375 6.390625 
z
M 39.703125 26.03125 
Q 34.90625 24.078125 25.34375 22.703125 
Q 19.921875 21.921875 17.671875 20.9375 
Q 15.4375 19.96875 14.203125 18.09375 
Q 12.984375 16.21875 12.984375 13.921875 
Q 12.984375 10.40625 15.640625 8.0625 
Q 18.3125 5.71875 23.4375 5.71875 
Q 28.515625 5.71875 32.46875 7.9375 
Q 36.421875 10.15625 38.28125 14.015625 
Q 39.703125 17 39.703125 22.796875 
z
" id="ArialMT-97"/>
      <path d="M 6.546875 61.375 
L 6.546875 71.578125 
L 15.328125 71.578125 
L 15.328125 61.375 
z
M -4.59375 -20.125 
L -2.9375 -12.640625 
Q -0.296875 -13.328125 1.21875 -13.328125 
Q 3.90625 -13.328125 5.21875 -11.546875 
Q 6.546875 -9.765625 6.546875 -2.640625 
L 6.546875 51.859375 
L 15.328125 51.859375 
L 15.328125 -2.828125 
Q 15.328125 -12.40625 12.84375 -16.15625 
Q 9.671875 -21.046875 2.296875 -21.046875 
Q -1.265625 -21.046875 -4.59375 -20.125 
z
" id="ArialMT-106"/>
      <path id="ArialMT-32"/>
      <path d="M 7.859375 0 
L 7.859375 71.578125 
L 39.59375 71.578125 
Q 49.171875 71.578125 54.140625 69.640625 
Q 59.125 67.71875 62.109375 62.828125 
Q 65.09375 57.953125 65.09375 52.046875 
Q 65.09375 44.4375 60.15625 39.203125 
Q 55.21875 33.984375 44.921875 32.5625 
Q 48.6875 30.765625 50.640625 29 
Q 54.78125 25.203125 58.5 19.484375 
L 70.953125 0 
L 59.03125 0 
L 49.5625 14.890625 
Q 45.40625 21.34375 42.71875 24.75 
Q 40.046875 28.171875 37.921875 29.53125 
Q 35.796875 30.90625 33.59375 31.453125 
Q 31.984375 31.78125 28.328125 31.78125 
L 17.328125 31.78125 
L 17.328125 0 
z
M 17.328125 39.984375 
L 37.703125 39.984375 
Q 44.1875 39.984375 47.84375 41.328125 
Q 51.515625 42.671875 53.421875 45.625 
Q 55.328125 48.578125 55.328125 52.046875 
Q 55.328125 57.125 51.640625 60.390625 
Q 47.953125 63.671875 39.984375 63.671875 
L 17.328125 63.671875 
z
" id="ArialMT-82"/>
      <path d="M 40.234375 0 
L 40.234375 6.546875 
Q 35.296875 -1.171875 25.734375 -1.171875 
Q 19.53125 -1.171875 14.328125 2.25 
Q 9.125 5.671875 6.265625 11.796875 
Q 3.421875 17.921875 3.421875 25.875 
Q 3.421875 33.640625 6 39.96875 
Q 8.59375 46.296875 13.765625 49.65625 
Q 18.953125 53.03125 25.34375 53.03125 
Q 30.03125 53.03125 33.6875 51.046875 
Q 37.359375 49.078125 39.65625 45.90625 
L 39.65625 71.578125 
L 48.390625 71.578125 
L 48.390625 0 
z
M 12.453125 25.875 
Q 12.453125 15.921875 16.640625 10.984375 
Q 20.84375 6.0625 26.5625 6.0625 
Q 32.328125 6.0625 36.34375 10.765625 
Q 40.375 15.484375 40.375 25.140625 
Q 40.375 35.796875 36.265625 40.765625 
Q 32.171875 45.75 26.171875 45.75 
Q 20.3125 45.75 16.375 40.96875 
Q 12.453125 36.1875 12.453125 25.875 
z
" id="ArialMT-100"/>
      <path d="M 6.640625 61.46875 
L 6.640625 71.578125 
L 15.4375 71.578125 
L 15.4375 61.46875 
z
M 6.640625 0 
L 6.640625 51.859375 
L 15.4375 51.859375 
L 15.4375 0 
z
" id="ArialMT-105"/>
      <path d="M 40.578125 0 
L 40.578125 7.625 
Q 34.515625 -1.171875 24.125 -1.171875 
Q 19.53125 -1.171875 15.546875 0.578125 
Q 11.578125 2.34375 9.640625 5 
Q 7.71875 7.671875 6.9375 11.53125 
Q 6.390625 14.109375 6.390625 19.734375 
L 6.390625 51.859375 
L 15.1875 51.859375 
L 15.1875 23.09375 
Q 15.1875 16.21875 15.71875 13.8125 
Q 16.546875 10.359375 19.234375 8.375 
Q 21.921875 6.390625 25.875 6.390625 
Q 29.828125 6.390625 33.296875 8.421875 
Q 36.765625 10.453125 38.203125 13.9375 
Q 39.65625 17.4375 39.65625 24.078125 
L 39.65625 51.859375 
L 48.4375 51.859375 
L 48.4375 0 
z
" id="ArialMT-117"/>
      <path d="M 3.078125 15.484375 
L 11.765625 16.84375 
Q 12.5 11.625 15.84375 8.84375 
Q 19.1875 6.0625 25.203125 6.0625 
Q 31.25 6.0625 34.171875 8.515625 
Q 37.109375 10.984375 37.109375 14.3125 
Q 37.109375 17.28125 34.515625 19 
Q 32.71875 20.171875 25.53125 21.96875 
Q 15.875 24.421875 12.140625 26.203125 
Q 8.40625 27.984375 6.46875 31.125 
Q 4.546875 34.28125 4.546875 38.09375 
Q 4.546875 41.546875 6.125 44.5 
Q 7.71875 47.46875 10.453125 49.421875 
Q 12.5 50.921875 16.03125 51.96875 
Q 19.578125 53.03125 23.640625 53.03125 
Q 29.734375 53.03125 34.34375 51.265625 
Q 38.96875 49.515625 41.15625 46.5 
Q 43.359375 43.5 44.1875 38.484375 
L 35.59375 37.3125 
Q 35.015625 41.3125 32.203125 43.546875 
Q 29.390625 45.796875 24.265625 45.796875 
Q 18.21875 45.796875 15.625 43.796875 
Q 13.03125 41.796875 13.03125 39.109375 
Q 13.03125 37.40625 14.109375 36.03125 
Q 15.1875 34.625 17.484375 33.6875 
Q 18.796875 33.203125 25.25 31.453125 
Q 34.578125 28.953125 38.25 27.359375 
Q 41.9375 25.78125 44.03125 22.75 
Q 46.140625 19.734375 46.140625 15.234375 
Q 46.140625 10.84375 43.578125 6.953125 
Q 41.015625 3.078125 36.171875 0.953125 
Q 31.34375 -1.171875 25.25 -1.171875 
Q 15.140625 -1.171875 9.84375 3.03125 
Q 4.546875 7.234375 3.078125 15.484375 
z
" id="ArialMT-115"/>
      <path d="M 6.78125 -19.875 
L 6.78125 71.578125 
L 26.171875 71.578125 
L 26.171875 64.3125 
L 15.578125 64.3125 
L 15.578125 -12.59375 
L 26.171875 -12.59375 
L 26.171875 -19.875 
z
" id="ArialMT-91"/>
      <path d="M 6.59375 0 
L 6.59375 51.859375 
L 14.453125 51.859375 
L 14.453125 44.578125 
Q 16.890625 48.390625 20.9375 50.703125 
Q 25 53.03125 30.171875 53.03125 
Q 35.9375 53.03125 39.625 50.640625 
Q 43.3125 48.25 44.828125 43.953125 
Q 50.984375 53.03125 60.84375 53.03125 
Q 68.5625 53.03125 72.703125 48.75 
Q 76.859375 44.484375 76.859375 35.59375 
L 76.859375 0 
L 68.109375 0 
L 68.109375 32.671875 
Q 68.109375 37.9375 67.25 40.25 
Q 66.40625 42.578125 64.15625 43.984375 
Q 61.921875 45.40625 58.890625 45.40625 
Q 53.421875 45.40625 49.796875 41.765625 
Q 46.1875 38.140625 46.1875 30.125 
L 46.1875 0 
L 37.40625 0 
L 37.40625 33.6875 
Q 37.40625 39.546875 35.25 42.46875 
Q 33.109375 45.40625 28.21875 45.40625 
Q 24.515625 45.40625 21.359375 43.453125 
Q 18.21875 41.5 16.796875 37.734375 
Q 15.375 33.984375 15.375 26.90625 
L 15.375 0 
z
" id="ArialMT-109"/>
      <path d="M 21.296875 -19.875 
L 1.90625 -19.875 
L 1.90625 -12.59375 
L 12.5 -12.59375 
L 12.5 64.3125 
L 1.90625 64.3125 
L 1.90625 71.578125 
L 21.296875 71.578125 
z
" id="ArialMT-93"/>
     </defs>
     <g style="fill:#262626;" transform="translate(227.964375 375.002419)scale(0.12 -0.12)">
      <use xlink:href="#ArialMT-77"/>
      <use x="83.300781" xlink:href="#ArialMT-97"/>
      <use x="138.916016" xlink:href="#ArialMT-106"/>
      <use x="161.132812" xlink:href="#ArialMT-46"/>
      <use x="188.916016" xlink:href="#ArialMT-32"/>
      <use x="216.699219" xlink:href="#ArialMT-82"/>
      <use x="288.916016" xlink:href="#ArialMT-97"/>
      <use x="344.53125" xlink:href="#ArialMT-100"/>
      <use x="400.146484" xlink:href="#ArialMT-105"/>
      <use x="422.363281" xlink:href="#ArialMT-117"/>
      <use x="477.978516" xlink:href="#ArialMT-115"/>
      <use x="527.978516" xlink:href="#ArialMT-32"/>
      <use x="555.761719" xlink:href="#ArialMT-91"/>
      <use x="583.544922" xlink:href="#ArialMT-109"/>
      <use x="666.845703" xlink:href="#ArialMT-93"/>
     </g>
    </g>
   </g>
   <g id="matplotlib.axis_2">
    <g id="ytick_1">
     <g id="line2d_19">
      <path clip-path="url(#p0c42be165b)" d="M 60.48 342.8532 
L 478.8 342.8532 
" style="fill:none;stroke:#cccccc;stroke-dasharray:0.5,0.825;stroke-dashoffset:0;stroke-width:0.5;"/>
     </g>
     <g id="line2d_20">
      <defs>
       <path d="M 0 0 
L -6 0 
" id="mcddae90773" style="stroke:#262626;stroke-width:1.25;"/>
      </defs>
      <g>
       <use style="fill:#262626;stroke:#262626;stroke-width:1.25;" x="60.48" xlink:href="#mcddae90773" y="342.8532"/>
      </g>
     </g>
     <g id="text_11">
      <!-- 0 -->
      <g style="fill:#262626;" transform="translate(44.862969 346.789997)scale(0.11 -0.11)">
       <use xlink:href="#ArialMT-48"/>
      </g>
     </g>
    </g>
    <g id="ytick_2">
     <g id="line2d_21">
      <path clip-path="url(#p0c42be165b)" d="M 60.48 300.260757 
L 478.8 300.260757 
" style="fill:none;stroke:#cccccc;stroke-dasharray:0.5,0.825;stroke-dashoffset:0;stroke-width:0.5;"/>
     </g>
     <g id="line2d_22">
      <g>
       <use style="fill:#262626;stroke:#262626;stroke-width:1.25;" x="60.48" xlink:href="#mcddae90773" y="300.260757"/>
      </g>
     </g>
     <g id="text_12">
      <!-- 5 -->
      <g style="fill:#262626;" transform="translate(44.862969 304.197554)scale(0.11 -0.11)">
       <use xlink:href="#ArialMT-53"/>
      </g>
     </g>
    </g>
    <g id="ytick_3">
     <g id="line2d_23">
      <path clip-path="url(#p0c42be165b)" d="M 60.48 257.668315 
L 478.8 257.668315 
" style="fill:none;stroke:#cccccc;stroke-dasharray:0.5,0.825;stroke-dashoffset:0;stroke-width:0.5;"/>
     </g>
     <g id="line2d_24">
      <g>
       <use style="fill:#262626;stroke:#262626;stroke-width:1.25;" x="60.48" xlink:href="#mcddae90773" y="257.668315"/>
      </g>
     </g>
     <g id="text_13">
      <!-- 10 -->
      <defs>
       <path d="M 37.25 0 
L 28.46875 0 
L 28.46875 56 
Q 25.296875 52.984375 20.140625 49.953125 
Q 14.984375 46.921875 10.890625 45.40625 
L 10.890625 53.90625 
Q 18.265625 57.375 23.78125 62.296875 
Q 29.296875 67.234375 31.59375 71.875 
L 37.25 71.875 
z
" id="ArialMT-49"/>
      </defs>
      <g style="fill:#262626;" transform="translate(38.745937 261.605112)scale(0.11 -0.11)">
       <use xlink:href="#ArialMT-49"/>
       <use x="55.615234" xlink:href="#ArialMT-48"/>
      </g>
     </g>
    </g>
    <g id="ytick_4">
     <g id="line2d_25">
      <path clip-path="url(#p0c42be165b)" d="M 60.48 215.075872 
L 478.8 215.075872 
" style="fill:none;stroke:#cccccc;stroke-dasharray:0.5,0.825;stroke-dashoffset:0;stroke-width:0.5;"/>
     </g>
     <g id="line2d_26">
      <g>
       <use style="fill:#262626;stroke:#262626;stroke-width:1.25;" x="60.48" xlink:href="#mcddae90773" y="215.075872"/>
      </g>
     </g>
     <g id="text_14">
      <!-- 15 -->
      <g style="fill:#262626;" transform="translate(38.745937 219.012669)scale(0.11 -0.11)">
       <use xlink:href="#ArialMT-49"/>
       <use x="55.615234" xlink:href="#ArialMT-53"/>
      </g>
     </g>
    </g>
    <g id="text_15">
     <!-- Temp. [eV] -->
     <defs>
      <path d="M 25.921875 0 
L 25.921875 63.140625 
L 2.34375 63.140625 
L 2.34375 71.578125 
L 59.078125 71.578125 
L 59.078125 63.140625 
L 35.40625 63.140625 
L 35.40625 0 
z
" id="ArialMT-84"/>
      <path d="M 42.09375 16.703125 
L 51.171875 15.578125 
Q 49.03125 7.625 43.21875 3.21875 
Q 37.40625 -1.171875 28.375 -1.171875 
Q 17 -1.171875 10.328125 5.828125 
Q 3.65625 12.84375 3.65625 25.484375 
Q 3.65625 38.578125 10.390625 45.796875 
Q 17.140625 53.03125 27.875 53.03125 
Q 38.28125 53.03125 44.875 45.953125 
Q 51.46875 38.875 51.46875 26.03125 
Q 51.46875 25.25 51.421875 23.6875 
L 12.75 23.6875 
Q 13.234375 15.140625 17.578125 10.59375 
Q 21.921875 6.0625 28.421875 6.0625 
Q 33.25 6.0625 36.671875 8.59375 
Q 40.09375 11.140625 42.09375 16.703125 
z
M 13.234375 30.90625 
L 42.1875 30.90625 
Q 41.609375 37.453125 38.875 40.71875 
Q 34.671875 45.796875 27.984375 45.796875 
Q 21.921875 45.796875 17.796875 41.75 
Q 13.671875 37.703125 13.234375 30.90625 
z
" id="ArialMT-101"/>
      <path d="M 6.59375 -19.875 
L 6.59375 51.859375 
L 14.59375 51.859375 
L 14.59375 45.125 
Q 17.4375 49.078125 21 51.046875 
Q 24.5625 53.03125 29.640625 53.03125 
Q 36.28125 53.03125 41.359375 49.609375 
Q 46.4375 46.1875 49.015625 39.953125 
Q 51.609375 33.734375 51.609375 26.3125 
Q 51.609375 18.359375 48.75 11.984375 
Q 45.90625 5.609375 40.453125 2.21875 
Q 35.015625 -1.171875 29 -1.171875 
Q 24.609375 -1.171875 21.109375 0.6875 
Q 17.625 2.546875 15.375 5.375 
L 15.375 -19.875 
z
M 14.546875 25.640625 
Q 14.546875 15.625 18.59375 10.84375 
Q 22.65625 6.0625 28.421875 6.0625 
Q 34.28125 6.0625 38.453125 11.015625 
Q 42.625 15.96875 42.625 26.375 
Q 42.625 36.28125 38.546875 41.203125 
Q 34.46875 46.140625 28.8125 46.140625 
Q 23.1875 46.140625 18.859375 40.890625 
Q 14.546875 35.640625 14.546875 25.640625 
z
" id="ArialMT-112"/>
      <path d="M 28.171875 0 
L 0.4375 71.578125 
L 10.6875 71.578125 
L 29.296875 19.578125 
Q 31.546875 13.328125 33.0625 7.859375 
Q 34.71875 13.71875 36.921875 19.578125 
L 56.25 71.578125 
L 65.921875 71.578125 
L 37.890625 0 
z
" id="ArialMT-86"/>
     </defs>
     <g style="fill:#4c72b0;" transform="translate(32.360937 303.802763)rotate(-90)scale(0.12 -0.12)">
      <use xlink:href="#ArialMT-84"/>
      <use x="60.912109" xlink:href="#ArialMT-101"/>
      <use x="116.527344" xlink:href="#ArialMT-109"/>
      <use x="199.828125" xlink:href="#ArialMT-112"/>
      <use x="255.443359" xlink:href="#ArialMT-46"/>
      <use x="283.226562" xlink:href="#ArialMT-32"/>
      <use x="311.009766" xlink:href="#ArialMT-91"/>
      <use x="338.792969" xlink:href="#ArialMT-101"/>
      <use x="394.408203" xlink:href="#ArialMT-86"/>
      <use x="461.107422" xlink:href="#ArialMT-93"/>
     </g>
    </g>
   </g>
   <g id="LineCollection_1">
    <path clip-path="url(#p0c42be165b)" d="M 370.043562 301.864644 
L 370.043562 292.53857 
" style="fill:none;stroke:#4c72b0;"/>
   </g>
   <g id="LineCollection_2">
    <path clip-path="url(#p0c42be165b)" d="M 370.043562 324.734224 
L 370.043562 303.869754 
" style="fill:none;stroke:#4c72b0;"/>
   </g>
   <g id="LineCollection_3"/>
   <g id="LineCollection_4"/>
   <g id="LineCollection_5">
    <path clip-path="url(#p0c42be165b)" d="M 170.055973 226.328372 
L 170.055973 211.738963 
" style="fill:none;stroke:#4c72b0;"/>
   </g>
   <g id="LineCollection_6">
    <path clip-path="url(#p0c42be165b)" d="M 170.055973 227.950863 
L 170.055973 213.336451 
" style="fill:none;stroke:#4c72b0;"/>
   </g>
   <g id="line2d_27">
    <defs>
     <path d="M 3 0 
L -3 -0 
" id="me1daf88480" style="stroke:#4c72b0;"/>
    </defs>
    <g clip-path="url(#p0c42be165b)">
     <use style="fill:#4c72b0;stroke:#4c72b0;" x="370.043562" xlink:href="#me1daf88480" y="301.864644"/>
    </g>
   </g>
   <g id="line2d_28">
    <g clip-path="url(#p0c42be165b)">
     <use style="fill:#4c72b0;stroke:#4c72b0;" x="370.043562" xlink:href="#me1daf88480" y="292.53857"/>
    </g>
   </g>
   <g id="line2d_29">
    <g clip-path="url(#p0c42be165b)">
     <use style="fill:#4c72b0;stroke:#4c72b0;" x="370.043562" xlink:href="#me1daf88480" y="324.734224"/>
    </g>
   </g>
   <g id="line2d_30">
    <g clip-path="url(#p0c42be165b)">
     <use style="fill:#4c72b0;stroke:#4c72b0;" x="370.043562" xlink:href="#me1daf88480" y="303.869754"/>
    </g>
   </g>
   <g id="line2d_31">
    <g clip-path="url(#p0c42be165b)"/>
   </g>
   <g id="line2d_32">
    <g clip-path="url(#p0c42be165b)"/>
   </g>
   <g id="line2d_33">
    <g clip-path="url(#p0c42be165b)"/>
   </g>
   <g id="line2d_34">
    <g clip-path="url(#p0c42be165b)"/>
   </g>
   <g id="line2d_35">
    <g clip-path="url(#p0c42be165b)">
     <use style="fill:#4c72b0;stroke:#4c72b0;" x="170.055973" xlink:href="#me1daf88480" y="226.328372"/>
    </g>
   </g>
   <g id="line2d_36">
    <g clip-path="url(#p0c42be165b)">
     <use style="fill:#4c72b0;stroke:#4c72b0;" x="170.055973" xlink:href="#me1daf88480" y="211.738963"/>
    </g>
   </g>
   <g id="line2d_37">
    <g clip-path="url(#p0c42be165b)">
     <use style="fill:#4c72b0;stroke:#4c72b0;" x="170.055973" xlink:href="#me1daf88480" y="227.950863"/>
    </g>
   </g>
   <g id="line2d_38">
    <g clip-path="url(#p0c42be165b)">
     <use style="fill:#4c72b0;stroke:#4c72b0;" x="170.055973" xlink:href="#me1daf88480" y="213.336451"/>
    </g>
   </g>
   <g id="line2d_39">
    <defs>
     <path d="M 0 3 
C 0.795609 3 1.55874 2.683901 2.12132 2.12132 
C 2.683901 1.55874 3 0.795609 3 0 
C 3 -0.795609 2.683901 -1.55874 2.12132 -2.12132 
C 1.55874 -2.683901 0.795609 -3 0 -3 
C -0.795609 -3 -1.55874 -2.683901 -2.12132 -2.12132 
C -2.683901 -1.55874 -3 -0.795609 -3 0 
C -3 0.795609 -2.683901 1.55874 -2.12132 2.12132 
C -1.55874 2.683901 -0.795609 3 0 3 
z
" id="m9345001c09" style="stroke:#4c72b0;"/>
    </defs>
    <g clip-path="url(#p0c42be165b)">
     <use style="fill:#ffffff;stroke:#4c72b0;" x="370.043562" xlink:href="#m9345001c09" y="297.201153"/>
    </g>
   </g>
   <g id="line2d_40">
    <defs>
     <path d="M -0 4.242641 
L 2.545584 0 
L 0 -4.242641 
L -2.545584 -0 
z
" id="m2369c6147c" style="stroke:#4c72b0;stroke-linejoin:miter;"/>
    </defs>
    <g clip-path="url(#p0c42be165b)">
     <use style="fill:#ffffff;stroke:#4c72b0;stroke-linejoin:miter;" x="370.043562" xlink:href="#m2369c6147c" y="314.238869"/>
    </g>
   </g>
   <g id="line2d_41">
    <g clip-path="url(#p0c42be165b)"/>
   </g>
   <g id="line2d_42">
    <g clip-path="url(#p0c42be165b)"/>
   </g>
   <g id="line2d_43">
    <g clip-path="url(#p0c42be165b)">
     <use style="fill:#ffffff;stroke:#4c72b0;" x="170.055973" xlink:href="#m9345001c09" y="219.037138"/>
    </g>
   </g>
   <g id="line2d_44">
    <g clip-path="url(#p0c42be165b)">
     <use style="fill:#ffffff;stroke:#4c72b0;stroke-linejoin:miter;" x="170.055973" xlink:href="#m2369c6147c" y="220.936409"/>
    </g>
   </g>
   <g id="patch_3">
    <path d="M 60.48 342.8532 
L 60.48 206.0892 
" style="fill:none;stroke:#262626;stroke-linecap:square;stroke-linejoin:miter;stroke-width:1.25;"/>
   </g>
   <g id="patch_4">
    <path d="M 478.8 342.8532 
L 478.8 206.0892 
" style="fill:none;stroke:#262626;stroke-linecap:square;stroke-linejoin:miter;stroke-width:1.25;"/>
   </g>
   <g id="patch_5">
    <path d="M 60.48 342.8532 
L 478.8 342.8532 
" style="fill:none;stroke:#262626;stroke-linecap:square;stroke-linejoin:miter;stroke-width:1.25;"/>
   </g>
   <g id="patch_6">
    <path d="M 60.48 206.0892 
L 478.8 206.0892 
" style="fill:none;stroke:#262626;stroke-linecap:square;stroke-linejoin:miter;stroke-width:1.25;"/>
   </g>
   <g id="legend_1">
    <g id="patch_7">
     <path d="M 351.97 247.0092 
L 471.1 247.0092 
Q 473.3 247.0092 473.3 244.8092 
L 473.3 213.7892 
Q 473.3 211.5892 471.1 211.5892 
L 351.97 211.5892 
Q 349.77 211.5892 349.77 213.7892 
L 349.77 244.8092 
Q 349.77 247.0092 351.97 247.0092 
z
" style="fill:#ffffff;opacity:0.8;stroke:#cccccc;stroke-linejoin:miter;"/>
    </g>
    <g id="LineCollection_7">
     <path d="M 365.17 225.8892 
L 365.17 214.8892 
" style="fill:none;stroke:#4c72b0;"/>
    </g>
    <g id="line2d_45">
     <g>
      <use style="fill:#4c72b0;stroke:#4c72b0;" x="365.17" xlink:href="#me1daf88480" y="225.8892"/>
     </g>
    </g>
    <g id="line2d_46">
     <g>
      <use style="fill:#4c72b0;stroke:#4c72b0;" x="365.17" xlink:href="#me1daf88480" y="214.8892"/>
     </g>
    </g>
    <g id="line2d_47"/>
    <g id="line2d_48">
     <g>
      <use style="fill:#ffffff;stroke:#4c72b0;" x="365.17" xlink:href="#m9345001c09" y="220.3892"/>
     </g>
    </g>
    <g id="text_16">
     <!-- $T_e$  ($v_d \equiv 0$) -->
     <defs>
      <path d="M 5.90625 72.90625 
L 67.578125 72.90625 
L 66.015625 64.59375 
L 39.984375 64.59375 
L 27.484375 0 
L 17.578125 0 
L 30.078125 64.59375 
L 4.296875 64.59375 
z
" id="DejaVuSans-Oblique-84"/>
      <path d="M 48.09375 32.234375 
Q 48.25 33.015625 48.3125 33.84375 
Q 48.390625 34.671875 48.390625 35.5 
Q 48.390625 41.453125 44.890625 44.921875 
Q 41.40625 48.390625 35.40625 48.390625 
Q 28.71875 48.390625 23.578125 44.15625 
Q 18.453125 39.9375 15.828125 32.171875 
z
M 55.90625 25.203125 
L 14.109375 25.203125 
Q 13.8125 23.34375 13.71875 22.265625 
Q 13.625 21.1875 13.625 20.40625 
Q 13.625 13.625 17.796875 9.90625 
Q 21.96875 6.203125 29.59375 6.203125 
Q 35.453125 6.203125 40.671875 7.515625 
Q 45.90625 8.84375 50.390625 11.375 
L 48.6875 2.484375 
Q 43.84375 0.53125 38.6875 -0.4375 
Q 33.546875 -1.421875 28.21875 -1.421875 
Q 16.84375 -1.421875 10.71875 4.015625 
Q 4.59375 9.46875 4.59375 19.484375 
Q 4.59375 28.03125 7.640625 35.375 
Q 10.6875 42.71875 16.609375 48.484375 
Q 20.40625 52.09375 25.65625 54.046875 
Q 30.90625 56 36.8125 56 
Q 46.09375 56 51.578125 50.4375 
Q 57.078125 44.875 57.078125 35.5 
Q 57.078125 33.25 56.78125 30.6875 
Q 56.5 28.125 55.90625 25.203125 
z
" id="DejaVuSans-Oblique-101"/>
      <path d="M 23.390625 -21.046875 
Q 16.109375 -11.859375 11.078125 0.4375 
Q 6.0625 12.75 6.0625 25.921875 
Q 6.0625 37.546875 9.8125 48.1875 
Q 14.203125 60.546875 23.390625 72.796875 
L 29.6875 72.796875 
Q 23.78125 62.640625 21.875 58.296875 
Q 18.890625 51.5625 17.1875 44.234375 
Q 15.09375 35.109375 15.09375 25.875 
Q 15.09375 2.390625 29.6875 -21.046875 
z
" id="ArialMT-40"/>
      <path d="M 7.171875 54.6875 
L 16.703125 54.6875 
L 24.703125 8.203125 
L 50.875 54.6875 
L 60.40625 54.6875 
L 29.296875 0 
L 17.1875 0 
z
" id="DejaVuSans-Oblique-118"/>
      <path d="M 41.796875 8.203125 
Q 38.1875 3.46875 33.25 1.015625 
Q 28.328125 -1.421875 22.3125 -1.421875 
Q 14.109375 -1.421875 9.34375 4.171875 
Q 4.59375 9.765625 4.59375 19.484375 
Q 4.59375 27.59375 7.46875 34.9375 
Q 10.359375 42.28125 15.828125 48.09375 
Q 19.4375 51.953125 23.96875 53.96875 
Q 28.515625 56 33.5 56 
Q 38.765625 56 42.796875 53.453125 
Q 46.828125 50.921875 49.03125 46.1875 
L 54.890625 75.984375 
L 63.921875 75.984375 
L 49.125 0 
L 40.09375 0 
z
M 13.921875 21.09375 
Q 13.921875 14.015625 17.109375 10.0625 
Q 20.3125 6.109375 25.984375 6.109375 
Q 30.171875 6.109375 33.765625 8.125 
Q 37.359375 10.15625 40.09375 14.109375 
Q 42.96875 18.21875 44.625 23.578125 
Q 46.296875 28.953125 46.296875 34.1875 
Q 46.296875 40.96875 43.09375 44.765625 
Q 39.890625 48.578125 34.28125 48.578125 
Q 30.03125 48.578125 26.359375 46.578125 
Q 22.703125 44.578125 20.125 40.828125 
Q 17.28125 36.765625 15.59375 31.390625 
Q 13.921875 26.03125 13.921875 21.09375 
z
" id="DejaVuSans-Oblique-100"/>
      <path d="M 10.59375 35.5 
L 73.1875 35.5 
L 73.1875 27.203125 
L 10.59375 27.203125 
z
M 10.59375 53.71875 
L 73.1875 53.71875 
L 73.1875 45.40625 
L 10.59375 45.40625 
z
M 10.59375 17.28125 
L 73.1875 17.28125 
L 73.1875 8.984375 
L 10.59375 8.984375 
z
" id="DejaVuSans-8801"/>
      <path d="M 31.78125 66.40625 
Q 24.171875 66.40625 20.328125 58.90625 
Q 16.5 51.421875 16.5 36.375 
Q 16.5 21.390625 20.328125 13.890625 
Q 24.171875 6.390625 31.78125 6.390625 
Q 39.453125 6.390625 43.28125 13.890625 
Q 47.125 21.390625 47.125 36.375 
Q 47.125 51.421875 43.28125 58.90625 
Q 39.453125 66.40625 31.78125 66.40625 
z
M 31.78125 74.21875 
Q 44.046875 74.21875 50.515625 64.515625 
Q 56.984375 54.828125 56.984375 36.375 
Q 56.984375 17.96875 50.515625 8.265625 
Q 44.046875 -1.421875 31.78125 -1.421875 
Q 19.53125 -1.421875 13.0625 8.265625 
Q 6.59375 17.96875 6.59375 36.375 
Q 6.59375 54.828125 13.0625 64.515625 
Q 19.53125 74.21875 31.78125 74.21875 
z
" id="DejaVuSans-48"/>
      <path d="M 12.359375 -21.046875 
L 6.0625 -21.046875 
Q 20.65625 2.390625 20.65625 25.875 
Q 20.65625 35.0625 18.5625 44.09375 
Q 16.890625 51.421875 13.921875 58.15625 
Q 12.015625 62.546875 6.0625 72.796875 
L 12.359375 72.796875 
Q 21.53125 60.546875 25.921875 48.1875 
Q 29.6875 37.546875 29.6875 25.921875 
Q 29.6875 12.75 24.625 0.4375 
Q 19.578125 -11.859375 12.359375 -21.046875 
z
" id="ArialMT-41"/>
     </defs>
     <g style="fill:#262626;" transform="translate(384.97 224.2392)scale(0.11 -0.11)">
      <use transform="translate(0 0.78125)" xlink:href="#DejaVuSans-Oblique-84"/>
      <use transform="translate(61.083984 -15.625)scale(0.7)" xlink:href="#DejaVuSans-Oblique-101"/>
      <use transform="translate(106.884766 0.78125)" xlink:href="#ArialMT-32"/>
      <use transform="translate(134.667969 0.78125)" xlink:href="#ArialMT-32"/>
      <use transform="translate(162.451172 0.78125)" xlink:href="#ArialMT-40"/>
      <use transform="translate(195.751953 0.78125)" xlink:href="#DejaVuSans-Oblique-118"/>
      <use transform="translate(254.931641 -15.625)scale(0.7)" xlink:href="#DejaVuSans-Oblique-100"/>
      <use transform="translate(321.582031 0.78125)" xlink:href="#DejaVuSans-8801"/>
      <use transform="translate(424.853516 0.78125)" xlink:href="#DejaVuSans-48"/>
      <use transform="translate(488.476562 0.78125)" xlink:href="#ArialMT-41"/>
     </g>
    </g>
    <g id="LineCollection_8">
     <path d="M 365.17 241.8392 
L 365.17 230.8392 
" style="fill:none;stroke:#4c72b0;"/>
    </g>
    <g id="line2d_49">
     <g>
      <use style="fill:#4c72b0;stroke:#4c72b0;" x="365.17" xlink:href="#me1daf88480" y="241.8392"/>
     </g>
    </g>
    <g id="line2d_50">
     <g>
      <use style="fill:#4c72b0;stroke:#4c72b0;" x="365.17" xlink:href="#me1daf88480" y="230.8392"/>
     </g>
    </g>
    <g id="line2d_51"/>
    <g id="line2d_52">
     <g>
      <use style="fill:#ffffff;stroke:#4c72b0;stroke-linejoin:miter;" x="365.17" xlink:href="#m2369c6147c" y="236.3392"/>
     </g>
    </g>
    <g id="text_17">
     <!-- $T_e$  (drift allowed) -->
     <defs>
      <path d="M 6.5 0 
L 6.5 51.859375 
L 14.40625 51.859375 
L 14.40625 44 
Q 17.4375 49.515625 20 51.265625 
Q 22.5625 53.03125 25.640625 53.03125 
Q 30.078125 53.03125 34.671875 50.203125 
L 31.640625 42.046875 
Q 28.421875 43.953125 25.203125 43.953125 
Q 22.3125 43.953125 20.015625 42.21875 
Q 17.71875 40.484375 16.75 37.40625 
Q 15.28125 32.71875 15.28125 27.15625 
L 15.28125 0 
z
" id="ArialMT-114"/>
      <path d="M 8.6875 0 
L 8.6875 45.015625 
L 0.921875 45.015625 
L 0.921875 51.859375 
L 8.6875 51.859375 
L 8.6875 57.375 
Q 8.6875 62.59375 9.625 65.140625 
Q 10.890625 68.5625 14.078125 70.671875 
Q 17.28125 72.796875 23.046875 72.796875 
Q 26.765625 72.796875 31.25 71.921875 
L 29.9375 64.265625 
Q 27.203125 64.75 24.75 64.75 
Q 20.75 64.75 19.09375 63.03125 
Q 17.4375 61.328125 17.4375 56.640625 
L 17.4375 51.859375 
L 27.546875 51.859375 
L 27.546875 45.015625 
L 17.4375 45.015625 
L 17.4375 0 
z
" id="ArialMT-102"/>
      <path d="M 25.78125 7.859375 
L 27.046875 0.09375 
Q 23.34375 -0.6875 20.40625 -0.6875 
Q 15.625 -0.6875 12.984375 0.828125 
Q 10.359375 2.34375 9.28125 4.8125 
Q 8.203125 7.28125 8.203125 15.1875 
L 8.203125 45.015625 
L 1.765625 45.015625 
L 1.765625 51.859375 
L 8.203125 51.859375 
L 8.203125 64.703125 
L 16.9375 69.96875 
L 16.9375 51.859375 
L 25.78125 51.859375 
L 25.78125 45.015625 
L 16.9375 45.015625 
L 16.9375 14.703125 
Q 16.9375 10.9375 17.40625 9.859375 
Q 17.875 8.796875 18.921875 8.15625 
Q 19.96875 7.515625 21.921875 7.515625 
Q 23.390625 7.515625 25.78125 7.859375 
z
" id="ArialMT-116"/>
      <path d="M 6.390625 0 
L 6.390625 71.578125 
L 15.1875 71.578125 
L 15.1875 0 
z
" id="ArialMT-108"/>
      <path d="M 3.328125 25.921875 
Q 3.328125 40.328125 11.328125 47.265625 
Q 18.015625 53.03125 27.640625 53.03125 
Q 38.328125 53.03125 45.109375 46.015625 
Q 51.90625 39.015625 51.90625 26.65625 
Q 51.90625 16.65625 48.90625 10.90625 
Q 45.90625 5.171875 40.15625 2 
Q 34.421875 -1.171875 27.640625 -1.171875 
Q 16.75 -1.171875 10.03125 5.8125 
Q 3.328125 12.796875 3.328125 25.921875 
z
M 12.359375 25.921875 
Q 12.359375 15.96875 16.703125 11.015625 
Q 21.046875 6.0625 27.640625 6.0625 
Q 34.1875 6.0625 38.53125 11.03125 
Q 42.875 16.015625 42.875 26.21875 
Q 42.875 35.84375 38.5 40.796875 
Q 34.125 45.75 27.640625 45.75 
Q 21.046875 45.75 16.703125 40.8125 
Q 12.359375 35.890625 12.359375 25.921875 
z
" id="ArialMT-111"/>
      <path d="M 16.15625 0 
L 0.296875 51.859375 
L 9.375 51.859375 
L 17.625 21.921875 
L 20.703125 10.796875 
Q 20.90625 11.625 23.390625 21.484375 
L 31.640625 51.859375 
L 40.671875 51.859375 
L 48.4375 21.78125 
L 51.03125 11.859375 
L 54 21.875 
L 62.890625 51.859375 
L 71.4375 51.859375 
L 55.21875 0 
L 46.09375 0 
L 37.84375 31.0625 
L 35.84375 39.890625 
L 25.34375 0 
z
" id="ArialMT-119"/>
     </defs>
     <g style="fill:#262626;" transform="translate(384.97 240.1892)scale(0.11 -0.11)">
      <use transform="translate(0 0.09375)" xlink:href="#DejaVuSans-Oblique-84"/>
      <use transform="translate(61.083984 -16.3125)scale(0.7)" xlink:href="#DejaVuSans-Oblique-101"/>
      <use transform="translate(106.884766 0.09375)" xlink:href="#ArialMT-32"/>
      <use transform="translate(134.667969 0.09375)" xlink:href="#ArialMT-32"/>
      <use transform="translate(162.451172 0.09375)" xlink:href="#ArialMT-40"/>
      <use transform="translate(195.751953 0.09375)" xlink:href="#ArialMT-100"/>
      <use transform="translate(251.367188 0.09375)" xlink:href="#ArialMT-114"/>
      <use transform="translate(284.667969 0.09375)" xlink:href="#ArialMT-105"/>
      <use transform="translate(306.884766 0.09375)" xlink:href="#ArialMT-102"/>
      <use transform="translate(334.667969 0.09375)" xlink:href="#ArialMT-116"/>
      <use transform="translate(362.451172 0.09375)" xlink:href="#ArialMT-32"/>
      <use transform="translate(390.234375 0.09375)" xlink:href="#ArialMT-97"/>
      <use transform="translate(445.849609 0.09375)" xlink:href="#ArialMT-108"/>
      <use transform="translate(468.066406 0.09375)" xlink:href="#ArialMT-108"/>
      <use transform="translate(490.283203 0.09375)" xlink:href="#ArialMT-111"/>
      <use transform="translate(545.898438 0.09375)" xlink:href="#ArialMT-119"/>
      <use transform="translate(618.115234 0.09375)" xlink:href="#ArialMT-101"/>
      <use transform="translate(673.730469 0.09375)" xlink:href="#ArialMT-100"/>
      <use transform="translate(729.345703 0.09375)" xlink:href="#ArialMT-41"/>
     </g>
    </g>
   </g>
  </g>
  <g id="axes_2">
   <g id="patch_8">
    <path d="M 60.48 520.6464 
L 478.8 520.6464 
L 478.8 383.8824 
L 60.48 383.8824 
z
" style="fill:#ffffff;"/>
   </g>
   <g id="matplotlib.axis_3">
    <g id="xtick_10">
     <g id="line2d_53">
      <path clip-path="url(#p735293585b)" d="M 60.48 520.6464 
L 60.48 383.8824 
" style="fill:none;stroke:#cccccc;stroke-dasharray:0.5,0.825;stroke-dashoffset:0;stroke-width:0.5;"/>
     </g>
     <g id="line2d_54">
      <g>
       <use style="fill:#262626;stroke:#262626;stroke-width:1.25;" x="60.48" xlink:href="#ma6c941dfe7" y="520.6464"/>
      </g>
     </g>
     <g id="text_18">
      <!-- 0.200 -->
      <g style="fill:#262626;" transform="translate(46.717969 538.019994)scale(0.11 -0.11)">
       <use xlink:href="#ArialMT-48"/>
       <use x="55.615234" xlink:href="#ArialMT-46"/>
       <use x="83.398438" xlink:href="#ArialMT-50"/>
       <use x="139.013672" xlink:href="#ArialMT-48"/>
       <use x="194.628906" xlink:href="#ArialMT-48"/>
      </g>
     </g>
    </g>
    <g id="xtick_11">
     <g id="line2d_55">
      <path clip-path="url(#p735293585b)" d="M 112.77 520.6464 
L 112.77 383.8824 
" style="fill:none;stroke:#cccccc;stroke-dasharray:0.5,0.825;stroke-dashoffset:0;stroke-width:0.5;"/>
     </g>
     <g id="line2d_56">
      <g>
       <use style="fill:#262626;stroke:#262626;stroke-width:1.25;" x="112.77" xlink:href="#ma6c941dfe7" y="520.6464"/>
      </g>
     </g>
     <g id="text_19">
      <!-- 0.225 -->
      <g style="fill:#262626;" transform="translate(99.007969 538.019994)scale(0.11 -0.11)">
       <use xlink:href="#ArialMT-48"/>
       <use x="55.615234" xlink:href="#ArialMT-46"/>
       <use x="83.398438" xlink:href="#ArialMT-50"/>
       <use x="139.013672" xlink:href="#ArialMT-50"/>
       <use x="194.628906" xlink:href="#ArialMT-53"/>
      </g>
     </g>
    </g>
    <g id="xtick_12">
     <g id="line2d_57">
      <path clip-path="url(#p735293585b)" d="M 165.06 520.6464 
L 165.06 383.8824 
" style="fill:none;stroke:#cccccc;stroke-dasharray:0.5,0.825;stroke-dashoffset:0;stroke-width:0.5;"/>
     </g>
     <g id="line2d_58">
      <g>
       <use style="fill:#262626;stroke:#262626;stroke-width:1.25;" x="165.06" xlink:href="#ma6c941dfe7" y="520.6464"/>
      </g>
     </g>
     <g id="text_20">
      <!-- 0.250 -->
      <g style="fill:#262626;" transform="translate(151.297969 538.019994)scale(0.11 -0.11)">
       <use xlink:href="#ArialMT-48"/>
       <use x="55.615234" xlink:href="#ArialMT-46"/>
       <use x="83.398438" xlink:href="#ArialMT-50"/>
       <use x="139.013672" xlink:href="#ArialMT-53"/>
       <use x="194.628906" xlink:href="#ArialMT-48"/>
      </g>
     </g>
    </g>
    <g id="xtick_13">
     <g id="line2d_59">
      <path clip-path="url(#p735293585b)" d="M 217.35 520.6464 
L 217.35 383.8824 
" style="fill:none;stroke:#cccccc;stroke-dasharray:0.5,0.825;stroke-dashoffset:0;stroke-width:0.5;"/>
     </g>
     <g id="line2d_60">
      <g>
       <use style="fill:#262626;stroke:#262626;stroke-width:1.25;" x="217.35" xlink:href="#ma6c941dfe7" y="520.6464"/>
      </g>
     </g>
     <g id="text_21">
      <!-- 0.275 -->
      <g style="fill:#262626;" transform="translate(203.587969 538.019994)scale(0.11 -0.11)">
       <use xlink:href="#ArialMT-48"/>
       <use x="55.615234" xlink:href="#ArialMT-46"/>
       <use x="83.398438" xlink:href="#ArialMT-50"/>
       <use x="139.013672" xlink:href="#ArialMT-55"/>
       <use x="194.628906" xlink:href="#ArialMT-53"/>
      </g>
     </g>
    </g>
    <g id="xtick_14">
     <g id="line2d_61">
      <path clip-path="url(#p735293585b)" d="M 269.64 520.6464 
L 269.64 383.8824 
" style="fill:none;stroke:#cccccc;stroke-dasharray:0.5,0.825;stroke-dashoffset:0;stroke-width:0.5;"/>
     </g>
     <g id="line2d_62">
      <g>
       <use style="fill:#262626;stroke:#262626;stroke-width:1.25;" x="269.64" xlink:href="#ma6c941dfe7" y="520.6464"/>
      </g>
     </g>
     <g id="text_22">
      <!-- 0.300 -->
      <g style="fill:#262626;" transform="translate(255.877969 538.019994)scale(0.11 -0.11)">
       <use xlink:href="#ArialMT-48"/>
       <use x="55.615234" xlink:href="#ArialMT-46"/>
       <use x="83.398438" xlink:href="#ArialMT-51"/>
       <use x="139.013672" xlink:href="#ArialMT-48"/>
       <use x="194.628906" xlink:href="#ArialMT-48"/>
      </g>
     </g>
    </g>
    <g id="xtick_15">
     <g id="line2d_63">
      <path clip-path="url(#p735293585b)" d="M 321.93 520.6464 
L 321.93 383.8824 
" style="fill:none;stroke:#cccccc;stroke-dasharray:0.5,0.825;stroke-dashoffset:0;stroke-width:0.5;"/>
     </g>
     <g id="line2d_64">
      <g>
       <use style="fill:#262626;stroke:#262626;stroke-width:1.25;" x="321.93" xlink:href="#ma6c941dfe7" y="520.6464"/>
      </g>
     </g>
     <g id="text_23">
      <!-- 0.325 -->
      <g style="fill:#262626;" transform="translate(308.167969 538.019994)scale(0.11 -0.11)">
       <use xlink:href="#ArialMT-48"/>
       <use x="55.615234" xlink:href="#ArialMT-46"/>
       <use x="83.398438" xlink:href="#ArialMT-51"/>
       <use x="139.013672" xlink:href="#ArialMT-50"/>
       <use x="194.628906" xlink:href="#ArialMT-53"/>
      </g>
     </g>
    </g>
    <g id="xtick_16">
     <g id="line2d_65">
      <path clip-path="url(#p735293585b)" d="M 374.22 520.6464 
L 374.22 383.8824 
" style="fill:none;stroke:#cccccc;stroke-dasharray:0.5,0.825;stroke-dashoffset:0;stroke-width:0.5;"/>
     </g>
     <g id="line2d_66">
      <g>
       <use style="fill:#262626;stroke:#262626;stroke-width:1.25;" x="374.22" xlink:href="#ma6c941dfe7" y="520.6464"/>
      </g>
     </g>
     <g id="text_24">
      <!-- 0.350 -->
      <g style="fill:#262626;" transform="translate(360.457969 538.019994)scale(0.11 -0.11)">
       <use xlink:href="#ArialMT-48"/>
       <use x="55.615234" xlink:href="#ArialMT-46"/>
       <use x="83.398438" xlink:href="#ArialMT-51"/>
       <use x="139.013672" xlink:href="#ArialMT-53"/>
       <use x="194.628906" xlink:href="#ArialMT-48"/>
      </g>
     </g>
    </g>
    <g id="xtick_17">
     <g id="line2d_67">
      <path clip-path="url(#p735293585b)" d="M 426.51 520.6464 
L 426.51 383.8824 
" style="fill:none;stroke:#cccccc;stroke-dasharray:0.5,0.825;stroke-dashoffset:0;stroke-width:0.5;"/>
     </g>
     <g id="line2d_68">
      <g>
       <use style="fill:#262626;stroke:#262626;stroke-width:1.25;" x="426.51" xlink:href="#ma6c941dfe7" y="520.6464"/>
      </g>
     </g>
     <g id="text_25">
      <!-- 0.375 -->
      <g style="fill:#262626;" transform="translate(412.747969 538.019994)scale(0.11 -0.11)">
       <use xlink:href="#ArialMT-48"/>
       <use x="55.615234" xlink:href="#ArialMT-46"/>
       <use x="83.398438" xlink:href="#ArialMT-51"/>
       <use x="139.013672" xlink:href="#ArialMT-55"/>
       <use x="194.628906" xlink:href="#ArialMT-53"/>
      </g>
     </g>
    </g>
    <g id="xtick_18">
     <g id="line2d_69">
      <path clip-path="url(#p735293585b)" d="M 478.8 520.6464 
L 478.8 383.8824 
" style="fill:none;stroke:#cccccc;stroke-dasharray:0.5,0.825;stroke-dashoffset:0;stroke-width:0.5;"/>
     </g>
     <g id="line2d_70">
      <g>
       <use style="fill:#262626;stroke:#262626;stroke-width:1.25;" x="478.8" xlink:href="#ma6c941dfe7" y="520.6464"/>
      </g>
     </g>
     <g id="text_26">
      <!-- 0.400 -->
      <g style="fill:#262626;" transform="translate(465.037969 538.019994)scale(0.11 -0.11)">
       <use xlink:href="#ArialMT-48"/>
       <use x="55.615234" xlink:href="#ArialMT-46"/>
       <use x="83.398438" xlink:href="#ArialMT-52"/>
       <use x="139.013672" xlink:href="#ArialMT-48"/>
       <use x="194.628906" xlink:href="#ArialMT-48"/>
      </g>
     </g>
    </g>
    <g id="text_27">
     <!-- Maj. Radius [m] -->
     <g style="fill:#262626;" transform="translate(227.964375 552.795619)scale(0.12 -0.12)">
      <use xlink:href="#ArialMT-77"/>
      <use x="83.300781" xlink:href="#ArialMT-97"/>
      <use x="138.916016" xlink:href="#ArialMT-106"/>
      <use x="161.132812" xlink:href="#ArialMT-46"/>
      <use x="188.916016" xlink:href="#ArialMT-32"/>
      <use x="216.699219" xlink:href="#ArialMT-82"/>
      <use x="288.916016" xlink:href="#ArialMT-97"/>
      <use x="344.53125" xlink:href="#ArialMT-100"/>
      <use x="400.146484" xlink:href="#ArialMT-105"/>
      <use x="422.363281" xlink:href="#ArialMT-117"/>
      <use x="477.978516" xlink:href="#ArialMT-115"/>
      <use x="527.978516" xlink:href="#ArialMT-32"/>
      <use x="555.761719" xlink:href="#ArialMT-91"/>
      <use x="583.544922" xlink:href="#ArialMT-109"/>
      <use x="666.845703" xlink:href="#ArialMT-93"/>
     </g>
    </g>
   </g>
   <g id="matplotlib.axis_4">
    <g id="ytick_5">
     <g id="line2d_71">
      <path clip-path="url(#p735293585b)" d="M 60.48 498.940573 
L 478.8 498.940573 
" style="fill:none;stroke:#cccccc;stroke-dasharray:0.5,0.825;stroke-dashoffset:0;stroke-width:0.5;"/>
     </g>
     <g id="line2d_72">
      <g>
       <use style="fill:#262626;stroke:#262626;stroke-width:1.25;" x="60.48" xlink:href="#mcddae90773" y="498.940573"/>
      </g>
     </g>
     <g id="text_28">
      <!-- 200 -->
      <defs>
       <path d="M 52.828125 31.203125 
L 5.5625 31.203125 
L 5.5625 39.40625 
L 52.828125 39.40625 
z
" id="ArialMT-8722"/>
      </defs>
      <g style="fill:#262626;" transform="translate(26.204219 502.87737)scale(0.11 -0.11)">
       <use xlink:href="#ArialMT-8722"/>
       <use x="58.398438" xlink:href="#ArialMT-50"/>
       <use x="114.013672" xlink:href="#ArialMT-48"/>
       <use x="169.628906" xlink:href="#ArialMT-48"/>
      </g>
     </g>
    </g>
    <g id="ytick_6">
     <g id="line2d_73">
      <path clip-path="url(#p735293585b)" d="M 60.48 467.607425 
L 478.8 467.607425 
" style="fill:none;stroke:#cccccc;stroke-dasharray:0.5,0.825;stroke-dashoffset:0;stroke-width:0.5;"/>
     </g>
     <g id="line2d_74">
      <g>
       <use style="fill:#262626;stroke:#262626;stroke-width:1.25;" x="60.48" xlink:href="#mcddae90773" y="467.607425"/>
      </g>
     </g>
     <g id="text_29">
      <!-- 100 -->
      <g style="fill:#262626;" transform="translate(26.204219 471.544222)scale(0.11 -0.11)">
       <use xlink:href="#ArialMT-8722"/>
       <use x="58.398438" xlink:href="#ArialMT-49"/>
       <use x="114.013672" xlink:href="#ArialMT-48"/>
       <use x="169.628906" xlink:href="#ArialMT-48"/>
      </g>
     </g>
    </g>
    <g id="ytick_7">
     <g id="line2d_75">
      <path clip-path="url(#p735293585b)" d="M 60.48 436.274277 
L 478.8 436.274277 
" style="fill:none;stroke:#cccccc;stroke-dasharray:0.5,0.825;stroke-dashoffset:0;stroke-width:0.5;"/>
     </g>
     <g id="line2d_76">
      <g>
       <use style="fill:#262626;stroke:#262626;stroke-width:1.25;" x="60.48" xlink:href="#mcddae90773" y="436.274277"/>
      </g>
     </g>
     <g id="text_30">
      <!-- 0 -->
      <g style="fill:#262626;" transform="translate(44.862969 440.211074)scale(0.11 -0.11)">
       <use xlink:href="#ArialMT-48"/>
      </g>
     </g>
    </g>
    <g id="ytick_8">
     <g id="line2d_77">
      <path clip-path="url(#p735293585b)" d="M 60.48 404.941129 
L 478.8 404.941129 
" style="fill:none;stroke:#cccccc;stroke-dasharray:0.5,0.825;stroke-dashoffset:0;stroke-width:0.5;"/>
     </g>
     <g id="line2d_78">
      <g>
       <use style="fill:#262626;stroke:#262626;stroke-width:1.25;" x="60.48" xlink:href="#mcddae90773" y="404.941129"/>
      </g>
     </g>
     <g id="text_31">
      <!-- 100 -->
      <g style="fill:#262626;" transform="translate(32.628906 408.877926)scale(0.11 -0.11)">
       <use xlink:href="#ArialMT-49"/>
       <use x="55.615234" xlink:href="#ArialMT-48"/>
       <use x="111.230469" xlink:href="#ArialMT-48"/>
      </g>
     </g>
    </g>
    <g id="text_32">
     <!-- Velocity [km/s] -->
     <defs>
      <path d="M 40.4375 19 
L 49.078125 17.875 
Q 47.65625 8.9375 41.8125 3.875 
Q 35.984375 -1.171875 27.484375 -1.171875 
Q 16.84375 -1.171875 10.375 5.78125 
Q 3.90625 12.75 3.90625 25.734375 
Q 3.90625 34.125 6.6875 40.421875 
Q 9.46875 46.734375 15.15625 49.875 
Q 20.84375 53.03125 27.546875 53.03125 
Q 35.984375 53.03125 41.359375 48.75 
Q 46.734375 44.484375 48.25 36.625 
L 39.703125 35.296875 
Q 38.484375 40.53125 35.375 43.15625 
Q 32.28125 45.796875 27.875 45.796875 
Q 21.234375 45.796875 17.078125 41.03125 
Q 12.9375 36.28125 12.9375 25.984375 
Q 12.9375 15.53125 16.9375 10.796875 
Q 20.953125 6.0625 27.390625 6.0625 
Q 32.5625 6.0625 36.03125 9.234375 
Q 39.5 12.40625 40.4375 19 
z
" id="ArialMT-99"/>
      <path d="M 6.203125 -19.96875 
L 5.21875 -11.71875 
Q 8.109375 -12.5 10.25 -12.5 
Q 13.1875 -12.5 14.9375 -11.515625 
Q 16.703125 -10.546875 17.828125 -8.796875 
Q 18.65625 -7.46875 20.515625 -2.25 
Q 20.75 -1.515625 21.296875 -0.09375 
L 1.609375 51.859375 
L 11.078125 51.859375 
L 21.875 21.828125 
Q 23.96875 16.109375 25.640625 9.8125 
Q 27.15625 15.875 29.25 21.625 
L 40.328125 51.859375 
L 49.125 51.859375 
L 29.390625 -0.875 
Q 26.21875 -9.421875 24.46875 -12.640625 
Q 22.125 -17 19.09375 -19.015625 
Q 16.0625 -21.046875 11.859375 -21.046875 
Q 9.328125 -21.046875 6.203125 -19.96875 
z
" id="ArialMT-121"/>
      <path d="M 6.640625 0 
L 6.640625 71.578125 
L 15.4375 71.578125 
L 15.4375 30.765625 
L 36.234375 51.859375 
L 47.609375 51.859375 
L 27.78125 32.625 
L 49.609375 0 
L 38.765625 0 
L 21.625 26.515625 
L 15.4375 20.5625 
L 15.4375 0 
z
" id="ArialMT-107"/>
      <path d="M 0 -1.21875 
L 20.75 72.796875 
L 27.78125 72.796875 
L 7.078125 -1.21875 
z
" id="ArialMT-47"/>
     </defs>
     <g style="fill:#55a868;" transform="translate(19.678594 490.933463)rotate(-90)scale(0.12 -0.12)">
      <use xlink:href="#ArialMT-86"/>
      <use x="66.621094" xlink:href="#ArialMT-101"/>
      <use x="122.236328" xlink:href="#ArialMT-108"/>
      <use x="144.453125" xlink:href="#ArialMT-111"/>
      <use x="200.068359" xlink:href="#ArialMT-99"/>
      <use x="250.068359" xlink:href="#ArialMT-105"/>
      <use x="272.285156" xlink:href="#ArialMT-116"/>
      <use x="300.068359" xlink:href="#ArialMT-121"/>
      <use x="350.068359" xlink:href="#ArialMT-32"/>
      <use x="377.851562" xlink:href="#ArialMT-91"/>
      <use x="405.634766" xlink:href="#ArialMT-107"/>
      <use x="455.634766" xlink:href="#ArialMT-109"/>
      <use x="538.935547" xlink:href="#ArialMT-47"/>
      <use x="566.71875" xlink:href="#ArialMT-115"/>
      <use x="616.71875" xlink:href="#ArialMT-93"/>
     </g>
    </g>
   </g>
   <g id="LineCollection_9">
    <path clip-path="url(#p735293585b)" d="M 370.043562 514.429855 
L 370.043562 467.728066 
" style="fill:none;stroke:#55a868;"/>
   </g>
   <g id="LineCollection_10"/>
   <g id="LineCollection_11">
    <path clip-path="url(#p735293585b)" d="M 170.055973 405.573981 
L 170.055973 390.098945 
" style="fill:none;stroke:#55a868;"/>
   </g>
   <g id="line2d_79">
    <defs>
     <path d="M 3 0 
L -3 -0 
" id="m744beac240" style="stroke:#55a868;"/>
    </defs>
    <g clip-path="url(#p735293585b)">
     <use style="fill:#55a868;stroke:#55a868;" x="370.043562" xlink:href="#m744beac240" y="514.429855"/>
    </g>
   </g>
   <g id="line2d_80">
    <g clip-path="url(#p735293585b)">
     <use style="fill:#55a868;stroke:#55a868;" x="370.043562" xlink:href="#m744beac240" y="467.728066"/>
    </g>
   </g>
   <g id="line2d_81">
    <g clip-path="url(#p735293585b)"/>
   </g>
   <g id="line2d_82">
    <g clip-path="url(#p735293585b)"/>
   </g>
   <g id="line2d_83">
    <g clip-path="url(#p735293585b)">
     <use style="fill:#55a868;stroke:#55a868;" x="170.055973" xlink:href="#m744beac240" y="405.573981"/>
    </g>
   </g>
   <g id="line2d_84">
    <g clip-path="url(#p735293585b)">
     <use style="fill:#55a868;stroke:#55a868;" x="170.055973" xlink:href="#m744beac240" y="390.098945"/>
    </g>
   </g>
   <g id="line2d_85">
    <defs>
     <path d="M -0 3 
L 3 -3 
L -3 -3 
z
" id="md6940cdb35" style="stroke:#55a868;stroke-linejoin:miter;"/>
    </defs>
    <g clip-path="url(#p735293585b)">
     <use style="fill:#55a868;stroke:#55a868;stroke-linejoin:miter;" x="370.043562" xlink:href="#md6940cdb35" y="490.27097"/>
    </g>
   </g>
   <g id="line2d_86">
    <g clip-path="url(#p735293585b)"/>
   </g>
   <g id="line2d_87">
    <g clip-path="url(#p735293585b)">
     <use style="fill:#55a868;stroke:#55a868;stroke-linejoin:miter;" x="170.055973" xlink:href="#md6940cdb35" y="397.999864"/>
    </g>
   </g>
   <g id="patch_9">
    <path d="M 60.48 520.6464 
L 60.48 383.8824 
" style="fill:none;stroke:#262626;stroke-linecap:square;stroke-linejoin:miter;stroke-width:1.25;"/>
   </g>
   <g id="patch_10">
    <path d="M 478.8 520.6464 
L 478.8 383.8824 
" style="fill:none;stroke:#262626;stroke-linecap:square;stroke-linejoin:miter;stroke-width:1.25;"/>
   </g>
   <g id="patch_11">
    <path d="M 60.48 520.6464 
L 478.8 520.6464 
" style="fill:none;stroke:#262626;stroke-linecap:square;stroke-linejoin:miter;stroke-width:1.25;"/>
   </g>
   <g id="patch_12">
    <path d="M 60.48 383.8824 
L 478.8 383.8824 
" style="fill:none;stroke:#262626;stroke-linecap:square;stroke-linejoin:miter;stroke-width:1.25;"/>
   </g>
   <g id="legend_2">
    <g id="patch_13">
     <path d="M 424.13 408.242244 
L 471.1 408.242244 
Q 473.3 408.242244 473.3 406.042244 
L 473.3 391.5824 
Q 473.3 389.3824 471.1 389.3824 
L 424.13 389.3824 
Q 421.93 389.3824 421.93 391.5824 
L 421.93 406.042244 
Q 421.93 408.242244 424.13 408.242244 
z
" style="fill:#ffffff;opacity:0.8;stroke:#cccccc;stroke-linejoin:miter;"/>
    </g>
    <g id="LineCollection_12">
     <path d="M 437.33 403.305994 
L 437.33 392.305994 
" style="fill:none;stroke:#55a868;"/>
    </g>
    <g id="line2d_88">
     <g>
      <use style="fill:#55a868;stroke:#55a868;" x="437.33" xlink:href="#m744beac240" y="403.305994"/>
     </g>
    </g>
    <g id="line2d_89">
     <g>
      <use style="fill:#55a868;stroke:#55a868;" x="437.33" xlink:href="#m744beac240" y="392.305994"/>
     </g>
    </g>
    <g id="line2d_90"/>
    <g id="line2d_91">
     <g>
      <use style="fill:#55a868;stroke:#55a868;stroke-linejoin:miter;" x="437.33" xlink:href="#md6940cdb35" y="397.805994"/>
     </g>
    </g>
    <g id="text_33">
     <!-- $v_d$ -->
     <g style="fill:#262626;" transform="translate(457.13 401.655994)scale(0.11 -0.11)">
      <use transform="translate(0 0.3125)" xlink:href="#DejaVuSans-Oblique-118"/>
      <use transform="translate(59.179688 -16.09375)scale(0.7)" xlink:href="#DejaVuSans-Oblique-100"/>
     </g>
    </g>
   </g>
  </g>
  <g id="axes_3">
   <g id="patch_14">
    <path d="M 60.48 165.06 
L 478.8 165.06 
L 478.8 28.296 
L 60.48 28.296 
z
" style="fill:#ffffff;"/>
   </g>
   <g id="matplotlib.axis_5">
    <g id="xtick_19">
     <g id="line2d_92">
      <g>
       <use style="fill:#262626;stroke:#262626;stroke-width:1.25;" x="104.717709" xlink:href="#ma6c941dfe7" y="165.06"/>
      </g>
     </g>
     <g id="text_34">
      <!-- 0.0005 -->
      <g style="fill:#262626;" transform="translate(87.897162 182.433594)scale(0.11 -0.11)">
       <use xlink:href="#ArialMT-48"/>
       <use x="55.615234" xlink:href="#ArialMT-46"/>
       <use x="83.398438" xlink:href="#ArialMT-48"/>
       <use x="139.013672" xlink:href="#ArialMT-48"/>
       <use x="194.628906" xlink:href="#ArialMT-48"/>
       <use x="250.244141" xlink:href="#ArialMT-53"/>
      </g>
     </g>
    </g>
    <g id="xtick_20">
     <g id="line2d_93">
      <g>
       <use style="fill:#262626;stroke:#262626;stroke-width:1.25;" x="155.44202" xlink:href="#ma6c941dfe7" y="165.06"/>
      </g>
     </g>
     <g id="text_35">
      <!-- 0.0010 -->
      <g style="fill:#262626;" transform="translate(138.621473 182.433594)scale(0.11 -0.11)">
       <use xlink:href="#ArialMT-48"/>
       <use x="55.615234" xlink:href="#ArialMT-46"/>
       <use x="83.398438" xlink:href="#ArialMT-48"/>
       <use x="139.013672" xlink:href="#ArialMT-48"/>
       <use x="194.628906" xlink:href="#ArialMT-49"/>
       <use x="250.244141" xlink:href="#ArialMT-48"/>
      </g>
     </g>
    </g>
    <g id="xtick_21">
     <g id="line2d_94">
      <g>
       <use style="fill:#262626;stroke:#262626;stroke-width:1.25;" x="206.16633" xlink:href="#ma6c941dfe7" y="165.06"/>
      </g>
     </g>
     <g id="text_36">
      <!-- 0.0015 -->
      <g style="fill:#262626;" transform="translate(189.345784 182.433594)scale(0.11 -0.11)">
       <use xlink:href="#ArialMT-48"/>
       <use x="55.615234" xlink:href="#ArialMT-46"/>
       <use x="83.398438" xlink:href="#ArialMT-48"/>
       <use x="139.013672" xlink:href="#ArialMT-48"/>
       <use x="194.628906" xlink:href="#ArialMT-49"/>
       <use x="250.244141" xlink:href="#ArialMT-53"/>
      </g>
     </g>
    </g>
    <g id="xtick_22">
     <g id="line2d_95">
      <g>
       <use style="fill:#262626;stroke:#262626;stroke-width:1.25;" x="256.890641" xlink:href="#ma6c941dfe7" y="165.06"/>
      </g>
     </g>
     <g id="text_37">
      <!-- 0.0020 -->
      <g style="fill:#262626;" transform="translate(240.070094 182.433594)scale(0.11 -0.11)">
       <use xlink:href="#ArialMT-48"/>
       <use x="55.615234" xlink:href="#ArialMT-46"/>
       <use x="83.398438" xlink:href="#ArialMT-48"/>
       <use x="139.013672" xlink:href="#ArialMT-48"/>
       <use x="194.628906" xlink:href="#ArialMT-50"/>
       <use x="250.244141" xlink:href="#ArialMT-48"/>
      </g>
     </g>
    </g>
    <g id="xtick_23">
     <g id="line2d_96">
      <g>
       <use style="fill:#262626;stroke:#262626;stroke-width:1.25;" x="307.614952" xlink:href="#ma6c941dfe7" y="165.06"/>
      </g>
     </g>
     <g id="text_38">
      <!-- 0.0025 -->
      <g style="fill:#262626;" transform="translate(290.794405 182.433594)scale(0.11 -0.11)">
       <use xlink:href="#ArialMT-48"/>
       <use x="55.615234" xlink:href="#ArialMT-46"/>
       <use x="83.398438" xlink:href="#ArialMT-48"/>
       <use x="139.013672" xlink:href="#ArialMT-48"/>
       <use x="194.628906" xlink:href="#ArialMT-50"/>
       <use x="250.244141" xlink:href="#ArialMT-53"/>
      </g>
     </g>
    </g>
    <g id="xtick_24">
     <g id="line2d_97">
      <g>
       <use style="fill:#262626;stroke:#262626;stroke-width:1.25;" x="358.339262" xlink:href="#ma6c941dfe7" y="165.06"/>
      </g>
     </g>
     <g id="text_39">
      <!-- 0.0030 -->
      <g style="fill:#262626;" transform="translate(341.518715 182.433594)scale(0.11 -0.11)">
       <use xlink:href="#ArialMT-48"/>
       <use x="55.615234" xlink:href="#ArialMT-46"/>
       <use x="83.398438" xlink:href="#ArialMT-48"/>
       <use x="139.013672" xlink:href="#ArialMT-48"/>
       <use x="194.628906" xlink:href="#ArialMT-51"/>
       <use x="250.244141" xlink:href="#ArialMT-48"/>
      </g>
     </g>
    </g>
    <g id="xtick_25">
     <g id="line2d_98">
      <g>
       <use style="fill:#262626;stroke:#262626;stroke-width:1.25;" x="409.063573" xlink:href="#ma6c941dfe7" y="165.06"/>
      </g>
     </g>
     <g id="text_40">
      <!-- 0.0035 -->
      <g style="fill:#262626;" transform="translate(392.243026 182.433594)scale(0.11 -0.11)">
       <use xlink:href="#ArialMT-48"/>
       <use x="55.615234" xlink:href="#ArialMT-46"/>
       <use x="83.398438" xlink:href="#ArialMT-48"/>
       <use x="139.013672" xlink:href="#ArialMT-48"/>
       <use x="194.628906" xlink:href="#ArialMT-51"/>
       <use x="250.244141" xlink:href="#ArialMT-53"/>
      </g>
     </g>
    </g>
    <g id="xtick_26">
     <g id="line2d_99">
      <g>
       <use style="fill:#262626;stroke:#262626;stroke-width:1.25;" x="459.787883" xlink:href="#ma6c941dfe7" y="165.06"/>
      </g>
     </g>
     <g id="text_41">
      <!-- 0.0040 -->
      <g style="fill:#262626;" transform="translate(442.967336 182.433594)scale(0.11 -0.11)">
       <use xlink:href="#ArialMT-48"/>
       <use x="55.615234" xlink:href="#ArialMT-46"/>
       <use x="83.398438" xlink:href="#ArialMT-48"/>
       <use x="139.013672" xlink:href="#ArialMT-48"/>
       <use x="194.628906" xlink:href="#ArialMT-52"/>
       <use x="250.244141" xlink:href="#ArialMT-48"/>
      </g>
     </g>
    </g>
    <g id="text_42">
     <!-- [s] -->
     <g style="fill:#262626;" transform="translate(263.30625 197.209219)scale(0.12 -0.12)">
      <use xlink:href="#ArialMT-91"/>
      <use x="27.783203" xlink:href="#ArialMT-115"/>
      <use x="77.783203" xlink:href="#ArialMT-93"/>
     </g>
    </g>
   </g>
   <g id="matplotlib.axis_6">
    <g id="ytick_9">
     <g id="line2d_100">
      <g>
       <use style="fill:#262626;stroke:#262626;stroke-width:1.25;" x="60.48" xlink:href="#mcddae90773" y="157.932343"/>
      </g>
     </g>
     <g id="text_43">
      <!-- 0 -->
      <g style="fill:#262626;" transform="translate(44.862969 161.86914)scale(0.11 -0.11)">
       <use xlink:href="#ArialMT-48"/>
      </g>
     </g>
    </g>
    <g id="ytick_10">
     <g id="line2d_101">
      <g>
       <use style="fill:#262626;stroke:#262626;stroke-width:1.25;" x="60.48" xlink:href="#mcddae90773" y="123.981725"/>
      </g>
     </g>
     <g id="text_44">
      <!-- 20 -->
      <g style="fill:#262626;" transform="translate(38.745937 127.918522)scale(0.11 -0.11)">
       <use xlink:href="#ArialMT-50"/>
       <use x="55.615234" xlink:href="#ArialMT-48"/>
      </g>
     </g>
    </g>
    <g id="ytick_11">
     <g id="line2d_102">
      <g>
       <use style="fill:#262626;stroke:#262626;stroke-width:1.25;" x="60.48" xlink:href="#mcddae90773" y="90.031107"/>
      </g>
     </g>
     <g id="text_45">
      <!-- 40 -->
      <g style="fill:#262626;" transform="translate(38.745937 93.967904)scale(0.11 -0.11)">
       <use xlink:href="#ArialMT-52"/>
       <use x="55.615234" xlink:href="#ArialMT-48"/>
      </g>
     </g>
    </g>
    <g id="ytick_12">
     <g id="line2d_103">
      <g>
       <use style="fill:#262626;stroke:#262626;stroke-width:1.25;" x="60.48" xlink:href="#mcddae90773" y="56.080489"/>
      </g>
     </g>
     <g id="text_46">
      <!-- 60 -->
      <defs>
       <path d="M 49.75 54.046875 
L 41.015625 53.375 
Q 39.84375 58.546875 37.703125 60.890625 
Q 34.125 64.65625 28.90625 64.65625 
Q 24.703125 64.65625 21.53125 62.3125 
Q 17.390625 59.28125 14.984375 53.46875 
Q 12.59375 47.65625 12.5 36.921875 
Q 15.671875 41.75 20.265625 44.09375 
Q 24.859375 46.4375 29.890625 46.4375 
Q 38.671875 46.4375 44.84375 39.96875 
Q 51.03125 33.5 51.03125 23.25 
Q 51.03125 16.5 48.125 10.71875 
Q 45.21875 4.9375 40.140625 1.859375 
Q 35.0625 -1.21875 28.609375 -1.21875 
Q 17.625 -1.21875 10.6875 6.859375 
Q 3.765625 14.9375 3.765625 33.5 
Q 3.765625 54.25 11.421875 63.671875 
Q 18.109375 71.875 29.4375 71.875 
Q 37.890625 71.875 43.28125 67.140625 
Q 48.6875 62.40625 49.75 54.046875 
z
M 13.875 23.1875 
Q 13.875 18.65625 15.796875 14.5 
Q 17.71875 10.359375 21.1875 8.171875 
Q 24.65625 6 28.46875 6 
Q 34.03125 6 38.03125 10.484375 
Q 42.046875 14.984375 42.046875 22.703125 
Q 42.046875 30.125 38.078125 34.390625 
Q 34.125 38.671875 28.125 38.671875 
Q 22.171875 38.671875 18.015625 34.390625 
Q 13.875 30.125 13.875 23.1875 
z
" id="ArialMT-54"/>
      </defs>
      <g style="fill:#262626;" transform="translate(38.745937 60.017286)scale(0.11 -0.11)">
       <use xlink:href="#ArialMT-54"/>
       <use x="55.615234" xlink:href="#ArialMT-48"/>
      </g>
     </g>
    </g>
    <g id="text_47">
     <!-- $I_{tor}$ [kA] -->
     <defs>
      <path d="M 16.890625 72.90625 
L 26.8125 72.90625 
L 12.59375 0 
L 2.6875 0 
z
" id="DejaVuSans-Oblique-73"/>
      <path d="M 42.28125 54.6875 
L 40.921875 47.703125 
L 23 47.703125 
L 17.1875 18.015625 
Q 16.890625 16.359375 16.75 15.234375 
Q 16.609375 14.109375 16.609375 13.484375 
Q 16.609375 10.359375 18.484375 8.9375 
Q 20.359375 7.515625 24.515625 7.515625 
L 33.59375 7.515625 
L 32.078125 0 
L 23.484375 0 
Q 15.484375 0 11.546875 3.125 
Q 7.625 6.25 7.625 12.59375 
Q 7.625 13.71875 7.765625 15.0625 
Q 7.90625 16.40625 8.203125 18.015625 
L 14.015625 47.703125 
L 6.390625 47.703125 
L 7.8125 54.6875 
L 15.28125 54.6875 
L 18.3125 70.21875 
L 27.296875 70.21875 
L 24.3125 54.6875 
z
" id="DejaVuSans-Oblique-116"/>
      <path d="M 25.390625 -1.421875 
Q 15.765625 -1.421875 10.171875 4.515625 
Q 4.59375 10.453125 4.59375 20.703125 
Q 4.59375 26.65625 6.515625 32.828125 
Q 8.453125 39.015625 11.53125 43.21875 
Q 16.359375 49.75 22.3125 52.875 
Q 28.265625 56 35.796875 56 
Q 45.125 56 50.859375 50.1875 
Q 56.59375 44.390625 56.59375 35.015625 
Q 56.59375 28.515625 54.6875 22.0625 
Q 52.78125 15.625 49.703125 11.375 
Q 44.921875 4.828125 38.96875 1.703125 
Q 33.015625 -1.421875 25.390625 -1.421875 
z
M 13.921875 21 
Q 13.921875 13.578125 17.015625 9.890625 
Q 20.125 6.203125 26.421875 6.203125 
Q 35.453125 6.203125 41.375 14.078125 
Q 47.3125 21.96875 47.3125 34.078125 
Q 47.3125 41.15625 44.140625 44.765625 
Q 40.96875 48.390625 34.8125 48.390625 
Q 29.734375 48.390625 25.78125 46.015625 
Q 21.828125 43.65625 18.703125 38.8125 
Q 16.40625 35.203125 15.15625 30.5625 
Q 13.921875 25.921875 13.921875 21 
z
" id="DejaVuSans-Oblique-111"/>
      <path d="M 44.578125 46.390625 
Q 43.21875 47.125 41.453125 47.515625 
Q 39.703125 47.90625 37.703125 47.90625 
Q 30.515625 47.90625 25.140625 42.453125 
Q 19.78125 37.015625 18.015625 27.875 
L 12.5 0 
L 3.515625 0 
L 14.203125 54.6875 
L 23.1875 54.6875 
L 21.484375 46.1875 
Q 25.046875 50.921875 30 53.453125 
Q 34.96875 56 40.578125 56 
Q 42.046875 56 43.453125 55.828125 
Q 44.875 55.671875 46.296875 55.28125 
z
" id="DejaVuSans-Oblique-114"/>
      <path d="M -0.140625 0 
L 27.34375 71.578125 
L 37.546875 71.578125 
L 66.84375 0 
L 56.0625 0 
L 47.703125 21.6875 
L 17.78125 21.6875 
L 9.90625 0 
z
M 20.515625 29.390625 
L 44.78125 29.390625 
L 37.3125 49.21875 
Q 33.890625 58.25 32.234375 64.0625 
Q 30.859375 57.171875 28.375 50.390625 
z
" id="ArialMT-65"/>
     </defs>
     <g style="fill:#4c72b0;" transform="translate(32.345937 116.598)rotate(-90)scale(0.12 -0.12)">
      <use transform="translate(0 0.09375)" xlink:href="#DejaVuSans-Oblique-73"/>
      <use transform="translate(29.492188 -16.3125)scale(0.7)" xlink:href="#DejaVuSans-Oblique-116"/>
      <use transform="translate(56.938477 -16.3125)scale(0.7)" xlink:href="#DejaVuSans-Oblique-111"/>
      <use transform="translate(99.765625 -16.3125)scale(0.7)" xlink:href="#DejaVuSans-Oblique-114"/>
      <use transform="translate(131.279297 0.09375)" xlink:href="#ArialMT-32"/>
      <use transform="translate(159.0625 0.09375)" xlink:href="#ArialMT-91"/>
      <use transform="translate(186.845703 0.09375)" xlink:href="#ArialMT-107"/>
      <use transform="translate(236.845703 0.09375)" xlink:href="#ArialMT-65"/>
      <use transform="translate(303.544922 0.09375)" xlink:href="#ArialMT-93"/>
     </g>
    </g>
   </g>
   <g id="LineCollection_13">
    <path clip-path="url(#p3768953832)" d="M 245.167234 157.932343 
L 245.167234 35.710119 
" style="fill:none;stroke:#1a1a1a;stroke-dasharray:5.55,2.4;stroke-dashoffset:0;stroke-width:1.5;"/>
   </g>
   <g id="line2d_104">
    <path clip-path="url(#p3768953832)" d="M 79.494545 158.067533 
L 80.304106 158.154099 
L 81.720836 158.455736 
L 83.339956 158.417604 
L 85.566247 158.012463 
L 86.375807 158.030839 
L 87.185367 158.191303 
L 88.399708 158.488175 
L 89.411658 158.505252 
L 91.030778 158.107006 
L 91.840339 157.967482 
L 92.447509 157.960035 
L 93.257069 158.092775 
L 94.471409 158.488414 
L 95.88814 158.563124 
L 96.90009 158.255588 
L 97.70965 157.635704 
L 97.91204 157.756619 
L 98.11443 157.113457 
L 98.51921 153.70542 
L 99.126381 143.333026 
L 100.138331 134.058087 
L 100.340721 127.943102 
L 100.543111 125.229844 
L 100.947891 125.255048 
L 101.555061 120.904302 
L 101.757451 119.916084 
L 101.959841 120.220128 
L 102.162231 122.229825 
L 102.567011 124.143399 
L 102.769402 124.025947 
L 102.971792 123.191007 
L 103.174182 123.310837 
L 103.376572 123.170031 
L 103.781352 121.826669 
L 103.983742 119.787469 
L 104.186132 119.609385 
L 104.388522 121.000311 
L 104.793302 114.21134 
L 104.995692 113.30902 
L 105.198082 111.682036 
L 106.614813 93.011319 
L 107.019593 91.325104 
L 107.424373 90.553188 
L 107.626763 89.722794 
L 108.031543 85.569096 
L 108.233933 85.96501 
L 109.448273 99.703106 
L 109.650663 100.960317 
L 109.853053 101.500338 
L 110.055443 100.385596 
L 110.460224 96.162268 
L 110.662614 96.975865 
L 111.067394 102.897264 
L 111.269784 103.311041 
L 111.674564 105.249641 
L 111.876954 104.7849 
L 112.079344 103.255286 
L 112.888904 93.100683 
L 113.293684 90.278233 
L 113.496074 89.927031 
L 114.305635 90.391866 
L 114.912805 88.003124 
L 115.115195 89.189527 
L 116.329535 102.149304 
L 116.531925 101.516988 
L 116.734315 100.132631 
L 116.936705 99.943215 
L 117.139095 100.772406 
L 117.543875 105.608125 
L 117.746265 106.367553 
L 118.151046 104.38287 
L 118.353436 105.304078 
L 118.555826 105.421827 
L 118.758216 104.726383 
L 118.960606 103.272081 
L 119.567776 95.135074 
L 119.770166 94.183677 
L 119.972556 94.298163 
L 120.174946 93.766641 
L 120.377336 93.708426 
L 120.579726 94.237361 
L 120.782116 94.149563 
L 121.186896 92.373912 
L 121.389286 92.196993 
L 121.591676 92.762605 
L 121.996457 95.468605 
L 122.603627 102.44388 
L 122.806017 103.874369 
L 123.008407 103.880028 
L 123.413187 101.869652 
L 124.020357 105.16057 
L 124.222747 107.351507 
L 124.425137 107.492294 
L 124.627527 105.852832 
L 125.032307 106.299602 
L 125.234697 105.029543 
L 126.246648 94.157709 
L 126.449038 93.578047 
L 126.651428 94.093634 
L 127.056208 96.34341 
L 127.460988 95.711265 
L 127.663378 95.649401 
L 127.865768 94.82869 
L 128.068158 94.681618 
L 128.270548 95.851062 
L 128.472938 96.327636 
L 128.675328 97.302746 
L 129.080108 101.150378 
L 129.484888 106.304954 
L 129.687279 106.41603 
L 130.294449 103.907291 
L 130.496839 104.414917 
L 130.901619 105.869237 
L 131.104009 105.677308 
L 131.306399 105.025953 
L 131.711179 104.812675 
L 132.115959 100.283414 
L 132.520739 95.095373 
L 132.925519 92.25318 
L 133.127909 91.550642 
L 133.53269 94.272606 
L 133.73508 94.174472 
L 133.93747 93.341098 
L 134.34225 90.25781 
L 134.54464 89.789487 
L 134.74703 90.400073 
L 135.15181 95.058619 
L 135.55659 100.238633 
L 135.96137 103.724509 
L 136.16376 103.614262 
L 136.77093 99.159533 
L 136.97332 99.744019 
L 137.580491 106.868469 
L 137.782881 106.412042 
L 138.187661 103.081734 
L 138.390051 101.873593 
L 138.794831 94.19978 
L 139.199611 85.462626 
L 139.402001 84.721195 
L 140.009171 89.783458 
L 140.211561 89.116343 
L 141.021121 83.582064 
L 141.223512 82.971548 
L 141.425902 83.664621 
L 142.033072 90.277407 
L 142.437852 96.424221 
L 142.640242 97.54904 
L 143.045022 95.480361 
L 143.247412 95.747102 
L 143.449802 96.900913 
L 144.056972 103.037041 
L 144.259362 102.753255 
L 144.461752 101.924106 
L 144.664142 99.952436 
L 145.271313 88.473396 
L 145.878483 80.542092 
L 146.080873 80.291292 
L 146.283263 81.988998 
L 146.485653 82.61572 
L 146.890433 79.335243 
L 147.295213 78.209338 
L 147.497603 77.152842 
L 147.699993 76.837775 
L 148.104773 79.438124 
L 148.711943 86.874035 
L 148.914334 90.490169 
L 149.116724 91.559762 
L 149.723894 84.35298 
L 149.926284 84.302779 
L 150.128674 85.797624 
L 150.533454 91.911366 
L 150.735844 91.36027 
L 151.140624 87.273136 
L 151.545404 83.99386 
L 151.747794 80.408573 
L 152.152574 67.57449 
L 152.354964 66.403879 
L 152.557354 67.005264 
L 152.962135 71.291682 
L 153.164525 71.057908 
L 154.176475 63.814662 
L 154.378865 64.470275 
L 154.986035 71.232927 
L 155.390815 77.198149 
L 155.593205 78.417092 
L 155.795595 77.988473 
L 155.997985 77.242673 
L 156.200375 76.980949 
L 156.402765 77.513832 
L 156.605156 79.00117 
L 157.009936 84.468682 
L 157.212326 85.143694 
L 157.819496 81.795377 
L 158.224276 74.753699 
L 158.831446 59.925819 
L 159.033836 60.718402 
L 159.438616 64.78609 
L 159.641006 65.189857 
L 160.248176 61.667967 
L 160.652957 58.399303 
L 160.855347 57.970544 
L 161.057737 58.631105 
L 161.260127 61.124186 
L 162.069687 77.745875 
L 162.272077 77.821294 
L 162.474467 76.599611 
L 162.879247 71.413192 
L 163.081637 71.68999 
L 163.688807 81.859227 
L 164.093587 82.147597 
L 164.498368 76.353744 
L 165.307928 62.027594 
L 165.712708 58.663988 
L 166.319878 61.204665 
L 166.724658 59.323125 
L 166.927048 59.680576 
L 167.129438 58.618086 
L 167.331828 59.011676 
L 167.938999 69.60639 
L 168.546169 77.069268 
L 168.748559 75.870801 
L 169.153339 72.089906 
L 169.355729 71.415036 
L 169.558119 71.234463 
L 169.962899 73.397435 
L 170.165289 73.592238 
L 170.974849 68.742776 
L 171.379629 61.389838 
L 171.78441 53.909012 
L 171.9868 53.061608 
L 172.18919 52.988746 
L 172.59397 52.079239 
L 172.79636 52.598779 
L 173.20114 50.405581 
L 173.40353 49.359345 
L 173.60592 47.496571 
L 173.80831 48.093187 
L 174.82026 66.499523 
L 175.02265 68.174035 
L 175.22504 67.594094 
L 175.629821 62.052494 
L 175.832211 62.189787 
L 176.641771 76.092435 
L 177.046551 72.68388 
L 177.248941 71.817104 
L 177.856111 60.685715 
L 178.463281 48.248643 
L 178.665671 47.59608 
L 179.070451 52.077972 
L 179.272841 51.556268 
L 180.082402 42.545019 
L 180.284792 42.321709 
L 180.689572 47.946712 
L 181.499132 60.675832 
L 181.701522 62.027161 
L 181.903912 61.2367 
L 182.106302 60.975415 
L 182.308692 61.254155 
L 182.511082 62.235634 
L 182.915862 68.916798 
L 183.118252 70.20811 
L 183.320643 70.569621 
L 183.523033 70.358627 
L 183.725423 69.599315 
L 183.927813 67.216302 
L 184.939763 45.707796 
L 185.142153 44.070248 
L 185.344543 44.409283 
L 185.749323 48.026462 
L 185.951713 47.122237 
L 186.558883 40.851929 
L 186.761273 42.150822 
L 187.166054 48.410947 
L 187.975614 62.197309 
L 188.178004 62.330736 
L 188.380394 60.682089 
L 188.785174 53.250374 
L 188.987564 55.530613 
L 189.392344 66.457303 
L 189.594734 69.716264 
L 189.797124 70.2971 
L 190.201904 67.510369 
L 191.011465 51.925332 
L 191.618635 45.59267 
L 191.821025 42.631875 
L 192.023415 42.470701 
L 192.225805 44.02226 
L 192.428195 43.737144 
L 192.630585 43.038245 
L 193.035365 43.531566 
L 193.237755 44.613166 
L 193.642535 51.17042 
L 194.452095 68.237402 
L 194.654485 68.920522 
L 195.261656 58.61523 
L 195.464046 58.615023 
L 195.666436 60.314992 
L 196.071216 66.869171 
L 196.273606 66.927712 
L 196.475996 65.762171 
L 196.678386 65.430082 
L 196.880776 63.500968 
L 197.487946 52.69427 
L 197.892726 43.510378 
L 198.095116 42.059637 
L 198.499896 44.574285 
L 198.702287 44.41354 
L 199.107067 43.554432 
L 199.511847 44.729705 
L 199.916627 43.37506 
L 200.119017 44.836312 
L 201.130967 63.461761 
L 201.333357 60.111403 
L 201.535747 59.160734 
L 201.738137 59.920849 
L 201.940527 59.594124 
L 202.142917 61.402003 
L 202.547698 68.204377 
L 202.750088 68.55425 
L 203.154868 67.345444 
L 203.357258 64.909149 
L 204.571598 40.059931 
L 204.773988 39.817862 
L 205.178768 42.713952 
L 205.381158 42.18097 
L 205.583548 40.218814 
L 205.785938 39.390559 
L 205.988328 39.505087 
L 206.190718 39.437195 
L 206.393109 40.646543 
L 207.000279 49.170856 
L 207.405059 58.716004 
L 207.607449 60.737618 
L 207.809839 59.773391 
L 208.214619 56.768952 
L 208.417009 56.853956 
L 208.821789 62.462859 
L 209.226569 64.236335 
L 209.428959 64.737778 
L 209.631349 64.484878 
L 209.833739 62.383304 
L 210.44091 50.60922 
L 211.04808 39.57626 
L 211.25047 40.234939 
L 211.65525 45.585421 
L 211.85764 44.970738 
L 212.26242 41.352113 
L 212.6672 38.228668 
L 212.86959 39.36512 
L 213.47676 50.48431 
L 213.88154 61.275396 
L 214.083931 63.263685 
L 214.286321 63.404017 
L 214.893491 57.651451 
L 215.095881 57.879533 
L 215.500661 59.689153 
L 215.703051 60.8574 
L 215.905441 60.292713 
L 216.512611 56.135933 
L 217.524561 37.718196 
L 217.929342 39.190408 
L 218.738902 36.4261 
L 219.143682 34.512545 
L 219.346072 36.23425 
L 219.953242 47.226539 
L 220.358022 57.148513 
L 220.560412 58.27601 
L 220.762802 57.404614 
L 221.369972 50.823626 
L 222.179533 67.874163 
L 222.381923 66.88967 
L 222.989093 59.606464 
L 224.001043 35.249444 
L 224.203433 35.102076 
L 224.608213 40.181576 
L 225.215383 42.878363 
L 225.620164 40.131497 
L 225.822554 39.825509 
L 226.024944 41.328755 
L 226.834504 55.037586 
L 227.036894 56.928023 
L 227.239284 57.103171 
L 227.644064 55.542196 
L 227.846454 55.572211 
L 228.048844 57.157796 
L 228.453624 63.507814 
L 228.656014 64.004954 
L 228.858404 65.385436 
L 229.060794 65.762775 
L 229.465575 61.491838 
L 230.679915 43.27787 
L 230.882305 43.000137 
L 231.287085 43.181562 
L 232.096645 37.043928 
L 232.299035 37.079214 
L 233.513376 61.40407 
L 233.715766 60.569968 
L 234.120546 56.086446 
L 234.322936 55.655902 
L 234.525326 55.674808 
L 234.727716 57.863978 
L 235.132496 67.155715 
L 235.334886 67.889157 
L 235.739666 65.321103 
L 235.942056 62.052291 
L 236.751616 41.022294 
L 237.156397 35.971818 
L 237.358787 37.417721 
L 237.763567 42.442454 
L 237.965957 42.73952 
L 238.370737 40.455508 
L 238.977907 35.42311 
L 239.180297 37.879795 
L 239.585077 48.9878 
L 239.989857 60.560144 
L 240.192247 60.258615 
L 240.394637 60.812968 
L 240.597027 61.869797 
L 240.799417 60.106882 
L 241.001808 56.719318 
L 241.204198 57.46331 
L 241.608978 63.953558 
L 241.811368 64.308671 
L 242.013758 65.902391 
L 242.216148 66.56675 
L 242.418538 64.551019 
L 242.620928 60.165341 
L 243.228098 41.870506 
L 243.430488 39.026713 
L 243.632878 37.951844 
L 243.835268 38.955407 
L 244.240048 42.383297 
L 244.442438 42.62858 
L 245.049609 40.596698 
L 245.251999 39.6174 
L 245.454389 41.06673 
L 246.061559 50.962217 
L 246.466339 60.754079 
L 246.668729 62.05347 
L 246.871119 62.36864 
L 247.275899 58.641702 
L 247.478289 59.184649 
L 247.883069 62.848877 
L 248.287849 64.486908 
L 248.69263 67.556175 
L 248.89502 65.219845 
L 249.70458 47.792257 
L 250.10936 41.932626 
L 250.31175 41.564582 
L 250.91892 47.42731 
L 251.12131 47.059314 
L 251.52609 44.791164 
L 251.72848 44.935361 
L 251.93087 46.774436 
L 252.33565 54.007969 
L 252.942821 70.351914 
L 253.145211 72.188789 
L 253.549991 67.965467 
L 253.954771 67.086525 
L 254.157161 67.550338 
L 254.561941 69.918875 
L 254.764331 70.596702 
L 254.966721 70.655844 
L 255.169111 71.350227 
L 255.371501 70.846418 
L 255.573891 67.802073 
L 256.383452 43.266142 
L 256.585842 41.632001 
L 256.788232 41.568464 
L 257.395402 48.351951 
L 257.597792 48.520275 
L 258.002572 47.03465 
L 258.609742 44.186842 
L 258.812132 47.521625 
L 259.216912 58.907655 
L 259.621692 65.249163 
L 259.824082 66.046386 
L 260.228863 63.462154 
L 261.038423 71.305796 
L 261.443203 72.78411 
L 261.645593 71.876037 
L 262.252763 65.695175 
L 263.062323 50.994945 
L 263.264713 48.865575 
L 263.467103 48.227026 
L 263.669493 48.836252 
L 264.883834 58.601241 
L 265.288614 61.758515 
L 265.693394 63.389944 
L 266.502954 67.990071 
L 266.907734 72.616418 
L 267.312514 76.940505 
L 268.324465 83.432925 
L 268.526855 83.848346 
L 268.729245 83.891998 
L 268.931635 83.772655 
L 269.538805 82.279405 
L 269.741195 82.524407 
L 270.550755 87.163678 
L 271.765096 95.140666 
L 272.169876 96.341705 
L 272.574656 99.120245 
L 272.979436 101.719708 
L 273.384216 103.492331 
L 273.788996 104.313343 
L 275.205726 108.983367 
L 275.812897 110.720095 
L 276.420067 112.912005 
L 277.229627 117.02742 
L 277.836797 120.200821 
L 279.658308 126.178615 
L 280.670258 128.715098 
L 282.086988 132.392178 
L 283.503719 135.664622 
L 284.920449 139.831126 
L 286.539569 143.37681 
L 288.96825 147.922477 
L 290.789761 151.908419 
L 291.801711 153.383911 
L 293.825611 155.783697 
L 295.039952 156.87904 
L 296.254292 157.699469 
L 297.468632 158.233698 
L 298.480583 158.407136 
L 300.099703 158.453024 
L 324.993679 158.734337 
L 332.279721 158.777926 
L 368.305151 158.833503 
L 377.412703 158.815076 
L 416.473983 158.713364 
L 459.785455 158.611027 
L 459.785455 158.611027 
" style="fill:none;stroke:#4c72b0;stroke-linecap:round;"/>
   </g>
   <g id="patch_15">
    <path d="M 60.48 165.06 
L 60.48 28.296 
" style="fill:none;stroke:#262626;stroke-linecap:square;stroke-linejoin:miter;stroke-width:1.25;"/>
   </g>
   <g id="patch_16">
    <path d="M 478.8 165.06 
L 478.8 28.296 
" style="fill:none;stroke:#262626;stroke-linecap:square;stroke-linejoin:miter;stroke-width:1.25;"/>
   </g>
   <g id="patch_17">
    <path d="M 60.48 165.06 
L 478.8 165.06 
" style="fill:none;stroke:#262626;stroke-linecap:square;stroke-linejoin:miter;stroke-width:1.25;"/>
   </g>
   <g id="patch_18">
    <path d="M 60.48 28.296 
L 478.8 28.296 
" style="fill:none;stroke:#262626;stroke-linecap:square;stroke-linejoin:miter;stroke-width:1.25;"/>
   </g>
   <g id="text_48">
    <!-- Shot 190514015, Fuel: D -->
    <defs>
     <path d="M 4.5 23 
L 13.421875 23.78125 
Q 14.0625 18.40625 16.375 14.96875 
Q 18.703125 11.53125 23.578125 9.40625 
Q 28.46875 7.28125 34.578125 7.28125 
Q 39.984375 7.28125 44.140625 8.890625 
Q 48.296875 10.5 50.3125 13.296875 
Q 52.34375 16.109375 52.34375 19.4375 
Q 52.34375 22.796875 50.390625 25.3125 
Q 48.4375 27.828125 43.953125 29.546875 
Q 41.0625 30.671875 31.203125 33.03125 
Q 21.34375 35.40625 17.390625 37.5 
Q 12.25 40.1875 9.734375 44.15625 
Q 7.234375 48.140625 7.234375 53.078125 
Q 7.234375 58.5 10.296875 63.203125 
Q 13.375 67.921875 19.28125 70.359375 
Q 25.203125 72.796875 32.421875 72.796875 
Q 40.375 72.796875 46.453125 70.234375 
Q 52.546875 67.671875 55.8125 62.6875 
Q 59.078125 57.71875 59.328125 51.421875 
L 50.25 50.734375 
Q 49.515625 57.515625 45.28125 60.984375 
Q 41.0625 64.453125 32.8125 64.453125 
Q 24.21875 64.453125 20.28125 61.296875 
Q 16.359375 58.15625 16.359375 53.71875 
Q 16.359375 49.859375 19.140625 47.359375 
Q 21.875 44.875 33.421875 42.265625 
Q 44.96875 39.65625 49.265625 37.703125 
Q 55.515625 34.8125 58.484375 30.390625 
Q 61.46875 25.984375 61.46875 20.21875 
Q 61.46875 14.5 58.203125 9.4375 
Q 54.9375 4.390625 48.796875 1.578125 
Q 42.671875 -1.21875 35.015625 -1.21875 
Q 25.296875 -1.21875 18.71875 1.609375 
Q 12.15625 4.4375 8.421875 10.125 
Q 4.6875 15.828125 4.5 23 
z
" id="ArialMT-83"/>
     <path d="M 6.59375 0 
L 6.59375 71.578125 
L 15.375 71.578125 
L 15.375 45.90625 
Q 21.53125 53.03125 30.90625 53.03125 
Q 36.671875 53.03125 40.921875 50.75 
Q 45.171875 48.484375 47 44.484375 
Q 48.828125 40.484375 48.828125 32.859375 
L 48.828125 0 
L 40.046875 0 
L 40.046875 32.859375 
Q 40.046875 39.453125 37.1875 42.453125 
Q 34.328125 45.453125 29.109375 45.453125 
Q 25.203125 45.453125 21.75 43.421875 
Q 18.3125 41.40625 16.84375 37.9375 
Q 15.375 34.46875 15.375 28.375 
L 15.375 0 
z
" id="ArialMT-104"/>
     <path d="M 5.46875 16.546875 
L 13.921875 17.328125 
Q 14.984375 11.375 18.015625 8.6875 
Q 21.046875 6 25.78125 6 
Q 29.828125 6 32.875 7.859375 
Q 35.9375 9.71875 37.890625 12.8125 
Q 39.84375 15.921875 41.15625 21.1875 
Q 42.484375 26.46875 42.484375 31.9375 
Q 42.484375 32.515625 42.4375 33.6875 
Q 39.796875 29.5 35.234375 26.875 
Q 30.671875 24.265625 25.34375 24.265625 
Q 16.453125 24.265625 10.296875 30.703125 
Q 4.15625 37.15625 4.15625 47.703125 
Q 4.15625 58.59375 10.578125 65.234375 
Q 17 71.875 26.65625 71.875 
Q 33.640625 71.875 39.421875 68.109375 
Q 45.21875 64.359375 48.21875 57.390625 
Q 51.21875 50.4375 51.21875 37.25 
Q 51.21875 23.53125 48.234375 15.40625 
Q 45.265625 7.28125 39.375 3.03125 
Q 33.5 -1.21875 25.59375 -1.21875 
Q 17.1875 -1.21875 11.859375 3.4375 
Q 6.546875 8.109375 5.46875 16.546875 
z
M 41.453125 48.140625 
Q 41.453125 55.71875 37.421875 60.15625 
Q 33.40625 64.59375 27.734375 64.59375 
Q 21.875 64.59375 17.53125 59.8125 
Q 13.1875 55.03125 13.1875 47.40625 
Q 13.1875 40.578125 17.3125 36.296875 
Q 21.4375 32.03125 27.484375 32.03125 
Q 33.59375 32.03125 37.515625 36.296875 
Q 41.453125 40.578125 41.453125 48.140625 
z
" id="ArialMT-57"/>
     <path d="M 8.890625 0 
L 8.890625 10.015625 
L 18.890625 10.015625 
L 18.890625 0 
Q 18.890625 -5.515625 16.9375 -8.90625 
Q 14.984375 -12.3125 10.75 -14.15625 
L 8.296875 -10.40625 
Q 11.078125 -9.1875 12.390625 -6.8125 
Q 13.71875 -4.4375 13.875 0 
z
" id="ArialMT-44"/>
     <path d="M 8.203125 0 
L 8.203125 71.578125 
L 56.5 71.578125 
L 56.5 63.140625 
L 17.671875 63.140625 
L 17.671875 40.96875 
L 51.265625 40.96875 
L 51.265625 32.515625 
L 17.671875 32.515625 
L 17.671875 0 
z
" id="ArialMT-70"/>
     <path d="M 9.03125 41.84375 
L 9.03125 51.859375 
L 19.046875 51.859375 
L 19.046875 41.84375 
z
M 9.03125 0 
L 9.03125 10.015625 
L 19.046875 10.015625 
L 19.046875 0 
z
" id="ArialMT-58"/>
     <path d="M 7.71875 0 
L 7.71875 71.578125 
L 32.375 71.578125 
Q 40.71875 71.578125 45.125 70.5625 
Q 51.265625 69.140625 55.609375 65.4375 
Q 61.28125 60.640625 64.078125 53.1875 
Q 66.890625 45.75 66.890625 36.1875 
Q 66.890625 28.03125 64.984375 21.734375 
Q 63.09375 15.4375 60.109375 11.296875 
Q 57.125 7.171875 53.578125 4.796875 
Q 50.046875 2.4375 45.046875 1.21875 
Q 40.046875 0 33.546875 0 
z
M 17.1875 8.453125 
L 32.46875 8.453125 
Q 39.546875 8.453125 43.578125 9.765625 
Q 47.609375 11.078125 50 13.484375 
Q 53.375 16.84375 55.25 22.53125 
Q 57.125 28.21875 57.125 36.328125 
Q 57.125 47.5625 53.4375 53.59375 
Q 49.75 59.625 44.484375 61.671875 
Q 40.671875 63.140625 32.234375 63.140625 
L 17.1875 63.140625 
z
" id="ArialMT-68"/>
    </defs>
    <g style="fill:#262626;" transform="translate(202.930312 22.296)scale(0.12 -0.12)">
     <use xlink:href="#ArialMT-83"/>
     <use x="66.699219" xlink:href="#ArialMT-104"/>
     <use x="122.314453" xlink:href="#ArialMT-111"/>
     <use x="177.929688" xlink:href="#ArialMT-116"/>
     <use x="205.712891" xlink:href="#ArialMT-32"/>
     <use x="233.496094" xlink:href="#ArialMT-49"/>
     <use x="289.111328" xlink:href="#ArialMT-57"/>
     <use x="344.726562" xlink:href="#ArialMT-48"/>
     <use x="400.341797" xlink:href="#ArialMT-53"/>
     <use x="455.957031" xlink:href="#ArialMT-49"/>
     <use x="511.572266" xlink:href="#ArialMT-52"/>
     <use x="567.1875" xlink:href="#ArialMT-48"/>
     <use x="622.802734" xlink:href="#ArialMT-49"/>
     <use x="678.417969" xlink:href="#ArialMT-53"/>
     <use x="734.033203" xlink:href="#ArialMT-44"/>
     <use x="761.816406" xlink:href="#ArialMT-32"/>
     <use x="789.599609" xlink:href="#ArialMT-70"/>
     <use x="850.683594" xlink:href="#ArialMT-117"/>
     <use x="906.298828" xlink:href="#ArialMT-101"/>
     <use x="961.914062" xlink:href="#ArialMT-108"/>
     <use x="984.130859" xlink:href="#ArialMT-58"/>
     <use x="1011.914062" xlink:href="#ArialMT-32"/>
     <use x="1039.697266" xlink:href="#ArialMT-68"/>
    </g>
   </g>
   <g id="legend_3">
    <g id="patch_19">
     <path d="M 364.999844 68.385844 
L 471.1 68.385844 
Q 473.3 68.385844 473.3 66.185844 
L 473.3 35.996 
Q 473.3 33.796 471.1 33.796 
L 364.999844 33.796 
Q 362.799844 33.796 362.799844 35.996 
L 362.799844 66.185844 
Q 362.799844 68.385844 364.999844 68.385844 
z
" style="fill:#ffffff;opacity:0.8;stroke:#cccccc;stroke-linejoin:miter;"/>
    </g>
    <g id="line2d_105">
     <path d="M 367.199844 42.376 
L 389.199844 42.376 
" style="fill:none;stroke:#4c72b0;stroke-linecap:round;"/>
    </g>
    <g id="line2d_106"/>
    <g id="text_49">
     <!-- $I_{tor}$ [kA] -->
     <g style="fill:#262626;" transform="translate(397.999844 46.226)scale(0.11 -0.11)">
      <use transform="translate(0 0.09375)" xlink:href="#DejaVuSans-Oblique-73"/>
      <use transform="translate(29.492188 -16.3125)scale(0.7)" xlink:href="#DejaVuSans-Oblique-116"/>
      <use transform="translate(56.938477 -16.3125)scale(0.7)" xlink:href="#DejaVuSans-Oblique-111"/>
      <use transform="translate(99.765625 -16.3125)scale(0.7)" xlink:href="#DejaVuSans-Oblique-114"/>
      <use transform="translate(131.279297 0.09375)" xlink:href="#ArialMT-32"/>
      <use transform="translate(159.0625 0.09375)" xlink:href="#ArialMT-91"/>
      <use transform="translate(186.845703 0.09375)" xlink:href="#ArialMT-107"/>
      <use transform="translate(236.845703 0.09375)" xlink:href="#ArialMT-65"/>
      <use transform="translate(303.544922 0.09375)" xlink:href="#ArialMT-93"/>
     </g>
    </g>
    <g id="line2d_107">
     <path d="M 367.199844 57.949594 
L 389.199844 57.949594 
" style="fill:none;stroke:#1a1a1a;stroke-dasharray:5.55,2.4;stroke-dashoffset:0;stroke-width:1.5;"/>
    </g>
    <g id="text_50">
     <!-- TS meas. time -->
     <g style="fill:#262626;" transform="translate(397.999844 61.799594)scale(0.11 -0.11)">
      <use xlink:href="#ArialMT-84"/>
      <use x="61.083984" xlink:href="#ArialMT-83"/>
      <use x="127.783203" xlink:href="#ArialMT-32"/>
      <use x="155.566406" xlink:href="#ArialMT-109"/>
      <use x="238.867188" xlink:href="#ArialMT-101"/>
      <use x="294.482422" xlink:href="#ArialMT-97"/>
      <use x="350.097656" xlink:href="#ArialMT-115"/>
      <use x="400.097656" xlink:href="#ArialMT-46"/>
      <use x="427.880859" xlink:href="#ArialMT-32"/>
      <use x="455.664062" xlink:href="#ArialMT-116"/>
      <use x="483.447266" xlink:href="#ArialMT-105"/>
      <use x="505.664062" xlink:href="#ArialMT-109"/>
      <use x="588.964844" xlink:href="#ArialMT-101"/>
     </g>
    </g>
   </g>
  </g>
 </g>
 <defs>
  <clipPath id="p0c42be165b">
   <rect height="136.764" width="418.32" x="60.48" y="206.0892"/>
  </clipPath>
  <clipPath id="p735293585b">
   <rect height="136.764" width="418.32" x="60.48" y="383.8824"/>
  </clipPath>
  <clipPath id="p3768953832">
   <rect height="136.764" width="418.32" x="60.48" y="28.296"/>
  </clipPath>
 </defs>
</svg>
