<?xml version="1.0" encoding="utf-8" standalone="no"?>
<!DOCTYPE svg PUBLIC "-//W3C//DTD SVG 1.1//EN"
  "http://www.w3.org/Graphics/SVG/1.1/DTD/svg11.dtd">
<!-- Created with matplotlib (https://matplotlib.org/) -->
<svg height="565.92pt" version="1.1" viewBox="0 0 504 565.92" width="504pt" xmlns="http://www.w3.org/2000/svg" xmlns:xlink="http://www.w3.org/1999/xlink">
 <defs>
  <style type="text/css">
*{stroke-linecap:butt;stroke-linejoin:round;}
  </style>
 </defs>
 <g id="figure_1">
  <g id="patch_1">
   <path d="M 0 565.92 
L 504 565.92 
L 504 0 
L 0 0 
z
" style="fill:#ffffff;"/>
  </g>
  <g id="axes_1">
   <g id="patch_2">
    <path d="M 60.48 342.8532 
L 478.8 342.8532 
L 478.8 206.0892 
L 60.48 206.0892 
z
" style="fill:#ffffff;"/>
   </g>
   <g id="matplotlib.axis_1">
    <g id="xtick_1">
     <g id="line2d_1">
      <path clip-path="url(#p4f5147dad9)" d="M 60.48 342.8532 
L 60.48 206.0892 
" style="fill:none;stroke:#cccccc;stroke-dasharray:0.5,0.825;stroke-dashoffset:0;stroke-width:0.5;"/>
     </g>
     <g id="line2d_2">
      <defs>
       <path d="M 0 0 
L 0 6 
" id="mc112591d60" style="stroke:#262626;stroke-width:1.25;"/>
      </defs>
      <g>
       <use style="fill:#262626;stroke:#262626;stroke-width:1.25;" x="60.48" xlink:href="#mc112591d60" y="342.8532"/>
      </g>
     </g>
     <g id="text_1">
      <!-- 0.200 -->
      <defs>
       <path d="M 4.15625 35.296875 
Q 4.15625 48 6.765625 55.734375 
Q 9.375 63.484375 14.515625 67.671875 
Q 19.671875 71.875 27.484375 71.875 
Q 33.25 71.875 37.59375 69.546875 
Q 41.9375 67.234375 44.765625 62.859375 
Q 47.609375 58.5 49.21875 52.21875 
Q 50.828125 45.953125 50.828125 35.296875 
Q 50.828125 22.703125 48.234375 14.96875 
Q 45.65625 7.234375 40.5 3 
Q 35.359375 -1.21875 27.484375 -1.21875 
Q 17.140625 -1.21875 11.234375 6.203125 
Q 4.15625 15.140625 4.15625 35.296875 
z
M 13.1875 35.296875 
Q 13.1875 17.671875 17.3125 11.828125 
Q 21.4375 6 27.484375 6 
Q 33.546875 6 37.671875 11.859375 
Q 41.796875 17.71875 41.796875 35.296875 
Q 41.796875 52.984375 37.671875 58.78125 
Q 33.546875 64.59375 27.390625 64.59375 
Q 21.34375 64.59375 17.71875 59.46875 
Q 13.1875 52.9375 13.1875 35.296875 
z
" id="ArialMT-48"/>
       <path d="M 9.078125 0 
L 9.078125 10.015625 
L 19.09375 10.015625 
L 19.09375 0 
z
" id="ArialMT-46"/>
       <path d="M 50.34375 8.453125 
L 50.34375 0 
L 3.03125 0 
Q 2.9375 3.171875 4.046875 6.109375 
Q 5.859375 10.9375 9.828125 15.625 
Q 13.8125 20.3125 21.34375 26.46875 
Q 33.015625 36.03125 37.109375 41.625 
Q 41.21875 47.21875 41.21875 52.203125 
Q 41.21875 57.421875 37.46875 61 
Q 33.734375 64.59375 27.734375 64.59375 
Q 21.390625 64.59375 17.578125 60.78125 
Q 13.765625 56.984375 13.71875 50.25 
L 4.6875 51.171875 
Q 5.609375 61.28125 11.65625 66.578125 
Q 17.71875 71.875 27.9375 71.875 
Q 38.234375 71.875 44.234375 66.15625 
Q 50.25 60.453125 50.25 52 
Q 50.25 47.703125 48.484375 43.546875 
Q 46.734375 39.40625 42.65625 34.8125 
Q 38.578125 30.21875 29.109375 22.21875 
Q 21.1875 15.578125 18.9375 13.203125 
Q 16.703125 10.84375 15.234375 8.453125 
z
" id="ArialMT-50"/>
      </defs>
      <g style="fill:#262626;" transform="translate(46.717969 360.226794)scale(0.11 -0.11)">
       <use xlink:href="#ArialMT-48"/>
       <use x="55.615234" xlink:href="#ArialMT-46"/>
       <use x="83.398438" xlink:href="#ArialMT-50"/>
       <use x="139.013672" xlink:href="#ArialMT-48"/>
       <use x="194.628906" xlink:href="#ArialMT-48"/>
      </g>
     </g>
    </g>
    <g id="xtick_2">
     <g id="line2d_3">
      <path clip-path="url(#p4f5147dad9)" d="M 112.77 342.8532 
L 112.77 206.0892 
" style="fill:none;stroke:#cccccc;stroke-dasharray:0.5,0.825;stroke-dashoffset:0;stroke-width:0.5;"/>
     </g>
     <g id="line2d_4">
      <g>
       <use style="fill:#262626;stroke:#262626;stroke-width:1.25;" x="112.77" xlink:href="#mc112591d60" y="342.8532"/>
      </g>
     </g>
     <g id="text_2">
      <!-- 0.225 -->
      <defs>
       <path d="M 4.15625 18.75 
L 13.375 19.53125 
Q 14.40625 12.796875 18.140625 9.390625 
Q 21.875 6 27.15625 6 
Q 33.5 6 37.890625 10.78125 
Q 42.28125 15.578125 42.28125 23.484375 
Q 42.28125 31 38.0625 35.34375 
Q 33.84375 39.703125 27 39.703125 
Q 22.75 39.703125 19.328125 37.765625 
Q 15.921875 35.84375 13.96875 32.765625 
L 5.71875 33.84375 
L 12.640625 70.609375 
L 48.25 70.609375 
L 48.25 62.203125 
L 19.671875 62.203125 
L 15.828125 42.96875 
Q 22.265625 47.46875 29.34375 47.46875 
Q 38.71875 47.46875 45.15625 40.96875 
Q 51.609375 34.46875 51.609375 24.265625 
Q 51.609375 14.546875 45.953125 7.46875 
Q 39.0625 -1.21875 27.15625 -1.21875 
Q 17.390625 -1.21875 11.203125 4.25 
Q 5.03125 9.71875 4.15625 18.75 
z
" id="ArialMT-53"/>
      </defs>
      <g style="fill:#262626;" transform="translate(99.007969 360.226794)scale(0.11 -0.11)">
       <use xlink:href="#ArialMT-48"/>
       <use x="55.615234" xlink:href="#ArialMT-46"/>
       <use x="83.398438" xlink:href="#ArialMT-50"/>
       <use x="139.013672" xlink:href="#ArialMT-50"/>
       <use x="194.628906" xlink:href="#ArialMT-53"/>
      </g>
     </g>
    </g>
    <g id="xtick_3">
     <g id="line2d_5">
      <path clip-path="url(#p4f5147dad9)" d="M 165.06 342.8532 
L 165.06 206.0892 
" style="fill:none;stroke:#cccccc;stroke-dasharray:0.5,0.825;stroke-dashoffset:0;stroke-width:0.5;"/>
     </g>
     <g id="line2d_6">
      <g>
       <use style="fill:#262626;stroke:#262626;stroke-width:1.25;" x="165.06" xlink:href="#mc112591d60" y="342.8532"/>
      </g>
     </g>
     <g id="text_3">
      <!-- 0.250 -->
      <g style="fill:#262626;" transform="translate(151.297969 360.226794)scale(0.11 -0.11)">
       <use xlink:href="#ArialMT-48"/>
       <use x="55.615234" xlink:href="#ArialMT-46"/>
       <use x="83.398438" xlink:href="#ArialMT-50"/>
       <use x="139.013672" xlink:href="#ArialMT-53"/>
       <use x="194.628906" xlink:href="#ArialMT-48"/>
      </g>
     </g>
    </g>
    <g id="xtick_4">
     <g id="line2d_7">
      <path clip-path="url(#p4f5147dad9)" d="M 217.35 342.8532 
L 217.35 206.0892 
" style="fill:none;stroke:#cccccc;stroke-dasharray:0.5,0.825;stroke-dashoffset:0;stroke-width:0.5;"/>
     </g>
     <g id="line2d_8">
      <g>
       <use style="fill:#262626;stroke:#262626;stroke-width:1.25;" x="217.35" xlink:href="#mc112591d60" y="342.8532"/>
      </g>
     </g>
     <g id="text_4">
      <!-- 0.275 -->
      <defs>
       <path d="M 4.734375 62.203125 
L 4.734375 70.65625 
L 51.078125 70.65625 
L 51.078125 63.8125 
Q 44.234375 56.546875 37.515625 44.484375 
Q 30.8125 32.421875 27.15625 19.671875 
Q 24.515625 10.6875 23.78125 0 
L 14.75 0 
Q 14.890625 8.453125 18.0625 20.40625 
Q 21.234375 32.375 27.171875 43.484375 
Q 33.109375 54.59375 39.796875 62.203125 
z
" id="ArialMT-55"/>
      </defs>
      <g style="fill:#262626;" transform="translate(203.587969 360.226794)scale(0.11 -0.11)">
       <use xlink:href="#ArialMT-48"/>
       <use x="55.615234" xlink:href="#ArialMT-46"/>
       <use x="83.398438" xlink:href="#ArialMT-50"/>
       <use x="139.013672" xlink:href="#ArialMT-55"/>
       <use x="194.628906" xlink:href="#ArialMT-53"/>
      </g>
     </g>
    </g>
    <g id="xtick_5">
     <g id="line2d_9">
      <path clip-path="url(#p4f5147dad9)" d="M 269.64 342.8532 
L 269.64 206.0892 
" style="fill:none;stroke:#cccccc;stroke-dasharray:0.5,0.825;stroke-dashoffset:0;stroke-width:0.5;"/>
     </g>
     <g id="line2d_10">
      <g>
       <use style="fill:#262626;stroke:#262626;stroke-width:1.25;" x="269.64" xlink:href="#mc112591d60" y="342.8532"/>
      </g>
     </g>
     <g id="text_5">
      <!-- 0.300 -->
      <defs>
       <path d="M 4.203125 18.890625 
L 12.984375 20.0625 
Q 14.5 12.59375 18.140625 9.296875 
Q 21.78125 6 27 6 
Q 33.203125 6 37.46875 10.296875 
Q 41.75 14.59375 41.75 20.953125 
Q 41.75 27 37.796875 30.921875 
Q 33.84375 34.859375 27.734375 34.859375 
Q 25.25 34.859375 21.53125 33.890625 
L 22.515625 41.609375 
Q 23.390625 41.5 23.921875 41.5 
Q 29.546875 41.5 34.03125 44.421875 
Q 38.53125 47.359375 38.53125 53.46875 
Q 38.53125 58.296875 35.25 61.46875 
Q 31.984375 64.65625 26.8125 64.65625 
Q 21.6875 64.65625 18.265625 61.421875 
Q 14.84375 58.203125 13.875 51.765625 
L 5.078125 53.328125 
Q 6.6875 62.15625 12.390625 67.015625 
Q 18.109375 71.875 26.609375 71.875 
Q 32.46875 71.875 37.390625 69.359375 
Q 42.328125 66.84375 44.9375 62.5 
Q 47.5625 58.15625 47.5625 53.265625 
Q 47.5625 48.640625 45.0625 44.828125 
Q 42.578125 41.015625 37.703125 38.765625 
Q 44.046875 37.3125 47.5625 32.6875 
Q 51.078125 28.078125 51.078125 21.140625 
Q 51.078125 11.765625 44.234375 5.25 
Q 37.40625 -1.265625 26.953125 -1.265625 
Q 17.53125 -1.265625 11.296875 4.34375 
Q 5.078125 9.96875 4.203125 18.890625 
z
" id="ArialMT-51"/>
      </defs>
      <g style="fill:#262626;" transform="translate(255.877969 360.226794)scale(0.11 -0.11)">
       <use xlink:href="#ArialMT-48"/>
       <use x="55.615234" xlink:href="#ArialMT-46"/>
       <use x="83.398438" xlink:href="#ArialMT-51"/>
       <use x="139.013672" xlink:href="#ArialMT-48"/>
       <use x="194.628906" xlink:href="#ArialMT-48"/>
      </g>
     </g>
    </g>
    <g id="xtick_6">
     <g id="line2d_11">
      <path clip-path="url(#p4f5147dad9)" d="M 321.93 342.8532 
L 321.93 206.0892 
" style="fill:none;stroke:#cccccc;stroke-dasharray:0.5,0.825;stroke-dashoffset:0;stroke-width:0.5;"/>
     </g>
     <g id="line2d_12">
      <g>
       <use style="fill:#262626;stroke:#262626;stroke-width:1.25;" x="321.93" xlink:href="#mc112591d60" y="342.8532"/>
      </g>
     </g>
     <g id="text_6">
      <!-- 0.325 -->
      <g style="fill:#262626;" transform="translate(308.167969 360.226794)scale(0.11 -0.11)">
       <use xlink:href="#ArialMT-48"/>
       <use x="55.615234" xlink:href="#ArialMT-46"/>
       <use x="83.398438" xlink:href="#ArialMT-51"/>
       <use x="139.013672" xlink:href="#ArialMT-50"/>
       <use x="194.628906" xlink:href="#ArialMT-53"/>
      </g>
     </g>
    </g>
    <g id="xtick_7">
     <g id="line2d_13">
      <path clip-path="url(#p4f5147dad9)" d="M 374.22 342.8532 
L 374.22 206.0892 
" style="fill:none;stroke:#cccccc;stroke-dasharray:0.5,0.825;stroke-dashoffset:0;stroke-width:0.5;"/>
     </g>
     <g id="line2d_14">
      <g>
       <use style="fill:#262626;stroke:#262626;stroke-width:1.25;" x="374.22" xlink:href="#mc112591d60" y="342.8532"/>
      </g>
     </g>
     <g id="text_7">
      <!-- 0.350 -->
      <g style="fill:#262626;" transform="translate(360.457969 360.226794)scale(0.11 -0.11)">
       <use xlink:href="#ArialMT-48"/>
       <use x="55.615234" xlink:href="#ArialMT-46"/>
       <use x="83.398438" xlink:href="#ArialMT-51"/>
       <use x="139.013672" xlink:href="#ArialMT-53"/>
       <use x="194.628906" xlink:href="#ArialMT-48"/>
      </g>
     </g>
    </g>
    <g id="xtick_8">
     <g id="line2d_15">
      <path clip-path="url(#p4f5147dad9)" d="M 426.51 342.8532 
L 426.51 206.0892 
" style="fill:none;stroke:#cccccc;stroke-dasharray:0.5,0.825;stroke-dashoffset:0;stroke-width:0.5;"/>
     </g>
     <g id="line2d_16">
      <g>
       <use style="fill:#262626;stroke:#262626;stroke-width:1.25;" x="426.51" xlink:href="#mc112591d60" y="342.8532"/>
      </g>
     </g>
     <g id="text_8">
      <!-- 0.375 -->
      <g style="fill:#262626;" transform="translate(412.747969 360.226794)scale(0.11 -0.11)">
       <use xlink:href="#ArialMT-48"/>
       <use x="55.615234" xlink:href="#ArialMT-46"/>
       <use x="83.398438" xlink:href="#ArialMT-51"/>
       <use x="139.013672" xlink:href="#ArialMT-55"/>
       <use x="194.628906" xlink:href="#ArialMT-53"/>
      </g>
     </g>
    </g>
    <g id="xtick_9">
     <g id="line2d_17">
      <path clip-path="url(#p4f5147dad9)" d="M 478.8 342.8532 
L 478.8 206.0892 
" style="fill:none;stroke:#cccccc;stroke-dasharray:0.5,0.825;stroke-dashoffset:0;stroke-width:0.5;"/>
     </g>
     <g id="line2d_18">
      <g>
       <use style="fill:#262626;stroke:#262626;stroke-width:1.25;" x="478.8" xlink:href="#mc112591d60" y="342.8532"/>
      </g>
     </g>
     <g id="text_9">
      <!-- 0.400 -->
      <defs>
       <path d="M 32.328125 0 
L 32.328125 17.140625 
L 1.265625 17.140625 
L 1.265625 25.203125 
L 33.9375 71.578125 
L 41.109375 71.578125 
L 41.109375 25.203125 
L 50.78125 25.203125 
L 50.78125 17.140625 
L 41.109375 17.140625 
L 41.109375 0 
z
M 32.328125 25.203125 
L 32.328125 57.46875 
L 9.90625 25.203125 
z
" id="ArialMT-52"/>
      </defs>
      <g style="fill:#262626;" transform="translate(465.037969 360.226794)scale(0.11 -0.11)">
       <use xlink:href="#ArialMT-48"/>
       <use x="55.615234" xlink:href="#ArialMT-46"/>
       <use x="83.398438" xlink:href="#ArialMT-52"/>
       <use x="139.013672" xlink:href="#ArialMT-48"/>
       <use x="194.628906" xlink:href="#ArialMT-48"/>
      </g>
     </g>
    </g>
    <g id="text_10">
     <!-- Maj. Radius [m] -->
     <defs>
      <path d="M 7.421875 0 
L 7.421875 71.578125 
L 21.6875 71.578125 
L 38.625 20.90625 
Q 40.96875 13.8125 42.046875 10.296875 
Q 43.265625 14.203125 45.84375 21.78125 
L 62.984375 71.578125 
L 75.734375 71.578125 
L 75.734375 0 
L 66.609375 0 
L 66.609375 59.90625 
L 45.796875 0 
L 37.25 0 
L 16.546875 60.9375 
L 16.546875 0 
z
" id="ArialMT-77"/>
      <path d="M 40.4375 6.390625 
Q 35.546875 2.25 31.03125 0.53125 
Q 26.515625 -1.171875 21.34375 -1.171875 
Q 12.796875 -1.171875 8.203125 3 
Q 3.609375 7.171875 3.609375 13.671875 
Q 3.609375 17.484375 5.34375 20.625 
Q 7.078125 23.78125 9.890625 25.6875 
Q 12.703125 27.59375 16.21875 28.5625 
Q 18.796875 29.25 24.03125 29.890625 
Q 34.671875 31.15625 39.703125 32.90625 
Q 39.75 34.71875 39.75 35.203125 
Q 39.75 40.578125 37.25 42.78125 
Q 33.890625 45.75 27.25 45.75 
Q 21.046875 45.75 18.09375 43.578125 
Q 15.140625 41.40625 13.71875 35.890625 
L 5.125 37.0625 
Q 6.296875 42.578125 8.984375 45.96875 
Q 11.671875 49.359375 16.75 51.1875 
Q 21.828125 53.03125 28.515625 53.03125 
Q 35.15625 53.03125 39.296875 51.46875 
Q 43.453125 49.90625 45.40625 47.53125 
Q 47.359375 45.171875 48.140625 41.546875 
Q 48.578125 39.3125 48.578125 33.453125 
L 48.578125 21.734375 
Q 48.578125 9.46875 49.140625 6.21875 
Q 49.703125 2.984375 51.375 0 
L 42.1875 0 
Q 40.828125 2.734375 40.4375 6.390625 
z
M 39.703125 26.03125 
Q 34.90625 24.078125 25.34375 22.703125 
Q 19.921875 21.921875 17.671875 20.9375 
Q 15.4375 19.96875 14.203125 18.09375 
Q 12.984375 16.21875 12.984375 13.921875 
Q 12.984375 10.40625 15.640625 8.0625 
Q 18.3125 5.71875 23.4375 5.71875 
Q 28.515625 5.71875 32.46875 7.9375 
Q 36.421875 10.15625 38.28125 14.015625 
Q 39.703125 17 39.703125 22.796875 
z
" id="ArialMT-97"/>
      <path d="M 6.546875 61.375 
L 6.546875 71.578125 
L 15.328125 71.578125 
L 15.328125 61.375 
z
M -4.59375 -20.125 
L -2.9375 -12.640625 
Q -0.296875 -13.328125 1.21875 -13.328125 
Q 3.90625 -13.328125 5.21875 -11.546875 
Q 6.546875 -9.765625 6.546875 -2.640625 
L 6.546875 51.859375 
L 15.328125 51.859375 
L 15.328125 -2.828125 
Q 15.328125 -12.40625 12.84375 -16.15625 
Q 9.671875 -21.046875 2.296875 -21.046875 
Q -1.265625 -21.046875 -4.59375 -20.125 
z
" id="ArialMT-106"/>
      <path id="ArialMT-32"/>
      <path d="M 7.859375 0 
L 7.859375 71.578125 
L 39.59375 71.578125 
Q 49.171875 71.578125 54.140625 69.640625 
Q 59.125 67.71875 62.109375 62.828125 
Q 65.09375 57.953125 65.09375 52.046875 
Q 65.09375 44.4375 60.15625 39.203125 
Q 55.21875 33.984375 44.921875 32.5625 
Q 48.6875 30.765625 50.640625 29 
Q 54.78125 25.203125 58.5 19.484375 
L 70.953125 0 
L 59.03125 0 
L 49.5625 14.890625 
Q 45.40625 21.34375 42.71875 24.75 
Q 40.046875 28.171875 37.921875 29.53125 
Q 35.796875 30.90625 33.59375 31.453125 
Q 31.984375 31.78125 28.328125 31.78125 
L 17.328125 31.78125 
L 17.328125 0 
z
M 17.328125 39.984375 
L 37.703125 39.984375 
Q 44.1875 39.984375 47.84375 41.328125 
Q 51.515625 42.671875 53.421875 45.625 
Q 55.328125 48.578125 55.328125 52.046875 
Q 55.328125 57.125 51.640625 60.390625 
Q 47.953125 63.671875 39.984375 63.671875 
L 17.328125 63.671875 
z
" id="ArialMT-82"/>
      <path d="M 40.234375 0 
L 40.234375 6.546875 
Q 35.296875 -1.171875 25.734375 -1.171875 
Q 19.53125 -1.171875 14.328125 2.25 
Q 9.125 5.671875 6.265625 11.796875 
Q 3.421875 17.921875 3.421875 25.875 
Q 3.421875 33.640625 6 39.96875 
Q 8.59375 46.296875 13.765625 49.65625 
Q 18.953125 53.03125 25.34375 53.03125 
Q 30.03125 53.03125 33.6875 51.046875 
Q 37.359375 49.078125 39.65625 45.90625 
L 39.65625 71.578125 
L 48.390625 71.578125 
L 48.390625 0 
z
M 12.453125 25.875 
Q 12.453125 15.921875 16.640625 10.984375 
Q 20.84375 6.0625 26.5625 6.0625 
Q 32.328125 6.0625 36.34375 10.765625 
Q 40.375 15.484375 40.375 25.140625 
Q 40.375 35.796875 36.265625 40.765625 
Q 32.171875 45.75 26.171875 45.75 
Q 20.3125 45.75 16.375 40.96875 
Q 12.453125 36.1875 12.453125 25.875 
z
" id="ArialMT-100"/>
      <path d="M 6.640625 61.46875 
L 6.640625 71.578125 
L 15.4375 71.578125 
L 15.4375 61.46875 
z
M 6.640625 0 
L 6.640625 51.859375 
L 15.4375 51.859375 
L 15.4375 0 
z
" id="ArialMT-105"/>
      <path d="M 40.578125 0 
L 40.578125 7.625 
Q 34.515625 -1.171875 24.125 -1.171875 
Q 19.53125 -1.171875 15.546875 0.578125 
Q 11.578125 2.34375 9.640625 5 
Q 7.71875 7.671875 6.9375 11.53125 
Q 6.390625 14.109375 6.390625 19.734375 
L 6.390625 51.859375 
L 15.1875 51.859375 
L 15.1875 23.09375 
Q 15.1875 16.21875 15.71875 13.8125 
Q 16.546875 10.359375 19.234375 8.375 
Q 21.921875 6.390625 25.875 6.390625 
Q 29.828125 6.390625 33.296875 8.421875 
Q 36.765625 10.453125 38.203125 13.9375 
Q 39.65625 17.4375 39.65625 24.078125 
L 39.65625 51.859375 
L 48.4375 51.859375 
L 48.4375 0 
z
" id="ArialMT-117"/>
      <path d="M 3.078125 15.484375 
L 11.765625 16.84375 
Q 12.5 11.625 15.84375 8.84375 
Q 19.1875 6.0625 25.203125 6.0625 
Q 31.25 6.0625 34.171875 8.515625 
Q 37.109375 10.984375 37.109375 14.3125 
Q 37.109375 17.28125 34.515625 19 
Q 32.71875 20.171875 25.53125 21.96875 
Q 15.875 24.421875 12.140625 26.203125 
Q 8.40625 27.984375 6.46875 31.125 
Q 4.546875 34.28125 4.546875 38.09375 
Q 4.546875 41.546875 6.125 44.5 
Q 7.71875 47.46875 10.453125 49.421875 
Q 12.5 50.921875 16.03125 51.96875 
Q 19.578125 53.03125 23.640625 53.03125 
Q 29.734375 53.03125 34.34375 51.265625 
Q 38.96875 49.515625 41.15625 46.5 
Q 43.359375 43.5 44.1875 38.484375 
L 35.59375 37.3125 
Q 35.015625 41.3125 32.203125 43.546875 
Q 29.390625 45.796875 24.265625 45.796875 
Q 18.21875 45.796875 15.625 43.796875 
Q 13.03125 41.796875 13.03125 39.109375 
Q 13.03125 37.40625 14.109375 36.03125 
Q 15.1875 34.625 17.484375 33.6875 
Q 18.796875 33.203125 25.25 31.453125 
Q 34.578125 28.953125 38.25 27.359375 
Q 41.9375 25.78125 44.03125 22.75 
Q 46.140625 19.734375 46.140625 15.234375 
Q 46.140625 10.84375 43.578125 6.953125 
Q 41.015625 3.078125 36.171875 0.953125 
Q 31.34375 -1.171875 25.25 -1.171875 
Q 15.140625 -1.171875 9.84375 3.03125 
Q 4.546875 7.234375 3.078125 15.484375 
z
" id="ArialMT-115"/>
      <path d="M 6.78125 -19.875 
L 6.78125 71.578125 
L 26.171875 71.578125 
L 26.171875 64.3125 
L 15.578125 64.3125 
L 15.578125 -12.59375 
L 26.171875 -12.59375 
L 26.171875 -19.875 
z
" id="ArialMT-91"/>
      <path d="M 6.59375 0 
L 6.59375 51.859375 
L 14.453125 51.859375 
L 14.453125 44.578125 
Q 16.890625 48.390625 20.9375 50.703125 
Q 25 53.03125 30.171875 53.03125 
Q 35.9375 53.03125 39.625 50.640625 
Q 43.3125 48.25 44.828125 43.953125 
Q 50.984375 53.03125 60.84375 53.03125 
Q 68.5625 53.03125 72.703125 48.75 
Q 76.859375 44.484375 76.859375 35.59375 
L 76.859375 0 
L 68.109375 0 
L 68.109375 32.671875 
Q 68.109375 37.9375 67.25 40.25 
Q 66.40625 42.578125 64.15625 43.984375 
Q 61.921875 45.40625 58.890625 45.40625 
Q 53.421875 45.40625 49.796875 41.765625 
Q 46.1875 38.140625 46.1875 30.125 
L 46.1875 0 
L 37.40625 0 
L 37.40625 33.6875 
Q 37.40625 39.546875 35.25 42.46875 
Q 33.109375 45.40625 28.21875 45.40625 
Q 24.515625 45.40625 21.359375 43.453125 
Q 18.21875 41.5 16.796875 37.734375 
Q 15.375 33.984375 15.375 26.90625 
L 15.375 0 
z
" id="ArialMT-109"/>
      <path d="M 21.296875 -19.875 
L 1.90625 -19.875 
L 1.90625 -12.59375 
L 12.5 -12.59375 
L 12.5 64.3125 
L 1.90625 64.3125 
L 1.90625 71.578125 
L 21.296875 71.578125 
z
" id="ArialMT-93"/>
     </defs>
     <g style="fill:#262626;" transform="translate(227.964375 375.002419)scale(0.12 -0.12)">
      <use xlink:href="#ArialMT-77"/>
      <use x="83.300781" xlink:href="#ArialMT-97"/>
      <use x="138.916016" xlink:href="#ArialMT-106"/>
      <use x="161.132812" xlink:href="#ArialMT-46"/>
      <use x="188.916016" xlink:href="#ArialMT-32"/>
      <use x="216.699219" xlink:href="#ArialMT-82"/>
      <use x="288.916016" xlink:href="#ArialMT-97"/>
      <use x="344.53125" xlink:href="#ArialMT-100"/>
      <use x="400.146484" xlink:href="#ArialMT-105"/>
      <use x="422.363281" xlink:href="#ArialMT-117"/>
      <use x="477.978516" xlink:href="#ArialMT-115"/>
      <use x="527.978516" xlink:href="#ArialMT-32"/>
      <use x="555.761719" xlink:href="#ArialMT-91"/>
      <use x="583.544922" xlink:href="#ArialMT-109"/>
      <use x="666.845703" xlink:href="#ArialMT-93"/>
     </g>
    </g>
   </g>
   <g id="matplotlib.axis_2">
    <g id="ytick_1">
     <g id="line2d_19">
      <path clip-path="url(#p4f5147dad9)" d="M 60.48 342.8532 
L 478.8 342.8532 
" style="fill:none;stroke:#cccccc;stroke-dasharray:0.5,0.825;stroke-dashoffset:0;stroke-width:0.5;"/>
     </g>
     <g id="line2d_20">
      <defs>
       <path d="M 0 0 
L -6 0 
" id="m2802d457d6" style="stroke:#262626;stroke-width:1.25;"/>
      </defs>
      <g>
       <use style="fill:#262626;stroke:#262626;stroke-width:1.25;" x="60.48" xlink:href="#m2802d457d6" y="342.8532"/>
      </g>
     </g>
     <g id="text_11">
      <!-- 0.0 -->
      <g style="fill:#262626;" transform="translate(35.69 346.789997)scale(0.11 -0.11)">
       <use xlink:href="#ArialMT-48"/>
       <use x="55.615234" xlink:href="#ArialMT-46"/>
       <use x="83.398438" xlink:href="#ArialMT-48"/>
      </g>
     </g>
    </g>
    <g id="ytick_2">
     <g id="line2d_21">
      <path clip-path="url(#p4f5147dad9)" d="M 60.48 316.620313 
L 478.8 316.620313 
" style="fill:none;stroke:#cccccc;stroke-dasharray:0.5,0.825;stroke-dashoffset:0;stroke-width:0.5;"/>
     </g>
     <g id="line2d_22">
      <g>
       <use style="fill:#262626;stroke:#262626;stroke-width:1.25;" x="60.48" xlink:href="#m2802d457d6" y="316.620313"/>
      </g>
     </g>
     <g id="text_12">
      <!-- 2.5 -->
      <g style="fill:#262626;" transform="translate(35.69 320.55711)scale(0.11 -0.11)">
       <use xlink:href="#ArialMT-50"/>
       <use x="55.615234" xlink:href="#ArialMT-46"/>
       <use x="83.398438" xlink:href="#ArialMT-53"/>
      </g>
     </g>
    </g>
    <g id="ytick_3">
     <g id="line2d_23">
      <path clip-path="url(#p4f5147dad9)" d="M 60.48 290.387427 
L 478.8 290.387427 
" style="fill:none;stroke:#cccccc;stroke-dasharray:0.5,0.825;stroke-dashoffset:0;stroke-width:0.5;"/>
     </g>
     <g id="line2d_24">
      <g>
       <use style="fill:#262626;stroke:#262626;stroke-width:1.25;" x="60.48" xlink:href="#m2802d457d6" y="290.387427"/>
      </g>
     </g>
     <g id="text_13">
      <!-- 5.0 -->
      <g style="fill:#262626;" transform="translate(35.69 294.324223)scale(0.11 -0.11)">
       <use xlink:href="#ArialMT-53"/>
       <use x="55.615234" xlink:href="#ArialMT-46"/>
       <use x="83.398438" xlink:href="#ArialMT-48"/>
      </g>
     </g>
    </g>
    <g id="ytick_4">
     <g id="line2d_25">
      <path clip-path="url(#p4f5147dad9)" d="M 60.48 264.15454 
L 478.8 264.15454 
" style="fill:none;stroke:#cccccc;stroke-dasharray:0.5,0.825;stroke-dashoffset:0;stroke-width:0.5;"/>
     </g>
     <g id="line2d_26">
      <g>
       <use style="fill:#262626;stroke:#262626;stroke-width:1.25;" x="60.48" xlink:href="#m2802d457d6" y="264.15454"/>
      </g>
     </g>
     <g id="text_14">
      <!-- 7.5 -->
      <g style="fill:#262626;" transform="translate(35.69 268.091337)scale(0.11 -0.11)">
       <use xlink:href="#ArialMT-55"/>
       <use x="55.615234" xlink:href="#ArialMT-46"/>
       <use x="83.398438" xlink:href="#ArialMT-53"/>
      </g>
     </g>
    </g>
    <g id="ytick_5">
     <g id="line2d_27">
      <path clip-path="url(#p4f5147dad9)" d="M 60.48 237.921653 
L 478.8 237.921653 
" style="fill:none;stroke:#cccccc;stroke-dasharray:0.5,0.825;stroke-dashoffset:0;stroke-width:0.5;"/>
     </g>
     <g id="line2d_28">
      <g>
       <use style="fill:#262626;stroke:#262626;stroke-width:1.25;" x="60.48" xlink:href="#m2802d457d6" y="237.921653"/>
      </g>
     </g>
     <g id="text_15">
      <!-- 10.0 -->
      <defs>
       <path d="M 37.25 0 
L 28.46875 0 
L 28.46875 56 
Q 25.296875 52.984375 20.140625 49.953125 
Q 14.984375 46.921875 10.890625 45.40625 
L 10.890625 53.90625 
Q 18.265625 57.375 23.78125 62.296875 
Q 29.296875 67.234375 31.59375 71.875 
L 37.25 71.875 
z
" id="ArialMT-49"/>
      </defs>
      <g style="fill:#262626;" transform="translate(29.572969 241.85845)scale(0.11 -0.11)">
       <use xlink:href="#ArialMT-49"/>
       <use x="55.615234" xlink:href="#ArialMT-48"/>
       <use x="111.230469" xlink:href="#ArialMT-46"/>
       <use x="139.013672" xlink:href="#ArialMT-48"/>
      </g>
     </g>
    </g>
    <g id="ytick_6">
     <g id="line2d_29">
      <path clip-path="url(#p4f5147dad9)" d="M 60.48 211.688766 
L 478.8 211.688766 
" style="fill:none;stroke:#cccccc;stroke-dasharray:0.5,0.825;stroke-dashoffset:0;stroke-width:0.5;"/>
     </g>
     <g id="line2d_30">
      <g>
       <use style="fill:#262626;stroke:#262626;stroke-width:1.25;" x="60.48" xlink:href="#m2802d457d6" y="211.688766"/>
      </g>
     </g>
     <g id="text_16">
      <!-- 12.5 -->
      <g style="fill:#262626;" transform="translate(29.572969 215.625563)scale(0.11 -0.11)">
       <use xlink:href="#ArialMT-49"/>
       <use x="55.615234" xlink:href="#ArialMT-50"/>
       <use x="111.230469" xlink:href="#ArialMT-46"/>
       <use x="139.013672" xlink:href="#ArialMT-53"/>
      </g>
     </g>
    </g>
    <g id="text_17">
     <!-- Temp. [eV] -->
     <defs>
      <path d="M 25.921875 0 
L 25.921875 63.140625 
L 2.34375 63.140625 
L 2.34375 71.578125 
L 59.078125 71.578125 
L 59.078125 63.140625 
L 35.40625 63.140625 
L 35.40625 0 
z
" id="ArialMT-84"/>
      <path d="M 42.09375 16.703125 
L 51.171875 15.578125 
Q 49.03125 7.625 43.21875 3.21875 
Q 37.40625 -1.171875 28.375 -1.171875 
Q 17 -1.171875 10.328125 5.828125 
Q 3.65625 12.84375 3.65625 25.484375 
Q 3.65625 38.578125 10.390625 45.796875 
Q 17.140625 53.03125 27.875 53.03125 
Q 38.28125 53.03125 44.875 45.953125 
Q 51.46875 38.875 51.46875 26.03125 
Q 51.46875 25.25 51.421875 23.6875 
L 12.75 23.6875 
Q 13.234375 15.140625 17.578125 10.59375 
Q 21.921875 6.0625 28.421875 6.0625 
Q 33.25 6.0625 36.671875 8.59375 
Q 40.09375 11.140625 42.09375 16.703125 
z
M 13.234375 30.90625 
L 42.1875 30.90625 
Q 41.609375 37.453125 38.875 40.71875 
Q 34.671875 45.796875 27.984375 45.796875 
Q 21.921875 45.796875 17.796875 41.75 
Q 13.671875 37.703125 13.234375 30.90625 
z
" id="ArialMT-101"/>
      <path d="M 6.59375 -19.875 
L 6.59375 51.859375 
L 14.59375 51.859375 
L 14.59375 45.125 
Q 17.4375 49.078125 21 51.046875 
Q 24.5625 53.03125 29.640625 53.03125 
Q 36.28125 53.03125 41.359375 49.609375 
Q 46.4375 46.1875 49.015625 39.953125 
Q 51.609375 33.734375 51.609375 26.3125 
Q 51.609375 18.359375 48.75 11.984375 
Q 45.90625 5.609375 40.453125 2.21875 
Q 35.015625 -1.171875 29 -1.171875 
Q 24.609375 -1.171875 21.109375 0.6875 
Q 17.625 2.546875 15.375 5.375 
L 15.375 -19.875 
z
M 14.546875 25.640625 
Q 14.546875 15.625 18.59375 10.84375 
Q 22.65625 6.0625 28.421875 6.0625 
Q 34.28125 6.0625 38.453125 11.015625 
Q 42.625 15.96875 42.625 26.375 
Q 42.625 36.28125 38.546875 41.203125 
Q 34.46875 46.140625 28.8125 46.140625 
Q 23.1875 46.140625 18.859375 40.890625 
Q 14.546875 35.640625 14.546875 25.640625 
z
" id="ArialMT-112"/>
      <path d="M 28.171875 0 
L 0.4375 71.578125 
L 10.6875 71.578125 
L 29.296875 19.578125 
Q 31.546875 13.328125 33.0625 7.859375 
Q 34.71875 13.71875 36.921875 19.578125 
L 56.25 71.578125 
L 65.921875 71.578125 
L 37.890625 0 
z
" id="ArialMT-86"/>
     </defs>
     <g style="fill:#4c72b0;" transform="translate(23.187969 303.802763)rotate(-90)scale(0.12 -0.12)">
      <use xlink:href="#ArialMT-84"/>
      <use x="60.912109" xlink:href="#ArialMT-101"/>
      <use x="116.527344" xlink:href="#ArialMT-109"/>
      <use x="199.828125" xlink:href="#ArialMT-112"/>
      <use x="255.443359" xlink:href="#ArialMT-46"/>
      <use x="283.226562" xlink:href="#ArialMT-32"/>
      <use x="311.009766" xlink:href="#ArialMT-91"/>
      <use x="338.792969" xlink:href="#ArialMT-101"/>
      <use x="394.408203" xlink:href="#ArialMT-86"/>
      <use x="461.107422" xlink:href="#ArialMT-93"/>
     </g>
    </g>
   </g>
   <g id="LineCollection_1">
    <path clip-path="url(#p4f5147dad9)" d="M 370.043562 323.886681 
L 370.043562 245.982088 
" style="fill:none;stroke:#4c72b0;"/>
   </g>
   <g id="LineCollection_2">
    <path clip-path="url(#p4f5147dad9)" d="M 370.043562 332.005743 
L 370.043562 248.444812 
" style="fill:none;stroke:#4c72b0;"/>
   </g>
   <g id="LineCollection_3">
    <path clip-path="url(#p4f5147dad9)" d="M 263.333508 332.360037 
L 263.333508 331.260104 
" style="fill:none;stroke:#4c72b0;"/>
   </g>
   <g id="LineCollection_4">
    <path clip-path="url(#p4f5147dad9)" d="M 263.333508 332.35987 
L 263.333508 331.309357 
" style="fill:none;stroke:#4c72b0;"/>
   </g>
   <g id="LineCollection_5">
    <path clip-path="url(#p4f5147dad9)" d="M 170.055973 251.016974 
L 170.055973 212.102097 
" style="fill:none;stroke:#4c72b0;"/>
   </g>
   <g id="LineCollection_6">
    <path clip-path="url(#p4f5147dad9)" d="M 170.055973 288.136888 
L 170.055973 250.71907 
" style="fill:none;stroke:#4c72b0;"/>
   </g>
   <g id="line2d_31">
    <defs>
     <path d="M 3 0 
L -3 -0 
" id="mb395e49f33" style="stroke:#4c72b0;"/>
    </defs>
    <g clip-path="url(#p4f5147dad9)">
     <use style="fill:#4c72b0;stroke:#4c72b0;" x="370.043562" xlink:href="#mb395e49f33" y="323.886681"/>
    </g>
   </g>
   <g id="line2d_32">
    <g clip-path="url(#p4f5147dad9)">
     <use style="fill:#4c72b0;stroke:#4c72b0;" x="370.043562" xlink:href="#mb395e49f33" y="245.982088"/>
    </g>
   </g>
   <g id="line2d_33">
    <g clip-path="url(#p4f5147dad9)">
     <use style="fill:#4c72b0;stroke:#4c72b0;" x="370.043562" xlink:href="#mb395e49f33" y="332.005743"/>
    </g>
   </g>
   <g id="line2d_34">
    <g clip-path="url(#p4f5147dad9)">
     <use style="fill:#4c72b0;stroke:#4c72b0;" x="370.043562" xlink:href="#mb395e49f33" y="248.444812"/>
    </g>
   </g>
   <g id="line2d_35">
    <g clip-path="url(#p4f5147dad9)">
     <use style="fill:#4c72b0;stroke:#4c72b0;" x="263.333508" xlink:href="#mb395e49f33" y="332.360037"/>
    </g>
   </g>
   <g id="line2d_36">
    <g clip-path="url(#p4f5147dad9)">
     <use style="fill:#4c72b0;stroke:#4c72b0;" x="263.333508" xlink:href="#mb395e49f33" y="331.260104"/>
    </g>
   </g>
   <g id="line2d_37">
    <g clip-path="url(#p4f5147dad9)">
     <use style="fill:#4c72b0;stroke:#4c72b0;" x="263.333508" xlink:href="#mb395e49f33" y="332.35987"/>
    </g>
   </g>
   <g id="line2d_38">
    <g clip-path="url(#p4f5147dad9)">
     <use style="fill:#4c72b0;stroke:#4c72b0;" x="263.333508" xlink:href="#mb395e49f33" y="331.309357"/>
    </g>
   </g>
   <g id="line2d_39">
    <g clip-path="url(#p4f5147dad9)">
     <use style="fill:#4c72b0;stroke:#4c72b0;" x="170.055973" xlink:href="#mb395e49f33" y="251.016974"/>
    </g>
   </g>
   <g id="line2d_40">
    <g clip-path="url(#p4f5147dad9)">
     <use style="fill:#4c72b0;stroke:#4c72b0;" x="170.055973" xlink:href="#mb395e49f33" y="212.102097"/>
    </g>
   </g>
   <g id="line2d_41">
    <g clip-path="url(#p4f5147dad9)">
     <use style="fill:#4c72b0;stroke:#4c72b0;" x="170.055973" xlink:href="#mb395e49f33" y="288.136888"/>
    </g>
   </g>
   <g id="line2d_42">
    <g clip-path="url(#p4f5147dad9)">
     <use style="fill:#4c72b0;stroke:#4c72b0;" x="170.055973" xlink:href="#mb395e49f33" y="250.71907"/>
    </g>
   </g>
   <g id="line2d_43">
    <defs>
     <path d="M 0 3 
C 0.795609 3 1.55874 2.683901 2.12132 2.12132 
C 2.683901 1.55874 3 0.795609 3 0 
C 3 -0.795609 2.683901 -1.55874 2.12132 -2.12132 
C 1.55874 -2.683901 0.795609 -3 0 -3 
C -0.795609 -3 -1.55874 -2.683901 -2.12132 -2.12132 
C -2.683901 -1.55874 -3 -0.795609 -3 0 
C -3 0.795609 -2.683901 1.55874 -2.12132 2.12132 
C -1.55874 2.683901 -0.795609 3 0 3 
z
" id="m610fa2f60b" style="stroke:#4c72b0;"/>
    </defs>
    <g clip-path="url(#p4f5147dad9)">
     <use style="fill:#ffffff;stroke:#4c72b0;" x="370.043562" xlink:href="#m610fa2f60b" y="283.617518"/>
    </g>
   </g>
   <g id="line2d_44">
    <defs>
     <path d="M -0 4.242641 
L 2.545584 0 
L 0 -4.242641 
L -2.545584 -0 
z
" id="m3156d7ecb4" style="stroke:#4c72b0;stroke-linejoin:miter;"/>
    </defs>
    <g clip-path="url(#p4f5147dad9)">
     <use style="fill:#ffffff;stroke:#4c72b0;stroke-linejoin:miter;" x="370.043562" xlink:href="#m3156d7ecb4" y="287.952496"/>
    </g>
   </g>
   <g id="line2d_45">
    <g clip-path="url(#p4f5147dad9)">
     <use style="fill:#ffffff;stroke:#4c72b0;" x="263.333508" xlink:href="#m610fa2f60b" y="331.972751"/>
    </g>
   </g>
   <g id="line2d_46">
    <g clip-path="url(#p4f5147dad9)">
     <use style="fill:#ffffff;stroke:#4c72b0;stroke-linejoin:miter;" x="263.333508" xlink:href="#m3156d7ecb4" y="331.992724"/>
    </g>
   </g>
   <g id="line2d_47">
    <g clip-path="url(#p4f5147dad9)">
     <use style="fill:#ffffff;stroke:#4c72b0;" x="170.055973" xlink:href="#m610fa2f60b" y="231.981992"/>
    </g>
   </g>
   <g id="line2d_48">
    <g clip-path="url(#p4f5147dad9)">
     <use style="fill:#ffffff;stroke:#4c72b0;stroke-linejoin:miter;" x="170.055973" xlink:href="#m3156d7ecb4" y="269.164014"/>
    </g>
   </g>
   <g id="patch_3">
    <path d="M 60.48 342.8532 
L 60.48 206.0892 
" style="fill:none;stroke:#262626;stroke-linecap:square;stroke-linejoin:miter;stroke-width:1.25;"/>
   </g>
   <g id="patch_4">
    <path d="M 478.8 342.8532 
L 478.8 206.0892 
" style="fill:none;stroke:#262626;stroke-linecap:square;stroke-linejoin:miter;stroke-width:1.25;"/>
   </g>
   <g id="patch_5">
    <path d="M 60.48 342.8532 
L 478.8 342.8532 
" style="fill:none;stroke:#262626;stroke-linecap:square;stroke-linejoin:miter;stroke-width:1.25;"/>
   </g>
   <g id="patch_6">
    <path d="M 60.48 206.0892 
L 478.8 206.0892 
" style="fill:none;stroke:#262626;stroke-linecap:square;stroke-linejoin:miter;stroke-width:1.25;"/>
   </g>
   <g id="legend_1">
    <g id="patch_7">
     <path d="M 68.18 337.3532 
L 187.31 337.3532 
Q 189.51 337.3532 189.51 335.1532 
L 189.51 304.1332 
Q 189.51 301.9332 187.31 301.9332 
L 68.18 301.9332 
Q 65.98 301.9332 65.98 304.1332 
L 65.98 335.1532 
Q 65.98 337.3532 68.18 337.3532 
z
" style="fill:#ffffff;opacity:0.8;stroke:#cccccc;stroke-linejoin:miter;"/>
    </g>
    <g id="LineCollection_7">
     <path d="M 81.38 316.2332 
L 81.38 305.2332 
" style="fill:none;stroke:#4c72b0;"/>
    </g>
    <g id="line2d_49">
     <g>
      <use style="fill:#4c72b0;stroke:#4c72b0;" x="81.38" xlink:href="#mb395e49f33" y="316.2332"/>
     </g>
    </g>
    <g id="line2d_50">
     <g>
      <use style="fill:#4c72b0;stroke:#4c72b0;" x="81.38" xlink:href="#mb395e49f33" y="305.2332"/>
     </g>
    </g>
    <g id="line2d_51"/>
    <g id="line2d_52">
     <g>
      <use style="fill:#ffffff;stroke:#4c72b0;" x="81.38" xlink:href="#m610fa2f60b" y="310.7332"/>
     </g>
    </g>
    <g id="text_18">
     <!-- $T_e$  ($v_d \equiv 0$) -->
     <defs>
      <path d="M 5.90625 72.90625 
L 67.578125 72.90625 
L 66.015625 64.59375 
L 39.984375 64.59375 
L 27.484375 0 
L 17.578125 0 
L 30.078125 64.59375 
L 4.296875 64.59375 
z
" id="DejaVuSans-Oblique-84"/>
      <path d="M 48.09375 32.234375 
Q 48.25 33.015625 48.3125 33.84375 
Q 48.390625 34.671875 48.390625 35.5 
Q 48.390625 41.453125 44.890625 44.921875 
Q 41.40625 48.390625 35.40625 48.390625 
Q 28.71875 48.390625 23.578125 44.15625 
Q 18.453125 39.9375 15.828125 32.171875 
z
M 55.90625 25.203125 
L 14.109375 25.203125 
Q 13.8125 23.34375 13.71875 22.265625 
Q 13.625 21.1875 13.625 20.40625 
Q 13.625 13.625 17.796875 9.90625 
Q 21.96875 6.203125 29.59375 6.203125 
Q 35.453125 6.203125 40.671875 7.515625 
Q 45.90625 8.84375 50.390625 11.375 
L 48.6875 2.484375 
Q 43.84375 0.53125 38.6875 -0.4375 
Q 33.546875 -1.421875 28.21875 -1.421875 
Q 16.84375 -1.421875 10.71875 4.015625 
Q 4.59375 9.46875 4.59375 19.484375 
Q 4.59375 28.03125 7.640625 35.375 
Q 10.6875 42.71875 16.609375 48.484375 
Q 20.40625 52.09375 25.65625 54.046875 
Q 30.90625 56 36.8125 56 
Q 46.09375 56 51.578125 50.4375 
Q 57.078125 44.875 57.078125 35.5 
Q 57.078125 33.25 56.78125 30.6875 
Q 56.5 28.125 55.90625 25.203125 
z
" id="DejaVuSans-Oblique-101"/>
      <path d="M 23.390625 -21.046875 
Q 16.109375 -11.859375 11.078125 0.4375 
Q 6.0625 12.75 6.0625 25.921875 
Q 6.0625 37.546875 9.8125 48.1875 
Q 14.203125 60.546875 23.390625 72.796875 
L 29.6875 72.796875 
Q 23.78125 62.640625 21.875 58.296875 
Q 18.890625 51.5625 17.1875 44.234375 
Q 15.09375 35.109375 15.09375 25.875 
Q 15.09375 2.390625 29.6875 -21.046875 
z
" id="ArialMT-40"/>
      <path d="M 7.171875 54.6875 
L 16.703125 54.6875 
L 24.703125 8.203125 
L 50.875 54.6875 
L 60.40625 54.6875 
L 29.296875 0 
L 17.1875 0 
z
" id="DejaVuSans-Oblique-118"/>
      <path d="M 41.796875 8.203125 
Q 38.1875 3.46875 33.25 1.015625 
Q 28.328125 -1.421875 22.3125 -1.421875 
Q 14.109375 -1.421875 9.34375 4.171875 
Q 4.59375 9.765625 4.59375 19.484375 
Q 4.59375 27.59375 7.46875 34.9375 
Q 10.359375 42.28125 15.828125 48.09375 
Q 19.4375 51.953125 23.96875 53.96875 
Q 28.515625 56 33.5 56 
Q 38.765625 56 42.796875 53.453125 
Q 46.828125 50.921875 49.03125 46.1875 
L 54.890625 75.984375 
L 63.921875 75.984375 
L 49.125 0 
L 40.09375 0 
z
M 13.921875 21.09375 
Q 13.921875 14.015625 17.109375 10.0625 
Q 20.3125 6.109375 25.984375 6.109375 
Q 30.171875 6.109375 33.765625 8.125 
Q 37.359375 10.15625 40.09375 14.109375 
Q 42.96875 18.21875 44.625 23.578125 
Q 46.296875 28.953125 46.296875 34.1875 
Q 46.296875 40.96875 43.09375 44.765625 
Q 39.890625 48.578125 34.28125 48.578125 
Q 30.03125 48.578125 26.359375 46.578125 
Q 22.703125 44.578125 20.125 40.828125 
Q 17.28125 36.765625 15.59375 31.390625 
Q 13.921875 26.03125 13.921875 21.09375 
z
" id="DejaVuSans-Oblique-100"/>
      <path d="M 10.59375 35.5 
L 73.1875 35.5 
L 73.1875 27.203125 
L 10.59375 27.203125 
z
M 10.59375 53.71875 
L 73.1875 53.71875 
L 73.1875 45.40625 
L 10.59375 45.40625 
z
M 10.59375 17.28125 
L 73.1875 17.28125 
L 73.1875 8.984375 
L 10.59375 8.984375 
z
" id="DejaVuSans-8801"/>
      <path d="M 31.78125 66.40625 
Q 24.171875 66.40625 20.328125 58.90625 
Q 16.5 51.421875 16.5 36.375 
Q 16.5 21.390625 20.328125 13.890625 
Q 24.171875 6.390625 31.78125 6.390625 
Q 39.453125 6.390625 43.28125 13.890625 
Q 47.125 21.390625 47.125 36.375 
Q 47.125 51.421875 43.28125 58.90625 
Q 39.453125 66.40625 31.78125 66.40625 
z
M 31.78125 74.21875 
Q 44.046875 74.21875 50.515625 64.515625 
Q 56.984375 54.828125 56.984375 36.375 
Q 56.984375 17.96875 50.515625 8.265625 
Q 44.046875 -1.421875 31.78125 -1.421875 
Q 19.53125 -1.421875 13.0625 8.265625 
Q 6.59375 17.96875 6.59375 36.375 
Q 6.59375 54.828125 13.0625 64.515625 
Q 19.53125 74.21875 31.78125 74.21875 
z
" id="DejaVuSans-48"/>
      <path d="M 12.359375 -21.046875 
L 6.0625 -21.046875 
Q 20.65625 2.390625 20.65625 25.875 
Q 20.65625 35.0625 18.5625 44.09375 
Q 16.890625 51.421875 13.921875 58.15625 
Q 12.015625 62.546875 6.0625 72.796875 
L 12.359375 72.796875 
Q 21.53125 60.546875 25.921875 48.1875 
Q 29.6875 37.546875 29.6875 25.921875 
Q 29.6875 12.75 24.625 0.4375 
Q 19.578125 -11.859375 12.359375 -21.046875 
z
" id="ArialMT-41"/>
     </defs>
     <g style="fill:#262626;" transform="translate(101.18 314.5832)scale(0.11 -0.11)">
      <use transform="translate(0 0.78125)" xlink:href="#DejaVuSans-Oblique-84"/>
      <use transform="translate(61.083984 -15.625)scale(0.7)" xlink:href="#DejaVuSans-Oblique-101"/>
      <use transform="translate(106.884766 0.78125)" xlink:href="#ArialMT-32"/>
      <use transform="translate(134.667969 0.78125)" xlink:href="#ArialMT-32"/>
      <use transform="translate(162.451172 0.78125)" xlink:href="#ArialMT-40"/>
      <use transform="translate(195.751953 0.78125)" xlink:href="#DejaVuSans-Oblique-118"/>
      <use transform="translate(254.931641 -15.625)scale(0.7)" xlink:href="#DejaVuSans-Oblique-100"/>
      <use transform="translate(321.582031 0.78125)" xlink:href="#DejaVuSans-8801"/>
      <use transform="translate(424.853516 0.78125)" xlink:href="#DejaVuSans-48"/>
      <use transform="translate(488.476562 0.78125)" xlink:href="#ArialMT-41"/>
     </g>
    </g>
    <g id="LineCollection_8">
     <path d="M 81.38 332.1832 
L 81.38 321.1832 
" style="fill:none;stroke:#4c72b0;"/>
    </g>
    <g id="line2d_53">
     <g>
      <use style="fill:#4c72b0;stroke:#4c72b0;" x="81.38" xlink:href="#mb395e49f33" y="332.1832"/>
     </g>
    </g>
    <g id="line2d_54">
     <g>
      <use style="fill:#4c72b0;stroke:#4c72b0;" x="81.38" xlink:href="#mb395e49f33" y="321.1832"/>
     </g>
    </g>
    <g id="line2d_55"/>
    <g id="line2d_56">
     <g>
      <use style="fill:#ffffff;stroke:#4c72b0;stroke-linejoin:miter;" x="81.38" xlink:href="#m3156d7ecb4" y="326.6832"/>
     </g>
    </g>
    <g id="text_19">
     <!-- $T_e$  (drift allowed) -->
     <defs>
      <path d="M 6.5 0 
L 6.5 51.859375 
L 14.40625 51.859375 
L 14.40625 44 
Q 17.4375 49.515625 20 51.265625 
Q 22.5625 53.03125 25.640625 53.03125 
Q 30.078125 53.03125 34.671875 50.203125 
L 31.640625 42.046875 
Q 28.421875 43.953125 25.203125 43.953125 
Q 22.3125 43.953125 20.015625 42.21875 
Q 17.71875 40.484375 16.75 37.40625 
Q 15.28125 32.71875 15.28125 27.15625 
L 15.28125 0 
z
" id="ArialMT-114"/>
      <path d="M 8.6875 0 
L 8.6875 45.015625 
L 0.921875 45.015625 
L 0.921875 51.859375 
L 8.6875 51.859375 
L 8.6875 57.375 
Q 8.6875 62.59375 9.625 65.140625 
Q 10.890625 68.5625 14.078125 70.671875 
Q 17.28125 72.796875 23.046875 72.796875 
Q 26.765625 72.796875 31.25 71.921875 
L 29.9375 64.265625 
Q 27.203125 64.75 24.75 64.75 
Q 20.75 64.75 19.09375 63.03125 
Q 17.4375 61.328125 17.4375 56.640625 
L 17.4375 51.859375 
L 27.546875 51.859375 
L 27.546875 45.015625 
L 17.4375 45.015625 
L 17.4375 0 
z
" id="ArialMT-102"/>
      <path d="M 25.78125 7.859375 
L 27.046875 0.09375 
Q 23.34375 -0.6875 20.40625 -0.6875 
Q 15.625 -0.6875 12.984375 0.828125 
Q 10.359375 2.34375 9.28125 4.8125 
Q 8.203125 7.28125 8.203125 15.1875 
L 8.203125 45.015625 
L 1.765625 45.015625 
L 1.765625 51.859375 
L 8.203125 51.859375 
L 8.203125 64.703125 
L 16.9375 69.96875 
L 16.9375 51.859375 
L 25.78125 51.859375 
L 25.78125 45.015625 
L 16.9375 45.015625 
L 16.9375 14.703125 
Q 16.9375 10.9375 17.40625 9.859375 
Q 17.875 8.796875 18.921875 8.15625 
Q 19.96875 7.515625 21.921875 7.515625 
Q 23.390625 7.515625 25.78125 7.859375 
z
" id="ArialMT-116"/>
      <path d="M 6.390625 0 
L 6.390625 71.578125 
L 15.1875 71.578125 
L 15.1875 0 
z
" id="ArialMT-108"/>
      <path d="M 3.328125 25.921875 
Q 3.328125 40.328125 11.328125 47.265625 
Q 18.015625 53.03125 27.640625 53.03125 
Q 38.328125 53.03125 45.109375 46.015625 
Q 51.90625 39.015625 51.90625 26.65625 
Q 51.90625 16.65625 48.90625 10.90625 
Q 45.90625 5.171875 40.15625 2 
Q 34.421875 -1.171875 27.640625 -1.171875 
Q 16.75 -1.171875 10.03125 5.8125 
Q 3.328125 12.796875 3.328125 25.921875 
z
M 12.359375 25.921875 
Q 12.359375 15.96875 16.703125 11.015625 
Q 21.046875 6.0625 27.640625 6.0625 
Q 34.1875 6.0625 38.53125 11.03125 
Q 42.875 16.015625 42.875 26.21875 
Q 42.875 35.84375 38.5 40.796875 
Q 34.125 45.75 27.640625 45.75 
Q 21.046875 45.75 16.703125 40.8125 
Q 12.359375 35.890625 12.359375 25.921875 
z
" id="ArialMT-111"/>
      <path d="M 16.15625 0 
L 0.296875 51.859375 
L 9.375 51.859375 
L 17.625 21.921875 
L 20.703125 10.796875 
Q 20.90625 11.625 23.390625 21.484375 
L 31.640625 51.859375 
L 40.671875 51.859375 
L 48.4375 21.78125 
L 51.03125 11.859375 
L 54 21.875 
L 62.890625 51.859375 
L 71.4375 51.859375 
L 55.21875 0 
L 46.09375 0 
L 37.84375 31.0625 
L 35.84375 39.890625 
L 25.34375 0 
z
" id="ArialMT-119"/>
     </defs>
     <g style="fill:#262626;" transform="translate(101.18 330.5332)scale(0.11 -0.11)">
      <use transform="translate(0 0.09375)" xlink:href="#DejaVuSans-Oblique-84"/>
      <use transform="translate(61.083984 -16.3125)scale(0.7)" xlink:href="#DejaVuSans-Oblique-101"/>
      <use transform="translate(106.884766 0.09375)" xlink:href="#ArialMT-32"/>
      <use transform="translate(134.667969 0.09375)" xlink:href="#ArialMT-32"/>
      <use transform="translate(162.451172 0.09375)" xlink:href="#ArialMT-40"/>
      <use transform="translate(195.751953 0.09375)" xlink:href="#ArialMT-100"/>
      <use transform="translate(251.367188 0.09375)" xlink:href="#ArialMT-114"/>
      <use transform="translate(284.667969 0.09375)" xlink:href="#ArialMT-105"/>
      <use transform="translate(306.884766 0.09375)" xlink:href="#ArialMT-102"/>
      <use transform="translate(334.667969 0.09375)" xlink:href="#ArialMT-116"/>
      <use transform="translate(362.451172 0.09375)" xlink:href="#ArialMT-32"/>
      <use transform="translate(390.234375 0.09375)" xlink:href="#ArialMT-97"/>
      <use transform="translate(445.849609 0.09375)" xlink:href="#ArialMT-108"/>
      <use transform="translate(468.066406 0.09375)" xlink:href="#ArialMT-108"/>
      <use transform="translate(490.283203 0.09375)" xlink:href="#ArialMT-111"/>
      <use transform="translate(545.898438 0.09375)" xlink:href="#ArialMT-119"/>
      <use transform="translate(618.115234 0.09375)" xlink:href="#ArialMT-101"/>
      <use transform="translate(673.730469 0.09375)" xlink:href="#ArialMT-100"/>
      <use transform="translate(729.345703 0.09375)" xlink:href="#ArialMT-41"/>
     </g>
    </g>
   </g>
  </g>
  <g id="axes_2">
   <g id="patch_8">
    <path d="M 60.48 520.6464 
L 478.8 520.6464 
L 478.8 383.8824 
L 60.48 383.8824 
z
" style="fill:#ffffff;"/>
   </g>
   <g id="matplotlib.axis_3">
    <g id="xtick_10">
     <g id="line2d_57">
      <path clip-path="url(#p5ccec15d56)" d="M 60.48 520.6464 
L 60.48 383.8824 
" style="fill:none;stroke:#cccccc;stroke-dasharray:0.5,0.825;stroke-dashoffset:0;stroke-width:0.5;"/>
     </g>
     <g id="line2d_58">
      <g>
       <use style="fill:#262626;stroke:#262626;stroke-width:1.25;" x="60.48" xlink:href="#mc112591d60" y="520.6464"/>
      </g>
     </g>
     <g id="text_20">
      <!-- 0.200 -->
      <g style="fill:#262626;" transform="translate(46.717969 538.019994)scale(0.11 -0.11)">
       <use xlink:href="#ArialMT-48"/>
       <use x="55.615234" xlink:href="#ArialMT-46"/>
       <use x="83.398438" xlink:href="#ArialMT-50"/>
       <use x="139.013672" xlink:href="#ArialMT-48"/>
       <use x="194.628906" xlink:href="#ArialMT-48"/>
      </g>
     </g>
    </g>
    <g id="xtick_11">
     <g id="line2d_59">
      <path clip-path="url(#p5ccec15d56)" d="M 112.77 520.6464 
L 112.77 383.8824 
" style="fill:none;stroke:#cccccc;stroke-dasharray:0.5,0.825;stroke-dashoffset:0;stroke-width:0.5;"/>
     </g>
     <g id="line2d_60">
      <g>
       <use style="fill:#262626;stroke:#262626;stroke-width:1.25;" x="112.77" xlink:href="#mc112591d60" y="520.6464"/>
      </g>
     </g>
     <g id="text_21">
      <!-- 0.225 -->
      <g style="fill:#262626;" transform="translate(99.007969 538.019994)scale(0.11 -0.11)">
       <use xlink:href="#ArialMT-48"/>
       <use x="55.615234" xlink:href="#ArialMT-46"/>
       <use x="83.398438" xlink:href="#ArialMT-50"/>
       <use x="139.013672" xlink:href="#ArialMT-50"/>
       <use x="194.628906" xlink:href="#ArialMT-53"/>
      </g>
     </g>
    </g>
    <g id="xtick_12">
     <g id="line2d_61">
      <path clip-path="url(#p5ccec15d56)" d="M 165.06 520.6464 
L 165.06 383.8824 
" style="fill:none;stroke:#cccccc;stroke-dasharray:0.5,0.825;stroke-dashoffset:0;stroke-width:0.5;"/>
     </g>
     <g id="line2d_62">
      <g>
       <use style="fill:#262626;stroke:#262626;stroke-width:1.25;" x="165.06" xlink:href="#mc112591d60" y="520.6464"/>
      </g>
     </g>
     <g id="text_22">
      <!-- 0.250 -->
      <g style="fill:#262626;" transform="translate(151.297969 538.019994)scale(0.11 -0.11)">
       <use xlink:href="#ArialMT-48"/>
       <use x="55.615234" xlink:href="#ArialMT-46"/>
       <use x="83.398438" xlink:href="#ArialMT-50"/>
       <use x="139.013672" xlink:href="#ArialMT-53"/>
       <use x="194.628906" xlink:href="#ArialMT-48"/>
      </g>
     </g>
    </g>
    <g id="xtick_13">
     <g id="line2d_63">
      <path clip-path="url(#p5ccec15d56)" d="M 217.35 520.6464 
L 217.35 383.8824 
" style="fill:none;stroke:#cccccc;stroke-dasharray:0.5,0.825;stroke-dashoffset:0;stroke-width:0.5;"/>
     </g>
     <g id="line2d_64">
      <g>
       <use style="fill:#262626;stroke:#262626;stroke-width:1.25;" x="217.35" xlink:href="#mc112591d60" y="520.6464"/>
      </g>
     </g>
     <g id="text_23">
      <!-- 0.275 -->
      <g style="fill:#262626;" transform="translate(203.587969 538.019994)scale(0.11 -0.11)">
       <use xlink:href="#ArialMT-48"/>
       <use x="55.615234" xlink:href="#ArialMT-46"/>
       <use x="83.398438" xlink:href="#ArialMT-50"/>
       <use x="139.013672" xlink:href="#ArialMT-55"/>
       <use x="194.628906" xlink:href="#ArialMT-53"/>
      </g>
     </g>
    </g>
    <g id="xtick_14">
     <g id="line2d_65">
      <path clip-path="url(#p5ccec15d56)" d="M 269.64 520.6464 
L 269.64 383.8824 
" style="fill:none;stroke:#cccccc;stroke-dasharray:0.5,0.825;stroke-dashoffset:0;stroke-width:0.5;"/>
     </g>
     <g id="line2d_66">
      <g>
       <use style="fill:#262626;stroke:#262626;stroke-width:1.25;" x="269.64" xlink:href="#mc112591d60" y="520.6464"/>
      </g>
     </g>
     <g id="text_24">
      <!-- 0.300 -->
      <g style="fill:#262626;" transform="translate(255.877969 538.019994)scale(0.11 -0.11)">
       <use xlink:href="#ArialMT-48"/>
       <use x="55.615234" xlink:href="#ArialMT-46"/>
       <use x="83.398438" xlink:href="#ArialMT-51"/>
       <use x="139.013672" xlink:href="#ArialMT-48"/>
       <use x="194.628906" xlink:href="#ArialMT-48"/>
      </g>
     </g>
    </g>
    <g id="xtick_15">
     <g id="line2d_67">
      <path clip-path="url(#p5ccec15d56)" d="M 321.93 520.6464 
L 321.93 383.8824 
" style="fill:none;stroke:#cccccc;stroke-dasharray:0.5,0.825;stroke-dashoffset:0;stroke-width:0.5;"/>
     </g>
     <g id="line2d_68">
      <g>
       <use style="fill:#262626;stroke:#262626;stroke-width:1.25;" x="321.93" xlink:href="#mc112591d60" y="520.6464"/>
      </g>
     </g>
     <g id="text_25">
      <!-- 0.325 -->
      <g style="fill:#262626;" transform="translate(308.167969 538.019994)scale(0.11 -0.11)">
       <use xlink:href="#ArialMT-48"/>
       <use x="55.615234" xlink:href="#ArialMT-46"/>
       <use x="83.398438" xlink:href="#ArialMT-51"/>
       <use x="139.013672" xlink:href="#ArialMT-50"/>
       <use x="194.628906" xlink:href="#ArialMT-53"/>
      </g>
     </g>
    </g>
    <g id="xtick_16">
     <g id="line2d_69">
      <path clip-path="url(#p5ccec15d56)" d="M 374.22 520.6464 
L 374.22 383.8824 
" style="fill:none;stroke:#cccccc;stroke-dasharray:0.5,0.825;stroke-dashoffset:0;stroke-width:0.5;"/>
     </g>
     <g id="line2d_70">
      <g>
       <use style="fill:#262626;stroke:#262626;stroke-width:1.25;" x="374.22" xlink:href="#mc112591d60" y="520.6464"/>
      </g>
     </g>
     <g id="text_26">
      <!-- 0.350 -->
      <g style="fill:#262626;" transform="translate(360.457969 538.019994)scale(0.11 -0.11)">
       <use xlink:href="#ArialMT-48"/>
       <use x="55.615234" xlink:href="#ArialMT-46"/>
       <use x="83.398438" xlink:href="#ArialMT-51"/>
       <use x="139.013672" xlink:href="#ArialMT-53"/>
       <use x="194.628906" xlink:href="#ArialMT-48"/>
      </g>
     </g>
    </g>
    <g id="xtick_17">
     <g id="line2d_71">
      <path clip-path="url(#p5ccec15d56)" d="M 426.51 520.6464 
L 426.51 383.8824 
" style="fill:none;stroke:#cccccc;stroke-dasharray:0.5,0.825;stroke-dashoffset:0;stroke-width:0.5;"/>
     </g>
     <g id="line2d_72">
      <g>
       <use style="fill:#262626;stroke:#262626;stroke-width:1.25;" x="426.51" xlink:href="#mc112591d60" y="520.6464"/>
      </g>
     </g>
     <g id="text_27">
      <!-- 0.375 -->
      <g style="fill:#262626;" transform="translate(412.747969 538.019994)scale(0.11 -0.11)">
       <use xlink:href="#ArialMT-48"/>
       <use x="55.615234" xlink:href="#ArialMT-46"/>
       <use x="83.398438" xlink:href="#ArialMT-51"/>
       <use x="139.013672" xlink:href="#ArialMT-55"/>
       <use x="194.628906" xlink:href="#ArialMT-53"/>
      </g>
     </g>
    </g>
    <g id="xtick_18">
     <g id="line2d_73">
      <path clip-path="url(#p5ccec15d56)" d="M 478.8 520.6464 
L 478.8 383.8824 
" style="fill:none;stroke:#cccccc;stroke-dasharray:0.5,0.825;stroke-dashoffset:0;stroke-width:0.5;"/>
     </g>
     <g id="line2d_74">
      <g>
       <use style="fill:#262626;stroke:#262626;stroke-width:1.25;" x="478.8" xlink:href="#mc112591d60" y="520.6464"/>
      </g>
     </g>
     <g id="text_28">
      <!-- 0.400 -->
      <g style="fill:#262626;" transform="translate(465.037969 538.019994)scale(0.11 -0.11)">
       <use xlink:href="#ArialMT-48"/>
       <use x="55.615234" xlink:href="#ArialMT-46"/>
       <use x="83.398438" xlink:href="#ArialMT-52"/>
       <use x="139.013672" xlink:href="#ArialMT-48"/>
       <use x="194.628906" xlink:href="#ArialMT-48"/>
      </g>
     </g>
    </g>
    <g id="text_29">
     <!-- Maj. Radius [m] -->
     <g style="fill:#262626;" transform="translate(227.964375 552.795619)scale(0.12 -0.12)">
      <use xlink:href="#ArialMT-77"/>
      <use x="83.300781" xlink:href="#ArialMT-97"/>
      <use x="138.916016" xlink:href="#ArialMT-106"/>
      <use x="161.132812" xlink:href="#ArialMT-46"/>
      <use x="188.916016" xlink:href="#ArialMT-32"/>
      <use x="216.699219" xlink:href="#ArialMT-82"/>
      <use x="288.916016" xlink:href="#ArialMT-97"/>
      <use x="344.53125" xlink:href="#ArialMT-100"/>
      <use x="400.146484" xlink:href="#ArialMT-105"/>
      <use x="422.363281" xlink:href="#ArialMT-117"/>
      <use x="477.978516" xlink:href="#ArialMT-115"/>
      <use x="527.978516" xlink:href="#ArialMT-32"/>
      <use x="555.761719" xlink:href="#ArialMT-91"/>
      <use x="583.544922" xlink:href="#ArialMT-109"/>
      <use x="666.845703" xlink:href="#ArialMT-93"/>
     </g>
    </g>
   </g>
   <g id="matplotlib.axis_4">
    <g id="ytick_7">
     <g id="line2d_75">
      <path clip-path="url(#p5ccec15d56)" d="M 60.48 490.527568 
L 478.8 490.527568 
" style="fill:none;stroke:#cccccc;stroke-dasharray:0.5,0.825;stroke-dashoffset:0;stroke-width:0.5;"/>
     </g>
     <g id="line2d_76">
      <g>
       <use style="fill:#262626;stroke:#262626;stroke-width:1.25;" x="60.48" xlink:href="#m2802d457d6" y="490.527568"/>
      </g>
     </g>
     <g id="text_30">
      <!-- 200 -->
      <defs>
       <path d="M 52.828125 31.203125 
L 5.5625 31.203125 
L 5.5625 39.40625 
L 52.828125 39.40625 
z
" id="ArialMT-8722"/>
      </defs>
      <g style="fill:#262626;" transform="translate(26.204219 494.464365)scale(0.11 -0.11)">
       <use xlink:href="#ArialMT-8722"/>
       <use x="58.398438" xlink:href="#ArialMT-50"/>
       <use x="114.013672" xlink:href="#ArialMT-48"/>
       <use x="169.628906" xlink:href="#ArialMT-48"/>
      </g>
     </g>
    </g>
    <g id="ytick_8">
     <g id="line2d_77">
      <path clip-path="url(#p5ccec15d56)" d="M 60.48 456.236444 
L 478.8 456.236444 
" style="fill:none;stroke:#cccccc;stroke-dasharray:0.5,0.825;stroke-dashoffset:0;stroke-width:0.5;"/>
     </g>
     <g id="line2d_78">
      <g>
       <use style="fill:#262626;stroke:#262626;stroke-width:1.25;" x="60.48" xlink:href="#m2802d457d6" y="456.236444"/>
      </g>
     </g>
     <g id="text_31">
      <!-- 0 -->
      <g style="fill:#262626;" transform="translate(44.862969 460.17324)scale(0.11 -0.11)">
       <use xlink:href="#ArialMT-48"/>
      </g>
     </g>
    </g>
    <g id="ytick_9">
     <g id="line2d_79">
      <path clip-path="url(#p5ccec15d56)" d="M 60.48 421.945319 
L 478.8 421.945319 
" style="fill:none;stroke:#cccccc;stroke-dasharray:0.5,0.825;stroke-dashoffset:0;stroke-width:0.5;"/>
     </g>
     <g id="line2d_80">
      <g>
       <use style="fill:#262626;stroke:#262626;stroke-width:1.25;" x="60.48" xlink:href="#m2802d457d6" y="421.945319"/>
      </g>
     </g>
     <g id="text_32">
      <!-- 200 -->
      <g style="fill:#262626;" transform="translate(32.628906 425.882116)scale(0.11 -0.11)">
       <use xlink:href="#ArialMT-50"/>
       <use x="55.615234" xlink:href="#ArialMT-48"/>
       <use x="111.230469" xlink:href="#ArialMT-48"/>
      </g>
     </g>
    </g>
    <g id="ytick_10">
     <g id="line2d_81">
      <path clip-path="url(#p5ccec15d56)" d="M 60.48 387.654195 
L 478.8 387.654195 
" style="fill:none;stroke:#cccccc;stroke-dasharray:0.5,0.825;stroke-dashoffset:0;stroke-width:0.5;"/>
     </g>
     <g id="line2d_82">
      <g>
       <use style="fill:#262626;stroke:#262626;stroke-width:1.25;" x="60.48" xlink:href="#m2802d457d6" y="387.654195"/>
      </g>
     </g>
     <g id="text_33">
      <!-- 400 -->
      <g style="fill:#262626;" transform="translate(32.628906 391.590992)scale(0.11 -0.11)">
       <use xlink:href="#ArialMT-52"/>
       <use x="55.615234" xlink:href="#ArialMT-48"/>
       <use x="111.230469" xlink:href="#ArialMT-48"/>
      </g>
     </g>
    </g>
    <g id="text_34">
     <!-- Velocity [km/s] -->
     <defs>
      <path d="M 40.4375 19 
L 49.078125 17.875 
Q 47.65625 8.9375 41.8125 3.875 
Q 35.984375 -1.171875 27.484375 -1.171875 
Q 16.84375 -1.171875 10.375 5.78125 
Q 3.90625 12.75 3.90625 25.734375 
Q 3.90625 34.125 6.6875 40.421875 
Q 9.46875 46.734375 15.15625 49.875 
Q 20.84375 53.03125 27.546875 53.03125 
Q 35.984375 53.03125 41.359375 48.75 
Q 46.734375 44.484375 48.25 36.625 
L 39.703125 35.296875 
Q 38.484375 40.53125 35.375 43.15625 
Q 32.28125 45.796875 27.875 45.796875 
Q 21.234375 45.796875 17.078125 41.03125 
Q 12.9375 36.28125 12.9375 25.984375 
Q 12.9375 15.53125 16.9375 10.796875 
Q 20.953125 6.0625 27.390625 6.0625 
Q 32.5625 6.0625 36.03125 9.234375 
Q 39.5 12.40625 40.4375 19 
z
" id="ArialMT-99"/>
      <path d="M 6.203125 -19.96875 
L 5.21875 -11.71875 
Q 8.109375 -12.5 10.25 -12.5 
Q 13.1875 -12.5 14.9375 -11.515625 
Q 16.703125 -10.546875 17.828125 -8.796875 
Q 18.65625 -7.46875 20.515625 -2.25 
Q 20.75 -1.515625 21.296875 -0.09375 
L 1.609375 51.859375 
L 11.078125 51.859375 
L 21.875 21.828125 
Q 23.96875 16.109375 25.640625 9.8125 
Q 27.15625 15.875 29.25 21.625 
L 40.328125 51.859375 
L 49.125 51.859375 
L 29.390625 -0.875 
Q 26.21875 -9.421875 24.46875 -12.640625 
Q 22.125 -17 19.09375 -19.015625 
Q 16.0625 -21.046875 11.859375 -21.046875 
Q 9.328125 -21.046875 6.203125 -19.96875 
z
" id="ArialMT-121"/>
      <path d="M 6.640625 0 
L 6.640625 71.578125 
L 15.4375 71.578125 
L 15.4375 30.765625 
L 36.234375 51.859375 
L 47.609375 51.859375 
L 27.78125 32.625 
L 49.609375 0 
L 38.765625 0 
L 21.625 26.515625 
L 15.4375 20.5625 
L 15.4375 0 
z
" id="ArialMT-107"/>
      <path d="M 0 -1.21875 
L 20.75 72.796875 
L 27.78125 72.796875 
L 7.078125 -1.21875 
z
" id="ArialMT-47"/>
     </defs>
     <g style="fill:#55a868;" transform="translate(19.678594 490.933463)rotate(-90)scale(0.12 -0.12)">
      <use xlink:href="#ArialMT-86"/>
      <use x="66.621094" xlink:href="#ArialMT-101"/>
      <use x="122.236328" xlink:href="#ArialMT-108"/>
      <use x="144.453125" xlink:href="#ArialMT-111"/>
      <use x="200.068359" xlink:href="#ArialMT-99"/>
      <use x="250.068359" xlink:href="#ArialMT-105"/>
      <use x="272.285156" xlink:href="#ArialMT-116"/>
      <use x="300.068359" xlink:href="#ArialMT-121"/>
      <use x="350.068359" xlink:href="#ArialMT-32"/>
      <use x="377.851562" xlink:href="#ArialMT-91"/>
      <use x="405.634766" xlink:href="#ArialMT-107"/>
      <use x="455.634766" xlink:href="#ArialMT-109"/>
      <use x="538.935547" xlink:href="#ArialMT-47"/>
      <use x="566.71875" xlink:href="#ArialMT-115"/>
      <use x="616.71875" xlink:href="#ArialMT-93"/>
     </g>
    </g>
   </g>
   <g id="LineCollection_9">
    <path clip-path="url(#p5ccec15d56)" d="M 370.043562 507.772793 
L 370.043562 390.098945 
" style="fill:none;stroke:#55a868;"/>
   </g>
   <g id="LineCollection_10">
    <path clip-path="url(#p5ccec15d56)" d="M 263.333508 471.908252 
L 263.333508 434.093327 
" style="fill:none;stroke:#55a868;"/>
   </g>
   <g id="LineCollection_11">
    <path clip-path="url(#p5ccec15d56)" d="M 170.055973 514.429855 
L 170.055973 485.367864 
" style="fill:none;stroke:#55a868;"/>
   </g>
   <g id="line2d_83">
    <defs>
     <path d="M 3 0 
L -3 -0 
" id="m13898ebace" style="stroke:#55a868;"/>
    </defs>
    <g clip-path="url(#p5ccec15d56)">
     <use style="fill:#55a868;stroke:#55a868;" x="370.043562" xlink:href="#m13898ebace" y="507.772793"/>
    </g>
   </g>
   <g id="line2d_84">
    <g clip-path="url(#p5ccec15d56)">
     <use style="fill:#55a868;stroke:#55a868;" x="370.043562" xlink:href="#m13898ebace" y="390.098945"/>
    </g>
   </g>
   <g id="line2d_85">
    <g clip-path="url(#p5ccec15d56)">
     <use style="fill:#55a868;stroke:#55a868;" x="263.333508" xlink:href="#m13898ebace" y="471.908252"/>
    </g>
   </g>
   <g id="line2d_86">
    <g clip-path="url(#p5ccec15d56)">
     <use style="fill:#55a868;stroke:#55a868;" x="263.333508" xlink:href="#m13898ebace" y="434.093327"/>
    </g>
   </g>
   <g id="line2d_87">
    <g clip-path="url(#p5ccec15d56)">
     <use style="fill:#55a868;stroke:#55a868;" x="170.055973" xlink:href="#m13898ebace" y="514.429855"/>
    </g>
   </g>
   <g id="line2d_88">
    <g clip-path="url(#p5ccec15d56)">
     <use style="fill:#55a868;stroke:#55a868;" x="170.055973" xlink:href="#m13898ebace" y="485.367864"/>
    </g>
   </g>
   <g id="line2d_89">
    <defs>
     <path d="M -0 3 
L 3 -3 
L -3 -3 
z
" id="mbd19dbe1bd" style="stroke:#55a868;stroke-linejoin:miter;"/>
    </defs>
    <g clip-path="url(#p5ccec15d56)">
     <use style="fill:#55a868;stroke:#55a868;stroke-linejoin:miter;" x="370.043562" xlink:href="#mbd19dbe1bd" y="452.993738"/>
    </g>
   </g>
   <g id="line2d_90">
    <g clip-path="url(#p5ccec15d56)">
     <use style="fill:#55a868;stroke:#55a868;stroke-linejoin:miter;" x="263.333508" xlink:href="#mbd19dbe1bd" y="452.554108"/>
    </g>
   </g>
   <g id="line2d_91">
    <g clip-path="url(#p5ccec15d56)">
     <use style="fill:#55a868;stroke:#55a868;stroke-linejoin:miter;" x="170.055973" xlink:href="#mbd19dbe1bd" y="500.160239"/>
    </g>
   </g>
   <g id="patch_9">
    <path d="M 60.48 520.6464 
L 60.48 383.8824 
" style="fill:none;stroke:#262626;stroke-linecap:square;stroke-linejoin:miter;stroke-width:1.25;"/>
   </g>
   <g id="patch_10">
    <path d="M 478.8 520.6464 
L 478.8 383.8824 
" style="fill:none;stroke:#262626;stroke-linecap:square;stroke-linejoin:miter;stroke-width:1.25;"/>
   </g>
   <g id="patch_11">
    <path d="M 60.48 520.6464 
L 478.8 520.6464 
" style="fill:none;stroke:#262626;stroke-linecap:square;stroke-linejoin:miter;stroke-width:1.25;"/>
   </g>
   <g id="patch_12">
    <path d="M 60.48 383.8824 
L 478.8 383.8824 
" style="fill:none;stroke:#262626;stroke-linecap:square;stroke-linejoin:miter;stroke-width:1.25;"/>
   </g>
   <g id="legend_2">
    <g id="patch_13">
     <path d="M 424.13 408.242244 
L 471.1 408.242244 
Q 473.3 408.242244 473.3 406.042244 
L 473.3 391.5824 
Q 473.3 389.3824 471.1 389.3824 
L 424.13 389.3824 
Q 421.93 389.3824 421.93 391.5824 
L 421.93 406.042244 
Q 421.93 408.242244 424.13 408.242244 
z
" style="fill:#ffffff;opacity:0.8;stroke:#cccccc;stroke-linejoin:miter;"/>
    </g>
    <g id="LineCollection_12">
     <path d="M 437.33 403.305994 
L 437.33 392.305994 
" style="fill:none;stroke:#55a868;"/>
    </g>
    <g id="line2d_92">
     <g>
      <use style="fill:#55a868;stroke:#55a868;" x="437.33" xlink:href="#m13898ebace" y="403.305994"/>
     </g>
    </g>
    <g id="line2d_93">
     <g>
      <use style="fill:#55a868;stroke:#55a868;" x="437.33" xlink:href="#m13898ebace" y="392.305994"/>
     </g>
    </g>
    <g id="line2d_94"/>
    <g id="line2d_95">
     <g>
      <use style="fill:#55a868;stroke:#55a868;stroke-linejoin:miter;" x="437.33" xlink:href="#mbd19dbe1bd" y="397.805994"/>
     </g>
    </g>
    <g id="text_35">
     <!-- $v_d$ -->
     <g style="fill:#262626;" transform="translate(457.13 401.655994)scale(0.11 -0.11)">
      <use transform="translate(0 0.3125)" xlink:href="#DejaVuSans-Oblique-118"/>
      <use transform="translate(59.179688 -16.09375)scale(0.7)" xlink:href="#DejaVuSans-Oblique-100"/>
     </g>
    </g>
   </g>
  </g>
  <g id="axes_3">
   <g id="patch_14">
    <path d="M 60.48 165.06 
L 478.8 165.06 
L 478.8 28.296 
L 60.48 28.296 
z
" style="fill:#ffffff;"/>
   </g>
   <g id="matplotlib.axis_5">
    <g id="xtick_19">
     <g id="line2d_96">
      <g>
       <use style="fill:#262626;stroke:#262626;stroke-width:1.25;" x="104.717709" xlink:href="#mc112591d60" y="165.06"/>
      </g>
     </g>
     <g id="text_36">
      <!-- 0.0005 -->
      <g style="fill:#262626;" transform="translate(87.897162 182.433594)scale(0.11 -0.11)">
       <use xlink:href="#ArialMT-48"/>
       <use x="55.615234" xlink:href="#ArialMT-46"/>
       <use x="83.398438" xlink:href="#ArialMT-48"/>
       <use x="139.013672" xlink:href="#ArialMT-48"/>
       <use x="194.628906" xlink:href="#ArialMT-48"/>
       <use x="250.244141" xlink:href="#ArialMT-53"/>
      </g>
     </g>
    </g>
    <g id="xtick_20">
     <g id="line2d_97">
      <g>
       <use style="fill:#262626;stroke:#262626;stroke-width:1.25;" x="155.44202" xlink:href="#mc112591d60" y="165.06"/>
      </g>
     </g>
     <g id="text_37">
      <!-- 0.0010 -->
      <g style="fill:#262626;" transform="translate(138.621473 182.433594)scale(0.11 -0.11)">
       <use xlink:href="#ArialMT-48"/>
       <use x="55.615234" xlink:href="#ArialMT-46"/>
       <use x="83.398438" xlink:href="#ArialMT-48"/>
       <use x="139.013672" xlink:href="#ArialMT-48"/>
       <use x="194.628906" xlink:href="#ArialMT-49"/>
       <use x="250.244141" xlink:href="#ArialMT-48"/>
      </g>
     </g>
    </g>
    <g id="xtick_21">
     <g id="line2d_98">
      <g>
       <use style="fill:#262626;stroke:#262626;stroke-width:1.25;" x="206.16633" xlink:href="#mc112591d60" y="165.06"/>
      </g>
     </g>
     <g id="text_38">
      <!-- 0.0015 -->
      <g style="fill:#262626;" transform="translate(189.345784 182.433594)scale(0.11 -0.11)">
       <use xlink:href="#ArialMT-48"/>
       <use x="55.615234" xlink:href="#ArialMT-46"/>
       <use x="83.398438" xlink:href="#ArialMT-48"/>
       <use x="139.013672" xlink:href="#ArialMT-48"/>
       <use x="194.628906" xlink:href="#ArialMT-49"/>
       <use x="250.244141" xlink:href="#ArialMT-53"/>
      </g>
     </g>
    </g>
    <g id="xtick_22">
     <g id="line2d_99">
      <g>
       <use style="fill:#262626;stroke:#262626;stroke-width:1.25;" x="256.890641" xlink:href="#mc112591d60" y="165.06"/>
      </g>
     </g>
     <g id="text_39">
      <!-- 0.0020 -->
      <g style="fill:#262626;" transform="translate(240.070094 182.433594)scale(0.11 -0.11)">
       <use xlink:href="#ArialMT-48"/>
       <use x="55.615234" xlink:href="#ArialMT-46"/>
       <use x="83.398438" xlink:href="#ArialMT-48"/>
       <use x="139.013672" xlink:href="#ArialMT-48"/>
       <use x="194.628906" xlink:href="#ArialMT-50"/>
       <use x="250.244141" xlink:href="#ArialMT-48"/>
      </g>
     </g>
    </g>
    <g id="xtick_23">
     <g id="line2d_100">
      <g>
       <use style="fill:#262626;stroke:#262626;stroke-width:1.25;" x="307.614952" xlink:href="#mc112591d60" y="165.06"/>
      </g>
     </g>
     <g id="text_40">
      <!-- 0.0025 -->
      <g style="fill:#262626;" transform="translate(290.794405 182.433594)scale(0.11 -0.11)">
       <use xlink:href="#ArialMT-48"/>
       <use x="55.615234" xlink:href="#ArialMT-46"/>
       <use x="83.398438" xlink:href="#ArialMT-48"/>
       <use x="139.013672" xlink:href="#ArialMT-48"/>
       <use x="194.628906" xlink:href="#ArialMT-50"/>
       <use x="250.244141" xlink:href="#ArialMT-53"/>
      </g>
     </g>
    </g>
    <g id="xtick_24">
     <g id="line2d_101">
      <g>
       <use style="fill:#262626;stroke:#262626;stroke-width:1.25;" x="358.339262" xlink:href="#mc112591d60" y="165.06"/>
      </g>
     </g>
     <g id="text_41">
      <!-- 0.0030 -->
      <g style="fill:#262626;" transform="translate(341.518715 182.433594)scale(0.11 -0.11)">
       <use xlink:href="#ArialMT-48"/>
       <use x="55.615234" xlink:href="#ArialMT-46"/>
       <use x="83.398438" xlink:href="#ArialMT-48"/>
       <use x="139.013672" xlink:href="#ArialMT-48"/>
       <use x="194.628906" xlink:href="#ArialMT-51"/>
       <use x="250.244141" xlink:href="#ArialMT-48"/>
      </g>
     </g>
    </g>
    <g id="xtick_25">
     <g id="line2d_102">
      <g>
       <use style="fill:#262626;stroke:#262626;stroke-width:1.25;" x="409.063573" xlink:href="#mc112591d60" y="165.06"/>
      </g>
     </g>
     <g id="text_42">
      <!-- 0.0035 -->
      <g style="fill:#262626;" transform="translate(392.243026 182.433594)scale(0.11 -0.11)">
       <use xlink:href="#ArialMT-48"/>
       <use x="55.615234" xlink:href="#ArialMT-46"/>
       <use x="83.398438" xlink:href="#ArialMT-48"/>
       <use x="139.013672" xlink:href="#ArialMT-48"/>
       <use x="194.628906" xlink:href="#ArialMT-51"/>
       <use x="250.244141" xlink:href="#ArialMT-53"/>
      </g>
     </g>
    </g>
    <g id="xtick_26">
     <g id="line2d_103">
      <g>
       <use style="fill:#262626;stroke:#262626;stroke-width:1.25;" x="459.787883" xlink:href="#mc112591d60" y="165.06"/>
      </g>
     </g>
     <g id="text_43">
      <!-- 0.0040 -->
      <g style="fill:#262626;" transform="translate(442.967336 182.433594)scale(0.11 -0.11)">
       <use xlink:href="#ArialMT-48"/>
       <use x="55.615234" xlink:href="#ArialMT-46"/>
       <use x="83.398438" xlink:href="#ArialMT-48"/>
       <use x="139.013672" xlink:href="#ArialMT-48"/>
       <use x="194.628906" xlink:href="#ArialMT-52"/>
       <use x="250.244141" xlink:href="#ArialMT-48"/>
      </g>
     </g>
    </g>
    <g id="text_44">
     <!-- [s] -->
     <g style="fill:#262626;" transform="translate(263.30625 197.209219)scale(0.12 -0.12)">
      <use xlink:href="#ArialMT-91"/>
      <use x="27.783203" xlink:href="#ArialMT-115"/>
      <use x="77.783203" xlink:href="#ArialMT-93"/>
     </g>
    </g>
   </g>
   <g id="matplotlib.axis_6">
    <g id="ytick_11">
     <g id="line2d_104">
      <g>
       <use style="fill:#262626;stroke:#262626;stroke-width:1.25;" x="60.48" xlink:href="#m2802d457d6" y="158.239712"/>
      </g>
     </g>
     <g id="text_45">
      <!-- 0 -->
      <g style="fill:#262626;" transform="translate(44.862969 162.176509)scale(0.11 -0.11)">
       <use xlink:href="#ArialMT-48"/>
      </g>
     </g>
    </g>
    <g id="ytick_12">
     <g id="line2d_105">
      <g>
       <use style="fill:#262626;stroke:#262626;stroke-width:1.25;" x="60.48" xlink:href="#m2802d457d6" y="125.062532"/>
      </g>
     </g>
     <g id="text_46">
      <!-- 20 -->
      <g style="fill:#262626;" transform="translate(38.745937 128.999329)scale(0.11 -0.11)">
       <use xlink:href="#ArialMT-50"/>
       <use x="55.615234" xlink:href="#ArialMT-48"/>
      </g>
     </g>
    </g>
    <g id="ytick_13">
     <g id="line2d_106">
      <g>
       <use style="fill:#262626;stroke:#262626;stroke-width:1.25;" x="60.48" xlink:href="#m2802d457d6" y="91.885352"/>
      </g>
     </g>
     <g id="text_47">
      <!-- 40 -->
      <g style="fill:#262626;" transform="translate(38.745937 95.822149)scale(0.11 -0.11)">
       <use xlink:href="#ArialMT-52"/>
       <use x="55.615234" xlink:href="#ArialMT-48"/>
      </g>
     </g>
    </g>
    <g id="ytick_14">
     <g id="line2d_107">
      <g>
       <use style="fill:#262626;stroke:#262626;stroke-width:1.25;" x="60.48" xlink:href="#m2802d457d6" y="58.708172"/>
      </g>
     </g>
     <g id="text_48">
      <!-- 60 -->
      <defs>
       <path d="M 49.75 54.046875 
L 41.015625 53.375 
Q 39.84375 58.546875 37.703125 60.890625 
Q 34.125 64.65625 28.90625 64.65625 
Q 24.703125 64.65625 21.53125 62.3125 
Q 17.390625 59.28125 14.984375 53.46875 
Q 12.59375 47.65625 12.5 36.921875 
Q 15.671875 41.75 20.265625 44.09375 
Q 24.859375 46.4375 29.890625 46.4375 
Q 38.671875 46.4375 44.84375 39.96875 
Q 51.03125 33.5 51.03125 23.25 
Q 51.03125 16.5 48.125 10.71875 
Q 45.21875 4.9375 40.140625 1.859375 
Q 35.0625 -1.21875 28.609375 -1.21875 
Q 17.625 -1.21875 10.6875 6.859375 
Q 3.765625 14.9375 3.765625 33.5 
Q 3.765625 54.25 11.421875 63.671875 
Q 18.109375 71.875 29.4375 71.875 
Q 37.890625 71.875 43.28125 67.140625 
Q 48.6875 62.40625 49.75 54.046875 
z
M 13.875 23.1875 
Q 13.875 18.65625 15.796875 14.5 
Q 17.71875 10.359375 21.1875 8.171875 
Q 24.65625 6 28.46875 6 
Q 34.03125 6 38.03125 10.484375 
Q 42.046875 14.984375 42.046875 22.703125 
Q 42.046875 30.125 38.078125 34.390625 
Q 34.125 38.671875 28.125 38.671875 
Q 22.171875 38.671875 18.015625 34.390625 
Q 13.875 30.125 13.875 23.1875 
z
" id="ArialMT-54"/>
      </defs>
      <g style="fill:#262626;" transform="translate(38.745937 62.644969)scale(0.11 -0.11)">
       <use xlink:href="#ArialMT-54"/>
       <use x="55.615234" xlink:href="#ArialMT-48"/>
      </g>
     </g>
    </g>
    <g id="text_49">
     <!-- $I_{tor}$ [kA] -->
     <defs>
      <path d="M 16.890625 72.90625 
L 26.8125 72.90625 
L 12.59375 0 
L 2.6875 0 
z
" id="DejaVuSans-Oblique-73"/>
      <path d="M 42.28125 54.6875 
L 40.921875 47.703125 
L 23 47.703125 
L 17.1875 18.015625 
Q 16.890625 16.359375 16.75 15.234375 
Q 16.609375 14.109375 16.609375 13.484375 
Q 16.609375 10.359375 18.484375 8.9375 
Q 20.359375 7.515625 24.515625 7.515625 
L 33.59375 7.515625 
L 32.078125 0 
L 23.484375 0 
Q 15.484375 0 11.546875 3.125 
Q 7.625 6.25 7.625 12.59375 
Q 7.625 13.71875 7.765625 15.0625 
Q 7.90625 16.40625 8.203125 18.015625 
L 14.015625 47.703125 
L 6.390625 47.703125 
L 7.8125 54.6875 
L 15.28125 54.6875 
L 18.3125 70.21875 
L 27.296875 70.21875 
L 24.3125 54.6875 
z
" id="DejaVuSans-Oblique-116"/>
      <path d="M 25.390625 -1.421875 
Q 15.765625 -1.421875 10.171875 4.515625 
Q 4.59375 10.453125 4.59375 20.703125 
Q 4.59375 26.65625 6.515625 32.828125 
Q 8.453125 39.015625 11.53125 43.21875 
Q 16.359375 49.75 22.3125 52.875 
Q 28.265625 56 35.796875 56 
Q 45.125 56 50.859375 50.1875 
Q 56.59375 44.390625 56.59375 35.015625 
Q 56.59375 28.515625 54.6875 22.0625 
Q 52.78125 15.625 49.703125 11.375 
Q 44.921875 4.828125 38.96875 1.703125 
Q 33.015625 -1.421875 25.390625 -1.421875 
z
M 13.921875 21 
Q 13.921875 13.578125 17.015625 9.890625 
Q 20.125 6.203125 26.421875 6.203125 
Q 35.453125 6.203125 41.375 14.078125 
Q 47.3125 21.96875 47.3125 34.078125 
Q 47.3125 41.15625 44.140625 44.765625 
Q 40.96875 48.390625 34.8125 48.390625 
Q 29.734375 48.390625 25.78125 46.015625 
Q 21.828125 43.65625 18.703125 38.8125 
Q 16.40625 35.203125 15.15625 30.5625 
Q 13.921875 25.921875 13.921875 21 
z
" id="DejaVuSans-Oblique-111"/>
      <path d="M 44.578125 46.390625 
Q 43.21875 47.125 41.453125 47.515625 
Q 39.703125 47.90625 37.703125 47.90625 
Q 30.515625 47.90625 25.140625 42.453125 
Q 19.78125 37.015625 18.015625 27.875 
L 12.5 0 
L 3.515625 0 
L 14.203125 54.6875 
L 23.1875 54.6875 
L 21.484375 46.1875 
Q 25.046875 50.921875 30 53.453125 
Q 34.96875 56 40.578125 56 
Q 42.046875 56 43.453125 55.828125 
Q 44.875 55.671875 46.296875 55.28125 
z
" id="DejaVuSans-Oblique-114"/>
      <path d="M -0.140625 0 
L 27.34375 71.578125 
L 37.546875 71.578125 
L 66.84375 0 
L 56.0625 0 
L 47.703125 21.6875 
L 17.78125 21.6875 
L 9.90625 0 
z
M 20.515625 29.390625 
L 44.78125 29.390625 
L 37.3125 49.21875 
Q 33.890625 58.25 32.234375 64.0625 
Q 30.859375 57.171875 28.375 50.390625 
z
" id="ArialMT-65"/>
     </defs>
     <g style="fill:#4c72b0;" transform="translate(32.345937 116.598)rotate(-90)scale(0.12 -0.12)">
      <use transform="translate(0 0.09375)" xlink:href="#DejaVuSans-Oblique-73"/>
      <use transform="translate(29.492188 -16.3125)scale(0.7)" xlink:href="#DejaVuSans-Oblique-116"/>
      <use transform="translate(56.938477 -16.3125)scale(0.7)" xlink:href="#DejaVuSans-Oblique-111"/>
      <use transform="translate(99.765625 -16.3125)scale(0.7)" xlink:href="#DejaVuSans-Oblique-114"/>
      <use transform="translate(131.279297 0.09375)" xlink:href="#ArialMT-32"/>
      <use transform="translate(159.0625 0.09375)" xlink:href="#ArialMT-91"/>
      <use transform="translate(186.845703 0.09375)" xlink:href="#ArialMT-107"/>
      <use transform="translate(236.845703 0.09375)" xlink:href="#ArialMT-65"/>
      <use transform="translate(303.544922 0.09375)" xlink:href="#ArialMT-93"/>
     </g>
    </g>
   </g>
   <g id="LineCollection_13">
    <path clip-path="url(#p4a0d35b7e2)" d="M 173.576972 158.239712 
L 173.576972 35.484146 
" style="fill:none;stroke:#1a1a1a;stroke-dasharray:5.55,2.4;stroke-dashoffset:0;stroke-width:1.5;"/>
   </g>
   <g id="line2d_108">
    <path clip-path="url(#p4a0d35b7e2)" d="M 79.494545 158.293743 
L 83.339956 158.619075 
L 83.947127 158.485981 
L 84.756687 158.341137 
L 85.971027 158.24845 
L 86.780587 158.364386 
L 89.411658 158.709671 
L 89.816438 158.689073 
L 91.030778 158.358632 
L 92.245119 158.188409 
L 93.459459 158.365253 
L 94.269019 158.614578 
L 95.28097 158.77863 
L 96.29292 158.681703 
L 98.923991 158.146014 
L 99.935941 158.348282 
L 100.947891 158.645027 
L 101.555061 158.762968 
L 102.364621 158.815687 
L 103.376572 158.578042 
L 104.590912 158.208778 
L 105.400472 158.15897 
L 108.436323 158.843455 
L 110.865004 158.220739 
L 111.472174 157.597498 
L 112.079344 154.769457 
L 112.281734 153.844368 
L 112.484124 153.513583 
L 112.686514 152.879662 
L 113.496074 144.014568 
L 113.698464 143.13402 
L 114.103244 143.944676 
L 114.508025 139.897694 
L 114.710415 140.235529 
L 114.912805 142.534275 
L 115.115195 142.715772 
L 115.317585 139.482217 
L 115.519975 138.281243 
L 115.924755 140.112514 
L 116.531925 144.764801 
L 116.734315 145.323194 
L 116.936705 144.787138 
L 117.746265 133.038814 
L 118.151046 124.568342 
L 118.353436 124.854892 
L 118.555826 123.396445 
L 118.758216 120.863668 
L 118.960606 120.865634 
L 119.162996 122.290364 
L 119.365386 121.245038 
L 120.174946 106.442307 
L 120.579726 105.313046 
L 120.984506 106.646508 
L 121.186896 106.62694 
L 121.389286 106.978062 
L 121.591676 105.558724 
L 121.794066 105.762404 
L 121.996457 108.315726 
L 122.198847 109.302745 
L 122.401237 109.456786 
L 122.603627 109.950193 
L 123.413187 113.665847 
L 123.615577 113.44666 
L 123.817967 112.330714 
L 124.020357 112.028613 
L 124.425137 113.400099 
L 125.032307 111.479834 
L 125.437087 106.226213 
L 125.841868 100.481791 
L 126.246648 98.789916 
L 126.449038 98.762934 
L 126.651428 99.175089 
L 127.056208 100.889332 
L 127.258598 101.989235 
L 127.460988 102.212861 
L 127.663378 100.751066 
L 127.865768 100.641794 
L 128.270548 104.171942 
L 128.472938 105.011016 
L 129.282498 111.119823 
L 129.687279 110.936264 
L 129.889669 111.257307 
L 130.294449 115.615899 
L 130.699229 118.507852 
L 130.901619 118.83146 
L 131.104009 118.715156 
L 131.306399 118.435123 
L 131.508789 117.74069 
L 131.913569 112.651831 
L 132.318349 108.591601 
L 132.520739 107.515266 
L 132.723129 107.09672 
L 133.127909 106.937907 
L 133.73508 108.167526 
L 133.93747 108.051311 
L 134.13986 108.17949 
L 134.34225 108.656111 
L 134.54464 108.701478 
L 134.74703 109.1149 
L 135.75898 114.170288 
L 136.16376 117.216923 
L 136.56854 120.938287 
L 136.77093 121.816071 
L 137.378101 127.657261 
L 137.580491 126.884588 
L 137.782881 124.815588 
L 137.985271 123.918127 
L 138.187661 123.582852 
L 138.390051 123.019502 
L 138.592441 121.672647 
L 139.402001 113.154411 
L 139.604391 112.493735 
L 139.806781 112.374341 
L 140.211561 113.988568 
L 140.413951 114.00511 
L 141.021121 112.130053 
L 141.223512 111.871941 
L 141.425902 112.125695 
L 141.628292 113.339996 
L 142.235462 118.549672 
L 142.437852 119.916852 
L 142.640242 120.297358 
L 143.247412 123.330253 
L 143.854582 127.795279 
L 144.461752 124.286847 
L 145.271313 116.553777 
L 145.676093 111.634513 
L 146.080873 109.039012 
L 146.283263 108.891515 
L 146.688043 110.471751 
L 146.890433 110.576381 
L 147.699993 104.543518 
L 147.902383 104.086561 
L 148.104773 105.12444 
L 148.711943 111.136745 
L 148.914334 113.645982 
L 149.116724 113.47762 
L 149.319114 112.962227 
L 149.723894 116.065664 
L 149.926284 116.274066 
L 150.128674 117.158392 
L 150.331064 119.045744 
L 150.533454 118.721171 
L 150.938234 116.874563 
L 151.545404 111.836434 
L 152.354964 99.341329 
L 152.557354 96.827542 
L 152.759745 96.430864 
L 153.366915 98.700678 
L 153.974085 94.317479 
L 154.176475 94.792964 
L 154.581255 96.816854 
L 155.390815 106.575479 
L 155.593205 106.864134 
L 155.795595 106.360296 
L 156.200375 104.189631 
L 156.402765 104.284062 
L 156.807546 107.391854 
L 157.212326 105.345552 
L 157.414716 106.243405 
L 157.617106 106.440052 
L 158.831446 92.633487 
L 159.033836 91.016686 
L 159.236226 90.600486 
L 159.641006 92.356927 
L 159.843396 92.055298 
L 160.045786 90.752709 
L 160.450567 86.628454 
L 160.652957 87.527537 
L 161.057737 90.771529 
L 161.260127 91.837126 
L 162.069687 101.669656 
L 162.272077 102.217985 
L 162.474467 102.263132 
L 162.676857 101.010716 
L 162.879247 98.55495 
L 163.081637 100.074559 
L 163.284027 103.138551 
L 163.486417 103.736272 
L 163.891197 99.343877 
L 164.093587 98.646172 
L 164.295978 96.546824 
L 165.105538 83.37331 
L 165.510318 81.157636 
L 165.712708 80.915343 
L 165.915098 81.387776 
L 166.117488 81.20731 
L 166.319878 80.699454 
L 166.522268 80.691579 
L 166.724658 80.149283 
L 167.331828 76.122174 
L 167.534218 76.792026 
L 167.736608 79.20223 
L 168.343779 93.750343 
L 168.546169 95.05325 
L 168.748559 94.834796 
L 168.950949 93.394379 
L 169.153339 90.633473 
L 169.355729 90.007807 
L 169.760509 92.545759 
L 169.962899 93.76124 
L 170.165289 93.217867 
L 170.367679 91.718279 
L 170.570069 91.128624 
L 171.582019 73.651571 
L 171.78441 71.665304 
L 172.39158 70.029887 
L 172.59397 71.423545 
L 172.79636 71.546345 
L 173.20114 70.349913 
L 173.60592 67.799193 
L 173.80831 69.079455 
L 174.41548 77.440216 
L 174.82026 86.389042 
L 175.02265 86.790594 
L 175.22504 86.943703 
L 175.42743 86.70587 
L 175.629821 84.808835 
L 175.832211 81.667497 
L 176.034601 81.0528 
L 176.439381 87.03806 
L 176.641771 88.086993 
L 176.844161 87.533044 
L 177.046551 85.96802 
L 177.451331 77.84535 
L 177.856111 72.095817 
L 178.665671 63.537718 
L 179.070451 65.276592 
L 179.272841 64.458397 
L 179.880012 58.592564 
L 180.082402 58.100257 
L 180.689572 62.123199 
L 181.701522 73.883558 
L 181.903912 74.353332 
L 182.106302 74.117056 
L 182.308692 73.213539 
L 182.511082 73.484961 
L 182.713472 74.571366 
L 182.915862 74.177713 
L 183.118252 74.041916 
L 183.523033 76.902847 
L 183.725423 76.204059 
L 184.332593 65.75063 
L 184.737373 55.395248 
L 184.939763 53.016516 
L 185.142153 53.215277 
L 185.546933 54.821784 
L 185.749323 55.034986 
L 186.356493 50.613928 
L 186.558883 50.322832 
L 187.166054 56.859495 
L 188.178004 67.388303 
L 188.380394 65.42798 
L 188.582784 62.118255 
L 188.785174 61.845827 
L 189.594734 71.067049 
L 189.797124 71.658556 
L 190.201904 67.573438 
L 190.404294 66.203665 
L 191.213855 52.459012 
L 191.416245 49.738044 
L 191.618635 49.619558 
L 191.821025 50.253028 
L 192.023415 50.48581 
L 192.225805 51.719892 
L 192.428195 51.069569 
L 193.035365 45.186049 
L 193.237755 46.419052 
L 193.642535 51.005223 
L 194.047315 56.537971 
L 194.452095 62.898289 
L 194.654485 62.550076 
L 195.059266 58.464354 
L 195.261656 58.887239 
L 195.666436 65.144845 
L 195.868826 67.15412 
L 196.071216 67.071581 
L 196.273606 65.534298 
L 196.475996 65.455854 
L 196.678386 66.265414 
L 196.880776 64.970595 
L 197.892726 47.085713 
L 198.095116 45.145963 
L 198.297506 45.106617 
L 198.702287 46.621884 
L 198.904677 45.444027 
L 199.511847 39.291483 
L 199.714237 37.772455 
L 199.916627 39.779035 
L 200.928577 61.61828 
L 201.130967 60.383898 
L 201.333357 57.319063 
L 201.535747 56.250594 
L 202.142917 60.254472 
L 202.547698 64.935419 
L 202.750088 64.664776 
L 203.154868 65.207672 
L 203.559648 58.224999 
L 204.166818 44.59915 
L 204.369208 41.445538 
L 204.571598 41.131239 
L 204.976378 47.980117 
L 205.178768 48.300786 
L 205.785938 41.926315 
L 206.190718 39.191638 
L 206.393109 41.293539 
L 206.797889 47.386338 
L 207.000279 49.350624 
L 207.405059 56.716989 
L 207.809839 57.170821 
L 208.012229 56.507764 
L 208.214619 55.039899 
L 208.417009 55.854621 
L 208.821789 63.183424 
L 209.226569 61.847244 
L 209.428959 62.782622 
L 209.631349 63.084027 
L 209.833739 61.02395 
L 210.23852 54.293629 
L 210.6433 44.982976 
L 211.04808 41.585587 
L 211.25047 41.936775 
L 211.65525 43.323908 
L 211.85764 43.507876 
L 212.06003 41.868925 
L 212.46481 35.957334 
L 212.6672 35.458853 
L 213.07198 41.165966 
L 213.67915 51.590198 
L 213.88154 56.753768 
L 214.083931 58.421236 
L 214.286321 58.002981 
L 214.488711 58.02782 
L 214.893491 55.42492 
L 215.500661 61.066643 
L 215.703051 60.833439 
L 215.905441 60.843673 
L 216.107831 60.607755 
L 216.512611 54.777871 
L 217.322171 41.261974 
L 217.524561 39.919514 
L 217.726951 40.263715 
L 218.131732 42.232308 
L 218.334122 42.000991 
L 218.941292 38.845962 
L 219.143682 38.837297 
L 219.346072 40.04704 
L 219.750852 45.83009 
L 220.560412 57.359727 
L 220.762802 58.315259 
L 221.167582 54.994784 
L 221.369972 55.743553 
L 221.774753 59.982472 
L 221.977143 62.232822 
L 222.179533 62.929034 
L 222.381923 62.540609 
L 222.584313 62.911485 
L 222.786703 61.882178 
L 223.596263 41.822119 
L 224.001043 38.14707 
L 224.203433 38.354051 
L 224.608213 41.741397 
L 224.810603 41.000511 
L 225.012993 39.270764 
L 225.417773 34.520132 
L 225.620164 34.512545 
L 225.822554 35.325731 
L 226.227334 39.880343 
L 226.632114 48.727176 
L 226.834504 53.35484 
L 227.036894 54.879168 
L 227.239284 54.649232 
L 227.441674 54.066546 
L 227.644064 53.093059 
L 227.846454 53.259339 
L 228.251234 58.375635 
L 228.858404 60.499512 
L 229.060794 62.461256 
L 229.263184 62.251381 
L 229.465575 58.538963 
L 230.072745 41.050854 
L 230.477525 35.998132 
L 230.679915 35.136812 
L 231.287085 41.301552 
L 231.489475 40.496136 
L 232.096645 34.883073 
L 232.299035 35.960028 
L 232.703815 41.311915 
L 233.108595 49.506379 
L 233.513376 57.289731 
L 233.918156 55.946838 
L 234.322936 51.56817 
L 234.525326 53.58699 
L 234.930106 58.303286 
L 235.334886 61.01603 
L 235.739666 62.066254 
L 235.942056 59.974915 
L 236.954006 37.779482 
L 237.156397 36.367465 
L 237.358787 36.549865 
L 237.763567 39.916913 
L 237.965957 39.980632 
L 238.168347 38.324755 
L 238.573127 37.519772 
L 238.775517 37.349102 
L 238.977907 39.875185 
L 239.382687 47.311954 
L 239.585077 49.875963 
L 239.989857 58.554234 
L 240.192247 59.241691 
L 240.394637 57.090946 
L 240.597027 52.510225 
L 240.799417 52.308743 
L 241.001808 55.476622 
L 241.406588 57.094726 
L 242.013758 62.726445 
L 242.216148 62.561584 
L 243.025708 49.347628 
L 243.430488 39.039018 
L 243.632878 37.482785 
L 244.442438 45.758661 
L 244.644828 43.893296 
L 244.847219 40.904251 
L 245.049609 39.576739 
L 245.251999 39.397229 
L 245.454389 40.268827 
L 245.656779 43.20238 
L 246.466339 62.028975 
L 246.668729 62.607285 
L 247.275899 58.735065 
L 247.883069 66.702272 
L 248.287849 67.55547 
L 248.490239 68.965427 
L 248.69263 69.227553 
L 248.89502 66.317775 
L 249.90697 45.116492 
L 250.10936 42.461484 
L 250.31175 41.76362 
L 250.71653 46.298534 
L 250.91892 46.540703 
L 251.3237 46.019919 
L 251.52609 46.058827 
L 252.13326 49.559428 
L 252.33565 51.756803 
L 253.145211 66.744135 
L 253.549991 61.778279 
L 253.752381 62.426262 
L 254.561941 70.546251 
L 254.764331 70.870344 
L 255.169111 72.790575 
L 255.371501 71.126456 
L 255.776281 64.033081 
L 256.585842 48.302237 
L 256.788232 48.284953 
L 256.990622 48.964449 
L 257.395402 51.977136 
L 257.597792 51.462475 
L 257.800182 49.894898 
L 258.002572 49.511274 
L 258.204962 49.95637 
L 258.407352 49.952892 
L 258.609742 50.591321 
L 258.812132 53.10085 
L 259.621692 68.837649 
L 259.824082 69.087542 
L 260.026472 65.459034 
L 260.228863 64.519808 
L 261.038423 75.456829 
L 261.240813 76.32178 
L 261.443203 75.438339 
L 262.252763 65.908576 
L 262.657543 58.970453 
L 263.264713 52.768779 
L 263.467103 51.767849 
L 263.669493 51.961154 
L 265.288614 62.23901 
L 265.693394 63.675428 
L 266.098174 66.747308 
L 266.907734 73.256407 
L 268.526855 83.740357 
L 268.729245 83.512506 
L 269.134025 82.194119 
L 269.336415 81.931284 
L 269.538805 82.057526 
L 269.741195 82.319958 
L 270.145975 83.723469 
L 270.348365 84.191872 
L 270.753145 86.886921 
L 271.360315 90.925645 
L 272.777046 99.232567 
L 273.384216 102.440324 
L 273.991386 104.201792 
L 274.598556 106.912022 
L 275.003336 107.798742 
L 275.408117 108.512035 
L 275.812897 109.739672 
L 276.824847 114.340073 
L 278.039187 119.491581 
L 278.646357 121.671801 
L 279.253528 124.36136 
L 279.860698 125.769863 
L 280.265478 126.589739 
L 281.682208 130.229434 
L 282.491768 132.192498 
L 284.110889 136.897545 
L 285.122839 139.535213 
L 286.134789 141.733706 
L 286.94435 143.108003 
L 288.56347 145.731806 
L 289.77781 148.359973 
L 290.992151 150.64053 
L 292.813661 153.461072 
L 293.825611 154.675883 
L 295.444732 156.220174 
L 296.659072 157.165861 
L 297.671022 157.718907 
L 298.682973 158.023441 
L 300.302093 158.157014 
L 305.969014 158.28585 
L 331.065381 158.549467 
L 385.508305 158.561987 
L 411.009452 158.477175 
L 417.485934 158.460459 
L 441.16557 158.386765 
L 453.308973 158.349889 
L 459.785455 158.325153 
L 459.785455 158.325153 
" style="fill:none;stroke:#4c72b0;stroke-linecap:round;"/>
   </g>
   <g id="patch_15">
    <path d="M 60.48 165.06 
L 60.48 28.296 
" style="fill:none;stroke:#262626;stroke-linecap:square;stroke-linejoin:miter;stroke-width:1.25;"/>
   </g>
   <g id="patch_16">
    <path d="M 478.8 165.06 
L 478.8 28.296 
" style="fill:none;stroke:#262626;stroke-linecap:square;stroke-linejoin:miter;stroke-width:1.25;"/>
   </g>
   <g id="patch_17">
    <path d="M 60.48 165.06 
L 478.8 165.06 
" style="fill:none;stroke:#262626;stroke-linecap:square;stroke-linejoin:miter;stroke-width:1.25;"/>
   </g>
   <g id="patch_18">
    <path d="M 60.48 28.296 
L 478.8 28.296 
" style="fill:none;stroke:#262626;stroke-linecap:square;stroke-linejoin:miter;stroke-width:1.25;"/>
   </g>
   <g id="text_50">
    <!-- Shot 190612024, Fuel: D -->
    <defs>
     <path d="M 4.5 23 
L 13.421875 23.78125 
Q 14.0625 18.40625 16.375 14.96875 
Q 18.703125 11.53125 23.578125 9.40625 
Q 28.46875 7.28125 34.578125 7.28125 
Q 39.984375 7.28125 44.140625 8.890625 
Q 48.296875 10.5 50.3125 13.296875 
Q 52.34375 16.109375 52.34375 19.4375 
Q 52.34375 22.796875 50.390625 25.3125 
Q 48.4375 27.828125 43.953125 29.546875 
Q 41.0625 30.671875 31.203125 33.03125 
Q 21.34375 35.40625 17.390625 37.5 
Q 12.25 40.1875 9.734375 44.15625 
Q 7.234375 48.140625 7.234375 53.078125 
Q 7.234375 58.5 10.296875 63.203125 
Q 13.375 67.921875 19.28125 70.359375 
Q 25.203125 72.796875 32.421875 72.796875 
Q 40.375 72.796875 46.453125 70.234375 
Q 52.546875 67.671875 55.8125 62.6875 
Q 59.078125 57.71875 59.328125 51.421875 
L 50.25 50.734375 
Q 49.515625 57.515625 45.28125 60.984375 
Q 41.0625 64.453125 32.8125 64.453125 
Q 24.21875 64.453125 20.28125 61.296875 
Q 16.359375 58.15625 16.359375 53.71875 
Q 16.359375 49.859375 19.140625 47.359375 
Q 21.875 44.875 33.421875 42.265625 
Q 44.96875 39.65625 49.265625 37.703125 
Q 55.515625 34.8125 58.484375 30.390625 
Q 61.46875 25.984375 61.46875 20.21875 
Q 61.46875 14.5 58.203125 9.4375 
Q 54.9375 4.390625 48.796875 1.578125 
Q 42.671875 -1.21875 35.015625 -1.21875 
Q 25.296875 -1.21875 18.71875 1.609375 
Q 12.15625 4.4375 8.421875 10.125 
Q 4.6875 15.828125 4.5 23 
z
" id="ArialMT-83"/>
     <path d="M 6.59375 0 
L 6.59375 71.578125 
L 15.375 71.578125 
L 15.375 45.90625 
Q 21.53125 53.03125 30.90625 53.03125 
Q 36.671875 53.03125 40.921875 50.75 
Q 45.171875 48.484375 47 44.484375 
Q 48.828125 40.484375 48.828125 32.859375 
L 48.828125 0 
L 40.046875 0 
L 40.046875 32.859375 
Q 40.046875 39.453125 37.1875 42.453125 
Q 34.328125 45.453125 29.109375 45.453125 
Q 25.203125 45.453125 21.75 43.421875 
Q 18.3125 41.40625 16.84375 37.9375 
Q 15.375 34.46875 15.375 28.375 
L 15.375 0 
z
" id="ArialMT-104"/>
     <path d="M 5.46875 16.546875 
L 13.921875 17.328125 
Q 14.984375 11.375 18.015625 8.6875 
Q 21.046875 6 25.78125 6 
Q 29.828125 6 32.875 7.859375 
Q 35.9375 9.71875 37.890625 12.8125 
Q 39.84375 15.921875 41.15625 21.1875 
Q 42.484375 26.46875 42.484375 31.9375 
Q 42.484375 32.515625 42.4375 33.6875 
Q 39.796875 29.5 35.234375 26.875 
Q 30.671875 24.265625 25.34375 24.265625 
Q 16.453125 24.265625 10.296875 30.703125 
Q 4.15625 37.15625 4.15625 47.703125 
Q 4.15625 58.59375 10.578125 65.234375 
Q 17 71.875 26.65625 71.875 
Q 33.640625 71.875 39.421875 68.109375 
Q 45.21875 64.359375 48.21875 57.390625 
Q 51.21875 50.4375 51.21875 37.25 
Q 51.21875 23.53125 48.234375 15.40625 
Q 45.265625 7.28125 39.375 3.03125 
Q 33.5 -1.21875 25.59375 -1.21875 
Q 17.1875 -1.21875 11.859375 3.4375 
Q 6.546875 8.109375 5.46875 16.546875 
z
M 41.453125 48.140625 
Q 41.453125 55.71875 37.421875 60.15625 
Q 33.40625 64.59375 27.734375 64.59375 
Q 21.875 64.59375 17.53125 59.8125 
Q 13.1875 55.03125 13.1875 47.40625 
Q 13.1875 40.578125 17.3125 36.296875 
Q 21.4375 32.03125 27.484375 32.03125 
Q 33.59375 32.03125 37.515625 36.296875 
Q 41.453125 40.578125 41.453125 48.140625 
z
" id="ArialMT-57"/>
     <path d="M 8.890625 0 
L 8.890625 10.015625 
L 18.890625 10.015625 
L 18.890625 0 
Q 18.890625 -5.515625 16.9375 -8.90625 
Q 14.984375 -12.3125 10.75 -14.15625 
L 8.296875 -10.40625 
Q 11.078125 -9.1875 12.390625 -6.8125 
Q 13.71875 -4.4375 13.875 0 
z
" id="ArialMT-44"/>
     <path d="M 8.203125 0 
L 8.203125 71.578125 
L 56.5 71.578125 
L 56.5 63.140625 
L 17.671875 63.140625 
L 17.671875 40.96875 
L 51.265625 40.96875 
L 51.265625 32.515625 
L 17.671875 32.515625 
L 17.671875 0 
z
" id="ArialMT-70"/>
     <path d="M 9.03125 41.84375 
L 9.03125 51.859375 
L 19.046875 51.859375 
L 19.046875 41.84375 
z
M 9.03125 0 
L 9.03125 10.015625 
L 19.046875 10.015625 
L 19.046875 0 
z
" id="ArialMT-58"/>
     <path d="M 7.71875 0 
L 7.71875 71.578125 
L 32.375 71.578125 
Q 40.71875 71.578125 45.125 70.5625 
Q 51.265625 69.140625 55.609375 65.4375 
Q 61.28125 60.640625 64.078125 53.1875 
Q 66.890625 45.75 66.890625 36.1875 
Q 66.890625 28.03125 64.984375 21.734375 
Q 63.09375 15.4375 60.109375 11.296875 
Q 57.125 7.171875 53.578125 4.796875 
Q 50.046875 2.4375 45.046875 1.21875 
Q 40.046875 0 33.546875 0 
z
M 17.1875 8.453125 
L 32.46875 8.453125 
Q 39.546875 8.453125 43.578125 9.765625 
Q 47.609375 11.078125 50 13.484375 
Q 53.375 16.84375 55.25 22.53125 
Q 57.125 28.21875 57.125 36.328125 
Q 57.125 47.5625 53.4375 53.59375 
Q 49.75 59.625 44.484375 61.671875 
Q 40.671875 63.140625 32.234375 63.140625 
L 17.1875 63.140625 
z
" id="ArialMT-68"/>
    </defs>
    <g style="fill:#262626;" transform="translate(202.930312 22.296)scale(0.12 -0.12)">
     <use xlink:href="#ArialMT-83"/>
     <use x="66.699219" xlink:href="#ArialMT-104"/>
     <use x="122.314453" xlink:href="#ArialMT-111"/>
     <use x="177.929688" xlink:href="#ArialMT-116"/>
     <use x="205.712891" xlink:href="#ArialMT-32"/>
     <use x="233.496094" xlink:href="#ArialMT-49"/>
     <use x="289.111328" xlink:href="#ArialMT-57"/>
     <use x="344.726562" xlink:href="#ArialMT-48"/>
     <use x="400.341797" xlink:href="#ArialMT-54"/>
     <use x="455.957031" xlink:href="#ArialMT-49"/>
     <use x="511.572266" xlink:href="#ArialMT-50"/>
     <use x="567.1875" xlink:href="#ArialMT-48"/>
     <use x="622.802734" xlink:href="#ArialMT-50"/>
     <use x="678.417969" xlink:href="#ArialMT-52"/>
     <use x="734.033203" xlink:href="#ArialMT-44"/>
     <use x="761.816406" xlink:href="#ArialMT-32"/>
     <use x="789.599609" xlink:href="#ArialMT-70"/>
     <use x="850.683594" xlink:href="#ArialMT-117"/>
     <use x="906.298828" xlink:href="#ArialMT-101"/>
     <use x="961.914062" xlink:href="#ArialMT-108"/>
     <use x="984.130859" xlink:href="#ArialMT-58"/>
     <use x="1011.914062" xlink:href="#ArialMT-32"/>
     <use x="1039.697266" xlink:href="#ArialMT-68"/>
    </g>
   </g>
   <g id="legend_3">
    <g id="patch_19">
     <path d="M 364.999844 68.385844 
L 471.1 68.385844 
Q 473.3 68.385844 473.3 66.185844 
L 473.3 35.996 
Q 473.3 33.796 471.1 33.796 
L 364.999844 33.796 
Q 362.799844 33.796 362.799844 35.996 
L 362.799844 66.185844 
Q 362.799844 68.385844 364.999844 68.385844 
z
" style="fill:#ffffff;opacity:0.8;stroke:#cccccc;stroke-linejoin:miter;"/>
    </g>
    <g id="line2d_109">
     <path d="M 367.199844 42.376 
L 389.199844 42.376 
" style="fill:none;stroke:#4c72b0;stroke-linecap:round;"/>
    </g>
    <g id="line2d_110"/>
    <g id="text_51">
     <!-- $I_{tor}$ [kA] -->
     <g style="fill:#262626;" transform="translate(397.999844 46.226)scale(0.11 -0.11)">
      <use transform="translate(0 0.09375)" xlink:href="#DejaVuSans-Oblique-73"/>
      <use transform="translate(29.492188 -16.3125)scale(0.7)" xlink:href="#DejaVuSans-Oblique-116"/>
      <use transform="translate(56.938477 -16.3125)scale(0.7)" xlink:href="#DejaVuSans-Oblique-111"/>
      <use transform="translate(99.765625 -16.3125)scale(0.7)" xlink:href="#DejaVuSans-Oblique-114"/>
      <use transform="translate(131.279297 0.09375)" xlink:href="#ArialMT-32"/>
      <use transform="translate(159.0625 0.09375)" xlink:href="#ArialMT-91"/>
      <use transform="translate(186.845703 0.09375)" xlink:href="#ArialMT-107"/>
      <use transform="translate(236.845703 0.09375)" xlink:href="#ArialMT-65"/>
      <use transform="translate(303.544922 0.09375)" xlink:href="#ArialMT-93"/>
     </g>
    </g>
    <g id="line2d_111">
     <path d="M 367.199844 57.949594 
L 389.199844 57.949594 
" style="fill:none;stroke:#1a1a1a;stroke-dasharray:5.55,2.4;stroke-dashoffset:0;stroke-width:1.5;"/>
    </g>
    <g id="text_52">
     <!-- TS meas. time -->
     <g style="fill:#262626;" transform="translate(397.999844 61.799594)scale(0.11 -0.11)">
      <use xlink:href="#ArialMT-84"/>
      <use x="61.083984" xlink:href="#ArialMT-83"/>
      <use x="127.783203" xlink:href="#ArialMT-32"/>
      <use x="155.566406" xlink:href="#ArialMT-109"/>
      <use x="238.867188" xlink:href="#ArialMT-101"/>
      <use x="294.482422" xlink:href="#ArialMT-97"/>
      <use x="350.097656" xlink:href="#ArialMT-115"/>
      <use x="400.097656" xlink:href="#ArialMT-46"/>
      <use x="427.880859" xlink:href="#ArialMT-32"/>
      <use x="455.664062" xlink:href="#ArialMT-116"/>
      <use x="483.447266" xlink:href="#ArialMT-105"/>
      <use x="505.664062" xlink:href="#ArialMT-109"/>
      <use x="588.964844" xlink:href="#ArialMT-101"/>
     </g>
    </g>
   </g>
  </g>
 </g>
 <defs>
  <clipPath id="p4f5147dad9">
   <rect height="136.764" width="418.32" x="60.48" y="206.0892"/>
  </clipPath>
  <clipPath id="p5ccec15d56">
   <rect height="136.764" width="418.32" x="60.48" y="383.8824"/>
  </clipPath>
  <clipPath id="p4a0d35b7e2">
   <rect height="136.764" width="418.32" x="60.48" y="28.296"/>
  </clipPath>
 </defs>
</svg>
