<?xml version="1.0" encoding="utf-8" standalone="no"?>
<!DOCTYPE svg PUBLIC "-//W3C//DTD SVG 1.1//EN"
  "http://www.w3.org/Graphics/SVG/1.1/DTD/svg11.dtd">
<!-- Created with matplotlib (https://matplotlib.org/) -->
<svg height="576pt" version="1.1" viewBox="0 0 504 576" width="504pt" xmlns="http://www.w3.org/2000/svg" xmlns:xlink="http://www.w3.org/1999/xlink">
 <defs>
  <style type="text/css">
*{stroke-linecap:butt;stroke-linejoin:round;white-space:pre;}
  </style>
 </defs>
 <g id="figure_1">
  <g id="patch_1">
   <path d="M 0 576 
L 504 576 
L 504 0 
L 0 0 
z
" style="fill:#ffffff;"/>
  </g>
  <g id="axes_1">
   <g id="patch_2">
    <path d="M 63 179.967062 
L 453.6 179.967062 
L 453.6 69.12 
L 63 69.12 
z
" style="fill:#ffffff;"/>
   </g>
   <g id="matplotlib.axis_1">
    <g id="xtick_1">
     <g id="line2d_1">
      <defs>
       <path d="M 0 0 
L 0 6 
" id="m6c773196e4" style="stroke:#262626;stroke-width:1.25;"/>
      </defs>
      <g>
       <use style="fill:#262626;stroke:#262626;stroke-width:1.25;" x="77.466667" xlink:href="#m6c773196e4" y="179.967062"/>
      </g>
     </g>
     <g id="text_1">
      <!-- 2 -->
      <defs>
       <path d="M 50.34375 8.453125 
L 50.34375 0 
L 3.03125 0 
Q 2.9375 3.171875 4.046875 6.109375 
Q 5.859375 10.9375 9.828125 15.625 
Q 13.8125 20.3125 21.34375 26.46875 
Q 33.015625 36.03125 37.109375 41.625 
Q 41.21875 47.21875 41.21875 52.203125 
Q 41.21875 57.421875 37.46875 61 
Q 33.734375 64.59375 27.734375 64.59375 
Q 21.390625 64.59375 17.578125 60.78125 
Q 13.765625 56.984375 13.71875 50.25 
L 4.6875 51.171875 
Q 5.609375 61.28125 11.65625 66.578125 
Q 17.71875 71.875 27.9375 71.875 
Q 38.234375 71.875 44.234375 66.15625 
Q 50.25 60.453125 50.25 52 
Q 50.25 47.703125 48.484375 43.546875 
Q 46.734375 39.40625 42.65625 34.8125 
Q 38.578125 30.21875 29.109375 22.21875 
Q 21.1875 15.578125 18.9375 13.203125 
Q 16.703125 10.84375 15.234375 8.453125 
z
" id="ArialMT-50"/>
      </defs>
      <g style="fill:#262626;" transform="translate(74.408151 197.340656)scale(0.11 -0.11)">
       <use xlink:href="#ArialMT-50"/>
      </g>
     </g>
    </g>
    <g id="xtick_2">
     <g id="line2d_2">
      <g>
       <use style="fill:#262626;stroke:#262626;stroke-width:1.25;" x="135.333333" xlink:href="#m6c773196e4" y="179.967062"/>
      </g>
     </g>
     <g id="text_2">
      <!-- 4 -->
      <defs>
       <path d="M 32.328125 0 
L 32.328125 17.140625 
L 1.265625 17.140625 
L 1.265625 25.203125 
L 33.9375 71.578125 
L 41.109375 71.578125 
L 41.109375 25.203125 
L 50.78125 25.203125 
L 50.78125 17.140625 
L 41.109375 17.140625 
L 41.109375 0 
z
M 32.328125 25.203125 
L 32.328125 57.46875 
L 9.90625 25.203125 
z
" id="ArialMT-52"/>
      </defs>
      <g style="fill:#262626;" transform="translate(132.274818 197.340656)scale(0.11 -0.11)">
       <use xlink:href="#ArialMT-52"/>
      </g>
     </g>
    </g>
    <g id="xtick_3">
     <g id="line2d_3">
      <g>
       <use style="fill:#262626;stroke:#262626;stroke-width:1.25;" x="193.2" xlink:href="#m6c773196e4" y="179.967062"/>
      </g>
     </g>
     <g id="text_3">
      <!-- 6 -->
      <defs>
       <path d="M 49.75 54.046875 
L 41.015625 53.375 
Q 39.84375 58.546875 37.703125 60.890625 
Q 34.125 64.65625 28.90625 64.65625 
Q 24.703125 64.65625 21.53125 62.3125 
Q 17.390625 59.28125 14.984375 53.46875 
Q 12.59375 47.65625 12.5 36.921875 
Q 15.671875 41.75 20.265625 44.09375 
Q 24.859375 46.4375 29.890625 46.4375 
Q 38.671875 46.4375 44.84375 39.96875 
Q 51.03125 33.5 51.03125 23.25 
Q 51.03125 16.5 48.125 10.71875 
Q 45.21875 4.9375 40.140625 1.859375 
Q 35.0625 -1.21875 28.609375 -1.21875 
Q 17.625 -1.21875 10.6875 6.859375 
Q 3.765625 14.9375 3.765625 33.5 
Q 3.765625 54.25 11.421875 63.671875 
Q 18.109375 71.875 29.4375 71.875 
Q 37.890625 71.875 43.28125 67.140625 
Q 48.6875 62.40625 49.75 54.046875 
z
M 13.875 23.1875 
Q 13.875 18.65625 15.796875 14.5 
Q 17.71875 10.359375 21.1875 8.171875 
Q 24.65625 6 28.46875 6 
Q 34.03125 6 38.03125 10.484375 
Q 42.046875 14.984375 42.046875 22.703125 
Q 42.046875 30.125 38.078125 34.390625 
Q 34.125 38.671875 28.125 38.671875 
Q 22.171875 38.671875 18.015625 34.390625 
Q 13.875 30.125 13.875 23.1875 
z
" id="ArialMT-54"/>
      </defs>
      <g style="fill:#262626;" transform="translate(190.141484 197.340656)scale(0.11 -0.11)">
       <use xlink:href="#ArialMT-54"/>
      </g>
     </g>
    </g>
    <g id="xtick_4">
     <g id="line2d_4">
      <g>
       <use style="fill:#262626;stroke:#262626;stroke-width:1.25;" x="251.066667" xlink:href="#m6c773196e4" y="179.967062"/>
      </g>
     </g>
     <g id="text_4">
      <!-- 8 -->
      <defs>
       <path d="M 17.671875 38.8125 
Q 12.203125 40.828125 9.5625 44.53125 
Q 6.9375 48.25 6.9375 53.421875 
Q 6.9375 61.234375 12.546875 66.546875 
Q 18.171875 71.875 27.484375 71.875 
Q 36.859375 71.875 42.578125 66.421875 
Q 48.296875 60.984375 48.296875 53.171875 
Q 48.296875 48.1875 45.671875 44.5 
Q 43.0625 40.828125 37.75 38.8125 
Q 44.34375 36.671875 47.78125 31.875 
Q 51.21875 27.09375 51.21875 20.453125 
Q 51.21875 11.28125 44.71875 5.03125 
Q 38.234375 -1.21875 27.640625 -1.21875 
Q 17.046875 -1.21875 10.546875 5.046875 
Q 4.046875 11.328125 4.046875 20.703125 
Q 4.046875 27.6875 7.59375 32.390625 
Q 11.140625 37.109375 17.671875 38.8125 
z
M 15.921875 53.71875 
Q 15.921875 48.640625 19.1875 45.40625 
Q 22.46875 42.1875 27.6875 42.1875 
Q 32.765625 42.1875 36.015625 45.375 
Q 39.265625 48.578125 39.265625 53.21875 
Q 39.265625 58.0625 35.90625 61.359375 
Q 32.5625 64.65625 27.59375 64.65625 
Q 22.5625 64.65625 19.234375 61.421875 
Q 15.921875 58.203125 15.921875 53.71875 
z
M 13.09375 20.65625 
Q 13.09375 16.890625 14.875 13.375 
Q 16.65625 9.859375 20.171875 7.921875 
Q 23.6875 6 27.734375 6 
Q 34.03125 6 38.125 10.046875 
Q 42.234375 14.109375 42.234375 20.359375 
Q 42.234375 26.703125 38.015625 30.859375 
Q 33.796875 35.015625 27.4375 35.015625 
Q 21.234375 35.015625 17.15625 30.90625 
Q 13.09375 26.8125 13.09375 20.65625 
z
" id="ArialMT-56"/>
      </defs>
      <g style="fill:#262626;" transform="translate(248.008151 197.340656)scale(0.11 -0.11)">
       <use xlink:href="#ArialMT-56"/>
      </g>
     </g>
    </g>
    <g id="xtick_5">
     <g id="line2d_5">
      <g>
       <use style="fill:#262626;stroke:#262626;stroke-width:1.25;" x="308.933333" xlink:href="#m6c773196e4" y="179.967062"/>
      </g>
     </g>
     <g id="text_5">
      <!-- 10 -->
      <defs>
       <path d="M 37.25 0 
L 28.46875 0 
L 28.46875 56 
Q 25.296875 52.984375 20.140625 49.953125 
Q 14.984375 46.921875 10.890625 45.40625 
L 10.890625 53.90625 
Q 18.265625 57.375 23.78125 62.296875 
Q 29.296875 67.234375 31.59375 71.875 
L 37.25 71.875 
z
" id="ArialMT-49"/>
       <path d="M 4.15625 35.296875 
Q 4.15625 48 6.765625 55.734375 
Q 9.375 63.484375 14.515625 67.671875 
Q 19.671875 71.875 27.484375 71.875 
Q 33.25 71.875 37.59375 69.546875 
Q 41.9375 67.234375 44.765625 62.859375 
Q 47.609375 58.5 49.21875 52.21875 
Q 50.828125 45.953125 50.828125 35.296875 
Q 50.828125 22.703125 48.234375 14.96875 
Q 45.65625 7.234375 40.5 3 
Q 35.359375 -1.21875 27.484375 -1.21875 
Q 17.140625 -1.21875 11.234375 6.203125 
Q 4.15625 15.140625 4.15625 35.296875 
z
M 13.1875 35.296875 
Q 13.1875 17.671875 17.3125 11.828125 
Q 21.4375 6 27.484375 6 
Q 33.546875 6 37.671875 11.859375 
Q 41.796875 17.71875 41.796875 35.296875 
Q 41.796875 52.984375 37.671875 58.78125 
Q 33.546875 64.59375 27.390625 64.59375 
Q 21.34375 64.59375 17.71875 59.46875 
Q 13.1875 52.9375 13.1875 35.296875 
z
" id="ArialMT-48"/>
      </defs>
      <g style="fill:#262626;" transform="translate(302.816302 197.340656)scale(0.11 -0.11)">
       <use xlink:href="#ArialMT-49"/>
       <use x="55.615234" xlink:href="#ArialMT-48"/>
      </g>
     </g>
    </g>
    <g id="xtick_6">
     <g id="line2d_6">
      <g>
       <use style="fill:#262626;stroke:#262626;stroke-width:1.25;" x="366.8" xlink:href="#m6c773196e4" y="179.967062"/>
      </g>
     </g>
     <g id="text_6">
      <!-- 12 -->
      <g style="fill:#262626;" transform="translate(360.682969 197.340656)scale(0.11 -0.11)">
       <use xlink:href="#ArialMT-49"/>
       <use x="55.615234" xlink:href="#ArialMT-50"/>
      </g>
     </g>
    </g>
    <g id="xtick_7">
     <g id="line2d_7">
      <g>
       <use style="fill:#262626;stroke:#262626;stroke-width:1.25;" x="424.666667" xlink:href="#m6c773196e4" y="179.967062"/>
      </g>
     </g>
     <g id="text_7">
      <!-- 14 -->
      <g style="fill:#262626;" transform="translate(418.549635 197.340656)scale(0.11 -0.11)">
       <use xlink:href="#ArialMT-49"/>
       <use x="55.615234" xlink:href="#ArialMT-52"/>
      </g>
     </g>
    </g>
    <g id="text_8">
     <!-- $T_e$ [eV] -->
     <defs>
      <path d="M 5.90625 72.90625 
L 67.578125 72.90625 
L 66.015625 64.59375 
L 39.984375 64.59375 
L 27.484375 0 
L 17.578125 0 
L 30.078125 64.59375 
L 4.296875 64.59375 
z
" id="DejaVuSans-Oblique-84"/>
      <path d="M 48.09375 32.234375 
Q 48.25 33.015625 48.3125 33.84375 
Q 48.390625 34.671875 48.390625 35.5 
Q 48.390625 41.453125 44.890625 44.921875 
Q 41.40625 48.390625 35.40625 48.390625 
Q 28.71875 48.390625 23.578125 44.15625 
Q 18.453125 39.9375 15.828125 32.171875 
z
M 55.90625 25.203125 
L 14.109375 25.203125 
Q 13.8125 23.34375 13.71875 22.265625 
Q 13.625 21.1875 13.625 20.40625 
Q 13.625 13.625 17.796875 9.90625 
Q 21.96875 6.203125 29.59375 6.203125 
Q 35.453125 6.203125 40.671875 7.515625 
Q 45.90625 8.84375 50.390625 11.375 
L 48.6875 2.484375 
Q 43.84375 0.53125 38.6875 -0.4375 
Q 33.546875 -1.421875 28.21875 -1.421875 
Q 16.84375 -1.421875 10.71875 4.015625 
Q 4.59375 9.46875 4.59375 19.484375 
Q 4.59375 28.03125 7.640625 35.375 
Q 10.6875 42.71875 16.609375 48.484375 
Q 20.40625 52.09375 25.65625 54.046875 
Q 30.90625 56 36.8125 56 
Q 46.09375 56 51.578125 50.4375 
Q 57.078125 44.875 57.078125 35.5 
Q 57.078125 33.25 56.78125 30.6875 
Q 56.5 28.125 55.90625 25.203125 
z
" id="DejaVuSans-Oblique-101"/>
      <path id="ArialMT-32"/>
      <path d="M 6.78125 -19.875 
L 6.78125 71.578125 
L 26.171875 71.578125 
L 26.171875 64.3125 
L 15.578125 64.3125 
L 15.578125 -12.59375 
L 26.171875 -12.59375 
L 26.171875 -19.875 
z
" id="ArialMT-91"/>
      <path d="M 42.09375 16.703125 
L 51.171875 15.578125 
Q 49.03125 7.625 43.21875 3.21875 
Q 37.40625 -1.171875 28.375 -1.171875 
Q 17 -1.171875 10.328125 5.828125 
Q 3.65625 12.84375 3.65625 25.484375 
Q 3.65625 38.578125 10.390625 45.796875 
Q 17.140625 53.03125 27.875 53.03125 
Q 38.28125 53.03125 44.875 45.953125 
Q 51.46875 38.875 51.46875 26.03125 
Q 51.46875 25.25 51.421875 23.6875 
L 12.75 23.6875 
Q 13.234375 15.140625 17.578125 10.59375 
Q 21.921875 6.0625 28.421875 6.0625 
Q 33.25 6.0625 36.671875 8.59375 
Q 40.09375 11.140625 42.09375 16.703125 
z
M 13.234375 30.90625 
L 42.1875 30.90625 
Q 41.609375 37.453125 38.875 40.71875 
Q 34.671875 45.796875 27.984375 45.796875 
Q 21.921875 45.796875 17.796875 41.75 
Q 13.671875 37.703125 13.234375 30.90625 
z
" id="ArialMT-101"/>
      <path d="M 28.171875 0 
L 0.4375 71.578125 
L 10.6875 71.578125 
L 29.296875 19.578125 
Q 31.546875 13.328125 33.0625 7.859375 
Q 34.71875 13.71875 36.921875 19.578125 
L 56.25 71.578125 
L 65.921875 71.578125 
L 37.890625 0 
z
" id="ArialMT-86"/>
      <path d="M 21.296875 -19.875 
L 1.90625 -19.875 
L 1.90625 -12.59375 
L 12.5 -12.59375 
L 12.5 64.3125 
L 1.90625 64.3125 
L 1.90625 71.578125 
L 21.296875 71.578125 
z
" id="ArialMT-93"/>
     </defs>
     <g style="fill:#262626;" transform="translate(242.65 210.826906)scale(0.1 -0.1)">
      <use transform="translate(0 0.09375)" xlink:href="#DejaVuSans-Oblique-84"/>
      <use transform="translate(61.083984 -16.3125)scale(0.7)" xlink:href="#DejaVuSans-Oblique-101"/>
      <use transform="translate(106.884766 0.09375)" xlink:href="#ArialMT-32"/>
      <use transform="translate(134.667969 0.09375)" xlink:href="#ArialMT-91"/>
      <use transform="translate(162.451172 0.09375)" xlink:href="#ArialMT-101"/>
      <use transform="translate(218.066406 0.09375)" xlink:href="#ArialMT-86"/>
      <use transform="translate(284.765625 0.09375)" xlink:href="#ArialMT-93"/>
     </g>
    </g>
   </g>
   <g id="matplotlib.axis_2">
    <g id="ytick_1">
     <g id="line2d_8">
      <defs>
       <path d="M 0 0 
L -6 0 
" id="mb191bd7c57" style="stroke:#262626;stroke-width:1.25;"/>
      </defs>
      <g>
       <use style="fill:#262626;stroke:#262626;stroke-width:1.25;" x="63" xlink:href="#mb191bd7c57" y="179.967062"/>
      </g>
     </g>
     <g id="text_9">
      <!-- 0.0 -->
      <defs>
       <path d="M 9.078125 0 
L 9.078125 10.015625 
L 19.09375 10.015625 
L 19.09375 0 
z
" id="ArialMT-46"/>
      </defs>
      <g style="fill:#262626;" transform="translate(38.21 183.903859)scale(0.11 -0.11)">
       <use xlink:href="#ArialMT-48"/>
       <use x="55.615234" xlink:href="#ArialMT-46"/>
       <use x="83.398438" xlink:href="#ArialMT-48"/>
      </g>
     </g>
    </g>
    <g id="ytick_2">
     <g id="line2d_9">
      <g>
       <use style="fill:#262626;stroke:#262626;stroke-width:1.25;" x="63" xlink:href="#mb191bd7c57" y="151.253092"/>
      </g>
     </g>
     <g id="text_10">
      <!-- 0.1 -->
      <g style="fill:#262626;" transform="translate(38.21 155.189889)scale(0.11 -0.11)">
       <use xlink:href="#ArialMT-48"/>
       <use x="55.615234" xlink:href="#ArialMT-46"/>
       <use x="83.398438" xlink:href="#ArialMT-49"/>
      </g>
     </g>
    </g>
    <g id="ytick_3">
     <g id="line2d_10">
      <g>
       <use style="fill:#262626;stroke:#262626;stroke-width:1.25;" x="63" xlink:href="#mb191bd7c57" y="122.539122"/>
      </g>
     </g>
     <g id="text_11">
      <!-- 0.2 -->
      <g style="fill:#262626;" transform="translate(38.21 126.475919)scale(0.11 -0.11)">
       <use xlink:href="#ArialMT-48"/>
       <use x="55.615234" xlink:href="#ArialMT-46"/>
       <use x="83.398438" xlink:href="#ArialMT-50"/>
      </g>
     </g>
    </g>
    <g id="ytick_4">
     <g id="line2d_11">
      <g>
       <use style="fill:#262626;stroke:#262626;stroke-width:1.25;" x="63" xlink:href="#mb191bd7c57" y="93.825152"/>
      </g>
     </g>
     <g id="text_12">
      <!-- 0.3 -->
      <defs>
       <path d="M 4.203125 18.890625 
L 12.984375 20.0625 
Q 14.5 12.59375 18.140625 9.296875 
Q 21.78125 6 27 6 
Q 33.203125 6 37.46875 10.296875 
Q 41.75 14.59375 41.75 20.953125 
Q 41.75 27 37.796875 30.921875 
Q 33.84375 34.859375 27.734375 34.859375 
Q 25.25 34.859375 21.53125 33.890625 
L 22.515625 41.609375 
Q 23.390625 41.5 23.921875 41.5 
Q 29.546875 41.5 34.03125 44.421875 
Q 38.53125 47.359375 38.53125 53.46875 
Q 38.53125 58.296875 35.25 61.46875 
Q 31.984375 64.65625 26.8125 64.65625 
Q 21.6875 64.65625 18.265625 61.421875 
Q 14.84375 58.203125 13.875 51.765625 
L 5.078125 53.328125 
Q 6.6875 62.15625 12.390625 67.015625 
Q 18.109375 71.875 26.609375 71.875 
Q 32.46875 71.875 37.390625 69.359375 
Q 42.328125 66.84375 44.9375 62.5 
Q 47.5625 58.15625 47.5625 53.265625 
Q 47.5625 48.640625 45.0625 44.828125 
Q 42.578125 41.015625 37.703125 38.765625 
Q 44.046875 37.3125 47.5625 32.6875 
Q 51.078125 28.078125 51.078125 21.140625 
Q 51.078125 11.765625 44.234375 5.25 
Q 37.40625 -1.265625 26.953125 -1.265625 
Q 17.53125 -1.265625 11.296875 4.34375 
Q 5.078125 9.96875 4.203125 18.890625 
z
" id="ArialMT-51"/>
      </defs>
      <g style="fill:#262626;" transform="translate(38.21 97.761949)scale(0.11 -0.11)">
       <use xlink:href="#ArialMT-48"/>
       <use x="55.615234" xlink:href="#ArialMT-46"/>
       <use x="83.398438" xlink:href="#ArialMT-51"/>
      </g>
     </g>
    </g>
    <g id="text_13">
     <!-- P (unnormalized) -->
     <defs>
      <path d="M 7.71875 0 
L 7.71875 71.578125 
L 34.71875 71.578125 
Q 41.84375 71.578125 45.609375 70.90625 
Q 50.875 70.015625 54.4375 67.546875 
Q 58.015625 65.09375 60.1875 60.640625 
Q 62.359375 56.203125 62.359375 50.875 
Q 62.359375 41.75 56.546875 35.421875 
Q 50.734375 29.109375 35.546875 29.109375 
L 17.1875 29.109375 
L 17.1875 0 
z
M 17.1875 37.546875 
L 35.6875 37.546875 
Q 44.875 37.546875 48.734375 40.96875 
Q 52.59375 44.390625 52.59375 50.59375 
Q 52.59375 55.078125 50.3125 58.265625 
Q 48.046875 61.46875 44.34375 62.5 
Q 41.9375 63.140625 35.5 63.140625 
L 17.1875 63.140625 
z
" id="ArialMT-80"/>
      <path d="M 23.390625 -21.046875 
Q 16.109375 -11.859375 11.078125 0.4375 
Q 6.0625 12.75 6.0625 25.921875 
Q 6.0625 37.546875 9.8125 48.1875 
Q 14.203125 60.546875 23.390625 72.796875 
L 29.6875 72.796875 
Q 23.78125 62.640625 21.875 58.296875 
Q 18.890625 51.5625 17.1875 44.234375 
Q 15.09375 35.109375 15.09375 25.875 
Q 15.09375 2.390625 29.6875 -21.046875 
z
" id="ArialMT-40"/>
      <path d="M 40.578125 0 
L 40.578125 7.625 
Q 34.515625 -1.171875 24.125 -1.171875 
Q 19.53125 -1.171875 15.546875 0.578125 
Q 11.578125 2.34375 9.640625 5 
Q 7.71875 7.671875 6.9375 11.53125 
Q 6.390625 14.109375 6.390625 19.734375 
L 6.390625 51.859375 
L 15.1875 51.859375 
L 15.1875 23.09375 
Q 15.1875 16.21875 15.71875 13.8125 
Q 16.546875 10.359375 19.234375 8.375 
Q 21.921875 6.390625 25.875 6.390625 
Q 29.828125 6.390625 33.296875 8.421875 
Q 36.765625 10.453125 38.203125 13.9375 
Q 39.65625 17.4375 39.65625 24.078125 
L 39.65625 51.859375 
L 48.4375 51.859375 
L 48.4375 0 
z
" id="ArialMT-117"/>
      <path d="M 6.59375 0 
L 6.59375 51.859375 
L 14.5 51.859375 
L 14.5 44.484375 
Q 20.21875 53.03125 31 53.03125 
Q 35.6875 53.03125 39.625 51.34375 
Q 43.5625 49.65625 45.515625 46.921875 
Q 47.46875 44.1875 48.25 40.4375 
Q 48.734375 37.984375 48.734375 31.890625 
L 48.734375 0 
L 39.9375 0 
L 39.9375 31.546875 
Q 39.9375 36.921875 38.90625 39.578125 
Q 37.890625 42.234375 35.28125 43.8125 
Q 32.671875 45.40625 29.15625 45.40625 
Q 23.53125 45.40625 19.453125 41.84375 
Q 15.375 38.28125 15.375 28.328125 
L 15.375 0 
z
" id="ArialMT-110"/>
      <path d="M 3.328125 25.921875 
Q 3.328125 40.328125 11.328125 47.265625 
Q 18.015625 53.03125 27.640625 53.03125 
Q 38.328125 53.03125 45.109375 46.015625 
Q 51.90625 39.015625 51.90625 26.65625 
Q 51.90625 16.65625 48.90625 10.90625 
Q 45.90625 5.171875 40.15625 2 
Q 34.421875 -1.171875 27.640625 -1.171875 
Q 16.75 -1.171875 10.03125 5.8125 
Q 3.328125 12.796875 3.328125 25.921875 
z
M 12.359375 25.921875 
Q 12.359375 15.96875 16.703125 11.015625 
Q 21.046875 6.0625 27.640625 6.0625 
Q 34.1875 6.0625 38.53125 11.03125 
Q 42.875 16.015625 42.875 26.21875 
Q 42.875 35.84375 38.5 40.796875 
Q 34.125 45.75 27.640625 45.75 
Q 21.046875 45.75 16.703125 40.8125 
Q 12.359375 35.890625 12.359375 25.921875 
z
" id="ArialMT-111"/>
      <path d="M 6.5 0 
L 6.5 51.859375 
L 14.40625 51.859375 
L 14.40625 44 
Q 17.4375 49.515625 20 51.265625 
Q 22.5625 53.03125 25.640625 53.03125 
Q 30.078125 53.03125 34.671875 50.203125 
L 31.640625 42.046875 
Q 28.421875 43.953125 25.203125 43.953125 
Q 22.3125 43.953125 20.015625 42.21875 
Q 17.71875 40.484375 16.75 37.40625 
Q 15.28125 32.71875 15.28125 27.15625 
L 15.28125 0 
z
" id="ArialMT-114"/>
      <path d="M 6.59375 0 
L 6.59375 51.859375 
L 14.453125 51.859375 
L 14.453125 44.578125 
Q 16.890625 48.390625 20.9375 50.703125 
Q 25 53.03125 30.171875 53.03125 
Q 35.9375 53.03125 39.625 50.640625 
Q 43.3125 48.25 44.828125 43.953125 
Q 50.984375 53.03125 60.84375 53.03125 
Q 68.5625 53.03125 72.703125 48.75 
Q 76.859375 44.484375 76.859375 35.59375 
L 76.859375 0 
L 68.109375 0 
L 68.109375 32.671875 
Q 68.109375 37.9375 67.25 40.25 
Q 66.40625 42.578125 64.15625 43.984375 
Q 61.921875 45.40625 58.890625 45.40625 
Q 53.421875 45.40625 49.796875 41.765625 
Q 46.1875 38.140625 46.1875 30.125 
L 46.1875 0 
L 37.40625 0 
L 37.40625 33.6875 
Q 37.40625 39.546875 35.25 42.46875 
Q 33.109375 45.40625 28.21875 45.40625 
Q 24.515625 45.40625 21.359375 43.453125 
Q 18.21875 41.5 16.796875 37.734375 
Q 15.375 33.984375 15.375 26.90625 
L 15.375 0 
z
" id="ArialMT-109"/>
      <path d="M 40.4375 6.390625 
Q 35.546875 2.25 31.03125 0.53125 
Q 26.515625 -1.171875 21.34375 -1.171875 
Q 12.796875 -1.171875 8.203125 3 
Q 3.609375 7.171875 3.609375 13.671875 
Q 3.609375 17.484375 5.34375 20.625 
Q 7.078125 23.78125 9.890625 25.6875 
Q 12.703125 27.59375 16.21875 28.5625 
Q 18.796875 29.25 24.03125 29.890625 
Q 34.671875 31.15625 39.703125 32.90625 
Q 39.75 34.71875 39.75 35.203125 
Q 39.75 40.578125 37.25 42.78125 
Q 33.890625 45.75 27.25 45.75 
Q 21.046875 45.75 18.09375 43.578125 
Q 15.140625 41.40625 13.71875 35.890625 
L 5.125 37.0625 
Q 6.296875 42.578125 8.984375 45.96875 
Q 11.671875 49.359375 16.75 51.1875 
Q 21.828125 53.03125 28.515625 53.03125 
Q 35.15625 53.03125 39.296875 51.46875 
Q 43.453125 49.90625 45.40625 47.53125 
Q 47.359375 45.171875 48.140625 41.546875 
Q 48.578125 39.3125 48.578125 33.453125 
L 48.578125 21.734375 
Q 48.578125 9.46875 49.140625 6.21875 
Q 49.703125 2.984375 51.375 0 
L 42.1875 0 
Q 40.828125 2.734375 40.4375 6.390625 
z
M 39.703125 26.03125 
Q 34.90625 24.078125 25.34375 22.703125 
Q 19.921875 21.921875 17.671875 20.9375 
Q 15.4375 19.96875 14.203125 18.09375 
Q 12.984375 16.21875 12.984375 13.921875 
Q 12.984375 10.40625 15.640625 8.0625 
Q 18.3125 5.71875 23.4375 5.71875 
Q 28.515625 5.71875 32.46875 7.9375 
Q 36.421875 10.15625 38.28125 14.015625 
Q 39.703125 17 39.703125 22.796875 
z
" id="ArialMT-97"/>
      <path d="M 6.390625 0 
L 6.390625 71.578125 
L 15.1875 71.578125 
L 15.1875 0 
z
" id="ArialMT-108"/>
      <path d="M 6.640625 61.46875 
L 6.640625 71.578125 
L 15.4375 71.578125 
L 15.4375 61.46875 
z
M 6.640625 0 
L 6.640625 51.859375 
L 15.4375 51.859375 
L 15.4375 0 
z
" id="ArialMT-105"/>
      <path d="M 1.953125 0 
L 1.953125 7.125 
L 34.96875 45.015625 
Q 29.34375 44.734375 25.046875 44.734375 
L 3.90625 44.734375 
L 3.90625 51.859375 
L 46.296875 51.859375 
L 46.296875 46.046875 
L 18.21875 13.140625 
L 12.796875 7.125 
Q 18.703125 7.5625 23.875 7.5625 
L 47.859375 7.5625 
L 47.859375 0 
z
" id="ArialMT-122"/>
      <path d="M 40.234375 0 
L 40.234375 6.546875 
Q 35.296875 -1.171875 25.734375 -1.171875 
Q 19.53125 -1.171875 14.328125 2.25 
Q 9.125 5.671875 6.265625 11.796875 
Q 3.421875 17.921875 3.421875 25.875 
Q 3.421875 33.640625 6 39.96875 
Q 8.59375 46.296875 13.765625 49.65625 
Q 18.953125 53.03125 25.34375 53.03125 
Q 30.03125 53.03125 33.6875 51.046875 
Q 37.359375 49.078125 39.65625 45.90625 
L 39.65625 71.578125 
L 48.390625 71.578125 
L 48.390625 0 
z
M 12.453125 25.875 
Q 12.453125 15.921875 16.640625 10.984375 
Q 20.84375 6.0625 26.5625 6.0625 
Q 32.328125 6.0625 36.34375 10.765625 
Q 40.375 15.484375 40.375 25.140625 
Q 40.375 35.796875 36.265625 40.765625 
Q 32.171875 45.75 26.171875 45.75 
Q 20.3125 45.75 16.375 40.96875 
Q 12.453125 36.1875 12.453125 25.875 
z
" id="ArialMT-100"/>
      <path d="M 12.359375 -21.046875 
L 6.0625 -21.046875 
Q 20.65625 2.390625 20.65625 25.875 
Q 20.65625 35.0625 18.5625 44.09375 
Q 16.890625 51.421875 13.921875 58.15625 
Q 12.015625 62.546875 6.0625 72.796875 
L 12.359375 72.796875 
Q 21.53125 60.546875 25.921875 48.1875 
Q 29.6875 37.546875 29.6875 25.921875 
Q 29.6875 12.75 24.625 0.4375 
Q 19.578125 -11.859375 12.359375 -21.046875 
z
" id="ArialMT-41"/>
     </defs>
     <g style="fill:#262626;" transform="translate(32.105312 162.6115)rotate(-90)scale(0.1 -0.1)">
      <use xlink:href="#ArialMT-80"/>
      <use x="66.683594" xlink:href="#ArialMT-32"/>
      <use x="94.466797" xlink:href="#ArialMT-40"/>
      <use x="127.767578" xlink:href="#ArialMT-117"/>
      <use x="183.382812" xlink:href="#ArialMT-110"/>
      <use x="238.998047" xlink:href="#ArialMT-110"/>
      <use x="294.613281" xlink:href="#ArialMT-111"/>
      <use x="350.228516" xlink:href="#ArialMT-114"/>
      <use x="383.529297" xlink:href="#ArialMT-109"/>
      <use x="466.830078" xlink:href="#ArialMT-97"/>
      <use x="522.445312" xlink:href="#ArialMT-108"/>
      <use x="544.662109" xlink:href="#ArialMT-105"/>
      <use x="566.878906" xlink:href="#ArialMT-122"/>
      <use x="616.878906" xlink:href="#ArialMT-101"/>
      <use x="672.494141" xlink:href="#ArialMT-100"/>
      <use x="728.109375" xlink:href="#ArialMT-41"/>
     </g>
    </g>
   </g>
   <g id="line2d_12">
    <path clip-path="url(#p395e1e1c4c)" d="M 9.922073 179.966003 
L 18.221979 179.829545 
L 23.755249 179.768818 
L 32.055154 179.954798 
L 62.48814 179.954531 
L 84.621221 179.678238 
L 95.687761 178.862485 
L 103.987666 177.945453 
L 106.754302 177.404984 
L 109.520937 176.582867 
L 115.054207 174.298718 
L 120.587477 172.581427 
L 123.354112 171.440251 
L 131.654017 166.990317 
L 134.420652 165.073993 
L 137.187287 162.485368 
L 145.487193 153.623692 
L 148.253828 150.160142 
L 153.787098 142.3781 
L 156.553733 138.0637 
L 159.320368 132.776755 
L 164.853638 120.0081 
L 167.620273 114.148471 
L 170.386909 109.180515 
L 173.153544 105.203834 
L 181.453449 93.996297 
L 186.986719 84.737748 
L 189.753354 81.411273 
L 192.519989 78.324863 
L 195.286624 75.57914 
L 198.053259 74.398432 
L 200.819895 74.401516 
L 203.58653 75.158447 
L 206.353165 77.110166 
L 209.1198 80.40265 
L 211.886435 85.091827 
L 214.65307 90.462071 
L 217.419705 95.049089 
L 220.18634 98.522002 
L 222.952975 102.935029 
L 225.71961 109.041214 
L 228.486245 114.861421 
L 231.25288 119.542133 
L 234.019516 123.870447 
L 236.786151 128.822718 
L 242.319421 139.846893 
L 247.852691 149.364211 
L 250.619326 153.808003 
L 253.385961 157.724829 
L 256.152596 161.138534 
L 258.919231 164.019225 
L 261.685866 166.288766 
L 264.452502 168.24746 
L 267.219137 169.880542 
L 272.752407 172.536195 
L 275.519042 173.986192 
L 278.285677 175.234277 
L 281.052312 176.099701 
L 289.352217 178.01428 
L 294.885487 178.629817 
L 305.952028 179.508034 
L 319.785203 179.913027 
L 336.385014 179.965685 
L 361.28473 179.966681 
L 361.28473 179.966681 
" style="fill:none;stroke:#4c72b0;stroke-linecap:round;stroke-width:1.5;"/>
   </g>
   <g id="line2d_13">
    <path clip-path="url(#p395e1e1c4c)" d="M 93.666117 179.966875 
L 125.997236 179.868126 
L 130.971254 179.692509 
L 143.4063 179.004806 
L 148.380318 178.197836 
L 155.841346 176.978009 
L 163.302373 175.933017 
L 165.789383 175.394522 
L 168.276392 174.60555 
L 170.763401 173.51106 
L 173.25041 172.076331 
L 178.224429 168.800706 
L 183.198447 166.178698 
L 185.685456 164.440162 
L 188.172465 162.017259 
L 190.659474 159.273229 
L 193.146484 156.781792 
L 198.120502 152.696368 
L 200.607511 149.913129 
L 203.09452 146.083087 
L 210.555548 132.851687 
L 215.529566 124.249882 
L 218.016575 119.892956 
L 220.503584 115.897552 
L 222.990594 112.323491 
L 225.477603 109.071379 
L 230.451621 103.532758 
L 232.93863 99.991519 
L 235.425639 95.04171 
L 237.912649 89.828019 
L 240.399658 85.958203 
L 242.886667 83.844215 
L 245.373676 82.950167 
L 247.860685 82.856984 
L 250.347694 83.407125 
L 252.834704 84.333073 
L 260.295731 87.624184 
L 265.269749 88.301289 
L 267.756759 90.235733 
L 270.243768 94.116041 
L 272.730777 98.424687 
L 275.217786 102.145341 
L 277.704795 105.640264 
L 280.191804 109.418253 
L 282.678814 113.548501 
L 285.165823 118.191909 
L 287.652832 123.544676 
L 290.139841 129.276641 
L 292.62685 134.726774 
L 295.113859 139.432756 
L 297.600869 143.292292 
L 300.087878 146.412461 
L 305.061896 151.947425 
L 310.035915 158.724814 
L 312.522924 161.591471 
L 315.009933 163.605463 
L 319.983951 166.823304 
L 324.95797 170.705084 
L 327.444979 172.307109 
L 329.931988 173.571039 
L 332.418997 174.572715 
L 337.393015 176.134926 
L 339.880025 176.800986 
L 342.367034 177.321309 
L 347.341052 178.008618 
L 362.263107 179.504301 
L 367.237125 179.709157 
L 377.185162 179.830636 
L 392.107217 179.890277 
L 404.542263 179.961428 
L 409.516281 179.966745 
L 409.516281 179.966745 
" style="fill:none;stroke:#dd8452;stroke-linecap:round;stroke-width:1.5;"/>
   </g>
   <g id="line2d_14">
    <path clip-path="url(#p395e1e1c4c)" d="M 6.671577 179.964989 
L 14.934829 179.855889 
L 19.066455 179.758977 
L 39.724585 179.967027 
L 93.435724 179.864073 
L 101.698976 179.684732 
L 109.962228 179.605953 
L 130.620358 178.862747 
L 134.751984 178.455985 
L 143.015236 177.3298 
L 147.146862 177.043819 
L 151.278488 176.949064 
L 155.410114 176.584574 
L 159.54174 175.707871 
L 163.673366 174.520465 
L 176.068244 170.118552 
L 180.19987 168.354329 
L 184.331497 165.694424 
L 192.594749 158.974324 
L 196.726375 155.073138 
L 200.858001 150.347425 
L 204.989627 145.191228 
L 209.121253 140.257012 
L 217.384505 131.117005 
L 221.516131 125.636292 
L 225.647757 119.463441 
L 233.911009 105.164574 
L 238.042635 99.167998 
L 242.174261 94.914626 
L 246.305887 93.320262 
L 250.437513 94.420402 
L 254.569139 95.877376 
L 258.700765 95.921883 
L 262.832391 97.955149 
L 271.095643 106.529638 
L 275.22727 111.931075 
L 287.622148 128.694984 
L 291.753774 132.939121 
L 295.8854 136.056968 
L 300.017026 140.704059 
L 304.148652 145.811199 
L 308.280278 149.226357 
L 312.411904 151.575032 
L 316.54353 154.121684 
L 320.675156 157.209046 
L 324.806782 160.580261 
L 328.938408 163.163894 
L 333.070034 164.69905 
L 337.20166 165.7518 
L 341.333286 166.995835 
L 349.596538 171.160081 
L 353.728164 172.37408 
L 357.85979 173.069136 
L 366.123043 174.13732 
L 370.254669 174.987454 
L 374.386295 175.999198 
L 378.517921 176.695227 
L 382.649547 176.942252 
L 399.176051 178.363241 
L 407.439303 178.454855 
L 411.570929 178.604634 
L 419.834181 179.136433 
L 428.097433 179.387073 
L 498.335076 179.934649 
L 505 179.922089 
L 505 179.922089 
" style="fill:none;stroke:#55a868;stroke-linecap:round;stroke-width:1.5;"/>
   </g>
   <g id="patch_3">
    <path d="M 63 179.967062 
L 63 69.12 
" style="fill:none;stroke:#262626;stroke-linecap:square;stroke-linejoin:miter;stroke-width:1.25;"/>
   </g>
   <g id="patch_4">
    <path d="M 453.6 179.967062 
L 453.6 69.12 
" style="fill:none;stroke:#262626;stroke-linecap:square;stroke-linejoin:miter;stroke-width:1.25;"/>
   </g>
   <g id="patch_5">
    <path d="M 63 179.967062 
L 453.6 179.967062 
" style="fill:none;stroke:#262626;stroke-linecap:square;stroke-linejoin:miter;stroke-width:1.25;"/>
   </g>
   <g id="patch_6">
    <path d="M 63 69.12 
L 453.6 69.12 
" style="fill:none;stroke:#262626;stroke-linecap:square;stroke-linejoin:miter;stroke-width:1.25;"/>
   </g>
   <g id="text_14">
    <!-- Fixed Maxwellian model -->
    <defs>
     <path d="M 8.203125 0 
L 8.203125 71.578125 
L 56.5 71.578125 
L 56.5 63.140625 
L 17.671875 63.140625 
L 17.671875 40.96875 
L 51.265625 40.96875 
L 51.265625 32.515625 
L 17.671875 32.515625 
L 17.671875 0 
z
" id="ArialMT-70"/>
     <path d="M 0.734375 0 
L 19.671875 26.953125 
L 2.15625 51.859375 
L 13.140625 51.859375 
L 21.09375 39.703125 
Q 23.34375 36.234375 24.703125 33.890625 
Q 26.859375 37.109375 28.65625 39.59375 
L 37.40625 51.859375 
L 47.90625 51.859375 
L 29.984375 27.4375 
L 49.265625 0 
L 38.484375 0 
L 27.828125 16.109375 
L 25 20.453125 
L 11.375 0 
z
" id="ArialMT-120"/>
     <path d="M 7.421875 0 
L 7.421875 71.578125 
L 21.6875 71.578125 
L 38.625 20.90625 
Q 40.96875 13.8125 42.046875 10.296875 
Q 43.265625 14.203125 45.84375 21.78125 
L 62.984375 71.578125 
L 75.734375 71.578125 
L 75.734375 0 
L 66.609375 0 
L 66.609375 59.90625 
L 45.796875 0 
L 37.25 0 
L 16.546875 60.9375 
L 16.546875 0 
z
" id="ArialMT-77"/>
     <path d="M 16.15625 0 
L 0.296875 51.859375 
L 9.375 51.859375 
L 17.625 21.921875 
L 20.703125 10.796875 
Q 20.90625 11.625 23.390625 21.484375 
L 31.640625 51.859375 
L 40.671875 51.859375 
L 48.4375 21.78125 
L 51.03125 11.859375 
L 54 21.875 
L 62.890625 51.859375 
L 71.4375 51.859375 
L 55.21875 0 
L 46.09375 0 
L 37.84375 31.0625 
L 35.84375 39.890625 
L 25.34375 0 
z
" id="ArialMT-119"/>
    </defs>
    <g style="fill:#262626;" transform="translate(183.607813 63.12)scale(0.14 -0.14)">
     <use xlink:href="#ArialMT-70"/>
     <use x="61.083984" xlink:href="#ArialMT-105"/>
     <use x="83.300781" xlink:href="#ArialMT-120"/>
     <use x="133.300781" xlink:href="#ArialMT-101"/>
     <use x="188.916016" xlink:href="#ArialMT-100"/>
     <use x="244.53125" xlink:href="#ArialMT-32"/>
     <use x="272.314453" xlink:href="#ArialMT-77"/>
     <use x="355.615234" xlink:href="#ArialMT-97"/>
     <use x="411.230469" xlink:href="#ArialMT-120"/>
     <use x="461.230469" xlink:href="#ArialMT-119"/>
     <use x="533.447266" xlink:href="#ArialMT-101"/>
     <use x="589.0625" xlink:href="#ArialMT-108"/>
     <use x="611.279297" xlink:href="#ArialMT-108"/>
     <use x="633.496094" xlink:href="#ArialMT-105"/>
     <use x="655.712891" xlink:href="#ArialMT-97"/>
     <use x="711.328125" xlink:href="#ArialMT-110"/>
     <use x="766.943359" xlink:href="#ArialMT-32"/>
     <use x="794.726562" xlink:href="#ArialMT-109"/>
     <use x="878.027344" xlink:href="#ArialMT-111"/>
     <use x="933.642578" xlink:href="#ArialMT-100"/>
     <use x="989.257812" xlink:href="#ArialMT-101"/>
     <use x="1044.873047" xlink:href="#ArialMT-108"/>
    </g>
   </g>
   <g id="legend_1">
    <g id="patch_7">
     <path d="M 380.747344 124.599531 
L 445.9 124.599531 
Q 448.1 124.599531 448.1 122.399531 
L 448.1 76.82 
Q 448.1 74.62 445.9 74.62 
L 380.747344 74.62 
Q 378.547344 74.62 378.547344 76.82 
L 378.547344 122.399531 
Q 378.547344 124.599531 380.747344 124.599531 
z
" style="fill:#ffffff;opacity:0.8;stroke:#cccccc;stroke-linejoin:miter;"/>
    </g>
    <g id="line2d_15">
     <path d="M 382.947344 83.043594 
L 404.947344 83.043594 
" style="fill:none;stroke:#4c72b0;stroke-linecap:round;stroke-width:1.5;"/>
    </g>
    <g id="line2d_16"/>
    <g id="text_15">
     <!-- 34 cm -->
     <defs>
      <path d="M 40.4375 19 
L 49.078125 17.875 
Q 47.65625 8.9375 41.8125 3.875 
Q 35.984375 -1.171875 27.484375 -1.171875 
Q 16.84375 -1.171875 10.375 5.78125 
Q 3.90625 12.75 3.90625 25.734375 
Q 3.90625 34.125 6.6875 40.421875 
Q 9.46875 46.734375 15.15625 49.875 
Q 20.84375 53.03125 27.546875 53.03125 
Q 35.984375 53.03125 41.359375 48.75 
Q 46.734375 44.484375 48.25 36.625 
L 39.703125 35.296875 
Q 38.484375 40.53125 35.375 43.15625 
Q 32.28125 45.796875 27.875 45.796875 
Q 21.234375 45.796875 17.078125 41.03125 
Q 12.9375 36.28125 12.9375 25.984375 
Q 12.9375 15.53125 16.9375 10.796875 
Q 20.953125 6.0625 27.390625 6.0625 
Q 32.5625 6.0625 36.03125 9.234375 
Q 39.5 12.40625 40.4375 19 
z
" id="ArialMT-99"/>
     </defs>
     <g style="fill:#262626;" transform="translate(413.747344 86.893594)scale(0.11 -0.11)">
      <use xlink:href="#ArialMT-51"/>
      <use x="55.615234" xlink:href="#ArialMT-52"/>
      <use x="111.230469" xlink:href="#ArialMT-32"/>
      <use x="139.013672" xlink:href="#ArialMT-99"/>
      <use x="189.013672" xlink:href="#ArialMT-109"/>
     </g>
    </g>
    <g id="line2d_17">
     <path d="M 382.947344 98.603438 
L 404.947344 98.603438 
" style="fill:none;stroke:#dd8452;stroke-linecap:round;stroke-width:1.5;"/>
    </g>
    <g id="line2d_18"/>
    <g id="text_16">
     <!-- 29 cm -->
     <defs>
      <path d="M 5.46875 16.546875 
L 13.921875 17.328125 
Q 14.984375 11.375 18.015625 8.6875 
Q 21.046875 6 25.78125 6 
Q 29.828125 6 32.875 7.859375 
Q 35.9375 9.71875 37.890625 12.8125 
Q 39.84375 15.921875 41.15625 21.1875 
Q 42.484375 26.46875 42.484375 31.9375 
Q 42.484375 32.515625 42.4375 33.6875 
Q 39.796875 29.5 35.234375 26.875 
Q 30.671875 24.265625 25.34375 24.265625 
Q 16.453125 24.265625 10.296875 30.703125 
Q 4.15625 37.15625 4.15625 47.703125 
Q 4.15625 58.59375 10.578125 65.234375 
Q 17 71.875 26.65625 71.875 
Q 33.640625 71.875 39.421875 68.109375 
Q 45.21875 64.359375 48.21875 57.390625 
Q 51.21875 50.4375 51.21875 37.25 
Q 51.21875 23.53125 48.234375 15.40625 
Q 45.265625 7.28125 39.375 3.03125 
Q 33.5 -1.21875 25.59375 -1.21875 
Q 17.1875 -1.21875 11.859375 3.4375 
Q 6.546875 8.109375 5.46875 16.546875 
z
M 41.453125 48.140625 
Q 41.453125 55.71875 37.421875 60.15625 
Q 33.40625 64.59375 27.734375 64.59375 
Q 21.875 64.59375 17.53125 59.8125 
Q 13.1875 55.03125 13.1875 47.40625 
Q 13.1875 40.578125 17.3125 36.296875 
Q 21.4375 32.03125 27.484375 32.03125 
Q 33.59375 32.03125 37.515625 36.296875 
Q 41.453125 40.578125 41.453125 48.140625 
z
" id="ArialMT-57"/>
     </defs>
     <g style="fill:#262626;" transform="translate(413.747344 102.453438)scale(0.11 -0.11)">
      <use xlink:href="#ArialMT-50"/>
      <use x="55.615234" xlink:href="#ArialMT-57"/>
      <use x="111.230469" xlink:href="#ArialMT-32"/>
      <use x="139.013672" xlink:href="#ArialMT-99"/>
      <use x="189.013672" xlink:href="#ArialMT-109"/>
     </g>
    </g>
    <g id="line2d_19">
     <path d="M 382.947344 114.163281 
L 404.947344 114.163281 
" style="fill:none;stroke:#55a868;stroke-linecap:round;stroke-width:1.5;"/>
    </g>
    <g id="line2d_20"/>
    <g id="text_17">
     <!-- 25 cm -->
     <defs>
      <path d="M 4.15625 18.75 
L 13.375 19.53125 
Q 14.40625 12.796875 18.140625 9.390625 
Q 21.875 6 27.15625 6 
Q 33.5 6 37.890625 10.78125 
Q 42.28125 15.578125 42.28125 23.484375 
Q 42.28125 31 38.0625 35.34375 
Q 33.84375 39.703125 27 39.703125 
Q 22.75 39.703125 19.328125 37.765625 
Q 15.921875 35.84375 13.96875 32.765625 
L 5.71875 33.84375 
L 12.640625 70.609375 
L 48.25 70.609375 
L 48.25 62.203125 
L 19.671875 62.203125 
L 15.828125 42.96875 
Q 22.265625 47.46875 29.34375 47.46875 
Q 38.71875 47.46875 45.15625 40.96875 
Q 51.609375 34.46875 51.609375 24.265625 
Q 51.609375 14.546875 45.953125 7.46875 
Q 39.0625 -1.21875 27.15625 -1.21875 
Q 17.390625 -1.21875 11.203125 4.25 
Q 5.03125 9.71875 4.15625 18.75 
z
" id="ArialMT-53"/>
     </defs>
     <g style="fill:#262626;" transform="translate(413.747344 118.013281)scale(0.11 -0.11)">
      <use xlink:href="#ArialMT-50"/>
      <use x="55.615234" xlink:href="#ArialMT-53"/>
      <use x="111.230469" xlink:href="#ArialMT-32"/>
      <use x="139.013672" xlink:href="#ArialMT-99"/>
      <use x="189.013672" xlink:href="#ArialMT-109"/>
     </g>
    </g>
   </g>
  </g>
  <g id="axes_2">
   <g id="patch_8">
    <path d="M 63 361.828268 
L 453.6 361.828268 
L 453.6 250.981206 
L 63 250.981206 
z
" style="fill:#ffffff;"/>
   </g>
   <g id="matplotlib.axis_3">
    <g id="xtick_8">
     <g id="line2d_21">
      <g>
       <use style="fill:#262626;stroke:#262626;stroke-width:1.25;" x="77.466667" xlink:href="#m6c773196e4" y="361.828268"/>
      </g>
     </g>
     <g id="text_18">
      <!-- 2 -->
      <g style="fill:#262626;" transform="translate(74.408151 379.201862)scale(0.11 -0.11)">
       <use xlink:href="#ArialMT-50"/>
      </g>
     </g>
    </g>
    <g id="xtick_9">
     <g id="line2d_22">
      <g>
       <use style="fill:#262626;stroke:#262626;stroke-width:1.25;" x="135.333333" xlink:href="#m6c773196e4" y="361.828268"/>
      </g>
     </g>
     <g id="text_19">
      <!-- 4 -->
      <g style="fill:#262626;" transform="translate(132.274818 379.201862)scale(0.11 -0.11)">
       <use xlink:href="#ArialMT-52"/>
      </g>
     </g>
    </g>
    <g id="xtick_10">
     <g id="line2d_23">
      <g>
       <use style="fill:#262626;stroke:#262626;stroke-width:1.25;" x="193.2" xlink:href="#m6c773196e4" y="361.828268"/>
      </g>
     </g>
     <g id="text_20">
      <!-- 6 -->
      <g style="fill:#262626;" transform="translate(190.141484 379.201862)scale(0.11 -0.11)">
       <use xlink:href="#ArialMT-54"/>
      </g>
     </g>
    </g>
    <g id="xtick_11">
     <g id="line2d_24">
      <g>
       <use style="fill:#262626;stroke:#262626;stroke-width:1.25;" x="251.066667" xlink:href="#m6c773196e4" y="361.828268"/>
      </g>
     </g>
     <g id="text_21">
      <!-- 8 -->
      <g style="fill:#262626;" transform="translate(248.008151 379.201862)scale(0.11 -0.11)">
       <use xlink:href="#ArialMT-56"/>
      </g>
     </g>
    </g>
    <g id="xtick_12">
     <g id="line2d_25">
      <g>
       <use style="fill:#262626;stroke:#262626;stroke-width:1.25;" x="308.933333" xlink:href="#m6c773196e4" y="361.828268"/>
      </g>
     </g>
     <g id="text_22">
      <!-- 10 -->
      <g style="fill:#262626;" transform="translate(302.816302 379.201862)scale(0.11 -0.11)">
       <use xlink:href="#ArialMT-49"/>
       <use x="55.615234" xlink:href="#ArialMT-48"/>
      </g>
     </g>
    </g>
    <g id="xtick_13">
     <g id="line2d_26">
      <g>
       <use style="fill:#262626;stroke:#262626;stroke-width:1.25;" x="366.8" xlink:href="#m6c773196e4" y="361.828268"/>
      </g>
     </g>
     <g id="text_23">
      <!-- 12 -->
      <g style="fill:#262626;" transform="translate(360.682969 379.201862)scale(0.11 -0.11)">
       <use xlink:href="#ArialMT-49"/>
       <use x="55.615234" xlink:href="#ArialMT-50"/>
      </g>
     </g>
    </g>
    <g id="xtick_14">
     <g id="line2d_27">
      <g>
       <use style="fill:#262626;stroke:#262626;stroke-width:1.25;" x="424.666667" xlink:href="#m6c773196e4" y="361.828268"/>
      </g>
     </g>
     <g id="text_24">
      <!-- 14 -->
      <g style="fill:#262626;" transform="translate(418.549635 379.201862)scale(0.11 -0.11)">
       <use xlink:href="#ArialMT-49"/>
       <use x="55.615234" xlink:href="#ArialMT-52"/>
      </g>
     </g>
    </g>
    <g id="text_25">
     <!-- $T_e$ [eV] -->
     <g style="fill:#262626;" transform="translate(242.65 392.688112)scale(0.1 -0.1)">
      <use transform="translate(0 0.09375)" xlink:href="#DejaVuSans-Oblique-84"/>
      <use transform="translate(61.083984 -16.3125)scale(0.7)" xlink:href="#DejaVuSans-Oblique-101"/>
      <use transform="translate(106.884766 0.09375)" xlink:href="#ArialMT-32"/>
      <use transform="translate(134.667969 0.09375)" xlink:href="#ArialMT-91"/>
      <use transform="translate(162.451172 0.09375)" xlink:href="#ArialMT-101"/>
      <use transform="translate(218.066406 0.09375)" xlink:href="#ArialMT-86"/>
      <use transform="translate(284.765625 0.09375)" xlink:href="#ArialMT-93"/>
     </g>
    </g>
   </g>
   <g id="matplotlib.axis_4">
    <g id="ytick_5">
     <g id="line2d_28">
      <g>
       <use style="fill:#262626;stroke:#262626;stroke-width:1.25;" x="63" xlink:href="#mb191bd7c57" y="361.828268"/>
      </g>
     </g>
     <g id="text_26">
      <!-- 0.0 -->
      <g style="fill:#262626;" transform="translate(38.21 365.765065)scale(0.11 -0.11)">
       <use xlink:href="#ArialMT-48"/>
       <use x="55.615234" xlink:href="#ArialMT-46"/>
       <use x="83.398438" xlink:href="#ArialMT-48"/>
      </g>
     </g>
    </g>
    <g id="ytick_6">
     <g id="line2d_29">
      <g>
       <use style="fill:#262626;stroke:#262626;stroke-width:1.25;" x="63" xlink:href="#mb191bd7c57" y="337.640438"/>
      </g>
     </g>
     <g id="text_27">
      <!-- 0.1 -->
      <g style="fill:#262626;" transform="translate(38.21 341.577235)scale(0.11 -0.11)">
       <use xlink:href="#ArialMT-48"/>
       <use x="55.615234" xlink:href="#ArialMT-46"/>
       <use x="83.398438" xlink:href="#ArialMT-49"/>
      </g>
     </g>
    </g>
    <g id="ytick_7">
     <g id="line2d_30">
      <g>
       <use style="fill:#262626;stroke:#262626;stroke-width:1.25;" x="63" xlink:href="#mb191bd7c57" y="313.452609"/>
      </g>
     </g>
     <g id="text_28">
      <!-- 0.2 -->
      <g style="fill:#262626;" transform="translate(38.21 317.389406)scale(0.11 -0.11)">
       <use xlink:href="#ArialMT-48"/>
       <use x="55.615234" xlink:href="#ArialMT-46"/>
       <use x="83.398438" xlink:href="#ArialMT-50"/>
      </g>
     </g>
    </g>
    <g id="ytick_8">
     <g id="line2d_31">
      <g>
       <use style="fill:#262626;stroke:#262626;stroke-width:1.25;" x="63" xlink:href="#mb191bd7c57" y="289.264779"/>
      </g>
     </g>
     <g id="text_29">
      <!-- 0.3 -->
      <g style="fill:#262626;" transform="translate(38.21 293.201576)scale(0.11 -0.11)">
       <use xlink:href="#ArialMT-48"/>
       <use x="55.615234" xlink:href="#ArialMT-46"/>
       <use x="83.398438" xlink:href="#ArialMT-51"/>
      </g>
     </g>
    </g>
    <g id="ytick_9">
     <g id="line2d_32">
      <g>
       <use style="fill:#262626;stroke:#262626;stroke-width:1.25;" x="63" xlink:href="#mb191bd7c57" y="265.076949"/>
      </g>
     </g>
     <g id="text_30">
      <!-- 0.4 -->
      <g style="fill:#262626;" transform="translate(38.21 269.013746)scale(0.11 -0.11)">
       <use xlink:href="#ArialMT-48"/>
       <use x="55.615234" xlink:href="#ArialMT-46"/>
       <use x="83.398438" xlink:href="#ArialMT-52"/>
      </g>
     </g>
    </g>
    <g id="text_31">
     <!-- P (unnormalized) -->
     <g style="fill:#262626;" transform="translate(32.105312 344.472706)rotate(-90)scale(0.1 -0.1)">
      <use xlink:href="#ArialMT-80"/>
      <use x="66.683594" xlink:href="#ArialMT-32"/>
      <use x="94.466797" xlink:href="#ArialMT-40"/>
      <use x="127.767578" xlink:href="#ArialMT-117"/>
      <use x="183.382812" xlink:href="#ArialMT-110"/>
      <use x="238.998047" xlink:href="#ArialMT-110"/>
      <use x="294.613281" xlink:href="#ArialMT-111"/>
      <use x="350.228516" xlink:href="#ArialMT-114"/>
      <use x="383.529297" xlink:href="#ArialMT-109"/>
      <use x="466.830078" xlink:href="#ArialMT-97"/>
      <use x="522.445312" xlink:href="#ArialMT-108"/>
      <use x="544.662109" xlink:href="#ArialMT-105"/>
      <use x="566.878906" xlink:href="#ArialMT-122"/>
      <use x="616.878906" xlink:href="#ArialMT-101"/>
      <use x="672.494141" xlink:href="#ArialMT-100"/>
      <use x="728.109375" xlink:href="#ArialMT-41"/>
     </g>
    </g>
   </g>
   <g id="line2d_33">
    <path clip-path="url(#p5e4d8a0e54)" d="M 6.63697 361.826924 
L 13.93568 361.709135 
L 17.585034 361.325903 
L 24.883744 359.817385 
L 28.533098 359.544413 
L 32.182453 359.446866 
L 39.481163 359.059781 
L 43.130517 358.904656 
L 46.779872 358.507476 
L 54.078581 357.351109 
L 61.377291 355.896671 
L 68.676 354.839745 
L 72.325355 354.327554 
L 75.974709 353.531204 
L 79.624064 352.416216 
L 86.922773 350.021916 
L 90.572128 349.014329 
L 94.221483 347.865477 
L 97.870838 345.99459 
L 105.169547 340.772827 
L 108.818902 338.548112 
L 112.468256 336.575215 
L 116.117611 334.255695 
L 119.766966 331.076365 
L 123.41632 327.569164 
L 130.71503 321.414756 
L 134.364384 317.229645 
L 138.013739 312.593315 
L 145.312448 304.580207 
L 148.961803 299.924858 
L 152.611158 295.631492 
L 156.260513 292.49377 
L 159.909867 290.078687 
L 163.559222 288.08751 
L 167.208577 287.440093 
L 170.857931 289.174383 
L 174.507286 292.177636 
L 178.156641 294.565324 
L 181.805995 296.663526 
L 185.45535 299.767245 
L 189.104705 303.737069 
L 192.754059 307.902652 
L 200.052769 317.139104 
L 203.702123 320.645188 
L 207.351478 323.495036 
L 211.000833 326.934539 
L 214.650188 330.721329 
L 218.299542 334.162084 
L 225.598252 340.657156 
L 229.247606 343.929419 
L 232.896961 346.673296 
L 236.546316 348.858118 
L 240.19567 350.600749 
L 243.845025 351.795015 
L 247.49438 352.842727 
L 251.143734 354.017811 
L 254.793089 355.044081 
L 262.091798 356.739594 
L 269.390508 358.197742 
L 273.039863 358.69279 
L 280.338572 359.518879 
L 283.987927 359.970632 
L 291.286636 360.364479 
L 305.884055 361.107822 
L 313.182764 361.171924 
L 320.481473 361.458834 
L 371.572439 361.737079 
L 470.105016 361.827992 
L 470.105016 361.827992 
" style="fill:none;stroke:#4c72b0;stroke-linecap:round;stroke-width:1.5;"/>
   </g>
   <g id="line2d_34">
    <path clip-path="url(#p5e4d8a0e54)" d="M 13.648834 361.825802 
L 37.209264 361.795521 
L 103.963815 361.675292 
L 111.817292 361.533698 
L 119.670768 361.54949 
L 123.597506 361.414805 
L 131.450983 360.868171 
L 135.377721 360.921838 
L 139.30446 360.446546 
L 143.231198 359.58319 
L 147.157936 359.19846 
L 151.084675 359.011222 
L 155.011413 358.489309 
L 158.938151 357.267617 
L 162.86489 355.493632 
L 166.791628 353.377987 
L 170.718366 351.669146 
L 174.645104 349.006319 
L 178.571843 345.703975 
L 182.498581 343.866344 
L 186.425319 339.423047 
L 190.352058 332.733659 
L 194.278796 325.357544 
L 198.205534 319.520166 
L 202.132273 311.281903 
L 206.059011 301.09869 
L 209.985749 289.321109 
L 213.912488 278.792725 
L 217.839226 268.728693 
L 221.765964 265.343321 
L 225.692702 261.35968 
L 229.619441 259.045129 
L 233.546179 256.259638 
L 237.472917 260.296642 
L 241.399656 268.948225 
L 249.253132 285.150113 
L 261.033347 313.459944 
L 264.960086 322.476696 
L 268.886824 328.640547 
L 272.813562 330.798312 
L 276.7403 335.077364 
L 280.667039 340.076217 
L 284.593777 343.525467 
L 288.520515 346.181136 
L 292.447254 348.362598 
L 296.373992 350.235544 
L 304.227469 353.491702 
L 308.154207 355.409424 
L 312.080945 357.013122 
L 316.007683 358.322251 
L 319.934422 359.038105 
L 323.86116 358.964061 
L 327.787898 359.227165 
L 331.714637 359.9086 
L 335.641375 360.398642 
L 347.42159 361.057764 
L 351.348328 361.033913 
L 355.275067 361.243548 
L 359.201805 361.250604 
L 370.98202 361.56901 
L 390.615711 361.764414 
L 410.249403 361.814128 
L 429.883094 361.816128 
L 449.516786 361.800807 
L 453.443524 361.731984 
L 469.150477 361.826707 
L 505 361.819504 
L 505 361.819504 
" style="fill:none;stroke:#dd8452;stroke-linecap:round;stroke-width:1.5;"/>
   </g>
   <g id="line2d_35">
    <path clip-path="url(#p5e4d8a0e54)" d="M 6.416819 361.828045 
L 82.658317 361.694936 
L 105.082287 361.423249 
L 109.567081 361.311779 
L 114.051875 361.321636 
L 118.536669 361.203018 
L 140.960639 359.310929 
L 149.930227 358.431869 
L 154.415021 357.829404 
L 158.899815 356.868151 
L 163.384609 355.270367 
L 172.354197 351.687401 
L 176.838991 349.498869 
L 181.323785 346.387235 
L 185.808579 342.811802 
L 194.778167 336.328235 
L 199.262961 332.214444 
L 203.747755 326.863165 
L 208.232549 320.760317 
L 212.717343 315.124087 
L 217.202137 310.239204 
L 226.171725 297.130999 
L 230.656519 292.505932 
L 235.141313 290.46808 
L 239.626107 289.85303 
L 244.110901 290.406212 
L 248.595695 291.269986 
L 253.080489 293.210242 
L 262.050077 305.01084 
L 266.534871 308.042164 
L 271.019665 309.928284 
L 275.504459 312.905022 
L 279.989253 317.082349 
L 284.474047 322.017476 
L 288.958841 327.299927 
L 293.443635 331.90531 
L 297.928429 334.93841 
L 306.898017 340.432545 
L 315.867605 345.085634 
L 320.352399 346.699773 
L 329.321987 349.428569 
L 333.806781 351.09992 
L 338.291575 352.422771 
L 347.261163 354.643335 
L 351.745957 355.505861 
L 360.715545 356.784028 
L 374.169927 358.43475 
L 383.139515 359.175871 
L 387.624309 359.37652 
L 396.593897 360.204907 
L 401.078691 360.336662 
L 405.563485 360.311287 
L 423.502661 360.988508 
L 436.957043 361.239998 
L 454.896219 361.474686 
L 477.320189 361.681657 
L 505 361.610775 
L 505 361.610775 
" style="fill:none;stroke:#55a868;stroke-linecap:round;stroke-width:1.5;"/>
   </g>
   <g id="patch_9">
    <path d="M 63 361.828268 
L 63 250.981206 
" style="fill:none;stroke:#262626;stroke-linecap:square;stroke-linejoin:miter;stroke-width:1.25;"/>
   </g>
   <g id="patch_10">
    <path d="M 453.6 361.828268 
L 453.6 250.981206 
" style="fill:none;stroke:#262626;stroke-linecap:square;stroke-linejoin:miter;stroke-width:1.25;"/>
   </g>
   <g id="patch_11">
    <path d="M 63 361.828268 
L 453.6 361.828268 
" style="fill:none;stroke:#262626;stroke-linecap:square;stroke-linejoin:miter;stroke-width:1.25;"/>
   </g>
   <g id="patch_12">
    <path d="M 63 250.981206 
L 453.6 250.981206 
" style="fill:none;stroke:#262626;stroke-linecap:square;stroke-linejoin:miter;stroke-width:1.25;"/>
   </g>
   <g id="text_32">
    <!-- Drifting Maxwellian model -->
    <defs>
     <path d="M 7.71875 0 
L 7.71875 71.578125 
L 32.375 71.578125 
Q 40.71875 71.578125 45.125 70.5625 
Q 51.265625 69.140625 55.609375 65.4375 
Q 61.28125 60.640625 64.078125 53.1875 
Q 66.890625 45.75 66.890625 36.1875 
Q 66.890625 28.03125 64.984375 21.734375 
Q 63.09375 15.4375 60.109375 11.296875 
Q 57.125 7.171875 53.578125 4.796875 
Q 50.046875 2.4375 45.046875 1.21875 
Q 40.046875 0 33.546875 0 
z
M 17.1875 8.453125 
L 32.46875 8.453125 
Q 39.546875 8.453125 43.578125 9.765625 
Q 47.609375 11.078125 50 13.484375 
Q 53.375 16.84375 55.25 22.53125 
Q 57.125 28.21875 57.125 36.328125 
Q 57.125 47.5625 53.4375 53.59375 
Q 49.75 59.625 44.484375 61.671875 
Q 40.671875 63.140625 32.234375 63.140625 
L 17.1875 63.140625 
z
" id="ArialMT-68"/>
     <path d="M 8.6875 0 
L 8.6875 45.015625 
L 0.921875 45.015625 
L 0.921875 51.859375 
L 8.6875 51.859375 
L 8.6875 57.375 
Q 8.6875 62.59375 9.625 65.140625 
Q 10.890625 68.5625 14.078125 70.671875 
Q 17.28125 72.796875 23.046875 72.796875 
Q 26.765625 72.796875 31.25 71.921875 
L 29.9375 64.265625 
Q 27.203125 64.75 24.75 64.75 
Q 20.75 64.75 19.09375 63.03125 
Q 17.4375 61.328125 17.4375 56.640625 
L 17.4375 51.859375 
L 27.546875 51.859375 
L 27.546875 45.015625 
L 17.4375 45.015625 
L 17.4375 0 
z
" id="ArialMT-102"/>
     <path d="M 25.78125 7.859375 
L 27.046875 0.09375 
Q 23.34375 -0.6875 20.40625 -0.6875 
Q 15.625 -0.6875 12.984375 0.828125 
Q 10.359375 2.34375 9.28125 4.8125 
Q 8.203125 7.28125 8.203125 15.1875 
L 8.203125 45.015625 
L 1.765625 45.015625 
L 1.765625 51.859375 
L 8.203125 51.859375 
L 8.203125 64.703125 
L 16.9375 69.96875 
L 16.9375 51.859375 
L 25.78125 51.859375 
L 25.78125 45.015625 
L 16.9375 45.015625 
L 16.9375 14.703125 
Q 16.9375 10.9375 17.40625 9.859375 
Q 17.875 8.796875 18.921875 8.15625 
Q 19.96875 7.515625 21.921875 7.515625 
Q 23.390625 7.515625 25.78125 7.859375 
z
" id="ArialMT-116"/>
     <path d="M 4.984375 -4.296875 
L 13.53125 -5.5625 
Q 14.0625 -9.515625 16.5 -11.328125 
Q 19.78125 -13.765625 25.4375 -13.765625 
Q 31.546875 -13.765625 34.859375 -11.328125 
Q 38.1875 -8.890625 39.359375 -4.5 
Q 40.046875 -1.8125 39.984375 6.78125 
Q 34.234375 0 25.640625 0 
Q 14.9375 0 9.078125 7.71875 
Q 3.21875 15.4375 3.21875 26.21875 
Q 3.21875 33.640625 5.90625 39.90625 
Q 8.59375 46.1875 13.6875 49.609375 
Q 18.796875 53.03125 25.6875 53.03125 
Q 34.859375 53.03125 40.828125 45.609375 
L 40.828125 51.859375 
L 48.921875 51.859375 
L 48.921875 7.03125 
Q 48.921875 -5.078125 46.453125 -10.125 
Q 44 -15.1875 38.640625 -18.109375 
Q 33.296875 -21.046875 25.484375 -21.046875 
Q 16.21875 -21.046875 10.5 -16.875 
Q 4.78125 -12.703125 4.984375 -4.296875 
z
M 12.25 26.859375 
Q 12.25 16.65625 16.296875 11.96875 
Q 20.359375 7.28125 26.46875 7.28125 
Q 32.515625 7.28125 36.609375 11.9375 
Q 40.71875 16.609375 40.71875 26.5625 
Q 40.71875 36.078125 36.5 40.90625 
Q 32.28125 45.75 26.3125 45.75 
Q 20.453125 45.75 16.34375 40.984375 
Q 12.25 36.234375 12.25 26.859375 
z
" id="ArialMT-103"/>
    </defs>
    <g style="fill:#262626;" transform="translate(178.5525 244.981206)scale(0.14 -0.14)">
     <use xlink:href="#ArialMT-68"/>
     <use x="72.216797" xlink:href="#ArialMT-114"/>
     <use x="105.517578" xlink:href="#ArialMT-105"/>
     <use x="127.734375" xlink:href="#ArialMT-102"/>
     <use x="155.517578" xlink:href="#ArialMT-116"/>
     <use x="183.300781" xlink:href="#ArialMT-105"/>
     <use x="205.517578" xlink:href="#ArialMT-110"/>
     <use x="261.132812" xlink:href="#ArialMT-103"/>
     <use x="316.748047" xlink:href="#ArialMT-32"/>
     <use x="344.53125" xlink:href="#ArialMT-77"/>
     <use x="427.832031" xlink:href="#ArialMT-97"/>
     <use x="483.447266" xlink:href="#ArialMT-120"/>
     <use x="533.447266" xlink:href="#ArialMT-119"/>
     <use x="605.664062" xlink:href="#ArialMT-101"/>
     <use x="661.279297" xlink:href="#ArialMT-108"/>
     <use x="683.496094" xlink:href="#ArialMT-108"/>
     <use x="705.712891" xlink:href="#ArialMT-105"/>
     <use x="727.929688" xlink:href="#ArialMT-97"/>
     <use x="783.544922" xlink:href="#ArialMT-110"/>
     <use x="839.160156" xlink:href="#ArialMT-32"/>
     <use x="866.943359" xlink:href="#ArialMT-109"/>
     <use x="950.244141" xlink:href="#ArialMT-111"/>
     <use x="1005.859375" xlink:href="#ArialMT-100"/>
     <use x="1061.474609" xlink:href="#ArialMT-101"/>
     <use x="1117.089844" xlink:href="#ArialMT-108"/>
    </g>
   </g>
   <g id="legend_2">
    <g id="patch_13">
     <path d="M 380.747344 306.460737 
L 445.9 306.460737 
Q 448.1 306.460737 448.1 304.260737 
L 448.1 258.681206 
Q 448.1 256.481206 445.9 256.481206 
L 380.747344 256.481206 
Q 378.547344 256.481206 378.547344 258.681206 
L 378.547344 304.260737 
Q 378.547344 306.460737 380.747344 306.460737 
z
" style="fill:#ffffff;opacity:0.8;stroke:#cccccc;stroke-linejoin:miter;"/>
    </g>
    <g id="line2d_36">
     <path d="M 382.947344 264.9048 
L 404.947344 264.9048 
" style="fill:none;stroke:#4c72b0;stroke-linecap:round;stroke-width:1.5;"/>
    </g>
    <g id="line2d_37"/>
    <g id="text_33">
     <!-- 34 cm -->
     <g style="fill:#262626;" transform="translate(413.747344 268.7548)scale(0.11 -0.11)">
      <use xlink:href="#ArialMT-51"/>
      <use x="55.615234" xlink:href="#ArialMT-52"/>
      <use x="111.230469" xlink:href="#ArialMT-32"/>
      <use x="139.013672" xlink:href="#ArialMT-99"/>
      <use x="189.013672" xlink:href="#ArialMT-109"/>
     </g>
    </g>
    <g id="line2d_38">
     <path d="M 382.947344 280.464644 
L 404.947344 280.464644 
" style="fill:none;stroke:#dd8452;stroke-linecap:round;stroke-width:1.5;"/>
    </g>
    <g id="line2d_39"/>
    <g id="text_34">
     <!-- 29 cm -->
     <g style="fill:#262626;" transform="translate(413.747344 284.314644)scale(0.11 -0.11)">
      <use xlink:href="#ArialMT-50"/>
      <use x="55.615234" xlink:href="#ArialMT-57"/>
      <use x="111.230469" xlink:href="#ArialMT-32"/>
      <use x="139.013672" xlink:href="#ArialMT-99"/>
      <use x="189.013672" xlink:href="#ArialMT-109"/>
     </g>
    </g>
    <g id="line2d_40">
     <path d="M 382.947344 296.024487 
L 404.947344 296.024487 
" style="fill:none;stroke:#55a868;stroke-linecap:round;stroke-width:1.5;"/>
    </g>
    <g id="line2d_41"/>
    <g id="text_35">
     <!-- 25 cm -->
     <g style="fill:#262626;" transform="translate(413.747344 299.874487)scale(0.11 -0.11)">
      <use xlink:href="#ArialMT-50"/>
      <use x="55.615234" xlink:href="#ArialMT-53"/>
      <use x="111.230469" xlink:href="#ArialMT-32"/>
      <use x="139.013672" xlink:href="#ArialMT-99"/>
      <use x="189.013672" xlink:href="#ArialMT-109"/>
     </g>
    </g>
   </g>
  </g>
  <g id="axes_3">
   <g id="patch_14">
    <path d="M 63 512.64 
L 453.6 512.64 
L 453.6 401.792938 
L 63 401.792938 
z
" style="fill:#ffffff;"/>
   </g>
   <g id="matplotlib.axis_5">
    <g id="xtick_15">
     <g id="line2d_42">
      <g>
       <use style="fill:#262626;stroke:#262626;stroke-width:1.25;" x="84.7" xlink:href="#m6c773196e4" y="512.64"/>
      </g>
     </g>
     <g id="text_36">
      <!-- 400000 -->
      <defs>
       <path d="M 52.828125 31.203125 
L 5.5625 31.203125 
L 5.5625 39.40625 
L 52.828125 39.40625 
z
" id="ArialMT-8722"/>
      </defs>
      <g style="fill:#262626;" transform="translate(63.136562 530.013594)scale(0.11 -0.11)">
       <use xlink:href="#ArialMT-8722"/>
       <use x="58.398438" xlink:href="#ArialMT-52"/>
       <use x="114.013672" xlink:href="#ArialMT-48"/>
       <use x="169.628906" xlink:href="#ArialMT-48"/>
       <use x="225.244141" xlink:href="#ArialMT-48"/>
       <use x="280.859375" xlink:href="#ArialMT-48"/>
       <use x="336.474609" xlink:href="#ArialMT-48"/>
      </g>
     </g>
    </g>
    <g id="xtick_16">
     <g id="line2d_43">
      <g>
       <use style="fill:#262626;stroke:#262626;stroke-width:1.25;" x="128.1" xlink:href="#m6c773196e4" y="512.64"/>
      </g>
     </g>
     <g id="text_37">
      <!-- 300000 -->
      <g style="fill:#262626;" transform="translate(106.536562 530.013594)scale(0.11 -0.11)">
       <use xlink:href="#ArialMT-8722"/>
       <use x="58.398438" xlink:href="#ArialMT-51"/>
       <use x="114.013672" xlink:href="#ArialMT-48"/>
       <use x="169.628906" xlink:href="#ArialMT-48"/>
       <use x="225.244141" xlink:href="#ArialMT-48"/>
       <use x="280.859375" xlink:href="#ArialMT-48"/>
       <use x="336.474609" xlink:href="#ArialMT-48"/>
      </g>
     </g>
    </g>
    <g id="xtick_17">
     <g id="line2d_44">
      <g>
       <use style="fill:#262626;stroke:#262626;stroke-width:1.25;" x="171.5" xlink:href="#m6c773196e4" y="512.64"/>
      </g>
     </g>
     <g id="text_38">
      <!-- 200000 -->
      <g style="fill:#262626;" transform="translate(149.936562 530.013594)scale(0.11 -0.11)">
       <use xlink:href="#ArialMT-8722"/>
       <use x="58.398438" xlink:href="#ArialMT-50"/>
       <use x="114.013672" xlink:href="#ArialMT-48"/>
       <use x="169.628906" xlink:href="#ArialMT-48"/>
       <use x="225.244141" xlink:href="#ArialMT-48"/>
       <use x="280.859375" xlink:href="#ArialMT-48"/>
       <use x="336.474609" xlink:href="#ArialMT-48"/>
      </g>
     </g>
    </g>
    <g id="xtick_18">
     <g id="line2d_45">
      <g>
       <use style="fill:#262626;stroke:#262626;stroke-width:1.25;" x="214.9" xlink:href="#m6c773196e4" y="512.64"/>
      </g>
     </g>
     <g id="text_39">
      <!-- 100000 -->
      <g style="fill:#262626;" transform="translate(193.336562 530.013594)scale(0.11 -0.11)">
       <use xlink:href="#ArialMT-8722"/>
       <use x="58.398438" xlink:href="#ArialMT-49"/>
       <use x="114.013672" xlink:href="#ArialMT-48"/>
       <use x="169.628906" xlink:href="#ArialMT-48"/>
       <use x="225.244141" xlink:href="#ArialMT-48"/>
       <use x="280.859375" xlink:href="#ArialMT-48"/>
       <use x="336.474609" xlink:href="#ArialMT-48"/>
      </g>
     </g>
    </g>
    <g id="xtick_19">
     <g id="line2d_46">
      <g>
       <use style="fill:#262626;stroke:#262626;stroke-width:1.25;" x="258.3" xlink:href="#m6c773196e4" y="512.64"/>
      </g>
     </g>
     <g id="text_40">
      <!-- 0 -->
      <g style="fill:#262626;" transform="translate(255.241484 530.013594)scale(0.11 -0.11)">
       <use xlink:href="#ArialMT-48"/>
      </g>
     </g>
    </g>
    <g id="xtick_20">
     <g id="line2d_47">
      <g>
       <use style="fill:#262626;stroke:#262626;stroke-width:1.25;" x="301.7" xlink:href="#m6c773196e4" y="512.64"/>
      </g>
     </g>
     <g id="text_41">
      <!-- 100000 -->
      <g style="fill:#262626;" transform="translate(283.348906 530.013594)scale(0.11 -0.11)">
       <use xlink:href="#ArialMT-49"/>
       <use x="55.615234" xlink:href="#ArialMT-48"/>
       <use x="111.230469" xlink:href="#ArialMT-48"/>
       <use x="166.845703" xlink:href="#ArialMT-48"/>
       <use x="222.460938" xlink:href="#ArialMT-48"/>
       <use x="278.076172" xlink:href="#ArialMT-48"/>
      </g>
     </g>
    </g>
    <g id="xtick_21">
     <g id="line2d_48">
      <g>
       <use style="fill:#262626;stroke:#262626;stroke-width:1.25;" x="345.1" xlink:href="#m6c773196e4" y="512.64"/>
      </g>
     </g>
     <g id="text_42">
      <!-- 200000 -->
      <g style="fill:#262626;" transform="translate(326.748906 530.013594)scale(0.11 -0.11)">
       <use xlink:href="#ArialMT-50"/>
       <use x="55.615234" xlink:href="#ArialMT-48"/>
       <use x="111.230469" xlink:href="#ArialMT-48"/>
       <use x="166.845703" xlink:href="#ArialMT-48"/>
       <use x="222.460938" xlink:href="#ArialMT-48"/>
       <use x="278.076172" xlink:href="#ArialMT-48"/>
      </g>
     </g>
    </g>
    <g id="xtick_22">
     <g id="line2d_49">
      <g>
       <use style="fill:#262626;stroke:#262626;stroke-width:1.25;" x="388.5" xlink:href="#m6c773196e4" y="512.64"/>
      </g>
     </g>
     <g id="text_43">
      <!-- 300000 -->
      <g style="fill:#262626;" transform="translate(370.148906 530.013594)scale(0.11 -0.11)">
       <use xlink:href="#ArialMT-51"/>
       <use x="55.615234" xlink:href="#ArialMT-48"/>
       <use x="111.230469" xlink:href="#ArialMT-48"/>
       <use x="166.845703" xlink:href="#ArialMT-48"/>
       <use x="222.460938" xlink:href="#ArialMT-48"/>
       <use x="278.076172" xlink:href="#ArialMT-48"/>
      </g>
     </g>
    </g>
    <g id="xtick_23">
     <g id="line2d_50">
      <g>
       <use style="fill:#262626;stroke:#262626;stroke-width:1.25;" x="431.9" xlink:href="#m6c773196e4" y="512.64"/>
      </g>
     </g>
     <g id="text_44">
      <!-- 400000 -->
      <g style="fill:#262626;" transform="translate(413.548906 530.013594)scale(0.11 -0.11)">
       <use xlink:href="#ArialMT-52"/>
       <use x="55.615234" xlink:href="#ArialMT-48"/>
       <use x="111.230469" xlink:href="#ArialMT-48"/>
       <use x="166.845703" xlink:href="#ArialMT-48"/>
       <use x="222.460938" xlink:href="#ArialMT-48"/>
       <use x="278.076172" xlink:href="#ArialMT-48"/>
      </g>
     </g>
    </g>
    <g id="text_45">
     <!-- $v_d$ [m/s] -->
     <defs>
      <path d="M 7.171875 54.6875 
L 16.703125 54.6875 
L 24.703125 8.203125 
L 50.875 54.6875 
L 60.40625 54.6875 
L 29.296875 0 
L 17.1875 0 
z
" id="DejaVuSans-Oblique-118"/>
      <path d="M 41.796875 8.203125 
Q 38.1875 3.46875 33.25 1.015625 
Q 28.328125 -1.421875 22.3125 -1.421875 
Q 14.109375 -1.421875 9.34375 4.171875 
Q 4.59375 9.765625 4.59375 19.484375 
Q 4.59375 27.59375 7.46875 34.9375 
Q 10.359375 42.28125 15.828125 48.09375 
Q 19.4375 51.953125 23.96875 53.96875 
Q 28.515625 56 33.5 56 
Q 38.765625 56 42.796875 53.453125 
Q 46.828125 50.921875 49.03125 46.1875 
L 54.890625 75.984375 
L 63.921875 75.984375 
L 49.125 0 
L 40.09375 0 
z
M 13.921875 21.09375 
Q 13.921875 14.015625 17.109375 10.0625 
Q 20.3125 6.109375 25.984375 6.109375 
Q 30.171875 6.109375 33.765625 8.125 
Q 37.359375 10.15625 40.09375 14.109375 
Q 42.96875 18.21875 44.625 23.578125 
Q 46.296875 28.953125 46.296875 34.1875 
Q 46.296875 40.96875 43.09375 44.765625 
Q 39.890625 48.578125 34.28125 48.578125 
Q 30.03125 48.578125 26.359375 46.578125 
Q 22.703125 44.578125 20.125 40.828125 
Q 17.28125 36.765625 15.59375 31.390625 
Q 13.921875 26.03125 13.921875 21.09375 
z
" id="DejaVuSans-Oblique-100"/>
      <path d="M 0 -1.21875 
L 20.75 72.796875 
L 27.78125 72.796875 
L 7.078125 -1.21875 
z
" id="ArialMT-47"/>
      <path d="M 3.078125 15.484375 
L 11.765625 16.84375 
Q 12.5 11.625 15.84375 8.84375 
Q 19.1875 6.0625 25.203125 6.0625 
Q 31.25 6.0625 34.171875 8.515625 
Q 37.109375 10.984375 37.109375 14.3125 
Q 37.109375 17.28125 34.515625 19 
Q 32.71875 20.171875 25.53125 21.96875 
Q 15.875 24.421875 12.140625 26.203125 
Q 8.40625 27.984375 6.46875 31.125 
Q 4.546875 34.28125 4.546875 38.09375 
Q 4.546875 41.546875 6.125 44.5 
Q 7.71875 47.46875 10.453125 49.421875 
Q 12.5 50.921875 16.03125 51.96875 
Q 19.578125 53.03125 23.640625 53.03125 
Q 29.734375 53.03125 34.34375 51.265625 
Q 38.96875 49.515625 41.15625 46.5 
Q 43.359375 43.5 44.1875 38.484375 
L 35.59375 37.3125 
Q 35.015625 41.3125 32.203125 43.546875 
Q 29.390625 45.796875 24.265625 45.796875 
Q 18.21875 45.796875 15.625 43.796875 
Q 13.03125 41.796875 13.03125 39.109375 
Q 13.03125 37.40625 14.109375 36.03125 
Q 15.1875 34.625 17.484375 33.6875 
Q 18.796875 33.203125 25.25 31.453125 
Q 34.578125 28.953125 38.25 27.359375 
Q 41.9375 25.78125 44.03125 22.75 
Q 46.140625 19.734375 46.140625 15.234375 
Q 46.140625 10.84375 43.578125 6.953125 
Q 41.015625 3.078125 36.171875 0.953125 
Q 31.34375 -1.171875 25.25 -1.171875 
Q 15.140625 -1.171875 9.84375 3.03125 
Q 4.546875 7.234375 3.078125 15.484375 
z
" id="ArialMT-115"/>
     </defs>
     <g style="fill:#262626;" transform="translate(240.75 543.499844)scale(0.1 -0.1)">
      <use transform="translate(0 0.203125)" xlink:href="#DejaVuSans-Oblique-118"/>
      <use transform="translate(59.179688 -16.203125)scale(0.7)" xlink:href="#DejaVuSans-Oblique-100"/>
      <use transform="translate(106.347656 0.203125)" xlink:href="#ArialMT-32"/>
      <use transform="translate(134.130859 0.203125)" xlink:href="#ArialMT-91"/>
      <use transform="translate(161.914062 0.203125)" xlink:href="#ArialMT-109"/>
      <use transform="translate(245.214844 0.203125)" xlink:href="#ArialMT-47"/>
      <use transform="translate(272.998047 0.203125)" xlink:href="#ArialMT-115"/>
      <use transform="translate(322.998047 0.203125)" xlink:href="#ArialMT-93"/>
     </g>
    </g>
   </g>
   <g id="matplotlib.axis_6">
    <g id="ytick_10">
     <g id="line2d_51">
      <g>
       <use style="fill:#262626;stroke:#262626;stroke-width:1.25;" x="63" xlink:href="#mb191bd7c57" y="512.64"/>
      </g>
     </g>
     <g id="text_46">
      <!-- 0e+00 -->
      <defs>
       <path d="M 25.046875 11.578125 
L 25.046875 31.203125 
L 5.5625 31.203125 
L 5.5625 39.40625 
L 25.046875 39.40625 
L 25.046875 58.890625 
L 33.34375 58.890625 
L 33.34375 39.40625 
L 52.828125 39.40625 
L 52.828125 31.203125 
L 33.34375 31.203125 
L 33.34375 11.578125 
z
" id="ArialMT-43"/>
      </defs>
      <g style="fill:#262626;" transform="translate(22.607187 516.576797)scale(0.11 -0.11)">
       <use xlink:href="#ArialMT-48"/>
       <use x="55.615234" xlink:href="#ArialMT-101"/>
       <use x="111.230469" xlink:href="#ArialMT-43"/>
       <use x="169.628906" xlink:href="#ArialMT-48"/>
       <use x="225.244141" xlink:href="#ArialMT-48"/>
      </g>
     </g>
    </g>
    <g id="ytick_11">
     <g id="line2d_52">
      <g>
       <use style="fill:#262626;stroke:#262626;stroke-width:1.25;" x="63" xlink:href="#mb191bd7c57" y="482.099671"/>
      </g>
     </g>
     <g id="text_47">
      <!-- 2e-06 -->
      <defs>
       <path d="M 3.171875 21.484375 
L 3.171875 30.328125 
L 30.171875 30.328125 
L 30.171875 21.484375 
z
" id="ArialMT-45"/>
      </defs>
      <g style="fill:#262626;" transform="translate(25.369219 486.036468)scale(0.11 -0.11)">
       <use xlink:href="#ArialMT-50"/>
       <use x="55.615234" xlink:href="#ArialMT-101"/>
       <use x="111.230469" xlink:href="#ArialMT-45"/>
       <use x="144.53125" xlink:href="#ArialMT-48"/>
       <use x="200.146484" xlink:href="#ArialMT-54"/>
      </g>
     </g>
    </g>
    <g id="ytick_12">
     <g id="line2d_53">
      <g>
       <use style="fill:#262626;stroke:#262626;stroke-width:1.25;" x="63" xlink:href="#mb191bd7c57" y="451.559342"/>
      </g>
     </g>
     <g id="text_48">
      <!-- 4e-06 -->
      <g style="fill:#262626;" transform="translate(25.369219 455.496139)scale(0.11 -0.11)">
       <use xlink:href="#ArialMT-52"/>
       <use x="55.615234" xlink:href="#ArialMT-101"/>
       <use x="111.230469" xlink:href="#ArialMT-45"/>
       <use x="144.53125" xlink:href="#ArialMT-48"/>
       <use x="200.146484" xlink:href="#ArialMT-54"/>
      </g>
     </g>
    </g>
    <g id="ytick_13">
     <g id="line2d_54">
      <g>
       <use style="fill:#262626;stroke:#262626;stroke-width:1.25;" x="63" xlink:href="#mb191bd7c57" y="421.019013"/>
      </g>
     </g>
     <g id="text_49">
      <!-- 6e-06 -->
      <g style="fill:#262626;" transform="translate(25.369219 424.95581)scale(0.11 -0.11)">
       <use xlink:href="#ArialMT-54"/>
       <use x="55.615234" xlink:href="#ArialMT-101"/>
       <use x="111.230469" xlink:href="#ArialMT-45"/>
       <use x="144.53125" xlink:href="#ArialMT-48"/>
       <use x="200.146484" xlink:href="#ArialMT-54"/>
      </g>
     </g>
    </g>
    <g id="text_50">
     <!-- P (unnormalized) -->
     <g style="fill:#262626;" transform="translate(16.5025 495.284438)rotate(-90)scale(0.1 -0.1)">
      <use xlink:href="#ArialMT-80"/>
      <use x="66.683594" xlink:href="#ArialMT-32"/>
      <use x="94.466797" xlink:href="#ArialMT-40"/>
      <use x="127.767578" xlink:href="#ArialMT-117"/>
      <use x="183.382812" xlink:href="#ArialMT-110"/>
      <use x="238.998047" xlink:href="#ArialMT-110"/>
      <use x="294.613281" xlink:href="#ArialMT-111"/>
      <use x="350.228516" xlink:href="#ArialMT-114"/>
      <use x="383.529297" xlink:href="#ArialMT-109"/>
      <use x="466.830078" xlink:href="#ArialMT-97"/>
      <use x="522.445312" xlink:href="#ArialMT-108"/>
      <use x="544.662109" xlink:href="#ArialMT-105"/>
      <use x="566.878906" xlink:href="#ArialMT-122"/>
      <use x="616.878906" xlink:href="#ArialMT-101"/>
      <use x="672.494141" xlink:href="#ArialMT-100"/>
      <use x="728.109375" xlink:href="#ArialMT-41"/>
     </g>
    </g>
   </g>
   <g id="line2d_55">
    <path clip-path="url(#pdcb8b22e0d)" d="M -1 512.636207 
L 38.557621 512.514243 
L 51.310743 512.312608 
L 64.063866 511.913703 
L 76.816988 511.127061 
L 85.31907 510.370979 
L 98.072193 508.449427 
L 102.323234 507.606144 
L 110.825315 505.296208 
L 115.076356 503.856749 
L 119.327397 502.617638 
L 123.578438 501.163637 
L 127.829479 498.152579 
L 132.08052 494.772605 
L 136.33156 492.316248 
L 140.582601 490.137366 
L 144.833642 487.184447 
L 149.084683 483.16452 
L 157.586765 474.104171 
L 161.837806 468.63484 
L 166.088846 462.350124 
L 170.339887 457.81947 
L 178.841969 450.711475 
L 183.09301 448.240802 
L 187.344051 446.153876 
L 191.595092 442.524504 
L 195.846132 439.33056 
L 200.097173 440.125942 
L 204.348214 444.641624 
L 208.599255 448.917812 
L 212.850296 452.27633 
L 217.101337 455.914361 
L 225.603418 465.192193 
L 229.854459 470.197385 
L 234.1055 474.690417 
L 246.858623 486.085734 
L 251.109664 489.334176 
L 255.360704 492.774564 
L 259.611745 495.676523 
L 268.113827 500.419784 
L 272.364868 502.478846 
L 276.615909 504.046158 
L 285.11799 506.231601 
L 289.369031 507.739575 
L 293.620072 508.764205 
L 306.373195 510.348774 
L 319.126317 511.268288 
L 336.130481 511.945438 
L 344.632562 512.152195 
L 395.645053 512.528268 
L 404.147134 512.516919 
L 412.649216 512.631584 
L 455.159625 512.639788 
L 455.159625 512.639788 
" style="fill:none;stroke:#4c72b0;stroke-linecap:round;stroke-width:1.5;"/>
   </g>
   <g id="line2d_56">
    <path clip-path="url(#pdcb8b22e0d)" d="M -1 512.639189 
L 68.732027 512.514967 
L 92.476989 512.224875 
L 99.261264 511.917254 
L 102.653401 511.549297 
L 106.045539 511.34241 
L 109.437676 511.360393 
L 112.829814 511.067198 
L 123.006226 509.735205 
L 126.398363 508.811334 
L 136.574775 505.520763 
L 139.966913 504.194561 
L 146.751188 500.492554 
L 150.143325 499.111871 
L 153.535463 496.938091 
L 156.9276 493.170432 
L 160.319737 489.157963 
L 163.711875 484.790979 
L 167.104012 479.85475 
L 170.49615 474.26829 
L 177.280425 461.070832 
L 180.672562 454.169671 
L 184.064699 448.438552 
L 187.456837 440.417297 
L 190.848974 430.53172 
L 194.241112 424.293377 
L 197.633249 423.426991 
L 201.025386 423.63121 
L 204.417524 422.434035 
L 207.809661 421.989109 
L 211.201799 424.121197 
L 214.593936 426.561479 
L 217.986074 430.211958 
L 221.378211 435.569578 
L 224.770348 442.390272 
L 228.162486 450.100177 
L 231.554623 456.587775 
L 234.946761 462.217383 
L 238.338898 468.73674 
L 241.731036 474.47814 
L 248.51531 483.382298 
L 251.907448 487.457404 
L 258.691723 492.513346 
L 265.475998 498.393136 
L 268.868135 501.077768 
L 272.260272 502.840173 
L 279.044547 505.465911 
L 285.828822 507.350087 
L 289.220959 508.273137 
L 296.005234 509.585368 
L 302.789509 510.56162 
L 306.181647 510.961878 
L 312.965921 511.275509 
L 326.534471 512.227243 
L 333.318746 512.337808 
L 343.495158 512.329127 
L 350.279433 512.42273 
L 357.063708 512.474034 
L 363.847983 512.627579 
L 401.161494 512.631671 
L 428.298594 512.639838 
L 428.298594 512.639838 
" style="fill:none;stroke:#dd8452;stroke-linecap:round;stroke-width:1.5;"/>
   </g>
   <g id="line2d_57">
    <path clip-path="url(#pdcb8b22e0d)" d="M 36.659068 512.639688 
L 93.451555 512.507508 
L 102.91697 512.419643 
L 109.227246 512.339878 
L 115.537523 512.024817 
L 125.002938 512.047131 
L 134.468352 511.495588 
L 137.62349 511.23957 
L 147.088905 509.936901 
L 150.244043 509.899787 
L 153.399181 509.340099 
L 156.55432 508.421794 
L 159.709458 507.705302 
L 166.019734 505.753173 
L 169.174873 504.706265 
L 172.330011 504.008225 
L 175.485149 502.423264 
L 178.640287 499.986656 
L 181.795425 497.114732 
L 184.950564 493.52185 
L 188.105702 490.203967 
L 191.26084 488.073283 
L 194.415978 485.26216 
L 197.571116 480.613706 
L 203.881393 468.227278 
L 207.036531 464.270829 
L 210.191669 458.771632 
L 216.501946 437.386826 
L 219.657084 428.918317 
L 222.812222 423.702979 
L 225.96736 420.220339 
L 229.122499 415.121494 
L 232.277637 410.604437 
L 235.432775 407.071369 
L 238.587913 407.235675 
L 241.743051 413.108191 
L 248.053328 423.81118 
L 251.208466 431.394804 
L 254.363604 440.852941 
L 257.518742 449.757615 
L 260.673881 456.317402 
L 263.829019 461.91932 
L 270.139295 475.551396 
L 273.294434 481.484308 
L 276.449572 486.053104 
L 279.60471 489.84376 
L 282.759848 493.828039 
L 285.914986 497.499336 
L 289.070125 500.183847 
L 292.225263 502.02581 
L 295.380401 503.703033 
L 301.690677 506.338411 
L 304.845816 507.775052 
L 308.000954 508.907376 
L 311.156092 509.756793 
L 317.466369 510.033983 
L 320.621507 510.648903 
L 323.776645 511.102345 
L 336.397198 511.633251 
L 342.707474 512.176929 
L 358.483165 512.446391 
L 364.793442 512.326128 
L 377.413995 512.562597 
L 396.344824 512.626242 
L 424.741068 512.626918 
L 437.361621 512.639415 
L 437.361621 512.639415 
" style="fill:none;stroke:#55a868;stroke-linecap:round;stroke-width:1.5;"/>
   </g>
   <g id="patch_15">
    <path d="M 63 512.64 
L 63 401.792938 
" style="fill:none;stroke:#262626;stroke-linecap:square;stroke-linejoin:miter;stroke-width:1.25;"/>
   </g>
   <g id="patch_16">
    <path d="M 453.6 512.64 
L 453.6 401.792938 
" style="fill:none;stroke:#262626;stroke-linecap:square;stroke-linejoin:miter;stroke-width:1.25;"/>
   </g>
   <g id="patch_17">
    <path d="M 63 512.64 
L 453.6 512.64 
" style="fill:none;stroke:#262626;stroke-linecap:square;stroke-linejoin:miter;stroke-width:1.25;"/>
   </g>
   <g id="patch_18">
    <path d="M 63 401.792938 
L 453.6 401.792938 
" style="fill:none;stroke:#262626;stroke-linecap:square;stroke-linejoin:miter;stroke-width:1.25;"/>
   </g>
   <g id="legend_3">
    <g id="patch_19">
     <path d="M 380.747344 457.272469 
L 445.9 457.272469 
Q 448.1 457.272469 448.1 455.072469 
L 448.1 409.492938 
Q 448.1 407.292938 445.9 407.292938 
L 380.747344 407.292938 
Q 378.547344 407.292938 378.547344 409.492938 
L 378.547344 455.072469 
Q 378.547344 457.272469 380.747344 457.272469 
z
" style="fill:#ffffff;opacity:0.8;stroke:#cccccc;stroke-linejoin:miter;"/>
    </g>
    <g id="line2d_58">
     <path d="M 382.947344 415.716532 
L 404.947344 415.716532 
" style="fill:none;stroke:#4c72b0;stroke-linecap:round;stroke-width:1.5;"/>
    </g>
    <g id="line2d_59"/>
    <g id="text_51">
     <!-- 34 cm -->
     <g style="fill:#262626;" transform="translate(413.747344 419.566532)scale(0.11 -0.11)">
      <use xlink:href="#ArialMT-51"/>
      <use x="55.615234" xlink:href="#ArialMT-52"/>
      <use x="111.230469" xlink:href="#ArialMT-32"/>
      <use x="139.013672" xlink:href="#ArialMT-99"/>
      <use x="189.013672" xlink:href="#ArialMT-109"/>
     </g>
    </g>
    <g id="line2d_60">
     <path d="M 382.947344 431.276375 
L 404.947344 431.276375 
" style="fill:none;stroke:#dd8452;stroke-linecap:round;stroke-width:1.5;"/>
    </g>
    <g id="line2d_61"/>
    <g id="text_52">
     <!-- 29 cm -->
     <g style="fill:#262626;" transform="translate(413.747344 435.126375)scale(0.11 -0.11)">
      <use xlink:href="#ArialMT-50"/>
      <use x="55.615234" xlink:href="#ArialMT-57"/>
      <use x="111.230469" xlink:href="#ArialMT-32"/>
      <use x="139.013672" xlink:href="#ArialMT-99"/>
      <use x="189.013672" xlink:href="#ArialMT-109"/>
     </g>
    </g>
    <g id="line2d_62">
     <path d="M 382.947344 446.836219 
L 404.947344 446.836219 
" style="fill:none;stroke:#55a868;stroke-linecap:round;stroke-width:1.5;"/>
    </g>
    <g id="line2d_63"/>
    <g id="text_53">
     <!-- 25 cm -->
     <g style="fill:#262626;" transform="translate(413.747344 450.686219)scale(0.11 -0.11)">
      <use xlink:href="#ArialMT-50"/>
      <use x="55.615234" xlink:href="#ArialMT-53"/>
      <use x="111.230469" xlink:href="#ArialMT-32"/>
      <use x="139.013672" xlink:href="#ArialMT-99"/>
      <use x="189.013672" xlink:href="#ArialMT-109"/>
     </g>
    </g>
   </g>
  </g>
  <g id="text_54">
   <!-- Shot #190516017 Posterior Distributions -->
   <defs>
    <path d="M 4.5 23 
L 13.421875 23.78125 
Q 14.0625 18.40625 16.375 14.96875 
Q 18.703125 11.53125 23.578125 9.40625 
Q 28.46875 7.28125 34.578125 7.28125 
Q 39.984375 7.28125 44.140625 8.890625 
Q 48.296875 10.5 50.3125 13.296875 
Q 52.34375 16.109375 52.34375 19.4375 
Q 52.34375 22.796875 50.390625 25.3125 
Q 48.4375 27.828125 43.953125 29.546875 
Q 41.0625 30.671875 31.203125 33.03125 
Q 21.34375 35.40625 17.390625 37.5 
Q 12.25 40.1875 9.734375 44.15625 
Q 7.234375 48.140625 7.234375 53.078125 
Q 7.234375 58.5 10.296875 63.203125 
Q 13.375 67.921875 19.28125 70.359375 
Q 25.203125 72.796875 32.421875 72.796875 
Q 40.375 72.796875 46.453125 70.234375 
Q 52.546875 67.671875 55.8125 62.6875 
Q 59.078125 57.71875 59.328125 51.421875 
L 50.25 50.734375 
Q 49.515625 57.515625 45.28125 60.984375 
Q 41.0625 64.453125 32.8125 64.453125 
Q 24.21875 64.453125 20.28125 61.296875 
Q 16.359375 58.15625 16.359375 53.71875 
Q 16.359375 49.859375 19.140625 47.359375 
Q 21.875 44.875 33.421875 42.265625 
Q 44.96875 39.65625 49.265625 37.703125 
Q 55.515625 34.8125 58.484375 30.390625 
Q 61.46875 25.984375 61.46875 20.21875 
Q 61.46875 14.5 58.203125 9.4375 
Q 54.9375 4.390625 48.796875 1.578125 
Q 42.671875 -1.21875 35.015625 -1.21875 
Q 25.296875 -1.21875 18.71875 1.609375 
Q 12.15625 4.4375 8.421875 10.125 
Q 4.6875 15.828125 4.5 23 
z
" id="ArialMT-83"/>
    <path d="M 6.59375 0 
L 6.59375 71.578125 
L 15.375 71.578125 
L 15.375 45.90625 
Q 21.53125 53.03125 30.90625 53.03125 
Q 36.671875 53.03125 40.921875 50.75 
Q 45.171875 48.484375 47 44.484375 
Q 48.828125 40.484375 48.828125 32.859375 
L 48.828125 0 
L 40.046875 0 
L 40.046875 32.859375 
Q 40.046875 39.453125 37.1875 42.453125 
Q 34.328125 45.453125 29.109375 45.453125 
Q 25.203125 45.453125 21.75 43.421875 
Q 18.3125 41.40625 16.84375 37.9375 
Q 15.375 34.46875 15.375 28.375 
L 15.375 0 
z
" id="ArialMT-104"/>
    <path d="M 5.03125 -1.21875 
L 9.28125 19.578125 
L 1.03125 19.578125 
L 1.03125 26.859375 
L 10.75 26.859375 
L 14.359375 44.578125 
L 1.03125 44.578125 
L 1.03125 51.859375 
L 15.828125 51.859375 
L 20.0625 72.796875 
L 27.390625 72.796875 
L 23.140625 51.859375 
L 38.53125 51.859375 
L 42.78125 72.796875 
L 50.140625 72.796875 
L 45.90625 51.859375 
L 54.34375 51.859375 
L 54.34375 44.578125 
L 44.4375 44.578125 
L 40.765625 26.859375 
L 54.34375 26.859375 
L 54.34375 19.578125 
L 39.3125 19.578125 
L 35.0625 -1.21875 
L 27.734375 -1.21875 
L 31.9375 19.578125 
L 16.609375 19.578125 
L 12.359375 -1.21875 
z
M 18.0625 26.859375 
L 33.40625 26.859375 
L 37.0625 44.578125 
L 21.6875 44.578125 
z
" id="ArialMT-35"/>
    <path d="M 4.734375 62.203125 
L 4.734375 70.65625 
L 51.078125 70.65625 
L 51.078125 63.8125 
Q 44.234375 56.546875 37.515625 44.484375 
Q 30.8125 32.421875 27.15625 19.671875 
Q 24.515625 10.6875 23.78125 0 
L 14.75 0 
Q 14.890625 8.453125 18.0625 20.40625 
Q 21.234375 32.375 27.171875 43.484375 
Q 33.109375 54.59375 39.796875 62.203125 
z
" id="ArialMT-55"/>
    <path d="M 14.703125 0 
L 6.546875 0 
L 6.546875 71.578125 
L 15.328125 71.578125 
L 15.328125 46.046875 
Q 20.90625 53.03125 29.546875 53.03125 
Q 34.328125 53.03125 38.59375 51.09375 
Q 42.875 49.171875 45.625 45.671875 
Q 48.390625 42.1875 49.953125 37.25 
Q 51.515625 32.328125 51.515625 26.703125 
Q 51.515625 13.375 44.921875 6.09375 
Q 38.328125 -1.171875 29.109375 -1.171875 
Q 19.921875 -1.171875 14.703125 6.5 
z
M 14.59375 26.3125 
Q 14.59375 17 17.140625 12.84375 
Q 21.296875 6.0625 28.375 6.0625 
Q 34.125 6.0625 38.328125 11.0625 
Q 42.53125 16.0625 42.53125 25.984375 
Q 42.53125 36.140625 38.5 40.96875 
Q 34.46875 45.796875 28.765625 45.796875 
Q 23 45.796875 18.796875 40.796875 
Q 14.59375 35.796875 14.59375 26.3125 
z
" id="ArialMT-98"/>
   </defs>
   <g style="fill:#262626;" transform="translate(108.365 22.9725)scale(0.16 -0.16)">
    <use xlink:href="#ArialMT-83"/>
    <use x="66.699219" xlink:href="#ArialMT-104"/>
    <use x="122.314453" xlink:href="#ArialMT-111"/>
    <use x="177.929688" xlink:href="#ArialMT-116"/>
    <use x="205.712891" xlink:href="#ArialMT-32"/>
    <use x="233.496094" xlink:href="#ArialMT-35"/>
    <use x="289.111328" xlink:href="#ArialMT-49"/>
    <use x="344.726562" xlink:href="#ArialMT-57"/>
    <use x="400.341797" xlink:href="#ArialMT-48"/>
    <use x="455.957031" xlink:href="#ArialMT-53"/>
    <use x="511.572266" xlink:href="#ArialMT-49"/>
    <use x="567.1875" xlink:href="#ArialMT-54"/>
    <use x="622.802734" xlink:href="#ArialMT-48"/>
    <use x="678.417969" xlink:href="#ArialMT-49"/>
    <use x="734.033203" xlink:href="#ArialMT-55"/>
    <use x="789.648438" xlink:href="#ArialMT-32"/>
    <use x="817.431641" xlink:href="#ArialMT-80"/>
    <use x="884.130859" xlink:href="#ArialMT-111"/>
    <use x="939.746094" xlink:href="#ArialMT-115"/>
    <use x="989.746094" xlink:href="#ArialMT-116"/>
    <use x="1017.529297" xlink:href="#ArialMT-101"/>
    <use x="1073.144531" xlink:href="#ArialMT-114"/>
    <use x="1106.445312" xlink:href="#ArialMT-105"/>
    <use x="1128.662109" xlink:href="#ArialMT-111"/>
    <use x="1184.277344" xlink:href="#ArialMT-114"/>
    <use x="1217.578125" xlink:href="#ArialMT-32"/>
    <use x="1245.361328" xlink:href="#ArialMT-68"/>
    <use x="1317.578125" xlink:href="#ArialMT-105"/>
    <use x="1339.794922" xlink:href="#ArialMT-115"/>
    <use x="1389.794922" xlink:href="#ArialMT-116"/>
    <use x="1417.578125" xlink:href="#ArialMT-114"/>
    <use x="1450.878906" xlink:href="#ArialMT-105"/>
    <use x="1473.095703" xlink:href="#ArialMT-98"/>
    <use x="1528.710938" xlink:href="#ArialMT-117"/>
    <use x="1584.326172" xlink:href="#ArialMT-116"/>
    <use x="1612.109375" xlink:href="#ArialMT-105"/>
    <use x="1634.326172" xlink:href="#ArialMT-111"/>
    <use x="1689.941406" xlink:href="#ArialMT-110"/>
    <use x="1745.556641" xlink:href="#ArialMT-115"/>
   </g>
  </g>
 </g>
 <defs>
  <clipPath id="p395e1e1c4c">
   <rect height="110.847062" width="390.6" x="63" y="69.12"/>
  </clipPath>
  <clipPath id="p5e4d8a0e54">
   <rect height="110.847062" width="390.6" x="63" y="250.981206"/>
  </clipPath>
  <clipPath id="pdcb8b22e0d">
   <rect height="110.847062" width="390.6" x="63" y="401.792938"/>
  </clipPath>
 </defs>
</svg>
