<?xml version="1.0" encoding="utf-8" standalone="no"?>
<!DOCTYPE svg PUBLIC "-//W3C//DTD SVG 1.1//EN"
  "http://www.w3.org/Graphics/SVG/1.1/DTD/svg11.dtd">
<!-- Created with matplotlib (https://matplotlib.org/) -->
<svg height="565.92pt" version="1.1" viewBox="0 0 504 565.92" width="504pt" xmlns="http://www.w3.org/2000/svg" xmlns:xlink="http://www.w3.org/1999/xlink">
 <defs>
  <style type="text/css">
*{stroke-linecap:butt;stroke-linejoin:round;}
  </style>
 </defs>
 <g id="figure_1">
  <g id="patch_1">
   <path d="M 0 565.92 
L 504 565.92 
L 504 0 
L 0 0 
z
" style="fill:#ffffff;"/>
  </g>
  <g id="axes_1">
   <g id="patch_2">
    <path d="M 63 176.817638 
L 453.6 176.817638 
L 453.6 67.9104 
L 63 67.9104 
z
" style="fill:#ffffff;"/>
   </g>
   <g id="matplotlib.axis_1">
    <g id="xtick_1">
     <g id="line2d_1">
      <defs>
       <path d="M 0 0 
L 0 6 
" id="me453934816" style="stroke:#262626;stroke-width:1.25;"/>
      </defs>
      <g>
       <use style="fill:#262626;stroke:#262626;stroke-width:1.25;" x="77.466667" xlink:href="#me453934816" y="176.817638"/>
      </g>
     </g>
     <g id="text_1">
      <!-- 2 -->
      <defs>
       <path d="M 50.34375 8.453125 
L 50.34375 0 
L 3.03125 0 
Q 2.9375 3.171875 4.046875 6.109375 
Q 5.859375 10.9375 9.828125 15.625 
Q 13.8125 20.3125 21.34375 26.46875 
Q 33.015625 36.03125 37.109375 41.625 
Q 41.21875 47.21875 41.21875 52.203125 
Q 41.21875 57.421875 37.46875 61 
Q 33.734375 64.59375 27.734375 64.59375 
Q 21.390625 64.59375 17.578125 60.78125 
Q 13.765625 56.984375 13.71875 50.25 
L 4.6875 51.171875 
Q 5.609375 61.28125 11.65625 66.578125 
Q 17.71875 71.875 27.9375 71.875 
Q 38.234375 71.875 44.234375 66.15625 
Q 50.25 60.453125 50.25 52 
Q 50.25 47.703125 48.484375 43.546875 
Q 46.734375 39.40625 42.65625 34.8125 
Q 38.578125 30.21875 29.109375 22.21875 
Q 21.1875 15.578125 18.9375 13.203125 
Q 16.703125 10.84375 15.234375 8.453125 
z
" id="ArialMT-50"/>
      </defs>
      <g style="fill:#262626;" transform="translate(74.408151 194.191232)scale(0.11 -0.11)">
       <use xlink:href="#ArialMT-50"/>
      </g>
     </g>
    </g>
    <g id="xtick_2">
     <g id="line2d_2">
      <g>
       <use style="fill:#262626;stroke:#262626;stroke-width:1.25;" x="135.333333" xlink:href="#me453934816" y="176.817638"/>
      </g>
     </g>
     <g id="text_2">
      <!-- 4 -->
      <defs>
       <path d="M 32.328125 0 
L 32.328125 17.140625 
L 1.265625 17.140625 
L 1.265625 25.203125 
L 33.9375 71.578125 
L 41.109375 71.578125 
L 41.109375 25.203125 
L 50.78125 25.203125 
L 50.78125 17.140625 
L 41.109375 17.140625 
L 41.109375 0 
z
M 32.328125 25.203125 
L 32.328125 57.46875 
L 9.90625 25.203125 
z
" id="ArialMT-52"/>
      </defs>
      <g style="fill:#262626;" transform="translate(132.274818 194.191232)scale(0.11 -0.11)">
       <use xlink:href="#ArialMT-52"/>
      </g>
     </g>
    </g>
    <g id="xtick_3">
     <g id="line2d_3">
      <g>
       <use style="fill:#262626;stroke:#262626;stroke-width:1.25;" x="193.2" xlink:href="#me453934816" y="176.817638"/>
      </g>
     </g>
     <g id="text_3">
      <!-- 6 -->
      <defs>
       <path d="M 49.75 54.046875 
L 41.015625 53.375 
Q 39.84375 58.546875 37.703125 60.890625 
Q 34.125 64.65625 28.90625 64.65625 
Q 24.703125 64.65625 21.53125 62.3125 
Q 17.390625 59.28125 14.984375 53.46875 
Q 12.59375 47.65625 12.5 36.921875 
Q 15.671875 41.75 20.265625 44.09375 
Q 24.859375 46.4375 29.890625 46.4375 
Q 38.671875 46.4375 44.84375 39.96875 
Q 51.03125 33.5 51.03125 23.25 
Q 51.03125 16.5 48.125 10.71875 
Q 45.21875 4.9375 40.140625 1.859375 
Q 35.0625 -1.21875 28.609375 -1.21875 
Q 17.625 -1.21875 10.6875 6.859375 
Q 3.765625 14.9375 3.765625 33.5 
Q 3.765625 54.25 11.421875 63.671875 
Q 18.109375 71.875 29.4375 71.875 
Q 37.890625 71.875 43.28125 67.140625 
Q 48.6875 62.40625 49.75 54.046875 
z
M 13.875 23.1875 
Q 13.875 18.65625 15.796875 14.5 
Q 17.71875 10.359375 21.1875 8.171875 
Q 24.65625 6 28.46875 6 
Q 34.03125 6 38.03125 10.484375 
Q 42.046875 14.984375 42.046875 22.703125 
Q 42.046875 30.125 38.078125 34.390625 
Q 34.125 38.671875 28.125 38.671875 
Q 22.171875 38.671875 18.015625 34.390625 
Q 13.875 30.125 13.875 23.1875 
z
" id="ArialMT-54"/>
      </defs>
      <g style="fill:#262626;" transform="translate(190.141484 194.191232)scale(0.11 -0.11)">
       <use xlink:href="#ArialMT-54"/>
      </g>
     </g>
    </g>
    <g id="xtick_4">
     <g id="line2d_4">
      <g>
       <use style="fill:#262626;stroke:#262626;stroke-width:1.25;" x="251.066667" xlink:href="#me453934816" y="176.817638"/>
      </g>
     </g>
     <g id="text_4">
      <!-- 8 -->
      <defs>
       <path d="M 17.671875 38.8125 
Q 12.203125 40.828125 9.5625 44.53125 
Q 6.9375 48.25 6.9375 53.421875 
Q 6.9375 61.234375 12.546875 66.546875 
Q 18.171875 71.875 27.484375 71.875 
Q 36.859375 71.875 42.578125 66.421875 
Q 48.296875 60.984375 48.296875 53.171875 
Q 48.296875 48.1875 45.671875 44.5 
Q 43.0625 40.828125 37.75 38.8125 
Q 44.34375 36.671875 47.78125 31.875 
Q 51.21875 27.09375 51.21875 20.453125 
Q 51.21875 11.28125 44.71875 5.03125 
Q 38.234375 -1.21875 27.640625 -1.21875 
Q 17.046875 -1.21875 10.546875 5.046875 
Q 4.046875 11.328125 4.046875 20.703125 
Q 4.046875 27.6875 7.59375 32.390625 
Q 11.140625 37.109375 17.671875 38.8125 
z
M 15.921875 53.71875 
Q 15.921875 48.640625 19.1875 45.40625 
Q 22.46875 42.1875 27.6875 42.1875 
Q 32.765625 42.1875 36.015625 45.375 
Q 39.265625 48.578125 39.265625 53.21875 
Q 39.265625 58.0625 35.90625 61.359375 
Q 32.5625 64.65625 27.59375 64.65625 
Q 22.5625 64.65625 19.234375 61.421875 
Q 15.921875 58.203125 15.921875 53.71875 
z
M 13.09375 20.65625 
Q 13.09375 16.890625 14.875 13.375 
Q 16.65625 9.859375 20.171875 7.921875 
Q 23.6875 6 27.734375 6 
Q 34.03125 6 38.125 10.046875 
Q 42.234375 14.109375 42.234375 20.359375 
Q 42.234375 26.703125 38.015625 30.859375 
Q 33.796875 35.015625 27.4375 35.015625 
Q 21.234375 35.015625 17.15625 30.90625 
Q 13.09375 26.8125 13.09375 20.65625 
z
" id="ArialMT-56"/>
      </defs>
      <g style="fill:#262626;" transform="translate(248.008151 194.191232)scale(0.11 -0.11)">
       <use xlink:href="#ArialMT-56"/>
      </g>
     </g>
    </g>
    <g id="xtick_5">
     <g id="line2d_5">
      <g>
       <use style="fill:#262626;stroke:#262626;stroke-width:1.25;" x="308.933333" xlink:href="#me453934816" y="176.817638"/>
      </g>
     </g>
     <g id="text_5">
      <!-- 10 -->
      <defs>
       <path d="M 37.25 0 
L 28.46875 0 
L 28.46875 56 
Q 25.296875 52.984375 20.140625 49.953125 
Q 14.984375 46.921875 10.890625 45.40625 
L 10.890625 53.90625 
Q 18.265625 57.375 23.78125 62.296875 
Q 29.296875 67.234375 31.59375 71.875 
L 37.25 71.875 
z
" id="ArialMT-49"/>
       <path d="M 4.15625 35.296875 
Q 4.15625 48 6.765625 55.734375 
Q 9.375 63.484375 14.515625 67.671875 
Q 19.671875 71.875 27.484375 71.875 
Q 33.25 71.875 37.59375 69.546875 
Q 41.9375 67.234375 44.765625 62.859375 
Q 47.609375 58.5 49.21875 52.21875 
Q 50.828125 45.953125 50.828125 35.296875 
Q 50.828125 22.703125 48.234375 14.96875 
Q 45.65625 7.234375 40.5 3 
Q 35.359375 -1.21875 27.484375 -1.21875 
Q 17.140625 -1.21875 11.234375 6.203125 
Q 4.15625 15.140625 4.15625 35.296875 
z
M 13.1875 35.296875 
Q 13.1875 17.671875 17.3125 11.828125 
Q 21.4375 6 27.484375 6 
Q 33.546875 6 37.671875 11.859375 
Q 41.796875 17.71875 41.796875 35.296875 
Q 41.796875 52.984375 37.671875 58.78125 
Q 33.546875 64.59375 27.390625 64.59375 
Q 21.34375 64.59375 17.71875 59.46875 
Q 13.1875 52.9375 13.1875 35.296875 
z
" id="ArialMT-48"/>
      </defs>
      <g style="fill:#262626;" transform="translate(302.816302 194.191232)scale(0.11 -0.11)">
       <use xlink:href="#ArialMT-49"/>
       <use x="55.615234" xlink:href="#ArialMT-48"/>
      </g>
     </g>
    </g>
    <g id="xtick_6">
     <g id="line2d_6">
      <g>
       <use style="fill:#262626;stroke:#262626;stroke-width:1.25;" x="366.8" xlink:href="#me453934816" y="176.817638"/>
      </g>
     </g>
     <g id="text_6">
      <!-- 12 -->
      <g style="fill:#262626;" transform="translate(360.682969 194.191232)scale(0.11 -0.11)">
       <use xlink:href="#ArialMT-49"/>
       <use x="55.615234" xlink:href="#ArialMT-50"/>
      </g>
     </g>
    </g>
    <g id="xtick_7">
     <g id="line2d_7">
      <g>
       <use style="fill:#262626;stroke:#262626;stroke-width:1.25;" x="424.666667" xlink:href="#me453934816" y="176.817638"/>
      </g>
     </g>
     <g id="text_7">
      <!-- 14 -->
      <g style="fill:#262626;" transform="translate(418.549635 194.191232)scale(0.11 -0.11)">
       <use xlink:href="#ArialMT-49"/>
       <use x="55.615234" xlink:href="#ArialMT-52"/>
      </g>
     </g>
    </g>
    <g id="text_8">
     <!-- $T_e$ [eV] -->
     <defs>
      <path d="M 5.90625 72.90625 
L 67.578125 72.90625 
L 66.015625 64.59375 
L 39.984375 64.59375 
L 27.484375 0 
L 17.578125 0 
L 30.078125 64.59375 
L 4.296875 64.59375 
z
" id="DejaVuSans-Oblique-84"/>
      <path d="M 48.09375 32.234375 
Q 48.25 33.015625 48.3125 33.84375 
Q 48.390625 34.671875 48.390625 35.5 
Q 48.390625 41.453125 44.890625 44.921875 
Q 41.40625 48.390625 35.40625 48.390625 
Q 28.71875 48.390625 23.578125 44.15625 
Q 18.453125 39.9375 15.828125 32.171875 
z
M 55.90625 25.203125 
L 14.109375 25.203125 
Q 13.8125 23.34375 13.71875 22.265625 
Q 13.625 21.1875 13.625 20.40625 
Q 13.625 13.625 17.796875 9.90625 
Q 21.96875 6.203125 29.59375 6.203125 
Q 35.453125 6.203125 40.671875 7.515625 
Q 45.90625 8.84375 50.390625 11.375 
L 48.6875 2.484375 
Q 43.84375 0.53125 38.6875 -0.4375 
Q 33.546875 -1.421875 28.21875 -1.421875 
Q 16.84375 -1.421875 10.71875 4.015625 
Q 4.59375 9.46875 4.59375 19.484375 
Q 4.59375 28.03125 7.640625 35.375 
Q 10.6875 42.71875 16.609375 48.484375 
Q 20.40625 52.09375 25.65625 54.046875 
Q 30.90625 56 36.8125 56 
Q 46.09375 56 51.578125 50.4375 
Q 57.078125 44.875 57.078125 35.5 
Q 57.078125 33.25 56.78125 30.6875 
Q 56.5 28.125 55.90625 25.203125 
z
" id="DejaVuSans-Oblique-101"/>
      <path id="ArialMT-32"/>
      <path d="M 6.78125 -19.875 
L 6.78125 71.578125 
L 26.171875 71.578125 
L 26.171875 64.3125 
L 15.578125 64.3125 
L 15.578125 -12.59375 
L 26.171875 -12.59375 
L 26.171875 -19.875 
z
" id="ArialMT-91"/>
      <path d="M 42.09375 16.703125 
L 51.171875 15.578125 
Q 49.03125 7.625 43.21875 3.21875 
Q 37.40625 -1.171875 28.375 -1.171875 
Q 17 -1.171875 10.328125 5.828125 
Q 3.65625 12.84375 3.65625 25.484375 
Q 3.65625 38.578125 10.390625 45.796875 
Q 17.140625 53.03125 27.875 53.03125 
Q 38.28125 53.03125 44.875 45.953125 
Q 51.46875 38.875 51.46875 26.03125 
Q 51.46875 25.25 51.421875 23.6875 
L 12.75 23.6875 
Q 13.234375 15.140625 17.578125 10.59375 
Q 21.921875 6.0625 28.421875 6.0625 
Q 33.25 6.0625 36.671875 8.59375 
Q 40.09375 11.140625 42.09375 16.703125 
z
M 13.234375 30.90625 
L 42.1875 30.90625 
Q 41.609375 37.453125 38.875 40.71875 
Q 34.671875 45.796875 27.984375 45.796875 
Q 21.921875 45.796875 17.796875 41.75 
Q 13.671875 37.703125 13.234375 30.90625 
z
" id="ArialMT-101"/>
      <path d="M 28.171875 0 
L 0.4375 71.578125 
L 10.6875 71.578125 
L 29.296875 19.578125 
Q 31.546875 13.328125 33.0625 7.859375 
Q 34.71875 13.71875 36.921875 19.578125 
L 56.25 71.578125 
L 65.921875 71.578125 
L 37.890625 0 
z
" id="ArialMT-86"/>
      <path d="M 21.296875 -19.875 
L 1.90625 -19.875 
L 1.90625 -12.59375 
L 12.5 -12.59375 
L 12.5 64.3125 
L 1.90625 64.3125 
L 1.90625 71.578125 
L 21.296875 71.578125 
z
" id="ArialMT-93"/>
     </defs>
     <g style="fill:#262626;" transform="translate(242.65 207.677482)scale(0.1 -0.1)">
      <use transform="translate(0 0.09375)" xlink:href="#DejaVuSans-Oblique-84"/>
      <use transform="translate(61.083984 -16.3125)scale(0.7)" xlink:href="#DejaVuSans-Oblique-101"/>
      <use transform="translate(106.884766 0.09375)" xlink:href="#ArialMT-32"/>
      <use transform="translate(134.667969 0.09375)" xlink:href="#ArialMT-91"/>
      <use transform="translate(162.451172 0.09375)" xlink:href="#ArialMT-101"/>
      <use transform="translate(218.066406 0.09375)" xlink:href="#ArialMT-86"/>
      <use transform="translate(284.765625 0.09375)" xlink:href="#ArialMT-93"/>
     </g>
    </g>
   </g>
   <g id="matplotlib.axis_2">
    <g id="ytick_1">
     <g id="line2d_8">
      <defs>
       <path d="M 0 0 
L -6 0 
" id="m7743b4aa64" style="stroke:#262626;stroke-width:1.25;"/>
      </defs>
      <g>
       <use style="fill:#262626;stroke:#262626;stroke-width:1.25;" x="63" xlink:href="#m7743b4aa64" y="176.817638"/>
      </g>
     </g>
     <g id="text_9">
      <!-- 0.0 -->
      <defs>
       <path d="M 9.078125 0 
L 9.078125 10.015625 
L 19.09375 10.015625 
L 19.09375 0 
z
" id="ArialMT-46"/>
      </defs>
      <g style="fill:#262626;" transform="translate(38.21 180.754435)scale(0.11 -0.11)">
       <use xlink:href="#ArialMT-48"/>
       <use x="55.615234" xlink:href="#ArialMT-46"/>
       <use x="83.398438" xlink:href="#ArialMT-48"/>
      </g>
     </g>
    </g>
    <g id="ytick_2">
     <g id="line2d_9">
      <g>
       <use style="fill:#262626;stroke:#262626;stroke-width:1.25;" x="63" xlink:href="#m7743b4aa64" y="124.775052"/>
      </g>
     </g>
     <g id="text_10">
      <!-- 0.5 -->
      <defs>
       <path d="M 4.15625 18.75 
L 13.375 19.53125 
Q 14.40625 12.796875 18.140625 9.390625 
Q 21.875 6 27.15625 6 
Q 33.5 6 37.890625 10.78125 
Q 42.28125 15.578125 42.28125 23.484375 
Q 42.28125 31 38.0625 35.34375 
Q 33.84375 39.703125 27 39.703125 
Q 22.75 39.703125 19.328125 37.765625 
Q 15.921875 35.84375 13.96875 32.765625 
L 5.71875 33.84375 
L 12.640625 70.609375 
L 48.25 70.609375 
L 48.25 62.203125 
L 19.671875 62.203125 
L 15.828125 42.96875 
Q 22.265625 47.46875 29.34375 47.46875 
Q 38.71875 47.46875 45.15625 40.96875 
Q 51.609375 34.46875 51.609375 24.265625 
Q 51.609375 14.546875 45.953125 7.46875 
Q 39.0625 -1.21875 27.15625 -1.21875 
Q 17.390625 -1.21875 11.203125 4.25 
Q 5.03125 9.71875 4.15625 18.75 
z
" id="ArialMT-53"/>
      </defs>
      <g style="fill:#262626;" transform="translate(38.21 128.711849)scale(0.11 -0.11)">
       <use xlink:href="#ArialMT-48"/>
       <use x="55.615234" xlink:href="#ArialMT-46"/>
       <use x="83.398438" xlink:href="#ArialMT-53"/>
      </g>
     </g>
    </g>
    <g id="ytick_3">
     <g id="line2d_10">
      <g>
       <use style="fill:#262626;stroke:#262626;stroke-width:1.25;" x="63" xlink:href="#m7743b4aa64" y="72.732466"/>
      </g>
     </g>
     <g id="text_11">
      <!-- 1.0 -->
      <g style="fill:#262626;" transform="translate(38.21 76.669263)scale(0.11 -0.11)">
       <use xlink:href="#ArialMT-49"/>
       <use x="55.615234" xlink:href="#ArialMT-46"/>
       <use x="83.398438" xlink:href="#ArialMT-48"/>
      </g>
     </g>
    </g>
    <g id="text_12">
     <!-- P (unnormalized) -->
     <defs>
      <path d="M 7.71875 0 
L 7.71875 71.578125 
L 34.71875 71.578125 
Q 41.84375 71.578125 45.609375 70.90625 
Q 50.875 70.015625 54.4375 67.546875 
Q 58.015625 65.09375 60.1875 60.640625 
Q 62.359375 56.203125 62.359375 50.875 
Q 62.359375 41.75 56.546875 35.421875 
Q 50.734375 29.109375 35.546875 29.109375 
L 17.1875 29.109375 
L 17.1875 0 
z
M 17.1875 37.546875 
L 35.6875 37.546875 
Q 44.875 37.546875 48.734375 40.96875 
Q 52.59375 44.390625 52.59375 50.59375 
Q 52.59375 55.078125 50.3125 58.265625 
Q 48.046875 61.46875 44.34375 62.5 
Q 41.9375 63.140625 35.5 63.140625 
L 17.1875 63.140625 
z
" id="ArialMT-80"/>
      <path d="M 23.390625 -21.046875 
Q 16.109375 -11.859375 11.078125 0.4375 
Q 6.0625 12.75 6.0625 25.921875 
Q 6.0625 37.546875 9.8125 48.1875 
Q 14.203125 60.546875 23.390625 72.796875 
L 29.6875 72.796875 
Q 23.78125 62.640625 21.875 58.296875 
Q 18.890625 51.5625 17.1875 44.234375 
Q 15.09375 35.109375 15.09375 25.875 
Q 15.09375 2.390625 29.6875 -21.046875 
z
" id="ArialMT-40"/>
      <path d="M 40.578125 0 
L 40.578125 7.625 
Q 34.515625 -1.171875 24.125 -1.171875 
Q 19.53125 -1.171875 15.546875 0.578125 
Q 11.578125 2.34375 9.640625 5 
Q 7.71875 7.671875 6.9375 11.53125 
Q 6.390625 14.109375 6.390625 19.734375 
L 6.390625 51.859375 
L 15.1875 51.859375 
L 15.1875 23.09375 
Q 15.1875 16.21875 15.71875 13.8125 
Q 16.546875 10.359375 19.234375 8.375 
Q 21.921875 6.390625 25.875 6.390625 
Q 29.828125 6.390625 33.296875 8.421875 
Q 36.765625 10.453125 38.203125 13.9375 
Q 39.65625 17.4375 39.65625 24.078125 
L 39.65625 51.859375 
L 48.4375 51.859375 
L 48.4375 0 
z
" id="ArialMT-117"/>
      <path d="M 6.59375 0 
L 6.59375 51.859375 
L 14.5 51.859375 
L 14.5 44.484375 
Q 20.21875 53.03125 31 53.03125 
Q 35.6875 53.03125 39.625 51.34375 
Q 43.5625 49.65625 45.515625 46.921875 
Q 47.46875 44.1875 48.25 40.4375 
Q 48.734375 37.984375 48.734375 31.890625 
L 48.734375 0 
L 39.9375 0 
L 39.9375 31.546875 
Q 39.9375 36.921875 38.90625 39.578125 
Q 37.890625 42.234375 35.28125 43.8125 
Q 32.671875 45.40625 29.15625 45.40625 
Q 23.53125 45.40625 19.453125 41.84375 
Q 15.375 38.28125 15.375 28.328125 
L 15.375 0 
z
" id="ArialMT-110"/>
      <path d="M 3.328125 25.921875 
Q 3.328125 40.328125 11.328125 47.265625 
Q 18.015625 53.03125 27.640625 53.03125 
Q 38.328125 53.03125 45.109375 46.015625 
Q 51.90625 39.015625 51.90625 26.65625 
Q 51.90625 16.65625 48.90625 10.90625 
Q 45.90625 5.171875 40.15625 2 
Q 34.421875 -1.171875 27.640625 -1.171875 
Q 16.75 -1.171875 10.03125 5.8125 
Q 3.328125 12.796875 3.328125 25.921875 
z
M 12.359375 25.921875 
Q 12.359375 15.96875 16.703125 11.015625 
Q 21.046875 6.0625 27.640625 6.0625 
Q 34.1875 6.0625 38.53125 11.03125 
Q 42.875 16.015625 42.875 26.21875 
Q 42.875 35.84375 38.5 40.796875 
Q 34.125 45.75 27.640625 45.75 
Q 21.046875 45.75 16.703125 40.8125 
Q 12.359375 35.890625 12.359375 25.921875 
z
" id="ArialMT-111"/>
      <path d="M 6.5 0 
L 6.5 51.859375 
L 14.40625 51.859375 
L 14.40625 44 
Q 17.4375 49.515625 20 51.265625 
Q 22.5625 53.03125 25.640625 53.03125 
Q 30.078125 53.03125 34.671875 50.203125 
L 31.640625 42.046875 
Q 28.421875 43.953125 25.203125 43.953125 
Q 22.3125 43.953125 20.015625 42.21875 
Q 17.71875 40.484375 16.75 37.40625 
Q 15.28125 32.71875 15.28125 27.15625 
L 15.28125 0 
z
" id="ArialMT-114"/>
      <path d="M 6.59375 0 
L 6.59375 51.859375 
L 14.453125 51.859375 
L 14.453125 44.578125 
Q 16.890625 48.390625 20.9375 50.703125 
Q 25 53.03125 30.171875 53.03125 
Q 35.9375 53.03125 39.625 50.640625 
Q 43.3125 48.25 44.828125 43.953125 
Q 50.984375 53.03125 60.84375 53.03125 
Q 68.5625 53.03125 72.703125 48.75 
Q 76.859375 44.484375 76.859375 35.59375 
L 76.859375 0 
L 68.109375 0 
L 68.109375 32.671875 
Q 68.109375 37.9375 67.25 40.25 
Q 66.40625 42.578125 64.15625 43.984375 
Q 61.921875 45.40625 58.890625 45.40625 
Q 53.421875 45.40625 49.796875 41.765625 
Q 46.1875 38.140625 46.1875 30.125 
L 46.1875 0 
L 37.40625 0 
L 37.40625 33.6875 
Q 37.40625 39.546875 35.25 42.46875 
Q 33.109375 45.40625 28.21875 45.40625 
Q 24.515625 45.40625 21.359375 43.453125 
Q 18.21875 41.5 16.796875 37.734375 
Q 15.375 33.984375 15.375 26.90625 
L 15.375 0 
z
" id="ArialMT-109"/>
      <path d="M 40.4375 6.390625 
Q 35.546875 2.25 31.03125 0.53125 
Q 26.515625 -1.171875 21.34375 -1.171875 
Q 12.796875 -1.171875 8.203125 3 
Q 3.609375 7.171875 3.609375 13.671875 
Q 3.609375 17.484375 5.34375 20.625 
Q 7.078125 23.78125 9.890625 25.6875 
Q 12.703125 27.59375 16.21875 28.5625 
Q 18.796875 29.25 24.03125 29.890625 
Q 34.671875 31.15625 39.703125 32.90625 
Q 39.75 34.71875 39.75 35.203125 
Q 39.75 40.578125 37.25 42.78125 
Q 33.890625 45.75 27.25 45.75 
Q 21.046875 45.75 18.09375 43.578125 
Q 15.140625 41.40625 13.71875 35.890625 
L 5.125 37.0625 
Q 6.296875 42.578125 8.984375 45.96875 
Q 11.671875 49.359375 16.75 51.1875 
Q 21.828125 53.03125 28.515625 53.03125 
Q 35.15625 53.03125 39.296875 51.46875 
Q 43.453125 49.90625 45.40625 47.53125 
Q 47.359375 45.171875 48.140625 41.546875 
Q 48.578125 39.3125 48.578125 33.453125 
L 48.578125 21.734375 
Q 48.578125 9.46875 49.140625 6.21875 
Q 49.703125 2.984375 51.375 0 
L 42.1875 0 
Q 40.828125 2.734375 40.4375 6.390625 
z
M 39.703125 26.03125 
Q 34.90625 24.078125 25.34375 22.703125 
Q 19.921875 21.921875 17.671875 20.9375 
Q 15.4375 19.96875 14.203125 18.09375 
Q 12.984375 16.21875 12.984375 13.921875 
Q 12.984375 10.40625 15.640625 8.0625 
Q 18.3125 5.71875 23.4375 5.71875 
Q 28.515625 5.71875 32.46875 7.9375 
Q 36.421875 10.15625 38.28125 14.015625 
Q 39.703125 17 39.703125 22.796875 
z
" id="ArialMT-97"/>
      <path d="M 6.390625 0 
L 6.390625 71.578125 
L 15.1875 71.578125 
L 15.1875 0 
z
" id="ArialMT-108"/>
      <path d="M 6.640625 61.46875 
L 6.640625 71.578125 
L 15.4375 71.578125 
L 15.4375 61.46875 
z
M 6.640625 0 
L 6.640625 51.859375 
L 15.4375 51.859375 
L 15.4375 0 
z
" id="ArialMT-105"/>
      <path d="M 1.953125 0 
L 1.953125 7.125 
L 34.96875 45.015625 
Q 29.34375 44.734375 25.046875 44.734375 
L 3.90625 44.734375 
L 3.90625 51.859375 
L 46.296875 51.859375 
L 46.296875 46.046875 
L 18.21875 13.140625 
L 12.796875 7.125 
Q 18.703125 7.5625 23.875 7.5625 
L 47.859375 7.5625 
L 47.859375 0 
z
" id="ArialMT-122"/>
      <path d="M 40.234375 0 
L 40.234375 6.546875 
Q 35.296875 -1.171875 25.734375 -1.171875 
Q 19.53125 -1.171875 14.328125 2.25 
Q 9.125 5.671875 6.265625 11.796875 
Q 3.421875 17.921875 3.421875 25.875 
Q 3.421875 33.640625 6 39.96875 
Q 8.59375 46.296875 13.765625 49.65625 
Q 18.953125 53.03125 25.34375 53.03125 
Q 30.03125 53.03125 33.6875 51.046875 
Q 37.359375 49.078125 39.65625 45.90625 
L 39.65625 71.578125 
L 48.390625 71.578125 
L 48.390625 0 
z
M 12.453125 25.875 
Q 12.453125 15.921875 16.640625 10.984375 
Q 20.84375 6.0625 26.5625 6.0625 
Q 32.328125 6.0625 36.34375 10.765625 
Q 40.375 15.484375 40.375 25.140625 
Q 40.375 35.796875 36.265625 40.765625 
Q 32.171875 45.75 26.171875 45.75 
Q 20.3125 45.75 16.375 40.96875 
Q 12.453125 36.1875 12.453125 25.875 
z
" id="ArialMT-100"/>
      <path d="M 12.359375 -21.046875 
L 6.0625 -21.046875 
Q 20.65625 2.390625 20.65625 25.875 
Q 20.65625 35.0625 18.5625 44.09375 
Q 16.890625 51.421875 13.921875 58.15625 
Q 12.015625 62.546875 6.0625 72.796875 
L 12.359375 72.796875 
Q 21.53125 60.546875 25.921875 48.1875 
Q 29.6875 37.546875 29.6875 25.921875 
Q 29.6875 12.75 24.625 0.4375 
Q 19.578125 -11.859375 12.359375 -21.046875 
z
" id="ArialMT-41"/>
     </defs>
     <g style="fill:#262626;" transform="translate(32.105312 160.431988)rotate(-90)scale(0.1 -0.1)">
      <use xlink:href="#ArialMT-80"/>
      <use x="66.683594" xlink:href="#ArialMT-32"/>
      <use x="94.466797" xlink:href="#ArialMT-40"/>
      <use x="127.767578" xlink:href="#ArialMT-117"/>
      <use x="183.382812" xlink:href="#ArialMT-110"/>
      <use x="238.998047" xlink:href="#ArialMT-110"/>
      <use x="294.613281" xlink:href="#ArialMT-111"/>
      <use x="350.228516" xlink:href="#ArialMT-114"/>
      <use x="383.529297" xlink:href="#ArialMT-109"/>
      <use x="466.830078" xlink:href="#ArialMT-97"/>
      <use x="522.445312" xlink:href="#ArialMT-108"/>
      <use x="544.662109" xlink:href="#ArialMT-105"/>
      <use x="566.878906" xlink:href="#ArialMT-122"/>
      <use x="616.878906" xlink:href="#ArialMT-101"/>
      <use x="672.494141" xlink:href="#ArialMT-100"/>
      <use x="728.109375" xlink:href="#ArialMT-41"/>
     </g>
    </g>
   </g>
   <g id="line2d_11">
    <path clip-path="url(#p13cdf3eff7)" d="M 151.15344 176.816964 
L 158.102175 176.707941 
L 162.07288 176.48768 
L 165.05091 176.000978 
L 169.021615 175.132804 
L 171.006968 174.458889 
L 171.999645 173.950086 
L 172.992321 173.295457 
L 174.977674 171.549478 
L 175.97035 170.456443 
L 176.963027 169.179642 
L 177.955703 167.679764 
L 179.941056 164.113346 
L 183.911761 156.512895 
L 184.904438 154.025117 
L 185.897114 151.079315 
L 187.882467 144.224549 
L 192.845849 126.119301 
L 197.809231 105.175383 
L 198.801908 101.997046 
L 199.794584 99.38618 
L 200.78726 97.345749 
L 201.779937 95.849212 
L 202.772613 94.833592 
L 203.76529 94.194421 
L 204.757966 93.805015 
L 205.750642 93.580678 
L 206.743319 93.56359 
L 207.735995 93.950514 
L 208.728672 94.997353 
L 209.721348 96.831788 
L 211.706701 102.079709 
L 213.692054 107.276313 
L 216.670083 114.668676 
L 221.633465 127.559243 
L 227.589524 146.004817 
L 229.574876 150.481759 
L 232.552906 156.886303 
L 234.538258 161.00796 
L 235.530935 162.614611 
L 236.523611 163.860251 
L 238.508964 165.719662 
L 240.494317 167.600722 
L 244.465023 171.925974 
L 245.457699 172.772235 
L 246.450375 173.407568 
L 247.443052 173.835315 
L 249.428405 174.301102 
L 252.406434 174.954285 
L 255.384463 175.571521 
L 262.333198 176.446012 
L 267.29658 176.682846 
L 277.223344 176.816999 
L 277.223344 176.816999 
" style="fill:none;stroke:#4c72b0;stroke-linecap:round;stroke-width:1.5;"/>
   </g>
   <g id="line2d_12">
    <path clip-path="url(#p13cdf3eff7)" d="M 155.343678 176.81679 
L 162.018532 176.712176 
L 164.521603 176.525723 
L 166.190316 176.16914 
L 167.85903 175.513165 
L 170.3621 174.209292 
L 172.030814 172.947008 
L 172.86517 172.139448 
L 173.699527 171.160081 
L 174.533884 169.950889 
L 176.202597 166.889909 
L 177.036954 165.095349 
L 177.871311 163.023512 
L 178.705668 160.539226 
L 180.374381 154.414737 
L 182.877451 144.324629 
L 184.546165 136.467919 
L 186.214878 127.031287 
L 190.386662 101.608954 
L 192.889733 88.329321 
L 193.724089 84.300688 
L 194.558446 80.959704 
L 195.392803 78.629966 
L 196.22716 77.370645 
L 197.061516 76.925879 
L 198.73023 76.69322 
L 199.564587 76.271326 
L 200.398943 75.708856 
L 201.2333 75.381801 
L 202.067657 75.690167 
L 202.902014 76.848888 
L 203.73637 78.803727 
L 205.405084 84.139516 
L 207.073797 90.672744 
L 208.742511 98.785142 
L 210.411224 108.222326 
L 212.914295 122.680916 
L 214.583008 130.319628 
L 220.423506 152.146348 
L 222.092219 156.624239 
L 226.264003 167.177965 
L 227.09836 168.649854 
L 227.932716 169.758954 
L 229.60143 171.280986 
L 232.938857 173.745273 
L 234.607571 174.582052 
L 236.276284 175.062795 
L 243.785495 176.62801 
L 246.288565 176.799935 
L 252.963419 176.799882 
L 258.803917 176.803444 
L 261.306987 176.816791 
L 261.306987 176.816791 
" style="fill:none;stroke:#dd8452;stroke-linecap:round;stroke-width:1.5;"/>
   </g>
   <g id="line2d_13">
    <path clip-path="url(#p13cdf3eff7)" d="M 205.911515 176.816729 
L 212.890631 176.696414 
L 219.094291 176.525146 
L 222.19612 176.088991 
L 223.747035 175.680867 
L 224.522492 175.288719 
L 225.29795 174.707645 
L 226.848865 173.018057 
L 229.175237 170.02382 
L 229.950694 168.896871 
L 230.726152 167.54399 
L 231.501609 165.878263 
L 232.277066 163.851776 
L 233.052524 161.429175 
L 234.603439 155.316842 
L 236.154353 147.863426 
L 239.256183 131.545777 
L 242.358013 114.21615 
L 246.2353 91.019115 
L 247.786214 84.430029 
L 249.337129 78.892505 
L 250.112587 76.615046 
L 250.888044 74.856934 
L 251.663501 73.675378 
L 252.438959 73.096443 
L 253.214416 73.127032 
L 253.989874 73.67789 
L 257.867161 77.805063 
L 258.642618 79.076263 
L 259.418075 81.008559 
L 260.193533 83.763876 
L 260.96899 87.368545 
L 262.519905 96.539106 
L 264.07082 106.329628 
L 265.621735 114.683981 
L 272.600851 147.143513 
L 274.151766 152.587209 
L 276.478138 158.994572 
L 278.80451 165.185062 
L 279.579968 166.849419 
L 280.355425 168.164679 
L 281.130883 169.1613 
L 282.681797 170.541807 
L 286.559084 173.347131 
L 288.885457 175.143981 
L 290.436371 175.866665 
L 291.987286 176.206423 
L 294.313658 176.432807 
L 297.415488 176.485479 
L 299.74186 176.614406 
L 302.84369 176.803641 
L 304.394605 176.816148 
L 304.394605 176.816148 
" style="fill:none;stroke:#55a868;stroke-linecap:round;stroke-width:1.5;"/>
   </g>
   <g id="patch_3">
    <path d="M 63 176.817638 
L 63 67.9104 
" style="fill:none;stroke:#262626;stroke-linecap:square;stroke-linejoin:miter;stroke-width:1.25;"/>
   </g>
   <g id="patch_4">
    <path d="M 453.6 176.817638 
L 453.6 67.9104 
" style="fill:none;stroke:#262626;stroke-linecap:square;stroke-linejoin:miter;stroke-width:1.25;"/>
   </g>
   <g id="patch_5">
    <path d="M 63 176.817638 
L 453.6 176.817638 
" style="fill:none;stroke:#262626;stroke-linecap:square;stroke-linejoin:miter;stroke-width:1.25;"/>
   </g>
   <g id="patch_6">
    <path d="M 63 67.9104 
L 453.6 67.9104 
" style="fill:none;stroke:#262626;stroke-linecap:square;stroke-linejoin:miter;stroke-width:1.25;"/>
   </g>
   <g id="text_13">
    <!-- Fixed Maxwellian model -->
    <defs>
     <path d="M 8.203125 0 
L 8.203125 71.578125 
L 56.5 71.578125 
L 56.5 63.140625 
L 17.671875 63.140625 
L 17.671875 40.96875 
L 51.265625 40.96875 
L 51.265625 32.515625 
L 17.671875 32.515625 
L 17.671875 0 
z
" id="ArialMT-70"/>
     <path d="M 0.734375 0 
L 19.671875 26.953125 
L 2.15625 51.859375 
L 13.140625 51.859375 
L 21.09375 39.703125 
Q 23.34375 36.234375 24.703125 33.890625 
Q 26.859375 37.109375 28.65625 39.59375 
L 37.40625 51.859375 
L 47.90625 51.859375 
L 29.984375 27.4375 
L 49.265625 0 
L 38.484375 0 
L 27.828125 16.109375 
L 25 20.453125 
L 11.375 0 
z
" id="ArialMT-120"/>
     <path d="M 7.421875 0 
L 7.421875 71.578125 
L 21.6875 71.578125 
L 38.625 20.90625 
Q 40.96875 13.8125 42.046875 10.296875 
Q 43.265625 14.203125 45.84375 21.78125 
L 62.984375 71.578125 
L 75.734375 71.578125 
L 75.734375 0 
L 66.609375 0 
L 66.609375 59.90625 
L 45.796875 0 
L 37.25 0 
L 16.546875 60.9375 
L 16.546875 0 
z
" id="ArialMT-77"/>
     <path d="M 16.15625 0 
L 0.296875 51.859375 
L 9.375 51.859375 
L 17.625 21.921875 
L 20.703125 10.796875 
Q 20.90625 11.625 23.390625 21.484375 
L 31.640625 51.859375 
L 40.671875 51.859375 
L 48.4375 21.78125 
L 51.03125 11.859375 
L 54 21.875 
L 62.890625 51.859375 
L 71.4375 51.859375 
L 55.21875 0 
L 46.09375 0 
L 37.84375 31.0625 
L 35.84375 39.890625 
L 25.34375 0 
z
" id="ArialMT-119"/>
    </defs>
    <g style="fill:#262626;" transform="translate(183.607813 61.9104)scale(0.14 -0.14)">
     <use xlink:href="#ArialMT-70"/>
     <use x="61.083984" xlink:href="#ArialMT-105"/>
     <use x="83.300781" xlink:href="#ArialMT-120"/>
     <use x="133.300781" xlink:href="#ArialMT-101"/>
     <use x="188.916016" xlink:href="#ArialMT-100"/>
     <use x="244.53125" xlink:href="#ArialMT-32"/>
     <use x="272.314453" xlink:href="#ArialMT-77"/>
     <use x="355.615234" xlink:href="#ArialMT-97"/>
     <use x="411.230469" xlink:href="#ArialMT-120"/>
     <use x="461.230469" xlink:href="#ArialMT-119"/>
     <use x="533.447266" xlink:href="#ArialMT-101"/>
     <use x="589.0625" xlink:href="#ArialMT-108"/>
     <use x="611.279297" xlink:href="#ArialMT-108"/>
     <use x="633.496094" xlink:href="#ArialMT-105"/>
     <use x="655.712891" xlink:href="#ArialMT-97"/>
     <use x="711.328125" xlink:href="#ArialMT-110"/>
     <use x="766.943359" xlink:href="#ArialMT-32"/>
     <use x="794.726562" xlink:href="#ArialMT-109"/>
     <use x="878.027344" xlink:href="#ArialMT-111"/>
     <use x="933.642578" xlink:href="#ArialMT-100"/>
     <use x="989.257812" xlink:href="#ArialMT-101"/>
     <use x="1044.873047" xlink:href="#ArialMT-108"/>
    </g>
   </g>
   <g id="legend_1">
    <g id="patch_7">
     <path d="M 380.747344 123.389931 
L 445.9 123.389931 
Q 448.1 123.389931 448.1 121.189931 
L 448.1 75.6104 
Q 448.1 73.4104 445.9 73.4104 
L 380.747344 73.4104 
Q 378.547344 73.4104 378.547344 75.6104 
L 378.547344 121.189931 
Q 378.547344 123.389931 380.747344 123.389931 
z
" style="fill:#ffffff;opacity:0.8;stroke:#cccccc;stroke-linejoin:miter;"/>
    </g>
    <g id="line2d_14">
     <path d="M 382.947344 81.833994 
L 404.947344 81.833994 
" style="fill:none;stroke:#4c72b0;stroke-linecap:round;stroke-width:1.5;"/>
    </g>
    <g id="line2d_15"/>
    <g id="text_14">
     <!-- 34 cm -->
     <defs>
      <path d="M 4.203125 18.890625 
L 12.984375 20.0625 
Q 14.5 12.59375 18.140625 9.296875 
Q 21.78125 6 27 6 
Q 33.203125 6 37.46875 10.296875 
Q 41.75 14.59375 41.75 20.953125 
Q 41.75 27 37.796875 30.921875 
Q 33.84375 34.859375 27.734375 34.859375 
Q 25.25 34.859375 21.53125 33.890625 
L 22.515625 41.609375 
Q 23.390625 41.5 23.921875 41.5 
Q 29.546875 41.5 34.03125 44.421875 
Q 38.53125 47.359375 38.53125 53.46875 
Q 38.53125 58.296875 35.25 61.46875 
Q 31.984375 64.65625 26.8125 64.65625 
Q 21.6875 64.65625 18.265625 61.421875 
Q 14.84375 58.203125 13.875 51.765625 
L 5.078125 53.328125 
Q 6.6875 62.15625 12.390625 67.015625 
Q 18.109375 71.875 26.609375 71.875 
Q 32.46875 71.875 37.390625 69.359375 
Q 42.328125 66.84375 44.9375 62.5 
Q 47.5625 58.15625 47.5625 53.265625 
Q 47.5625 48.640625 45.0625 44.828125 
Q 42.578125 41.015625 37.703125 38.765625 
Q 44.046875 37.3125 47.5625 32.6875 
Q 51.078125 28.078125 51.078125 21.140625 
Q 51.078125 11.765625 44.234375 5.25 
Q 37.40625 -1.265625 26.953125 -1.265625 
Q 17.53125 -1.265625 11.296875 4.34375 
Q 5.078125 9.96875 4.203125 18.890625 
z
" id="ArialMT-51"/>
      <path d="M 40.4375 19 
L 49.078125 17.875 
Q 47.65625 8.9375 41.8125 3.875 
Q 35.984375 -1.171875 27.484375 -1.171875 
Q 16.84375 -1.171875 10.375 5.78125 
Q 3.90625 12.75 3.90625 25.734375 
Q 3.90625 34.125 6.6875 40.421875 
Q 9.46875 46.734375 15.15625 49.875 
Q 20.84375 53.03125 27.546875 53.03125 
Q 35.984375 53.03125 41.359375 48.75 
Q 46.734375 44.484375 48.25 36.625 
L 39.703125 35.296875 
Q 38.484375 40.53125 35.375 43.15625 
Q 32.28125 45.796875 27.875 45.796875 
Q 21.234375 45.796875 17.078125 41.03125 
Q 12.9375 36.28125 12.9375 25.984375 
Q 12.9375 15.53125 16.9375 10.796875 
Q 20.953125 6.0625 27.390625 6.0625 
Q 32.5625 6.0625 36.03125 9.234375 
Q 39.5 12.40625 40.4375 19 
z
" id="ArialMT-99"/>
     </defs>
     <g style="fill:#262626;" transform="translate(413.747344 85.683994)scale(0.11 -0.11)">
      <use xlink:href="#ArialMT-51"/>
      <use x="55.615234" xlink:href="#ArialMT-52"/>
      <use x="111.230469" xlink:href="#ArialMT-32"/>
      <use x="139.013672" xlink:href="#ArialMT-99"/>
      <use x="189.013672" xlink:href="#ArialMT-109"/>
     </g>
    </g>
    <g id="line2d_16">
     <path d="M 382.947344 97.393838 
L 404.947344 97.393838 
" style="fill:none;stroke:#dd8452;stroke-linecap:round;stroke-width:1.5;"/>
    </g>
    <g id="line2d_17"/>
    <g id="text_15">
     <!-- 29 cm -->
     <defs>
      <path d="M 5.46875 16.546875 
L 13.921875 17.328125 
Q 14.984375 11.375 18.015625 8.6875 
Q 21.046875 6 25.78125 6 
Q 29.828125 6 32.875 7.859375 
Q 35.9375 9.71875 37.890625 12.8125 
Q 39.84375 15.921875 41.15625 21.1875 
Q 42.484375 26.46875 42.484375 31.9375 
Q 42.484375 32.515625 42.4375 33.6875 
Q 39.796875 29.5 35.234375 26.875 
Q 30.671875 24.265625 25.34375 24.265625 
Q 16.453125 24.265625 10.296875 30.703125 
Q 4.15625 37.15625 4.15625 47.703125 
Q 4.15625 58.59375 10.578125 65.234375 
Q 17 71.875 26.65625 71.875 
Q 33.640625 71.875 39.421875 68.109375 
Q 45.21875 64.359375 48.21875 57.390625 
Q 51.21875 50.4375 51.21875 37.25 
Q 51.21875 23.53125 48.234375 15.40625 
Q 45.265625 7.28125 39.375 3.03125 
Q 33.5 -1.21875 25.59375 -1.21875 
Q 17.1875 -1.21875 11.859375 3.4375 
Q 6.546875 8.109375 5.46875 16.546875 
z
M 41.453125 48.140625 
Q 41.453125 55.71875 37.421875 60.15625 
Q 33.40625 64.59375 27.734375 64.59375 
Q 21.875 64.59375 17.53125 59.8125 
Q 13.1875 55.03125 13.1875 47.40625 
Q 13.1875 40.578125 17.3125 36.296875 
Q 21.4375 32.03125 27.484375 32.03125 
Q 33.59375 32.03125 37.515625 36.296875 
Q 41.453125 40.578125 41.453125 48.140625 
z
" id="ArialMT-57"/>
     </defs>
     <g style="fill:#262626;" transform="translate(413.747344 101.243838)scale(0.11 -0.11)">
      <use xlink:href="#ArialMT-50"/>
      <use x="55.615234" xlink:href="#ArialMT-57"/>
      <use x="111.230469" xlink:href="#ArialMT-32"/>
      <use x="139.013672" xlink:href="#ArialMT-99"/>
      <use x="189.013672" xlink:href="#ArialMT-109"/>
     </g>
    </g>
    <g id="line2d_18">
     <path d="M 382.947344 112.953681 
L 404.947344 112.953681 
" style="fill:none;stroke:#55a868;stroke-linecap:round;stroke-width:1.5;"/>
    </g>
    <g id="line2d_19"/>
    <g id="text_16">
     <!-- 25 cm -->
     <g style="fill:#262626;" transform="translate(413.747344 116.803681)scale(0.11 -0.11)">
      <use xlink:href="#ArialMT-50"/>
      <use x="55.615234" xlink:href="#ArialMT-53"/>
      <use x="111.230469" xlink:href="#ArialMT-32"/>
      <use x="139.013672" xlink:href="#ArialMT-99"/>
      <use x="189.013672" xlink:href="#ArialMT-109"/>
     </g>
    </g>
   </g>
  </g>
  <g id="axes_2">
   <g id="patch_8">
    <path d="M 63 355.496273 
L 453.6 355.496273 
L 453.6 246.589035 
L 63 246.589035 
z
" style="fill:#ffffff;"/>
   </g>
   <g id="matplotlib.axis_3">
    <g id="xtick_8">
     <g id="line2d_20">
      <g>
       <use style="fill:#262626;stroke:#262626;stroke-width:1.25;" x="77.466667" xlink:href="#me453934816" y="355.496273"/>
      </g>
     </g>
     <g id="text_17">
      <!-- 2 -->
      <g style="fill:#262626;" transform="translate(74.408151 372.869867)scale(0.11 -0.11)">
       <use xlink:href="#ArialMT-50"/>
      </g>
     </g>
    </g>
    <g id="xtick_9">
     <g id="line2d_21">
      <g>
       <use style="fill:#262626;stroke:#262626;stroke-width:1.25;" x="135.333333" xlink:href="#me453934816" y="355.496273"/>
      </g>
     </g>
     <g id="text_18">
      <!-- 4 -->
      <g style="fill:#262626;" transform="translate(132.274818 372.869867)scale(0.11 -0.11)">
       <use xlink:href="#ArialMT-52"/>
      </g>
     </g>
    </g>
    <g id="xtick_10">
     <g id="line2d_22">
      <g>
       <use style="fill:#262626;stroke:#262626;stroke-width:1.25;" x="193.2" xlink:href="#me453934816" y="355.496273"/>
      </g>
     </g>
     <g id="text_19">
      <!-- 6 -->
      <g style="fill:#262626;" transform="translate(190.141484 372.869867)scale(0.11 -0.11)">
       <use xlink:href="#ArialMT-54"/>
      </g>
     </g>
    </g>
    <g id="xtick_11">
     <g id="line2d_23">
      <g>
       <use style="fill:#262626;stroke:#262626;stroke-width:1.25;" x="251.066667" xlink:href="#me453934816" y="355.496273"/>
      </g>
     </g>
     <g id="text_20">
      <!-- 8 -->
      <g style="fill:#262626;" transform="translate(248.008151 372.869867)scale(0.11 -0.11)">
       <use xlink:href="#ArialMT-56"/>
      </g>
     </g>
    </g>
    <g id="xtick_12">
     <g id="line2d_24">
      <g>
       <use style="fill:#262626;stroke:#262626;stroke-width:1.25;" x="308.933333" xlink:href="#me453934816" y="355.496273"/>
      </g>
     </g>
     <g id="text_21">
      <!-- 10 -->
      <g style="fill:#262626;" transform="translate(302.816302 372.869867)scale(0.11 -0.11)">
       <use xlink:href="#ArialMT-49"/>
       <use x="55.615234" xlink:href="#ArialMT-48"/>
      </g>
     </g>
    </g>
    <g id="xtick_13">
     <g id="line2d_25">
      <g>
       <use style="fill:#262626;stroke:#262626;stroke-width:1.25;" x="366.8" xlink:href="#me453934816" y="355.496273"/>
      </g>
     </g>
     <g id="text_22">
      <!-- 12 -->
      <g style="fill:#262626;" transform="translate(360.682969 372.869867)scale(0.11 -0.11)">
       <use xlink:href="#ArialMT-49"/>
       <use x="55.615234" xlink:href="#ArialMT-50"/>
      </g>
     </g>
    </g>
    <g id="xtick_14">
     <g id="line2d_26">
      <g>
       <use style="fill:#262626;stroke:#262626;stroke-width:1.25;" x="424.666667" xlink:href="#me453934816" y="355.496273"/>
      </g>
     </g>
     <g id="text_23">
      <!-- 14 -->
      <g style="fill:#262626;" transform="translate(418.549635 372.869867)scale(0.11 -0.11)">
       <use xlink:href="#ArialMT-49"/>
       <use x="55.615234" xlink:href="#ArialMT-52"/>
      </g>
     </g>
    </g>
    <g id="text_24">
     <!-- $T_e$ [eV] -->
     <g style="fill:#262626;" transform="translate(242.65 386.356117)scale(0.1 -0.1)">
      <use transform="translate(0 0.09375)" xlink:href="#DejaVuSans-Oblique-84"/>
      <use transform="translate(61.083984 -16.3125)scale(0.7)" xlink:href="#DejaVuSans-Oblique-101"/>
      <use transform="translate(106.884766 0.09375)" xlink:href="#ArialMT-32"/>
      <use transform="translate(134.667969 0.09375)" xlink:href="#ArialMT-91"/>
      <use transform="translate(162.451172 0.09375)" xlink:href="#ArialMT-101"/>
      <use transform="translate(218.066406 0.09375)" xlink:href="#ArialMT-86"/>
      <use transform="translate(284.765625 0.09375)" xlink:href="#ArialMT-93"/>
     </g>
    </g>
   </g>
   <g id="matplotlib.axis_4">
    <g id="ytick_4">
     <g id="line2d_27">
      <g>
       <use style="fill:#262626;stroke:#262626;stroke-width:1.25;" x="63" xlink:href="#m7743b4aa64" y="355.496273"/>
      </g>
     </g>
     <g id="text_25">
      <!-- 0.00 -->
      <g style="fill:#262626;" transform="translate(32.092969 359.43307)scale(0.11 -0.11)">
       <use xlink:href="#ArialMT-48"/>
       <use x="55.615234" xlink:href="#ArialMT-46"/>
       <use x="83.398438" xlink:href="#ArialMT-48"/>
       <use x="139.013672" xlink:href="#ArialMT-48"/>
      </g>
     </g>
    </g>
    <g id="ytick_5">
     <g id="line2d_28">
      <g>
       <use style="fill:#262626;stroke:#262626;stroke-width:1.25;" x="63" xlink:href="#m7743b4aa64" y="323.946485"/>
      </g>
     </g>
     <g id="text_26">
      <!-- 0.25 -->
      <g style="fill:#262626;" transform="translate(32.092969 327.883282)scale(0.11 -0.11)">
       <use xlink:href="#ArialMT-48"/>
       <use x="55.615234" xlink:href="#ArialMT-46"/>
       <use x="83.398438" xlink:href="#ArialMT-50"/>
       <use x="139.013672" xlink:href="#ArialMT-53"/>
      </g>
     </g>
    </g>
    <g id="ytick_6">
     <g id="line2d_29">
      <g>
       <use style="fill:#262626;stroke:#262626;stroke-width:1.25;" x="63" xlink:href="#m7743b4aa64" y="292.396696"/>
      </g>
     </g>
     <g id="text_27">
      <!-- 0.50 -->
      <g style="fill:#262626;" transform="translate(32.092969 296.333493)scale(0.11 -0.11)">
       <use xlink:href="#ArialMT-48"/>
       <use x="55.615234" xlink:href="#ArialMT-46"/>
       <use x="83.398438" xlink:href="#ArialMT-53"/>
       <use x="139.013672" xlink:href="#ArialMT-48"/>
      </g>
     </g>
    </g>
    <g id="ytick_7">
     <g id="line2d_30">
      <g>
       <use style="fill:#262626;stroke:#262626;stroke-width:1.25;" x="63" xlink:href="#m7743b4aa64" y="260.846908"/>
      </g>
     </g>
     <g id="text_28">
      <!-- 0.75 -->
      <defs>
       <path d="M 4.734375 62.203125 
L 4.734375 70.65625 
L 51.078125 70.65625 
L 51.078125 63.8125 
Q 44.234375 56.546875 37.515625 44.484375 
Q 30.8125 32.421875 27.15625 19.671875 
Q 24.515625 10.6875 23.78125 0 
L 14.75 0 
Q 14.890625 8.453125 18.0625 20.40625 
Q 21.234375 32.375 27.171875 43.484375 
Q 33.109375 54.59375 39.796875 62.203125 
z
" id="ArialMT-55"/>
      </defs>
      <g style="fill:#262626;" transform="translate(32.092969 264.783705)scale(0.11 -0.11)">
       <use xlink:href="#ArialMT-48"/>
       <use x="55.615234" xlink:href="#ArialMT-46"/>
       <use x="83.398438" xlink:href="#ArialMT-55"/>
       <use x="139.013672" xlink:href="#ArialMT-53"/>
      </g>
     </g>
    </g>
    <g id="text_29">
     <!-- P (unnormalized) -->
     <g style="fill:#262626;" transform="translate(25.988281 339.110623)rotate(-90)scale(0.1 -0.1)">
      <use xlink:href="#ArialMT-80"/>
      <use x="66.683594" xlink:href="#ArialMT-32"/>
      <use x="94.466797" xlink:href="#ArialMT-40"/>
      <use x="127.767578" xlink:href="#ArialMT-117"/>
      <use x="183.382812" xlink:href="#ArialMT-110"/>
      <use x="238.998047" xlink:href="#ArialMT-110"/>
      <use x="294.613281" xlink:href="#ArialMT-111"/>
      <use x="350.228516" xlink:href="#ArialMT-114"/>
      <use x="383.529297" xlink:href="#ArialMT-109"/>
      <use x="466.830078" xlink:href="#ArialMT-97"/>
      <use x="522.445312" xlink:href="#ArialMT-108"/>
      <use x="544.662109" xlink:href="#ArialMT-105"/>
      <use x="566.878906" xlink:href="#ArialMT-122"/>
      <use x="616.878906" xlink:href="#ArialMT-101"/>
      <use x="672.494141" xlink:href="#ArialMT-100"/>
      <use x="728.109375" xlink:href="#ArialMT-41"/>
     </g>
    </g>
   </g>
   <g id="line2d_31">
    <path clip-path="url(#pcbec229c52)" d="M 33.745838 355.485804 
L 38.229275 355.365575 
L 41.218233 355.016313 
L 42.712712 354.67718 
L 44.207191 354.19852 
L 47.196148 352.857092 
L 51.679585 350.652875 
L 53.174064 350.105661 
L 56.163022 349.367822 
L 60.646459 348.477369 
L 63.635416 347.569578 
L 77.085727 342.545289 
L 80.074684 341.07842 
L 83.063642 339.287189 
L 86.0526 337.100173 
L 95.019474 330.032102 
L 98.008431 327.690836 
L 100.997389 325.118696 
L 108.469784 318.448685 
L 112.95322 314.52309 
L 115.942178 311.673041 
L 121.920094 305.763363 
L 123.414573 304.552257 
L 124.909052 303.570306 
L 126.403531 302.85124 
L 127.89801 302.411286 
L 129.392488 302.255549 
L 130.886967 302.380361 
L 132.381446 302.769522 
L 133.875925 303.388943 
L 136.864883 305.102727 
L 141.34832 308.165974 
L 144.337278 310.535183 
L 147.326235 313.438684 
L 150.315193 316.862635 
L 168.24894 338.686759 
L 171.237898 341.99093 
L 174.226856 344.850824 
L 177.215813 347.163224 
L 180.204771 349.010968 
L 183.193729 350.540044 
L 186.182687 351.804828 
L 189.171645 352.780512 
L 192.160603 353.505528 
L 196.644039 354.364135 
L 201.127476 355.005283 
L 205.610913 355.310005 
L 213.083307 355.443208 
L 223.54466 355.491791 
L 223.54466 355.491791 
" style="fill:none;stroke:#4c72b0;stroke-linecap:round;stroke-width:1.5;"/>
   </g>
   <g id="line2d_32">
    <path clip-path="url(#pcbec229c52)" d="M 47.730527 355.478222 
L 50.094679 355.341153 
L 51.276755 355.138948 
L 52.458831 354.796449 
L 56.005058 353.416982 
L 57.187134 353.218008 
L 58.36921 353.228475 
L 64.27959 353.803546 
L 66.643742 353.984447 
L 71.372045 354.71381 
L 73.736197 354.62782 
L 77.282425 354.324859 
L 80.828652 354.251962 
L 83.192804 353.892643 
L 85.556956 353.129772 
L 87.921108 351.948774 
L 90.285259 350.315596 
L 92.649411 348.303946 
L 96.195639 345.028849 
L 98.559791 342.481893 
L 99.741867 340.922839 
L 100.923943 339.018917 
L 102.106018 336.625997 
L 103.288094 333.676064 
L 105.652246 326.645551 
L 108.016398 319.812554 
L 110.38055 313.909348 
L 113.926777 305.071821 
L 117.473005 295.25997 
L 118.655081 291.652329 
L 119.837157 287.665133 
L 123.383385 274.468839 
L 124.56546 270.941968 
L 125.747536 268.391781 
L 126.929612 266.818578 
L 128.111688 266.088668 
L 129.293764 266.034646 
L 130.47584 266.475321 
L 131.657916 267.228179 
L 132.839992 268.175355 
L 134.022068 269.325119 
L 135.204143 270.791901 
L 136.386219 272.70747 
L 137.568295 275.125007 
L 139.932447 281.025079 
L 143.478675 290.409488 
L 145.842827 297.508613 
L 151.753206 316.390011 
L 154.117358 323.332794 
L 157.663585 332.637335 
L 160.027737 338.429485 
L 161.209813 341.055498 
L 162.391889 343.374237 
L 163.573965 345.3393 
L 164.756041 346.960323 
L 165.938117 348.277291 
L 167.120193 349.336396 
L 169.484344 350.922216 
L 174.212648 353.58721 
L 175.394724 354.101925 
L 177.758876 354.776784 
L 180.123027 355.131047 
L 183.669255 355.353355 
L 191.943786 355.453811 
L 197.854166 355.490797 
L 197.854166 355.490797 
" style="fill:none;stroke:#dd8452;stroke-linecap:round;stroke-width:1.5;"/>
   </g>
   <g id="line2d_33">
    <path clip-path="url(#pcbec229c52)" d="M 103.14173 355.49407 
L 107.507772 355.411115 
L 112.965325 355.194168 
L 118.422878 355.21889 
L 120.605899 355.081174 
L 122.78892 354.758148 
L 130.429493 353.138533 
L 131.521004 352.778492 
L 132.612514 352.229001 
L 133.704025 351.429253 
L 134.795536 350.350042 
L 135.887046 348.997039 
L 138.070067 345.621655 
L 140.253088 341.72172 
L 142.436109 337.395438 
L 143.52762 334.851161 
L 144.61913 331.93174 
L 147.893662 321.890201 
L 150.076683 314.773959 
L 151.168193 310.583434 
L 152.259704 305.761847 
L 156.625746 284.945508 
L 157.717257 281.001372 
L 158.808767 277.717236 
L 162.083299 268.935262 
L 164.26632 261.83629 
L 165.35783 258.148118 
L 166.449341 254.925971 
L 167.540851 252.67072 
L 168.632362 251.774997 
L 169.723872 252.407302 
L 170.815383 254.462914 
L 171.906893 257.618805 
L 174.089914 265.700462 
L 176.272935 274.047588 
L 177.364446 277.560628 
L 178.455957 280.382338 
L 181.730488 287.233418 
L 182.821999 290.268119 
L 183.913509 293.915424 
L 186.09653 302.277282 
L 190.462572 319.442004 
L 191.554083 323.218207 
L 193.737104 329.547091 
L 197.011635 337.773953 
L 198.103146 340.255452 
L 199.194657 342.435449 
L 200.286167 344.25849 
L 201.377678 345.745177 
L 203.560699 348.065855 
L 205.74372 350.065935 
L 206.83523 350.949824 
L 207.926741 351.684753 
L 209.018251 352.254895 
L 211.201272 353.075625 
L 215.567314 354.411158 
L 217.750335 354.783388 
L 226.48242 355.413564 
L 237.397525 355.429493 
L 241.763567 355.494228 
L 241.763567 355.494228 
" style="fill:none;stroke:#55a868;stroke-linecap:round;stroke-width:1.5;"/>
   </g>
   <g id="patch_9">
    <path d="M 63 355.496273 
L 63 246.589035 
" style="fill:none;stroke:#262626;stroke-linecap:square;stroke-linejoin:miter;stroke-width:1.25;"/>
   </g>
   <g id="patch_10">
    <path d="M 453.6 355.496273 
L 453.6 246.589035 
" style="fill:none;stroke:#262626;stroke-linecap:square;stroke-linejoin:miter;stroke-width:1.25;"/>
   </g>
   <g id="patch_11">
    <path d="M 63 355.496273 
L 453.6 355.496273 
" style="fill:none;stroke:#262626;stroke-linecap:square;stroke-linejoin:miter;stroke-width:1.25;"/>
   </g>
   <g id="patch_12">
    <path d="M 63 246.589035 
L 453.6 246.589035 
" style="fill:none;stroke:#262626;stroke-linecap:square;stroke-linejoin:miter;stroke-width:1.25;"/>
   </g>
   <g id="text_30">
    <!-- Drifting Maxwellian model -->
    <defs>
     <path d="M 7.71875 0 
L 7.71875 71.578125 
L 32.375 71.578125 
Q 40.71875 71.578125 45.125 70.5625 
Q 51.265625 69.140625 55.609375 65.4375 
Q 61.28125 60.640625 64.078125 53.1875 
Q 66.890625 45.75 66.890625 36.1875 
Q 66.890625 28.03125 64.984375 21.734375 
Q 63.09375 15.4375 60.109375 11.296875 
Q 57.125 7.171875 53.578125 4.796875 
Q 50.046875 2.4375 45.046875 1.21875 
Q 40.046875 0 33.546875 0 
z
M 17.1875 8.453125 
L 32.46875 8.453125 
Q 39.546875 8.453125 43.578125 9.765625 
Q 47.609375 11.078125 50 13.484375 
Q 53.375 16.84375 55.25 22.53125 
Q 57.125 28.21875 57.125 36.328125 
Q 57.125 47.5625 53.4375 53.59375 
Q 49.75 59.625 44.484375 61.671875 
Q 40.671875 63.140625 32.234375 63.140625 
L 17.1875 63.140625 
z
" id="ArialMT-68"/>
     <path d="M 8.6875 0 
L 8.6875 45.015625 
L 0.921875 45.015625 
L 0.921875 51.859375 
L 8.6875 51.859375 
L 8.6875 57.375 
Q 8.6875 62.59375 9.625 65.140625 
Q 10.890625 68.5625 14.078125 70.671875 
Q 17.28125 72.796875 23.046875 72.796875 
Q 26.765625 72.796875 31.25 71.921875 
L 29.9375 64.265625 
Q 27.203125 64.75 24.75 64.75 
Q 20.75 64.75 19.09375 63.03125 
Q 17.4375 61.328125 17.4375 56.640625 
L 17.4375 51.859375 
L 27.546875 51.859375 
L 27.546875 45.015625 
L 17.4375 45.015625 
L 17.4375 0 
z
" id="ArialMT-102"/>
     <path d="M 25.78125 7.859375 
L 27.046875 0.09375 
Q 23.34375 -0.6875 20.40625 -0.6875 
Q 15.625 -0.6875 12.984375 0.828125 
Q 10.359375 2.34375 9.28125 4.8125 
Q 8.203125 7.28125 8.203125 15.1875 
L 8.203125 45.015625 
L 1.765625 45.015625 
L 1.765625 51.859375 
L 8.203125 51.859375 
L 8.203125 64.703125 
L 16.9375 69.96875 
L 16.9375 51.859375 
L 25.78125 51.859375 
L 25.78125 45.015625 
L 16.9375 45.015625 
L 16.9375 14.703125 
Q 16.9375 10.9375 17.40625 9.859375 
Q 17.875 8.796875 18.921875 8.15625 
Q 19.96875 7.515625 21.921875 7.515625 
Q 23.390625 7.515625 25.78125 7.859375 
z
" id="ArialMT-116"/>
     <path d="M 4.984375 -4.296875 
L 13.53125 -5.5625 
Q 14.0625 -9.515625 16.5 -11.328125 
Q 19.78125 -13.765625 25.4375 -13.765625 
Q 31.546875 -13.765625 34.859375 -11.328125 
Q 38.1875 -8.890625 39.359375 -4.5 
Q 40.046875 -1.8125 39.984375 6.78125 
Q 34.234375 0 25.640625 0 
Q 14.9375 0 9.078125 7.71875 
Q 3.21875 15.4375 3.21875 26.21875 
Q 3.21875 33.640625 5.90625 39.90625 
Q 8.59375 46.1875 13.6875 49.609375 
Q 18.796875 53.03125 25.6875 53.03125 
Q 34.859375 53.03125 40.828125 45.609375 
L 40.828125 51.859375 
L 48.921875 51.859375 
L 48.921875 7.03125 
Q 48.921875 -5.078125 46.453125 -10.125 
Q 44 -15.1875 38.640625 -18.109375 
Q 33.296875 -21.046875 25.484375 -21.046875 
Q 16.21875 -21.046875 10.5 -16.875 
Q 4.78125 -12.703125 4.984375 -4.296875 
z
M 12.25 26.859375 
Q 12.25 16.65625 16.296875 11.96875 
Q 20.359375 7.28125 26.46875 7.28125 
Q 32.515625 7.28125 36.609375 11.9375 
Q 40.71875 16.609375 40.71875 26.5625 
Q 40.71875 36.078125 36.5 40.90625 
Q 32.28125 45.75 26.3125 45.75 
Q 20.453125 45.75 16.34375 40.984375 
Q 12.25 36.234375 12.25 26.859375 
z
" id="ArialMT-103"/>
    </defs>
    <g style="fill:#262626;" transform="translate(178.5525 240.589035)scale(0.14 -0.14)">
     <use xlink:href="#ArialMT-68"/>
     <use x="72.216797" xlink:href="#ArialMT-114"/>
     <use x="105.517578" xlink:href="#ArialMT-105"/>
     <use x="127.734375" xlink:href="#ArialMT-102"/>
     <use x="155.517578" xlink:href="#ArialMT-116"/>
     <use x="183.300781" xlink:href="#ArialMT-105"/>
     <use x="205.517578" xlink:href="#ArialMT-110"/>
     <use x="261.132812" xlink:href="#ArialMT-103"/>
     <use x="316.748047" xlink:href="#ArialMT-32"/>
     <use x="344.53125" xlink:href="#ArialMT-77"/>
     <use x="427.832031" xlink:href="#ArialMT-97"/>
     <use x="483.447266" xlink:href="#ArialMT-120"/>
     <use x="533.447266" xlink:href="#ArialMT-119"/>
     <use x="605.664062" xlink:href="#ArialMT-101"/>
     <use x="661.279297" xlink:href="#ArialMT-108"/>
     <use x="683.496094" xlink:href="#ArialMT-108"/>
     <use x="705.712891" xlink:href="#ArialMT-105"/>
     <use x="727.929688" xlink:href="#ArialMT-97"/>
     <use x="783.544922" xlink:href="#ArialMT-110"/>
     <use x="839.160156" xlink:href="#ArialMT-32"/>
     <use x="866.943359" xlink:href="#ArialMT-109"/>
     <use x="950.244141" xlink:href="#ArialMT-111"/>
     <use x="1005.859375" xlink:href="#ArialMT-100"/>
     <use x="1061.474609" xlink:href="#ArialMT-101"/>
     <use x="1117.089844" xlink:href="#ArialMT-108"/>
    </g>
   </g>
   <g id="legend_2">
    <g id="patch_13">
     <path d="M 380.747344 302.068566 
L 445.9 302.068566 
Q 448.1 302.068566 448.1 299.868566 
L 448.1 254.289035 
Q 448.1 252.089035 445.9 252.089035 
L 380.747344 252.089035 
Q 378.547344 252.089035 378.547344 254.289035 
L 378.547344 299.868566 
Q 378.547344 302.068566 380.747344 302.068566 
z
" style="fill:#ffffff;opacity:0.8;stroke:#cccccc;stroke-linejoin:miter;"/>
    </g>
    <g id="line2d_34">
     <path d="M 382.947344 260.512629 
L 404.947344 260.512629 
" style="fill:none;stroke:#4c72b0;stroke-linecap:round;stroke-width:1.5;"/>
    </g>
    <g id="line2d_35"/>
    <g id="text_31">
     <!-- 34 cm -->
     <g style="fill:#262626;" transform="translate(413.747344 264.362629)scale(0.11 -0.11)">
      <use xlink:href="#ArialMT-51"/>
      <use x="55.615234" xlink:href="#ArialMT-52"/>
      <use x="111.230469" xlink:href="#ArialMT-32"/>
      <use x="139.013672" xlink:href="#ArialMT-99"/>
      <use x="189.013672" xlink:href="#ArialMT-109"/>
     </g>
    </g>
    <g id="line2d_36">
     <path d="M 382.947344 276.072472 
L 404.947344 276.072472 
" style="fill:none;stroke:#dd8452;stroke-linecap:round;stroke-width:1.5;"/>
    </g>
    <g id="line2d_37"/>
    <g id="text_32">
     <!-- 29 cm -->
     <g style="fill:#262626;" transform="translate(413.747344 279.922472)scale(0.11 -0.11)">
      <use xlink:href="#ArialMT-50"/>
      <use x="55.615234" xlink:href="#ArialMT-57"/>
      <use x="111.230469" xlink:href="#ArialMT-32"/>
      <use x="139.013672" xlink:href="#ArialMT-99"/>
      <use x="189.013672" xlink:href="#ArialMT-109"/>
     </g>
    </g>
    <g id="line2d_38">
     <path d="M 382.947344 291.632316 
L 404.947344 291.632316 
" style="fill:none;stroke:#55a868;stroke-linecap:round;stroke-width:1.5;"/>
    </g>
    <g id="line2d_39"/>
    <g id="text_33">
     <!-- 25 cm -->
     <g style="fill:#262626;" transform="translate(413.747344 295.482316)scale(0.11 -0.11)">
      <use xlink:href="#ArialMT-50"/>
      <use x="55.615234" xlink:href="#ArialMT-53"/>
      <use x="111.230469" xlink:href="#ArialMT-32"/>
      <use x="139.013672" xlink:href="#ArialMT-99"/>
      <use x="189.013672" xlink:href="#ArialMT-109"/>
     </g>
    </g>
   </g>
  </g>
  <g id="axes_3">
   <g id="patch_14">
    <path d="M 63 503.6688 
L 453.6 503.6688 
L 453.6 394.761562 
L 63 394.761562 
z
" style="fill:#ffffff;"/>
   </g>
   <g id="matplotlib.axis_5">
    <g id="xtick_15">
     <g id="line2d_40">
      <g>
       <use style="fill:#262626;stroke:#262626;stroke-width:1.25;" x="84.7" xlink:href="#me453934816" y="503.6688"/>
      </g>
     </g>
     <g id="text_34">
      <!-- 400000 -->
      <defs>
       <path d="M 52.828125 31.203125 
L 5.5625 31.203125 
L 5.5625 39.40625 
L 52.828125 39.40625 
z
" id="ArialMT-8722"/>
      </defs>
      <g style="fill:#262626;" transform="translate(63.136562 521.042394)scale(0.11 -0.11)">
       <use xlink:href="#ArialMT-8722"/>
       <use x="58.398438" xlink:href="#ArialMT-52"/>
       <use x="114.013672" xlink:href="#ArialMT-48"/>
       <use x="169.628906" xlink:href="#ArialMT-48"/>
       <use x="225.244141" xlink:href="#ArialMT-48"/>
       <use x="280.859375" xlink:href="#ArialMT-48"/>
       <use x="336.474609" xlink:href="#ArialMT-48"/>
      </g>
     </g>
    </g>
    <g id="xtick_16">
     <g id="line2d_41">
      <g>
       <use style="fill:#262626;stroke:#262626;stroke-width:1.25;" x="128.1" xlink:href="#me453934816" y="503.6688"/>
      </g>
     </g>
     <g id="text_35">
      <!-- 300000 -->
      <g style="fill:#262626;" transform="translate(106.536562 521.042394)scale(0.11 -0.11)">
       <use xlink:href="#ArialMT-8722"/>
       <use x="58.398438" xlink:href="#ArialMT-51"/>
       <use x="114.013672" xlink:href="#ArialMT-48"/>
       <use x="169.628906" xlink:href="#ArialMT-48"/>
       <use x="225.244141" xlink:href="#ArialMT-48"/>
       <use x="280.859375" xlink:href="#ArialMT-48"/>
       <use x="336.474609" xlink:href="#ArialMT-48"/>
      </g>
     </g>
    </g>
    <g id="xtick_17">
     <g id="line2d_42">
      <g>
       <use style="fill:#262626;stroke:#262626;stroke-width:1.25;" x="171.5" xlink:href="#me453934816" y="503.6688"/>
      </g>
     </g>
     <g id="text_36">
      <!-- 200000 -->
      <g style="fill:#262626;" transform="translate(149.936562 521.042394)scale(0.11 -0.11)">
       <use xlink:href="#ArialMT-8722"/>
       <use x="58.398438" xlink:href="#ArialMT-50"/>
       <use x="114.013672" xlink:href="#ArialMT-48"/>
       <use x="169.628906" xlink:href="#ArialMT-48"/>
       <use x="225.244141" xlink:href="#ArialMT-48"/>
       <use x="280.859375" xlink:href="#ArialMT-48"/>
       <use x="336.474609" xlink:href="#ArialMT-48"/>
      </g>
     </g>
    </g>
    <g id="xtick_18">
     <g id="line2d_43">
      <g>
       <use style="fill:#262626;stroke:#262626;stroke-width:1.25;" x="214.9" xlink:href="#me453934816" y="503.6688"/>
      </g>
     </g>
     <g id="text_37">
      <!-- 100000 -->
      <g style="fill:#262626;" transform="translate(193.336562 521.042394)scale(0.11 -0.11)">
       <use xlink:href="#ArialMT-8722"/>
       <use x="58.398438" xlink:href="#ArialMT-49"/>
       <use x="114.013672" xlink:href="#ArialMT-48"/>
       <use x="169.628906" xlink:href="#ArialMT-48"/>
       <use x="225.244141" xlink:href="#ArialMT-48"/>
       <use x="280.859375" xlink:href="#ArialMT-48"/>
       <use x="336.474609" xlink:href="#ArialMT-48"/>
      </g>
     </g>
    </g>
    <g id="xtick_19">
     <g id="line2d_44">
      <g>
       <use style="fill:#262626;stroke:#262626;stroke-width:1.25;" x="258.3" xlink:href="#me453934816" y="503.6688"/>
      </g>
     </g>
     <g id="text_38">
      <!-- 0 -->
      <g style="fill:#262626;" transform="translate(255.241484 521.042394)scale(0.11 -0.11)">
       <use xlink:href="#ArialMT-48"/>
      </g>
     </g>
    </g>
    <g id="xtick_20">
     <g id="line2d_45">
      <g>
       <use style="fill:#262626;stroke:#262626;stroke-width:1.25;" x="301.7" xlink:href="#me453934816" y="503.6688"/>
      </g>
     </g>
     <g id="text_39">
      <!-- 100000 -->
      <g style="fill:#262626;" transform="translate(283.348906 521.042394)scale(0.11 -0.11)">
       <use xlink:href="#ArialMT-49"/>
       <use x="55.615234" xlink:href="#ArialMT-48"/>
       <use x="111.230469" xlink:href="#ArialMT-48"/>
       <use x="166.845703" xlink:href="#ArialMT-48"/>
       <use x="222.460938" xlink:href="#ArialMT-48"/>
       <use x="278.076172" xlink:href="#ArialMT-48"/>
      </g>
     </g>
    </g>
    <g id="xtick_21">
     <g id="line2d_46">
      <g>
       <use style="fill:#262626;stroke:#262626;stroke-width:1.25;" x="345.1" xlink:href="#me453934816" y="503.6688"/>
      </g>
     </g>
     <g id="text_40">
      <!-- 200000 -->
      <g style="fill:#262626;" transform="translate(326.748906 521.042394)scale(0.11 -0.11)">
       <use xlink:href="#ArialMT-50"/>
       <use x="55.615234" xlink:href="#ArialMT-48"/>
       <use x="111.230469" xlink:href="#ArialMT-48"/>
       <use x="166.845703" xlink:href="#ArialMT-48"/>
       <use x="222.460938" xlink:href="#ArialMT-48"/>
       <use x="278.076172" xlink:href="#ArialMT-48"/>
      </g>
     </g>
    </g>
    <g id="xtick_22">
     <g id="line2d_47">
      <g>
       <use style="fill:#262626;stroke:#262626;stroke-width:1.25;" x="388.5" xlink:href="#me453934816" y="503.6688"/>
      </g>
     </g>
     <g id="text_41">
      <!-- 300000 -->
      <g style="fill:#262626;" transform="translate(370.148906 521.042394)scale(0.11 -0.11)">
       <use xlink:href="#ArialMT-51"/>
       <use x="55.615234" xlink:href="#ArialMT-48"/>
       <use x="111.230469" xlink:href="#ArialMT-48"/>
       <use x="166.845703" xlink:href="#ArialMT-48"/>
       <use x="222.460938" xlink:href="#ArialMT-48"/>
       <use x="278.076172" xlink:href="#ArialMT-48"/>
      </g>
     </g>
    </g>
    <g id="xtick_23">
     <g id="line2d_48">
      <g>
       <use style="fill:#262626;stroke:#262626;stroke-width:1.25;" x="431.9" xlink:href="#me453934816" y="503.6688"/>
      </g>
     </g>
     <g id="text_42">
      <!-- 400000 -->
      <g style="fill:#262626;" transform="translate(413.548906 521.042394)scale(0.11 -0.11)">
       <use xlink:href="#ArialMT-52"/>
       <use x="55.615234" xlink:href="#ArialMT-48"/>
       <use x="111.230469" xlink:href="#ArialMT-48"/>
       <use x="166.845703" xlink:href="#ArialMT-48"/>
       <use x="222.460938" xlink:href="#ArialMT-48"/>
       <use x="278.076172" xlink:href="#ArialMT-48"/>
      </g>
     </g>
    </g>
    <g id="text_43">
     <!-- $v_d$ [m/s] -->
     <defs>
      <path d="M 7.171875 54.6875 
L 16.703125 54.6875 
L 24.703125 8.203125 
L 50.875 54.6875 
L 60.40625 54.6875 
L 29.296875 0 
L 17.1875 0 
z
" id="DejaVuSans-Oblique-118"/>
      <path d="M 41.796875 8.203125 
Q 38.1875 3.46875 33.25 1.015625 
Q 28.328125 -1.421875 22.3125 -1.421875 
Q 14.109375 -1.421875 9.34375 4.171875 
Q 4.59375 9.765625 4.59375 19.484375 
Q 4.59375 27.59375 7.46875 34.9375 
Q 10.359375 42.28125 15.828125 48.09375 
Q 19.4375 51.953125 23.96875 53.96875 
Q 28.515625 56 33.5 56 
Q 38.765625 56 42.796875 53.453125 
Q 46.828125 50.921875 49.03125 46.1875 
L 54.890625 75.984375 
L 63.921875 75.984375 
L 49.125 0 
L 40.09375 0 
z
M 13.921875 21.09375 
Q 13.921875 14.015625 17.109375 10.0625 
Q 20.3125 6.109375 25.984375 6.109375 
Q 30.171875 6.109375 33.765625 8.125 
Q 37.359375 10.15625 40.09375 14.109375 
Q 42.96875 18.21875 44.625 23.578125 
Q 46.296875 28.953125 46.296875 34.1875 
Q 46.296875 40.96875 43.09375 44.765625 
Q 39.890625 48.578125 34.28125 48.578125 
Q 30.03125 48.578125 26.359375 46.578125 
Q 22.703125 44.578125 20.125 40.828125 
Q 17.28125 36.765625 15.59375 31.390625 
Q 13.921875 26.03125 13.921875 21.09375 
z
" id="DejaVuSans-Oblique-100"/>
      <path d="M 0 -1.21875 
L 20.75 72.796875 
L 27.78125 72.796875 
L 7.078125 -1.21875 
z
" id="ArialMT-47"/>
      <path d="M 3.078125 15.484375 
L 11.765625 16.84375 
Q 12.5 11.625 15.84375 8.84375 
Q 19.1875 6.0625 25.203125 6.0625 
Q 31.25 6.0625 34.171875 8.515625 
Q 37.109375 10.984375 37.109375 14.3125 
Q 37.109375 17.28125 34.515625 19 
Q 32.71875 20.171875 25.53125 21.96875 
Q 15.875 24.421875 12.140625 26.203125 
Q 8.40625 27.984375 6.46875 31.125 
Q 4.546875 34.28125 4.546875 38.09375 
Q 4.546875 41.546875 6.125 44.5 
Q 7.71875 47.46875 10.453125 49.421875 
Q 12.5 50.921875 16.03125 51.96875 
Q 19.578125 53.03125 23.640625 53.03125 
Q 29.734375 53.03125 34.34375 51.265625 
Q 38.96875 49.515625 41.15625 46.5 
Q 43.359375 43.5 44.1875 38.484375 
L 35.59375 37.3125 
Q 35.015625 41.3125 32.203125 43.546875 
Q 29.390625 45.796875 24.265625 45.796875 
Q 18.21875 45.796875 15.625 43.796875 
Q 13.03125 41.796875 13.03125 39.109375 
Q 13.03125 37.40625 14.109375 36.03125 
Q 15.1875 34.625 17.484375 33.6875 
Q 18.796875 33.203125 25.25 31.453125 
Q 34.578125 28.953125 38.25 27.359375 
Q 41.9375 25.78125 44.03125 22.75 
Q 46.140625 19.734375 46.140625 15.234375 
Q 46.140625 10.84375 43.578125 6.953125 
Q 41.015625 3.078125 36.171875 0.953125 
Q 31.34375 -1.171875 25.25 -1.171875 
Q 15.140625 -1.171875 9.84375 3.03125 
Q 4.546875 7.234375 3.078125 15.484375 
z
" id="ArialMT-115"/>
     </defs>
     <g style="fill:#262626;" transform="translate(240.75 534.528644)scale(0.1 -0.1)">
      <use transform="translate(0 0.203125)" xlink:href="#DejaVuSans-Oblique-118"/>
      <use transform="translate(59.179688 -16.203125)scale(0.7)" xlink:href="#DejaVuSans-Oblique-100"/>
      <use transform="translate(106.347656 0.203125)" xlink:href="#ArialMT-32"/>
      <use transform="translate(134.130859 0.203125)" xlink:href="#ArialMT-91"/>
      <use transform="translate(161.914062 0.203125)" xlink:href="#ArialMT-109"/>
      <use transform="translate(245.214844 0.203125)" xlink:href="#ArialMT-47"/>
      <use transform="translate(272.998047 0.203125)" xlink:href="#ArialMT-115"/>
      <use transform="translate(322.998047 0.203125)" xlink:href="#ArialMT-93"/>
     </g>
    </g>
   </g>
   <g id="matplotlib.axis_6">
    <g id="ytick_8">
     <g id="line2d_49">
      <g>
       <use style="fill:#262626;stroke:#262626;stroke-width:1.25;" x="63" xlink:href="#m7743b4aa64" y="503.6688"/>
      </g>
     </g>
     <g id="text_44">
      <!-- 0e+00 -->
      <defs>
       <path d="M 25.046875 11.578125 
L 25.046875 31.203125 
L 5.5625 31.203125 
L 5.5625 39.40625 
L 25.046875 39.40625 
L 25.046875 58.890625 
L 33.34375 58.890625 
L 33.34375 39.40625 
L 52.828125 39.40625 
L 52.828125 31.203125 
L 33.34375 31.203125 
L 33.34375 11.578125 
z
" id="ArialMT-43"/>
      </defs>
      <g style="fill:#262626;" transform="translate(22.607187 507.605597)scale(0.11 -0.11)">
       <use xlink:href="#ArialMT-48"/>
       <use x="55.615234" xlink:href="#ArialMT-101"/>
       <use x="111.230469" xlink:href="#ArialMT-43"/>
       <use x="169.628906" xlink:href="#ArialMT-48"/>
       <use x="225.244141" xlink:href="#ArialMT-48"/>
      </g>
     </g>
    </g>
    <g id="ytick_9">
     <g id="line2d_50">
      <g>
       <use style="fill:#262626;stroke:#262626;stroke-width:1.25;" x="63" xlink:href="#m7743b4aa64" y="466.731793"/>
      </g>
     </g>
     <g id="text_45">
      <!-- 1e-05 -->
      <defs>
       <path d="M 3.171875 21.484375 
L 3.171875 30.328125 
L 30.171875 30.328125 
L 30.171875 21.484375 
z
" id="ArialMT-45"/>
      </defs>
      <g style="fill:#262626;" transform="translate(25.369219 470.66859)scale(0.11 -0.11)">
       <use xlink:href="#ArialMT-49"/>
       <use x="55.615234" xlink:href="#ArialMT-101"/>
       <use x="111.230469" xlink:href="#ArialMT-45"/>
       <use x="144.53125" xlink:href="#ArialMT-48"/>
       <use x="200.146484" xlink:href="#ArialMT-53"/>
      </g>
     </g>
    </g>
    <g id="ytick_10">
     <g id="line2d_51">
      <g>
       <use style="fill:#262626;stroke:#262626;stroke-width:1.25;" x="63" xlink:href="#m7743b4aa64" y="429.794786"/>
      </g>
     </g>
     <g id="text_46">
      <!-- 2e-05 -->
      <g style="fill:#262626;" transform="translate(25.369219 433.731583)scale(0.11 -0.11)">
       <use xlink:href="#ArialMT-50"/>
       <use x="55.615234" xlink:href="#ArialMT-101"/>
       <use x="111.230469" xlink:href="#ArialMT-45"/>
       <use x="144.53125" xlink:href="#ArialMT-48"/>
       <use x="200.146484" xlink:href="#ArialMT-53"/>
      </g>
     </g>
    </g>
    <g id="text_47">
     <!-- P (unnormalized) -->
     <g style="fill:#262626;" transform="translate(16.5025 487.28315)rotate(-90)scale(0.1 -0.1)">
      <use xlink:href="#ArialMT-80"/>
      <use x="66.683594" xlink:href="#ArialMT-32"/>
      <use x="94.466797" xlink:href="#ArialMT-40"/>
      <use x="127.767578" xlink:href="#ArialMT-117"/>
      <use x="183.382812" xlink:href="#ArialMT-110"/>
      <use x="238.998047" xlink:href="#ArialMT-110"/>
      <use x="294.613281" xlink:href="#ArialMT-111"/>
      <use x="350.228516" xlink:href="#ArialMT-114"/>
      <use x="383.529297" xlink:href="#ArialMT-109"/>
      <use x="466.830078" xlink:href="#ArialMT-97"/>
      <use x="522.445312" xlink:href="#ArialMT-108"/>
      <use x="544.662109" xlink:href="#ArialMT-105"/>
      <use x="566.878906" xlink:href="#ArialMT-122"/>
      <use x="616.878906" xlink:href="#ArialMT-101"/>
      <use x="672.494141" xlink:href="#ArialMT-100"/>
      <use x="728.109375" xlink:href="#ArialMT-41"/>
     </g>
    </g>
   </g>
   <g id="line2d_52">
    <path clip-path="url(#p1d00c905a9)" d="M 95.142899 503.66785 
L 101.803215 503.548311 
L 104.02332 503.329517 
L 106.243426 502.929516 
L 112.903742 501.366414 
L 118.454006 500.557242 
L 121.784164 499.66939 
L 125.114322 498.823759 
L 129.554533 497.896802 
L 131.774639 497.173111 
L 135.104797 495.814231 
L 137.324903 494.788576 
L 139.545008 493.441465 
L 141.765113 491.575243 
L 146.205324 487.342047 
L 148.42543 485.708448 
L 152.865641 482.682048 
L 156.195799 480.069719 
L 159.525957 477.213024 
L 165.076221 472.094264 
L 166.186274 471.322972 
L 167.296326 470.736803 
L 168.406379 470.35403 
L 169.516432 470.17731 
L 170.626485 470.196056 
L 171.736537 470.387476 
L 173.956643 471.141345 
L 177.286801 472.61935 
L 179.506906 473.829499 
L 180.616959 474.654521 
L 181.727012 475.689792 
L 183.947117 478.331796 
L 187.277276 482.696557 
L 189.497381 485.219878 
L 192.827539 488.451802 
L 200.597908 495.737757 
L 202.818014 497.38966 
L 205.038119 498.820959 
L 207.258225 500.058167 
L 209.47833 501.056663 
L 211.698436 501.780527 
L 213.918541 502.241756 
L 221.68891 503.218698 
L 225.019069 503.525344 
L 229.45928 503.647028 
L 236.119596 503.668232 
L 236.119596 503.668232 
" style="fill:none;stroke:#4c72b0;stroke-linecap:round;stroke-width:1.5;"/>
   </g>
   <g id="line2d_53">
    <path clip-path="url(#p1d00c905a9)" d="M 160.338375 503.6644 
L 161.960972 503.580049 
L 165.747031 502.939886 
L 166.828762 502.416079 
L 168.451359 501.496308 
L 169.53309 501.113482 
L 170.073956 501.041313 
L 170.614821 501.097901 
L 172.778284 501.799382 
L 173.319149 501.688764 
L 173.860015 501.346959 
L 174.40088 500.758894 
L 174.941746 499.938806 
L 176.023477 497.671427 
L 177.105208 494.471789 
L 178.186939 490.197537 
L 179.268671 484.575454 
L 180.350402 477.523144 
L 181.432133 468.840543 
L 183.05473 453.773921 
L 185.759058 425.705707 
L 186.299923 422.246353 
L 187.381654 417.797662 
L 188.463385 414.11357 
L 189.004251 412.623146 
L 189.545117 411.706462 
L 190.085982 411.411949 
L 190.626848 411.622092 
L 191.167713 412.211047 
L 191.708579 413.156303 
L 192.249445 414.55983 
L 192.79031 416.584117 
L 193.331176 419.320933 
L 194.412907 426.388479 
L 196.576369 442.062092 
L 198.739832 458.666599 
L 200.362428 469.781641 
L 201.444159 475.449186 
L 204.689353 489.637007 
L 205.230219 491.419516 
L 206.31195 493.907681 
L 210.098009 500.429336 
L 211.17974 501.597781 
L 212.261471 502.278133 
L 213.884068 502.843532 
L 215.506665 503.194012 
L 218.751858 503.346177 
L 220.374455 503.408078 
L 222.537917 503.647327 
L 229.028304 503.666932 
L 229.028304 503.666932 
" style="fill:none;stroke:#dd8452;stroke-linecap:round;stroke-width:1.5;"/>
   </g>
   <g id="line2d_54">
    <path clip-path="url(#p1d00c905a9)" d="M 179.272849 503.667554 
L 183.859676 503.564612 
L 185.527614 503.282126 
L 187.195551 502.948489 
L 188.029519 502.468686 
L 189.280472 501.317687 
L 190.114441 500.442017 
L 190.531425 499.879631 
L 190.94841 499.12187 
L 191.365394 498.087612 
L 192.199363 495.07115 
L 193.450316 488.943908 
L 194.284284 484.255364 
L 195.118253 478.38559 
L 195.952222 470.870536 
L 197.620159 453.20634 
L 199.288096 432.843808 
L 200.122065 422.982157 
L 200.956034 415.358582 
L 201.790002 409.864966 
L 202.623971 405.777513 
L 203.45794 402.696263 
L 204.291908 400.474858 
L 204.708892 399.947593 
L 205.125877 400.035053 
L 205.542861 400.769824 
L 206.37683 403.493403 
L 207.210798 406.944016 
L 207.627783 409.237031 
L 208.461751 415.97009 
L 210.546673 436.266001 
L 212.631595 454.417874 
L 213.882548 465.292209 
L 215.550485 476.639961 
L 216.801438 484.566544 
L 218.052391 491.037656 
L 218.88636 494.390033 
L 219.720328 496.949033 
L 220.554297 498.811855 
L 221.388266 499.975242 
L 224.307156 502.696846 
L 225.141124 502.94583 
L 230.978905 503.649685 
L 232.229858 503.667472 
L 232.229858 503.667472 
" style="fill:none;stroke:#55a868;stroke-linecap:round;stroke-width:1.5;"/>
   </g>
   <g id="patch_15">
    <path d="M 63 503.6688 
L 63 394.761562 
" style="fill:none;stroke:#262626;stroke-linecap:square;stroke-linejoin:miter;stroke-width:1.25;"/>
   </g>
   <g id="patch_16">
    <path d="M 453.6 503.6688 
L 453.6 394.761562 
" style="fill:none;stroke:#262626;stroke-linecap:square;stroke-linejoin:miter;stroke-width:1.25;"/>
   </g>
   <g id="patch_17">
    <path d="M 63 503.6688 
L 453.6 503.6688 
" style="fill:none;stroke:#262626;stroke-linecap:square;stroke-linejoin:miter;stroke-width:1.25;"/>
   </g>
   <g id="patch_18">
    <path d="M 63 394.761562 
L 453.6 394.761562 
" style="fill:none;stroke:#262626;stroke-linecap:square;stroke-linejoin:miter;stroke-width:1.25;"/>
   </g>
   <g id="legend_3">
    <g id="patch_19">
     <path d="M 380.747344 450.241093 
L 445.9 450.241093 
Q 448.1 450.241093 448.1 448.041093 
L 448.1 402.461562 
Q 448.1 400.261562 445.9 400.261562 
L 380.747344 400.261562 
Q 378.547344 400.261562 378.547344 402.461562 
L 378.547344 448.041093 
Q 378.547344 450.241093 380.747344 450.241093 
z
" style="fill:#ffffff;opacity:0.8;stroke:#cccccc;stroke-linejoin:miter;"/>
    </g>
    <g id="line2d_55">
     <path d="M 382.947344 408.685155 
L 404.947344 408.685155 
" style="fill:none;stroke:#4c72b0;stroke-linecap:round;stroke-width:1.5;"/>
    </g>
    <g id="line2d_56"/>
    <g id="text_48">
     <!-- 34 cm -->
     <g style="fill:#262626;" transform="translate(413.747344 412.535155)scale(0.11 -0.11)">
      <use xlink:href="#ArialMT-51"/>
      <use x="55.615234" xlink:href="#ArialMT-52"/>
      <use x="111.230469" xlink:href="#ArialMT-32"/>
      <use x="139.013672" xlink:href="#ArialMT-99"/>
      <use x="189.013672" xlink:href="#ArialMT-109"/>
     </g>
    </g>
    <g id="line2d_57">
     <path d="M 382.947344 424.244999 
L 404.947344 424.244999 
" style="fill:none;stroke:#dd8452;stroke-linecap:round;stroke-width:1.5;"/>
    </g>
    <g id="line2d_58"/>
    <g id="text_49">
     <!-- 29 cm -->
     <g style="fill:#262626;" transform="translate(413.747344 428.094999)scale(0.11 -0.11)">
      <use xlink:href="#ArialMT-50"/>
      <use x="55.615234" xlink:href="#ArialMT-57"/>
      <use x="111.230469" xlink:href="#ArialMT-32"/>
      <use x="139.013672" xlink:href="#ArialMT-99"/>
      <use x="189.013672" xlink:href="#ArialMT-109"/>
     </g>
    </g>
    <g id="line2d_59">
     <path d="M 382.947344 439.804843 
L 404.947344 439.804843 
" style="fill:none;stroke:#55a868;stroke-linecap:round;stroke-width:1.5;"/>
    </g>
    <g id="line2d_60"/>
    <g id="text_50">
     <!-- 25 cm -->
     <g style="fill:#262626;" transform="translate(413.747344 443.654843)scale(0.11 -0.11)">
      <use xlink:href="#ArialMT-50"/>
      <use x="55.615234" xlink:href="#ArialMT-53"/>
      <use x="111.230469" xlink:href="#ArialMT-32"/>
      <use x="139.013672" xlink:href="#ArialMT-99"/>
      <use x="189.013672" xlink:href="#ArialMT-109"/>
     </g>
    </g>
   </g>
  </g>
  <g id="text_51">
   <!-- Shot #190613016 Posterior Distributions -->
   <defs>
    <path d="M 4.5 23 
L 13.421875 23.78125 
Q 14.0625 18.40625 16.375 14.96875 
Q 18.703125 11.53125 23.578125 9.40625 
Q 28.46875 7.28125 34.578125 7.28125 
Q 39.984375 7.28125 44.140625 8.890625 
Q 48.296875 10.5 50.3125 13.296875 
Q 52.34375 16.109375 52.34375 19.4375 
Q 52.34375 22.796875 50.390625 25.3125 
Q 48.4375 27.828125 43.953125 29.546875 
Q 41.0625 30.671875 31.203125 33.03125 
Q 21.34375 35.40625 17.390625 37.5 
Q 12.25 40.1875 9.734375 44.15625 
Q 7.234375 48.140625 7.234375 53.078125 
Q 7.234375 58.5 10.296875 63.203125 
Q 13.375 67.921875 19.28125 70.359375 
Q 25.203125 72.796875 32.421875 72.796875 
Q 40.375 72.796875 46.453125 70.234375 
Q 52.546875 67.671875 55.8125 62.6875 
Q 59.078125 57.71875 59.328125 51.421875 
L 50.25 50.734375 
Q 49.515625 57.515625 45.28125 60.984375 
Q 41.0625 64.453125 32.8125 64.453125 
Q 24.21875 64.453125 20.28125 61.296875 
Q 16.359375 58.15625 16.359375 53.71875 
Q 16.359375 49.859375 19.140625 47.359375 
Q 21.875 44.875 33.421875 42.265625 
Q 44.96875 39.65625 49.265625 37.703125 
Q 55.515625 34.8125 58.484375 30.390625 
Q 61.46875 25.984375 61.46875 20.21875 
Q 61.46875 14.5 58.203125 9.4375 
Q 54.9375 4.390625 48.796875 1.578125 
Q 42.671875 -1.21875 35.015625 -1.21875 
Q 25.296875 -1.21875 18.71875 1.609375 
Q 12.15625 4.4375 8.421875 10.125 
Q 4.6875 15.828125 4.5 23 
z
" id="ArialMT-83"/>
    <path d="M 6.59375 0 
L 6.59375 71.578125 
L 15.375 71.578125 
L 15.375 45.90625 
Q 21.53125 53.03125 30.90625 53.03125 
Q 36.671875 53.03125 40.921875 50.75 
Q 45.171875 48.484375 47 44.484375 
Q 48.828125 40.484375 48.828125 32.859375 
L 48.828125 0 
L 40.046875 0 
L 40.046875 32.859375 
Q 40.046875 39.453125 37.1875 42.453125 
Q 34.328125 45.453125 29.109375 45.453125 
Q 25.203125 45.453125 21.75 43.421875 
Q 18.3125 41.40625 16.84375 37.9375 
Q 15.375 34.46875 15.375 28.375 
L 15.375 0 
z
" id="ArialMT-104"/>
    <path d="M 5.03125 -1.21875 
L 9.28125 19.578125 
L 1.03125 19.578125 
L 1.03125 26.859375 
L 10.75 26.859375 
L 14.359375 44.578125 
L 1.03125 44.578125 
L 1.03125 51.859375 
L 15.828125 51.859375 
L 20.0625 72.796875 
L 27.390625 72.796875 
L 23.140625 51.859375 
L 38.53125 51.859375 
L 42.78125 72.796875 
L 50.140625 72.796875 
L 45.90625 51.859375 
L 54.34375 51.859375 
L 54.34375 44.578125 
L 44.4375 44.578125 
L 40.765625 26.859375 
L 54.34375 26.859375 
L 54.34375 19.578125 
L 39.3125 19.578125 
L 35.0625 -1.21875 
L 27.734375 -1.21875 
L 31.9375 19.578125 
L 16.609375 19.578125 
L 12.359375 -1.21875 
z
M 18.0625 26.859375 
L 33.40625 26.859375 
L 37.0625 44.578125 
L 21.6875 44.578125 
z
" id="ArialMT-35"/>
    <path d="M 14.703125 0 
L 6.546875 0 
L 6.546875 71.578125 
L 15.328125 71.578125 
L 15.328125 46.046875 
Q 20.90625 53.03125 29.546875 53.03125 
Q 34.328125 53.03125 38.59375 51.09375 
Q 42.875 49.171875 45.625 45.671875 
Q 48.390625 42.1875 49.953125 37.25 
Q 51.515625 32.328125 51.515625 26.703125 
Q 51.515625 13.375 44.921875 6.09375 
Q 38.328125 -1.171875 29.109375 -1.171875 
Q 19.921875 -1.171875 14.703125 6.5 
z
M 14.59375 26.3125 
Q 14.59375 17 17.140625 12.84375 
Q 21.296875 6.0625 28.375 6.0625 
Q 34.125 6.0625 38.328125 11.0625 
Q 42.53125 16.0625 42.53125 25.984375 
Q 42.53125 36.140625 38.5 40.96875 
Q 34.46875 45.796875 28.765625 45.796875 
Q 23 45.796875 18.796875 40.796875 
Q 14.59375 35.796875 14.59375 26.3125 
z
" id="ArialMT-98"/>
   </defs>
   <g style="fill:#262626;" transform="translate(108.365 22.7709)scale(0.16 -0.16)">
    <use xlink:href="#ArialMT-83"/>
    <use x="66.699219" xlink:href="#ArialMT-104"/>
    <use x="122.314453" xlink:href="#ArialMT-111"/>
    <use x="177.929688" xlink:href="#ArialMT-116"/>
    <use x="205.712891" xlink:href="#ArialMT-32"/>
    <use x="233.496094" xlink:href="#ArialMT-35"/>
    <use x="289.111328" xlink:href="#ArialMT-49"/>
    <use x="344.726562" xlink:href="#ArialMT-57"/>
    <use x="400.341797" xlink:href="#ArialMT-48"/>
    <use x="455.957031" xlink:href="#ArialMT-54"/>
    <use x="511.572266" xlink:href="#ArialMT-49"/>
    <use x="567.1875" xlink:href="#ArialMT-51"/>
    <use x="622.802734" xlink:href="#ArialMT-48"/>
    <use x="678.417969" xlink:href="#ArialMT-49"/>
    <use x="734.033203" xlink:href="#ArialMT-54"/>
    <use x="789.648438" xlink:href="#ArialMT-32"/>
    <use x="817.431641" xlink:href="#ArialMT-80"/>
    <use x="884.130859" xlink:href="#ArialMT-111"/>
    <use x="939.746094" xlink:href="#ArialMT-115"/>
    <use x="989.746094" xlink:href="#ArialMT-116"/>
    <use x="1017.529297" xlink:href="#ArialMT-101"/>
    <use x="1073.144531" xlink:href="#ArialMT-114"/>
    <use x="1106.445312" xlink:href="#ArialMT-105"/>
    <use x="1128.662109" xlink:href="#ArialMT-111"/>
    <use x="1184.277344" xlink:href="#ArialMT-114"/>
    <use x="1217.578125" xlink:href="#ArialMT-32"/>
    <use x="1245.361328" xlink:href="#ArialMT-68"/>
    <use x="1317.578125" xlink:href="#ArialMT-105"/>
    <use x="1339.794922" xlink:href="#ArialMT-115"/>
    <use x="1389.794922" xlink:href="#ArialMT-116"/>
    <use x="1417.578125" xlink:href="#ArialMT-114"/>
    <use x="1450.878906" xlink:href="#ArialMT-105"/>
    <use x="1473.095703" xlink:href="#ArialMT-98"/>
    <use x="1528.710938" xlink:href="#ArialMT-117"/>
    <use x="1584.326172" xlink:href="#ArialMT-116"/>
    <use x="1612.109375" xlink:href="#ArialMT-105"/>
    <use x="1634.326172" xlink:href="#ArialMT-111"/>
    <use x="1689.941406" xlink:href="#ArialMT-110"/>
    <use x="1745.556641" xlink:href="#ArialMT-115"/>
   </g>
  </g>
 </g>
 <defs>
  <clipPath id="p13cdf3eff7">
   <rect height="108.907238" width="390.6" x="63" y="67.9104"/>
  </clipPath>
  <clipPath id="pcbec229c52">
   <rect height="108.907238" width="390.6" x="63" y="246.589035"/>
  </clipPath>
  <clipPath id="p1d00c905a9">
   <rect height="108.907238" width="390.6" x="63" y="394.761562"/>
  </clipPath>
 </defs>
</svg>
